<svg width="500" height="501" viewBox="0 0 500 501" fill="none" xmlns="http://www.w3.org/2000/svg">
<g clip-path="url(#clip0_2395_11323)">
<path opacity="0.7" d="M499.016 303.519C493.546 260.119 476.376 216.939 454.016 181.639C424.966 135.709 378.516 98.8595 323.396 92.0295C284.396 87.1995 239.936 99.5095 209.776 125.919C194.754 138.906 183.269 155.489 176.396 174.119C169.016 194.389 165.866 217.609 149.966 233.519C130.846 252.639 104.456 261.779 84.7061 280.029C40.9261 320.489 53.7061 393.579 90.5861 433.949C123.806 470.289 173.066 463.569 217.396 470.439C251.016 475.639 280.116 494.599 314.486 498.179C364.196 503.369 415.486 486.729 451.986 452.359C494.396 412.319 505.846 357.749 499.016 303.519Z" fill="white"/>
<path d="M438.57 64.3604H83.43C78.222 64.3604 74 68.5823 74 73.7904V314.93C74 320.138 78.222 324.36 83.43 324.36H438.57C443.778 324.36 448 320.138 448 314.93V73.7904C448 68.5823 443.778 64.3604 438.57 64.3604Z" stroke="#263238" stroke-width="2" stroke-linecap="round" stroke-linejoin="round"/>
<path d="M432.57 90.7305H89.2695V121H432.57V90.7305Z" fill="#9E9E9E"/>
<path d="M273.84 81.8707H262.77C262.188 81.8707 261.612 81.7562 261.075 81.5335C260.537 81.3109 260.049 80.9846 259.637 80.5732C259.226 80.1619 258.9 79.6735 258.677 79.136C258.454 78.5986 258.34 78.0225 258.34 77.4407C258.34 76.2658 258.807 75.139 259.637 74.3083C260.468 73.4775 261.595 73.0107 262.77 73.0107H273.84C275.015 73.0107 276.142 73.4775 276.972 74.3083C277.803 75.139 278.27 76.2658 278.27 77.4407C278.27 78.0225 278.155 78.5986 277.933 79.136C277.71 79.6735 277.384 80.1619 276.972 80.5732C276.561 80.9846 276.073 81.3109 275.535 81.5335C274.998 81.7562 274.422 81.8707 273.84 81.8707Z" fill="#9E9E9E"/>
<path d="M311.49 81.8707H300.42C299.247 81.8681 298.123 81.4002 297.294 80.5697C296.465 79.7392 296 78.6139 296 77.4407C296 76.2658 296.467 75.139 297.298 74.3083C298.128 73.4775 299.255 73.0107 300.43 73.0107H311.5C312.675 73.0107 313.802 73.4775 314.632 74.3083C315.463 75.139 315.93 76.2658 315.93 77.4407C315.93 78.0233 315.815 78.6002 315.592 79.1383C315.369 79.6765 315.041 80.1653 314.629 80.5768C314.217 80.9883 313.727 81.3144 313.188 81.5364C312.65 81.7584 312.073 81.8721 311.49 81.8707Z" fill="#9E9E9E"/>
<path d="M349.141 81.8707H338.071C337.489 81.8707 336.913 81.7562 336.375 81.5335C335.838 81.3109 335.35 80.9846 334.938 80.5732C334.527 80.1619 334.2 79.6735 333.978 79.136C333.755 78.5986 333.641 78.0225 333.641 77.4407C333.641 76.859 333.755 76.2829 333.978 75.7455C334.2 75.208 334.527 74.7196 334.938 74.3083C335.35 73.8969 335.838 73.5706 336.375 73.348C336.913 73.1253 337.489 73.0107 338.071 73.0107H349.141C350.316 73.0107 351.442 73.4775 352.273 74.3083C353.104 75.139 353.571 76.2658 353.571 77.4407C353.571 78.0225 353.456 78.5986 353.233 79.136C353.011 79.6735 352.684 80.1619 352.273 80.5732C351.862 80.9846 351.373 81.3109 350.836 81.5335C350.298 81.7562 349.722 81.8707 349.141 81.8707Z" fill="#9E9E9E"/>
<path d="M386.799 81.8707H375.719C374.545 81.8681 373.42 81.4005 372.589 80.5703C371.759 79.7401 371.292 78.6148 371.289 77.4407C371.289 76.2658 371.756 75.139 372.587 74.3083C373.417 73.4775 374.544 73.0107 375.719 73.0107H386.799C387.974 73.0107 389.101 73.4775 389.932 74.3083C390.762 75.139 391.229 76.2658 391.229 77.4407C391.226 78.6148 390.759 79.7401 389.929 80.5703C389.098 81.4005 387.973 81.8681 386.799 81.8707Z" fill="#9E9E9E"/>
<path d="M424.449 81.8707H413.369C412.195 81.8681 411.07 81.4005 410.24 80.5703C409.41 79.7401 408.942 78.6148 408.939 77.4407C408.939 76.2658 409.406 75.139 410.237 74.3083C411.068 73.4775 412.195 73.0107 413.369 73.0107H424.449C425.624 73.0107 426.751 73.4775 427.582 74.3083C428.413 75.139 428.879 76.2658 428.879 77.4407C428.877 78.6148 428.409 79.7401 427.579 80.5703C426.749 81.4005 425.624 81.8681 424.449 81.8707Z" fill="#9E9E9E"/>
<path d="M432.561 130.591H177.121V279.721H432.561V130.591Z" fill="#9E9E9E"/>
<path d="M432.569 216.971L389.009 162.341L326.999 230.261L278.269 198.511L177.129 279.731H432.569V216.971Z" fill="white"/>
<path d="M341.42 178.467C349.309 172.336 350.734 160.971 344.604 153.082C338.474 145.193 327.109 143.768 319.22 149.898C311.331 156.028 309.905 167.393 316.036 175.282C322.166 183.171 333.531 184.597 341.42 178.467Z" fill="white"/>
<path d="M90.75 147.57H154.24" stroke="#9E9E9E" stroke-linecap="round" stroke-linejoin="round"/>
<path d="M90.75 157.91H154.24" stroke="#9E9E9E" stroke-linecap="round" stroke-linejoin="round"/>
<path d="M90.75 168.25H154.24" stroke="#9E9E9E" stroke-linecap="round" stroke-linejoin="round"/>
<path d="M90.75 178.58H154.24" stroke="#9E9E9E" stroke-linecap="round" stroke-linejoin="round"/>
<path d="M90.75 202.21H154.24" stroke="#9E9E9E" stroke-linecap="round" stroke-linejoin="round"/>
<path d="M90.75 212.54H154.24" stroke="#9E9E9E" stroke-linecap="round" stroke-linejoin="round"/>
<path d="M90.75 222.88H154.24" stroke="#9E9E9E" stroke-linecap="round" stroke-linejoin="round"/>
<path d="M90.75 233.21H154.24" stroke="#9E9E9E" stroke-linecap="round" stroke-linejoin="round"/>
<path d="M146.48 260.53H99.2305C94.9503 260.53 91.4805 264 91.4805 268.28V272.71C91.4805 276.99 94.9503 280.46 99.2305 280.46H146.48C150.761 280.46 154.23 276.99 154.23 272.71V268.28C154.23 264 150.761 260.53 146.48 260.53Z" fill="#C32C7B"/>
<path d="M246.83 312.021C246.832 311.278 246.614 310.552 246.202 309.934C245.791 309.315 245.205 308.833 244.52 308.548C243.834 308.263 243.079 308.188 242.351 308.332C241.623 308.477 240.953 308.834 240.428 309.359C239.903 309.884 239.546 310.553 239.402 311.282C239.257 312.01 239.332 312.765 239.617 313.45C239.903 314.136 240.385 314.722 241.003 315.133C241.621 315.544 242.348 315.763 243.09 315.761C244.082 315.761 245.033 315.367 245.735 314.665C246.436 313.964 246.83 313.013 246.83 312.021Z" fill="#9E9E9E"/>
<path d="M261.471 315.771C263.542 315.771 265.221 314.092 265.221 312.021C265.221 309.949 263.542 308.271 261.471 308.271C259.4 308.271 257.721 309.949 257.721 312.021C257.721 314.092 259.4 315.771 261.471 315.771Z" fill="#9E9E9E"/>
<path d="M283.6 312.021C283.602 311.279 283.383 310.553 282.972 309.935C282.562 309.317 281.977 308.834 281.292 308.549C280.607 308.264 279.852 308.188 279.124 308.332C278.396 308.475 277.727 308.831 277.202 309.356C276.676 309.88 276.318 310.548 276.172 311.275C276.027 312.003 276.101 312.758 276.384 313.443C276.668 314.129 277.148 314.716 277.765 315.128C278.382 315.541 279.108 315.761 279.85 315.761C280.842 315.761 281.795 315.367 282.498 314.666C283.201 313.965 283.597 313.014 283.6 312.021Z" fill="#9E9E9E"/>
<path d="M202.659 340.22H125.939V382.34H202.659V340.22Z" stroke="#263238" stroke-linecap="round" stroke-linejoin="round"/>
<path d="M133.459 352.26H192.879" stroke="#263238" stroke-linecap="round" stroke-linejoin="round"/>
<path d="M133.459 360.53H192.879" stroke="#263238" stroke-linecap="round" stroke-linejoin="round"/>
<path d="M133.459 368.8H192.879" stroke="#263238" stroke-linecap="round" stroke-linejoin="round"/>
<path d="M334.744 372.123C340.742 370.658 344.416 364.607 342.951 358.609C341.485 352.611 335.435 348.937 329.437 350.402C323.439 351.868 319.764 357.918 321.23 363.916C322.695 369.914 328.746 373.589 334.744 372.123Z" stroke="#263238" stroke-linecap="round" stroke-linejoin="round"/>
<path d="M340.079 361.23L328.059 354.29V368.17L340.079 361.23Z" stroke="#263238" stroke-linecap="round" stroke-linejoin="round"/>
<path d="M370.439 340.22H293.719V382.34H370.439V340.22Z" stroke="#263238" stroke-linecap="round" stroke-linejoin="round"/>
<path d="M367 380.5H299.23C298.797 380.5 298.383 380.329 298.077 380.023C297.771 379.717 297.6 379.303 297.6 378.87C297.6 378.438 297.771 378.023 298.077 377.718C298.383 377.412 298.797 377.24 299.23 377.24H367C367.432 377.24 367.847 377.412 368.152 377.718C368.458 378.023 368.63 378.438 368.63 378.87C368.63 379.303 368.458 379.717 368.152 380.023C367.847 380.329 367.432 380.5 367 380.5Z" stroke="#263238" stroke-linecap="round" stroke-linejoin="round"/>
<path d="M124 365.5H123" stroke="#263238" stroke-linecap="round" stroke-linejoin="round"/>
<path d="M120.919 365.5H97.0391" stroke="#263238" stroke-linecap="round" stroke-linejoin="round" stroke-dasharray="2.08 2.08"/>
<path d="M96 365.5H95V364.5" stroke="#263238" stroke-linecap="round" stroke-linejoin="round"/>
<path d="M95 362.45V326.53" stroke="#263238" stroke-linecap="round" stroke-linejoin="round" stroke-dasharray="2.05 2.05"/>
<path d="M95 325.5V324.5" stroke="#263238" stroke-linecap="round" stroke-linejoin="round"/>
<path d="M332 340.5V339.5" stroke="#263238" stroke-linecap="round" stroke-linejoin="round"/>
<path d="M332 337.5V326.5" stroke="#263238" stroke-linecap="round" stroke-linejoin="round" stroke-dasharray="2 2"/>
<path d="M332 325.5V324.5" stroke="#263238" stroke-linecap="round" stroke-linejoin="round"/>
<path d="M415.729 38.9605V34.4005H412.349C412.113 33.3928 411.714 32.4302 411.169 31.5505L413.559 29.1605L410.339 25.9405L407.999 28.3305C407.119 27.7852 406.156 27.3866 405.149 27.1505V23.7705H400.599V27.1505C399.591 27.3866 398.628 27.7852 397.749 28.3305L395.359 25.9405L392.139 29.1605L394.529 31.5505C393.983 32.4302 393.585 33.3928 393.349 34.4005H389.969V38.9605H393.349C393.585 39.9651 393.983 40.9244 394.529 41.8005L392.139 44.1905L395.359 47.4105L397.749 45.0205C398.628 45.5658 399.591 45.9644 400.599 46.2005V49.5805H405.149V46.2005C406.156 45.9644 407.119 45.5658 407.999 45.0205L410.389 47.4105L413.609 44.1905L411.219 41.8005C411.762 40.9235 412.161 39.9645 412.399 38.9605H415.729ZM402.819 42.5005C401.659 42.5005 400.526 42.1566 399.562 41.5122C398.598 40.8679 397.847 39.9521 397.404 38.8807C396.961 37.8094 396.845 36.6306 397.072 35.4936C397.299 34.3566 397.858 33.3125 398.679 32.4933C399.499 31.6742 400.544 31.1169 401.682 30.8919C402.819 30.6669 403.998 30.7844 405.068 31.2294C406.139 31.6745 407.053 32.4272 407.696 33.3921C408.339 34.3571 408.681 35.4911 408.679 36.6505C408.679 37.4196 408.527 38.1811 408.232 38.8915C407.938 39.6019 407.506 40.2473 406.962 40.7906C406.418 41.334 405.771 41.7647 405.061 42.0581C404.35 42.3515 403.588 42.5018 402.819 42.5005Z" stroke="#263238" stroke-linecap="round" stroke-linejoin="round"/>
<path d="M448.09 46.3602L450.48 40.5002L446.15 38.7302C446.375 37.3158 446.375 35.8746 446.15 34.4602L450.47 32.6502L448 26.8502L443.69 28.6602C442.851 27.5109 441.839 26.4988 440.69 25.6602L442.46 21.3402L436.61 18.9502L434.84 23.2702C433.429 23.0451 431.991 23.0451 430.58 23.2702L428.77 18.9502L422.94 21.3902L424.75 25.7102C423.598 26.5456 422.585 27.5581 421.75 28.7102L417.42 26.9402L415 32.8302L419.33 34.6002C419.105 36.0146 419.105 37.4558 419.33 38.8702L415 40.6802L417.48 46.5002L421.79 44.6902C422.629 45.8395 423.641 46.8515 424.79 47.6902L423.02 52.0202L428.87 54.4102L430.64 50.0802C432.051 50.3053 433.489 50.3053 434.9 50.0802L436.71 54.3902L442.54 51.9502L440.73 47.6302C441.884 46.7974 442.897 45.7845 443.73 44.6302L448.09 46.3602ZM429.67 44.1902C428.182 43.5835 426.908 42.5492 426.009 41.2181C425.109 39.887 424.625 38.319 424.616 36.7125C424.608 35.1059 425.077 33.5331 425.963 32.193C426.849 30.8528 428.113 29.8057 429.594 29.184C431.076 28.5623 432.708 28.3941 434.285 28.7005C435.862 29.0069 437.313 29.7743 438.454 30.9055C439.595 32.0367 440.374 33.4809 440.694 35.0553C441.014 36.6297 440.859 38.2636 440.25 39.7502C439.434 41.7408 437.862 43.3264 435.878 44.1588C433.895 44.9913 431.662 45.0025 429.67 44.1902Z" stroke="#263238" stroke-linecap="round" stroke-linejoin="round"/>
<path d="M73.9093 122.53H50.5293V44.7998H143.639V62.9998" stroke="#263238" stroke-linecap="round" stroke-linejoin="round" stroke-dasharray="2 2"/>
<path d="M68.999 52.5H57.459V64.04H68.999V52.5Z" stroke="#263238" stroke-linecap="round" stroke-linejoin="round" stroke-dasharray="2 2"/>
<path d="M382.069 36.8398H326.289V63.5698" stroke="#263238" stroke-linecap="round" stroke-linejoin="round" stroke-dasharray="2 2"/>
<path d="M450.629 37.4199H460.509V150.15H448.889" stroke="#263238" stroke-linecap="round" stroke-linejoin="round" stroke-dasharray="2 2"/>
<path d="M384.511 312.701C386.741 313.701 392.171 313.541 392.171 313.541C392.171 313.541 391.011 309.991 390.901 309.771C389.711 307.281 385.901 303.161 382.901 303.581C382.393 303.663 381.909 303.852 381.479 304.134C381.049 304.416 380.684 304.786 380.406 305.219C380.129 305.652 379.946 306.139 379.869 306.647C379.792 307.156 379.824 307.675 379.961 308.171C380.441 310.291 382.621 311.871 384.511 312.701Z" fill="#263238"/>
<path d="M455.691 294.2C452.611 293.87 448.95 298.09 447.83 300.61C447.73 300.83 446.601 304.42 446.661 304.42H446.731C446.141 305.08 445.531 305.8 444.87 306.59C443.67 308.07 442.321 309.75 440.981 311.68C439.524 313.745 438.189 315.892 436.981 318.11C435.603 320.589 434.448 323.186 433.531 325.87V325.97C433.531 325.07 433.531 322.53 433.531 322.33C433.181 319.59 430.881 314.51 427.841 313.94C427.332 313.861 426.812 313.89 426.315 314.025C425.819 314.159 425.356 314.397 424.957 314.723C424.558 315.048 424.232 315.454 424 315.913C423.768 316.373 423.635 316.876 423.61 317.39C423.43 319.57 425.01 321.75 426.55 323.12C428.29 324.67 433.11 326.17 433.49 326.29C432.635 329.045 431.967 331.855 431.49 334.7C431.19 336.36 430.951 338.03 430.721 339.7C430.721 338.92 430.721 338.21 430.721 338.12C430.361 335.37 428.07 330.29 425.02 329.72C424.513 329.643 423.994 329.673 423.498 329.808C423.003 329.944 422.541 330.182 422.143 330.507C421.745 330.832 421.42 331.237 421.189 331.696C420.958 332.155 420.825 332.657 420.8 333.17C420.62 335.35 422.2 337.53 423.74 338.9C425.28 340.27 429.381 341.66 430.471 342.01C430.391 342.65 430.301 343.3 430.231 343.95C429.851 347.05 429.5 350.16 429.05 353.19C428.9 354.26 428.71 355.3 428.52 356.35C428.52 355.65 428.52 355.07 428.52 354.98C428.16 352.24 425.871 347.15 422.821 346.59C422.313 346.509 421.794 346.537 421.298 346.67C420.801 346.804 420.339 347.041 419.941 347.366C419.542 347.69 419.217 348.096 418.986 348.555C418.755 349.014 418.624 349.517 418.601 350.03C418.421 352.21 420.001 354.39 421.541 355.76C423.081 357.13 426.79 358.39 428.08 358.81C427.85 359.87 427.63 360.94 427.36 361.97C427.16 362.66 427.021 363.34 426.781 364.03L426.121 366.03C425.661 367.3 425.191 368.63 424.701 369.86C424.371 370.72 424.041 371.54 423.701 372.36C423.871 371.3 424.151 369.21 424.151 369.04C424.121 366.609 423.467 364.226 422.251 362.12C422.27 361.851 422.27 361.58 422.251 361.31C422.187 360.799 422.017 360.308 421.751 359.867C421.484 359.427 421.128 359.048 420.705 358.754C420.283 358.461 419.803 358.26 419.297 358.164C418.791 358.069 418.271 358.081 417.77 358.2C414.77 359 412.88 364.25 412.77 367.01C412.77 367.17 412.861 368.95 412.951 370.07C412.801 369.42 412.661 368.78 412.501 368.07C412.181 366.75 411.831 365.44 411.501 364.07C411.291 363.39 411.091 362.71 410.881 362.02C410.671 361.33 410.401 360.63 410.161 359.93C409.561 358.31 408.891 356.7 408.161 355.09C409.321 354.82 413.411 353.77 415.061 352.51C416.711 351.25 418.431 349.2 418.421 347.01C418.434 346.493 418.338 345.978 418.138 345.5C417.938 345.022 417.64 344.592 417.262 344.238C416.884 343.884 416.435 343.613 415.946 343.445C415.456 343.276 414.936 343.214 414.421 343.26C411.341 343.59 408.67 348.5 408.11 351.2C408.11 351.37 407.901 353.36 407.821 354.45C407.381 353.45 406.941 352.53 406.471 351.57C405.091 348.8 403.611 346.04 402.15 343.28C401.7 342.43 401.27 341.58 400.83 340.74C401.24 340.64 406.141 339.51 407.981 338.09C409.621 336.84 411.351 334.78 411.341 332.59C411.354 332.073 411.258 331.558 411.058 331.08C410.858 330.602 410.56 330.172 410.182 329.818C409.804 329.464 409.356 329.193 408.866 329.025C408.376 328.856 407.856 328.794 407.341 328.84C404.261 329.18 401.591 334.08 401.031 336.84C401.031 337.04 400.731 339.9 400.701 340.63C399.701 338.77 398.79 336.9 397.93 335.02C396.76 332.489 395.758 329.883 394.93 327.22C395.12 327.17 400.231 326.01 402.121 324.56C403.76 323.3 405.501 321.25 405.481 319.06C405.496 318.542 405.4 318.027 405.201 317.548C405.002 317.07 404.703 316.639 404.325 316.284C403.947 315.93 403.498 315.659 403.008 315.492C402.517 315.324 401.997 315.262 401.481 315.31C398.411 315.65 395.74 320.55 395.18 323.26C395.13 323.47 394.861 326.55 394.851 327.11C394.801 326.95 394.731 326.8 394.691 326.64C393.92 323.946 393.395 321.189 393.121 318.4C392.951 316.87 392.87 315.4 392.83 313.95C393.83 313.83 398.251 313.24 400.091 312.12C401.931 311 403.811 309.2 404.041 307.02C404.109 306.511 404.071 305.993 403.927 305.5C403.783 305.007 403.537 304.55 403.205 304.158C402.873 303.766 402.463 303.448 402.001 303.224C401.538 303.001 401.034 302.877 400.52 302.86C397.42 302.86 394.231 307.44 393.381 310.06C393.381 310.21 393.021 311.71 392.811 312.81C392.811 312.16 392.811 311.49 392.811 310.87C392.811 308.53 392.96 306.38 393.11 304.49C393.2 303.41 393.301 302.44 393.411 301.49C394.311 300.87 397.89 298.34 398.99 296.49C400.09 294.64 400.941 292.18 400.141 290.15C399.968 289.671 399.697 289.233 399.345 288.865C398.993 288.497 398.568 288.206 398.098 288.011C397.627 287.816 397.121 287.721 396.612 287.733C396.103 287.745 395.601 287.864 395.141 288.08C392.391 289.5 391.661 295.03 392.141 297.76C392.141 297.99 393.221 301.61 393.261 301.58H393.321C393.201 302.45 393.081 303.39 392.971 304.42C392.781 306.32 392.581 308.42 392.531 310.81C392.444 313.342 392.504 315.876 392.71 318.4C392.93 321.23 393.402 324.034 394.121 326.78C394.116 326.81 394.116 326.84 394.121 326.87C393.631 326.11 392.201 324.02 392.071 323.87C390.261 321.78 385.541 318.8 382.691 320.01C382.222 320.224 381.804 320.535 381.464 320.921C381.123 321.307 380.868 321.761 380.714 322.252C380.561 322.743 380.512 323.262 380.572 323.773C380.631 324.284 380.798 324.777 381.061 325.22C382.121 327.13 384.64 328.08 386.68 328.37C388.98 328.71 393.831 327.3 394.221 327.19C395.015 329.967 395.997 332.687 397.161 335.33C397.831 336.87 398.551 338.41 399.291 339.94C398.841 339.29 398.441 338.71 398.381 338.64C396.571 336.55 391.851 333.57 389.001 334.78C388.532 334.994 388.114 335.304 387.774 335.691C387.433 336.077 387.178 336.531 387.025 337.023C386.873 337.515 386.825 338.033 386.886 338.544C386.948 339.056 387.116 339.548 387.381 339.99C388.431 341.9 390.95 342.85 392.99 343.15C395.03 343.45 399.221 342.33 400.321 342.02C400.611 342.61 400.891 343.19 401.191 343.77C402.591 346.57 404.001 349.35 405.311 352.13C405.761 353.13 406.181 354.08 406.601 355.06C406.211 354.49 405.871 354.01 405.811 353.94C404.001 351.85 399.28 348.87 396.43 350.08C395.963 350.295 395.546 350.606 395.207 350.993C394.867 351.38 394.613 351.833 394.46 352.324C394.307 352.816 394.26 353.334 394.32 353.845C394.38 354.356 394.548 354.848 394.811 355.29C395.861 357.2 398.381 358.15 400.421 358.45C402.461 358.75 406.25 357.74 407.55 357.38C407.95 358.38 408.361 359.38 408.701 360.38C408.921 361.07 409.18 361.71 409.36 362.38L409.93 364.44C410.25 365.76 410.58 367.12 410.86 368.44C411.06 369.34 411.231 370.21 411.411 371.07C410.971 370.07 410.05 368.2 409.96 368.07C408.49 365.73 404.27 362.07 401.27 362.84C400.776 362.981 400.316 363.224 399.922 363.554C399.527 363.884 399.207 364.294 398.981 364.756C398.756 365.219 398.63 365.723 398.613 366.238C398.595 366.752 398.687 367.264 398.881 367.74C399.631 369.79 401.971 371.11 403.951 371.74C406.121 372.4 410.951 371.8 411.541 371.74C411.821 373.17 412.091 374.58 412.321 375.9C413.131 380.5 413.631 384.36 413.941 387.06C414.001 387.54 414.051 387.97 414.091 388.37H404.77L408.18 454.75H424.05L427.451 388.37H418.77C418.84 388.24 418.9 388.11 418.96 387.97C420.16 385.49 421.811 381.97 423.591 377.56C424.161 376.19 424.741 374.7 425.321 373.18C425.901 373.3 430.661 374.27 432.881 373.76C434.881 373.31 437.34 372.17 438.24 370.18C438.469 369.721 438.598 369.219 438.62 368.706C438.642 368.193 438.556 367.682 438.367 367.205C438.179 366.728 437.892 366.296 437.526 365.936C437.159 365.577 436.721 365.299 436.24 365.12C433.3 364.12 428.82 367.46 427.181 369.69C427.081 369.82 426.181 371.36 425.651 372.34L426.001 370.5C426.461 369.23 426.89 367.94 427.36 366.56C427.56 365.88 427.771 365.2 427.971 364.51C428.171 363.82 428.341 363.08 428.531 362.36C428.921 360.69 429.251 358.97 429.531 357.23C430.651 357.64 434.651 359.03 436.721 358.88C438.791 358.73 441.36 357.98 442.55 356.15C442.846 355.729 443.05 355.251 443.148 354.746C443.246 354.241 443.237 353.722 443.121 353.221C443.005 352.72 442.785 352.249 442.474 351.839C442.164 351.428 441.771 351.088 441.321 350.84C438.571 349.42 433.64 352.04 431.681 353.99C431.55 354.11 430.311 355.67 429.681 356.53C429.84 355.53 430.011 354.45 430.141 353.38C430.521 350.31 430.811 347.19 431.141 344.09C431.231 343.09 431.331 342.18 431.431 341.24C431.831 341.38 436.54 343.14 438.86 342.98C440.92 342.83 443.501 342.07 444.691 340.24C444.986 339.819 445.19 339.341 445.288 338.836C445.386 338.331 445.377 337.812 445.261 337.311C445.145 336.81 444.925 336.339 444.614 335.929C444.304 335.518 443.911 335.178 443.46 334.93C440.71 333.51 435.781 336.13 433.821 338.08C433.671 338.23 431.881 340.47 431.451 341.08C431.671 338.99 431.911 336.91 432.231 334.87C432.65 332.109 433.244 329.376 434.011 326.69C434.201 326.76 439.111 328.61 441.481 328.45C443.541 328.3 446.121 327.55 447.321 325.71C447.615 325.289 447.817 324.811 447.914 324.306C448.012 323.802 448.002 323.282 447.886 322.782C447.77 322.281 447.551 321.811 447.241 321.4C446.932 320.99 446.54 320.649 446.09 320.4C443.331 318.99 438.401 321.6 436.441 323.55C436.291 323.7 434.361 326.12 434.041 326.55C434.091 326.4 434.121 326.23 434.171 326.08C435.016 323.408 436.1 320.818 437.411 318.34C438.111 316.96 438.861 315.69 439.621 314.46C440.501 314.9 444.531 316.86 446.691 316.94C448.851 317.02 451.401 316.56 452.791 314.87C453.129 314.484 453.382 314.031 453.534 313.54C453.686 313.05 453.733 312.533 453.673 312.023C453.612 311.513 453.446 311.022 453.183 310.58C452.921 310.139 452.569 309.757 452.15 309.46C449.57 307.74 444.381 309.8 442.221 311.52C442.101 311.62 441.011 312.7 440.221 313.52C440.571 312.98 440.92 312.4 441.27 311.89C442.56 309.89 443.871 308.23 445.041 306.73C445.711 305.88 446.331 305.13 446.921 304.43C448.011 304.43 452.39 304.27 454.3 303.37C456.21 302.47 458.301 300.86 458.761 298.72C458.886 298.22 458.905 297.698 458.815 297.19C458.725 296.682 458.528 296.199 458.238 295.772C457.949 295.345 457.572 294.985 457.133 294.714C456.693 294.443 456.202 294.268 455.691 294.2ZM421.61 376.89C419.75 381.17 418.041 384.67 416.811 387.09L416.131 388.41H415.931C415.87 387.94 415.801 387.41 415.721 386.84C415.341 384.11 414.72 380.23 413.83 375.61C413.55 374.14 413.21 372.61 412.83 370.99C414.28 370.412 415.693 369.744 417.061 368.99C418.651 370.71 422.711 372.72 423.231 372.99C422.701 374.34 422.15 375.66 421.61 376.89Z" fill="#263238"/>
<path d="M439.471 313.89C439.471 313.89 440.471 310.28 440.471 310.04C440.851 307.31 439.981 301.79 437.191 300.45C436.722 300.236 436.213 300.124 435.697 300.12C435.181 300.117 434.671 300.222 434.199 300.43C433.727 300.638 433.304 300.943 432.958 301.326C432.612 301.708 432.351 302.16 432.191 302.65C431.441 304.71 432.392 307.23 433.512 308.96C434.872 310.99 439.471 313.89 439.471 313.89Z" fill="#263238"/>
<path d="M257.371 435.601L256.511 451.921H254.791L254.221 437.601L257.371 435.601Z" fill="white" stroke="#263238" stroke-linecap="round" stroke-linejoin="round"/>
<path d="M232.73 331.9L237.89 355.1C237.89 355.1 234.74 370.86 238.18 384.9C241.62 398.94 247.91 421.27 247.91 425C247.91 428.73 243.91 440.75 242.76 445.33C241.61 449.91 239.89 450.2 239.32 452.78C238.75 455.36 250.49 454.5 252.5 453.64C254.51 452.78 255.36 445.91 255.36 443.04C255.36 440.17 256.22 438.17 257.36 435.6C258.5 433.03 258.79 430.44 257.36 427.86C256.361 426.211 255.771 424.345 255.64 422.42C255.64 421.56 259.36 378.88 259.36 366.85C259.36 354.82 259.08 341.07 259.36 339.35C259.64 337.63 260.22 334.77 260.22 334.77L232.73 331.9Z" fill="white" stroke="#263238" stroke-linecap="round" stroke-linejoin="round"/>
<path d="M257.369 435.6C258.509 433.02 258.799 430.44 257.369 427.86C257.169 427.51 256.999 427.18 256.849 426.86C256.813 428.349 256.699 429.834 256.509 431.31C255.939 435.61 253.929 439.31 253.929 443.31C253.929 447.31 251.929 448.47 251.069 448.47C250.209 448.47 243.679 448.66 241.469 448.73C240.589 450.34 239.699 451.05 239.319 452.73C238.749 455.31 250.489 454.45 252.499 453.59C254.509 452.73 255.359 445.86 255.359 442.99C255.359 440.12 256.219 438.17 257.369 435.6Z" fill="#263238" stroke="#263238" stroke-linecap="round" stroke-linejoin="round"/>
<path d="M256.51 334.19C256.51 334.19 257.94 359.12 257.94 371.19C257.94 383.26 261.09 414.19 261.09 417.88C261.09 421.57 260.23 432.2 259.66 438.5C259.09 444.8 255.66 451.68 256.51 453.11C257.36 454.54 259.37 454.83 260.23 454.83C261.09 454.83 267.97 454.54 268.83 453.97C269.69 453.4 270.83 450.53 271.4 440.79C271.97 431.05 269.68 422.17 270.83 416.73C271.98 411.29 279.71 383.79 280.28 372.62C280.85 361.45 278.56 351.71 278.85 345.69C279.215 340.88 279.883 336.097 280.85 331.37L256.5 332.23L256.51 334.19Z" fill="white" stroke="#263238" stroke-linecap="round" stroke-linejoin="round"/>
<path d="M223.57 271.501C221.574 281.877 220.902 292.465 221.57 303.011C222.72 320.201 231.88 334.231 231.88 334.231C231.88 334.231 238.76 338.231 261.1 337.961C279.43 337.721 285.45 333.381 285.45 333.381C285.45 333.381 292.61 311.031 292.61 296.141C292.61 281.251 290.32 273.221 290.32 273.221L224.72 266.351L223.57 271.501Z" fill="#263238" stroke="#263238" stroke-linecap="round" stroke-linejoin="round"/>
<path d="M253.07 176.65L228.39 185.43C228.39 185.43 216.39 229.07 216.98 231.65C217.57 234.23 232.45 235.37 232.45 235.37L221 271.5C221 271.5 223.58 277.5 228.73 280.1C233.88 282.7 246.78 285.83 246.78 285.83L251.08 278.95L253.65 286.11C253.65 286.11 269.65 287.83 281.44 283.25C293.23 278.67 296.05 276.95 296.05 276.95L284.87 242.5L288.3 232.5L304.66 235.83C304.66 235.83 300.91 188.1 299.47 186.95C298.03 185.8 268.83 178.36 266.82 177.79C264.81 177.22 256.51 175.5 253.07 176.65Z" fill="#C32C7B" stroke="#263238" stroke-linecap="round" stroke-linejoin="round"/>
<path d="M258.509 172.07C257.153 171.876 255.77 172.009 254.476 172.457C253.182 172.906 252.014 173.658 251.069 174.65C247.629 178.08 243.619 194.41 243.619 194.41L250.489 194.98L245.339 199.85L255.649 213.6L260.519 214.18L273.119 202.72L269.969 196.72H280.279C280.279 196.72 281.139 182.11 277.699 176.1C274.259 170.09 258.509 172.07 258.509 172.07Z" fill="white" stroke="#263238" stroke-linecap="round" stroke-linejoin="round"/>
<path d="M269.68 127.881C272.388 129.971 274.629 132.604 276.26 135.611C277.7 138.481 278.56 142.781 280.26 143.611C281.96 144.441 285.42 143.901 285.42 146.191C285.42 148.481 282.56 149.921 282.56 150.781C282.56 151.641 283.13 163.951 282.56 166.241C281.99 168.531 274.82 168.821 273.96 169.111C273.1 169.401 257.06 224.681 257.06 224.681L252.48 225.251L256.2 168.821C256.2 168.821 251.05 168.821 247.04 160.821C243.03 152.821 251.91 145.641 257.64 139.051C261.265 134.929 265.299 131.187 269.68 127.881Z" fill="white" stroke="#263238" stroke-linecap="round" stroke-linejoin="round"/>
<path d="M258.269 203.38L254.269 197.82L252.459 225.27L257.039 224.7C257.039 224.7 260.719 212.04 264.639 198.81L258.269 203.38Z" fill="white" stroke="#263238" stroke-linecap="round" stroke-linejoin="round"/>
<path d="M252.779 158.5C252.779 158.5 257.649 158.5 258.779 154.78C259.4 153.022 259.787 151.19 259.929 149.33C259.929 149.33 268.229 137.59 272.529 131.57C276.829 125.55 271.099 120.4 262.529 120.4C255.189 120.4 241.049 126.99 235.039 135.58C229.029 144.17 235.609 157.64 240.189 161.94C244.769 166.24 249.359 167.94 251.939 166.52C254.519 165.1 252.779 158.5 252.779 158.5Z" fill="#263238" stroke="#263238" stroke-linecap="round" stroke-linejoin="round"/>
<path d="M236.74 134.5C235.809 131.241 233.908 128.342 231.29 126.19C227 122.75 216.68 126.48 212.1 134.5C207.52 142.52 216.68 150.25 217.54 152.83C218.4 155.41 214.68 155.41 214.11 158.56C213.54 161.71 217.26 163.72 219.55 164.86C221.84 166 220.12 166.01 218.98 170.59C217.84 175.17 219.26 178.04 226.71 178.04C234.16 178.04 232.44 170.88 231.58 168.59C230.72 166.3 233.3 168.59 235.3 164C237.3 159.41 232.15 152.26 232.15 148.82C232.15 145.38 239 142.78 236.74 134.5Z" fill="#263238" stroke="#263238" stroke-linecap="round" stroke-linejoin="round"/>
<path d="M275.36 144.05C275.68 145.19 275.43 146.26 274.82 146.42C274.21 146.58 273.47 145.8 273.15 144.65C272.83 143.5 273.08 142.44 273.69 142.28C274.3 142.12 275.05 142.91 275.36 144.05Z" fill="#263238"/>
<path d="M270 141.06C270 141.06 272 136.76 275.44 138.48" stroke="#263238" stroke-linecap="round" stroke-linejoin="round"/>
<path d="M282 155.091C282 155.091 278.85 156.811 276.27 155.671" stroke="#263238" stroke-linecap="round" stroke-linejoin="round"/>
<path d="M256.5 159.1C256.5 159.1 251.06 152.8 248.19 157.67C245.32 162.54 249.34 166.55 253.35 167.12C257.36 167.69 258.79 165.12 258.79 165.12" fill="white"/>
<path d="M256.5 159.1C256.5 159.1 251.06 152.8 248.19 157.67C245.32 162.54 249.34 166.55 253.35 167.12C257.36 167.69 258.79 165.12 258.79 165.12" stroke="#263238" stroke-linecap="round" stroke-linejoin="round"/>
<path d="M296.61 226.5L255.08 230.5L248.49 237.66C248.49 237.66 271.4 242.25 286.3 243.66C301.2 245.07 304.09 244.45 304.66 242.45C305.23 240.45 304.06 227.05 304.06 227.05" fill="#C32C7B"/>
<path d="M296.61 226.5L255.08 230.5L248.49 237.66C248.49 237.66 271.4 242.25 286.3 243.66C301.2 245.07 304.09 244.45 304.66 242.45C305.23 240.45 304.06 227.05 304.06 227.05" stroke="#263238" stroke-linecap="round" stroke-linejoin="round"/>
<path d="M286.299 227.64L284.869 204.15" stroke="#263238" stroke-linecap="round" stroke-linejoin="round"/>
<path d="M233.59 218.471L236.74 200.431" stroke="#263238" stroke-linecap="round" stroke-linejoin="round"/>
<path d="M248.2 223.91C248.2 223.91 235.31 219.04 233.59 218.47C231.87 217.9 228.44 219.33 225.59 221.34C222.74 223.35 221.59 224.2 221.59 224.2C223.02 225.63 246.8 225.35 246.8 225.35C246.8 225.35 249.35 226.78 248.2 223.91Z" fill="white" stroke="#263238" stroke-linecap="round" stroke-linejoin="round"/>
<path d="M272.26 224.2C272.26 224.2 280.57 222.48 282 223.34C283.43 224.2 289.45 226.49 289.45 226.49L282 229.36L273.69 230.79L272.26 224.2Z" fill="white" stroke="#263238" stroke-linecap="round" stroke-linejoin="round"/>
<path d="M276.27 230.791L274 223.051L225 224.201C225 224.201 218.7 222.201 216.12 227.641C213.54 233.081 211.54 241.961 216.69 243.971C221.84 245.981 273.69 231.081 276.27 230.791Z" fill="#C32C7B" stroke="#263238" stroke-linecap="round" stroke-linejoin="round"/>
<path d="M251.64 238.24L249.92 276.33" stroke="#263238" stroke-linecap="round" stroke-linejoin="round"/>
<path d="M270.259 434.16C269.969 439.61 269.109 446.16 267.389 447.91C265.669 449.66 257.939 447.91 257.939 447.91L257.389 448.09C256.649 450.53 256.109 452.4 256.509 453.09C257.369 454.52 259.369 454.81 260.229 454.81C261.089 454.81 267.969 454.52 268.829 453.95C269.689 453.38 270.829 450.51 271.399 440.77C271.564 435.819 271.363 430.862 270.799 425.94C270.719 426.87 270.489 429.77 270.259 434.16Z" fill="#263238" stroke="#263238" stroke-linecap="round" stroke-linejoin="round"/>
</g>
<defs>
<clipPath id="clip0_2395_11323">
<rect width="500" height="500" fill="white" transform="translate(0 0.5)"/>
</clipPath>
</defs>
</svg>
