<svg width="70" height="70" viewBox="0 0 70 70" fill="none" xmlns="http://www.w3.org/2000/svg">
<g clip-path="url(#clip0_5071_21768)">
<path d="M68.841 11.9609H56.1403C55.5002 11.9609 54.9815 12.4798 54.9815 13.1198C54.9815 13.7597 55.5002 14.2786 56.1403 14.2786H61.8376C62.3304 17.2664 64.6944 19.6303 67.6822 20.1232V33.6532C64.6944 34.146 62.3304 36.51 61.8376 39.4978H19.513C19.0203 36.51 16.6563 34.1461 13.6684 33.6532V20.1232C16.6563 19.6304 19.0201 17.2664 19.513 14.2786H52.1567C52.7968 14.2786 53.3156 13.7597 53.3156 13.1198C53.3156 12.4798 52.7968 11.9609 52.1567 11.9609H12.5095C11.8695 11.9609 11.3506 12.4798 11.3506 13.1198V40.6565C11.3506 41.2965 11.8695 41.8153 12.5095 41.8153H44.4986V45.2146H2.31765V32.4966C2.31765 31.2503 3.33169 30.2362 4.57802 30.2362H8.64635C9.28633 30.2362 9.80518 29.7174 9.80518 29.0774C9.80518 28.4374 9.28633 27.9186 8.64635 27.9186H4.57788C2.05379 27.9189 0 29.9724 0 32.4967V53.461C0 55.9852 2.05379 58.0389 4.57788 58.0389H42.2384C44.7627 58.0389 46.8162 55.9852 46.8162 53.461V41.8155H68.841C69.4811 41.8155 69.9999 41.2966 69.9999 40.6566V13.1198C69.9999 12.4798 69.4811 11.9609 68.841 11.9609ZM13.6683 14.2786H17.1486C16.722 15.9859 15.3756 17.3323 13.6683 17.7589V14.2786ZM13.6683 39.4977V36.0174C15.3756 36.4439 16.722 37.7903 17.1486 39.4977H13.6683ZM44.4986 49.6954H11.4507C10.8107 49.6954 10.2919 50.2142 10.2919 50.8542C10.2919 51.4942 10.8107 52.013 11.4507 52.013H44.4987V53.4609C44.4987 54.7073 43.4848 55.7212 42.2386 55.7212H4.57788C3.33156 55.7212 2.31751 54.7072 2.31751 53.4609V52.013H7.1244C7.76438 52.013 8.28323 51.4942 8.28323 50.8542C8.28323 50.2142 7.76438 49.6954 7.1244 49.6954H2.31765V47.5322H44.4986V49.6954ZM67.6822 39.4977H64.2019C64.6285 37.7903 65.9749 36.4439 67.6822 36.0174V39.4977ZM67.6822 17.7589C65.9749 17.3323 64.6285 15.9859 64.2019 14.2786H67.6822V17.7589Z" fill="#3A3A3A"/>
<path d="M40.6751 16.2939C35.9127 16.2939 32.0381 21.0466 32.0381 26.888C32.0381 32.7296 35.9127 37.482 40.6751 37.482C45.4376 37.482 49.3122 32.7294 49.3122 26.888C49.3122 21.0464 45.4376 16.2939 40.6751 16.2939ZM40.6753 35.1644C37.1907 35.1644 34.3559 31.4515 34.3559 26.888C34.3559 22.3245 37.1909 18.6116 40.6753 18.6116C44.1598 18.6116 46.9947 22.3245 46.9947 26.888C46.9947 31.4515 44.1598 35.1644 40.6753 35.1644Z" fill="#C32C7B"/>
<path d="M64.3678 24.2617H52.9059C52.2658 24.2617 51.7471 24.7806 51.7471 25.4205C51.7471 26.0605 52.2658 26.5794 52.9059 26.5794H64.3678C65.0079 26.5794 65.5267 26.0605 65.5267 25.4205C65.5267 24.7806 65.0079 24.2617 64.3678 24.2617Z" fill="#3A3A3A"/>
<path d="M27.8855 24.2617H16.4235C15.7835 24.2617 15.2646 24.7806 15.2646 25.4205C15.2646 26.0605 15.7835 26.5794 16.4235 26.5794H27.8855C28.5255 26.5794 29.0444 26.0605 29.0444 25.4205C29.0444 24.7806 28.5255 24.2617 27.8855 24.2617Z" fill="#3A3A3A"/>
<path d="M64.3678 28.2109H58.0778C57.4377 28.2109 56.9189 28.7298 56.9189 29.3698C56.9189 30.0097 57.4377 30.5286 58.0778 30.5286H64.3678C65.0079 30.5286 65.5266 30.0097 65.5266 29.3698C65.5266 28.7298 65.0079 28.2109 64.3678 28.2109Z" fill="#3A3A3A"/>
<path d="M22.7135 28.2109H16.4235C15.7835 28.2109 15.2646 28.7298 15.2646 29.3698C15.2646 30.0097 15.7835 30.5286 16.4235 30.5286H22.7135C23.3535 30.5286 23.8723 30.0097 23.8723 29.3698C23.8723 28.7298 23.3535 28.2109 22.7135 28.2109Z" fill="#3A3A3A"/>
<path d="M44.0308 25.7296H38.4788V23.9779H44.0308C44.6709 23.9779 45.1896 23.4591 45.1896 22.8191C45.1896 22.1791 44.6709 21.6603 44.0308 21.6603H41.8343V20.4938C41.8343 19.8538 41.3156 19.335 40.6754 19.335C40.0353 19.335 39.5166 19.8538 39.5166 20.4938V21.6603H37.32C36.6798 21.6603 36.1611 22.1791 36.1611 22.8191V26.8884C36.1611 27.5284 36.6798 28.0472 37.32 28.0472H42.872V29.7988H37.32C36.6798 29.7988 36.1611 30.3177 36.1611 30.9577C36.1611 31.5977 36.6798 32.1165 37.32 32.1165H39.5166V33.283C39.5166 33.923 40.0353 34.4418 40.6754 34.4418C41.3156 34.4418 41.8343 33.923 41.8343 33.283V32.1165H44.0308C44.6709 32.1165 45.1896 31.5977 45.1896 30.9577V26.8884C45.1896 26.2484 44.6709 25.7296 44.0308 25.7296Z" fill="#C32C7B"/>
</g>
<defs>
<clipPath id="clip0_5071_21768">
<rect width="70" height="70" fill="white"/>
</clipPath>
</defs>
</svg>
