<svg width="194" height="167" viewBox="0 0 194 167" fill="none" xmlns="http://www.w3.org/2000/svg">
<path d="M134.688 159.364H130.562V159.483H134.688V159.364Z" fill="#EBEBEB"/>
<path d="M174.831 153.668H165.721V153.787H174.831V153.668Z" fill="#EBEBEB"/>
<path d="M157.032 111.403C157.032 111.403 163.584 105.232 163.474 101.173C163.365 97.1141 159.382 106.623 159.287 104.624C159.192 102.626 163.816 96.8862 164.011 92.965C164.206 89.0438 159.306 100 159.045 98.187C158.784 96.3735 163.531 88.194 163.493 85.3457C163.455 82.4973 159.344 92.5663 158.746 90.786C158.148 89.0058 162.169 82.3502 161.12 77.3703C160.071 72.3905 157.906 85.4406 157.574 83.7981C157.241 82.1556 160.023 73.6248 158.048 70.2257C156.074 66.8267 156.624 79.4306 155.964 77.9637C155.304 76.4968 154.887 69.2715 152.385 66.8125C149.883 64.3534 153.045 74.09 152.276 74.5837C151.507 75.0774 147.937 67.8236 146.973 69.2003C146.009 70.577 152.048 78.3672 152.105 80.2282C152.162 82.0891 147.234 77.1187 146.793 79.1363C146.351 81.1539 153.652 84.3298 154.027 86.2572C154.402 88.1846 147.951 84.7333 147.979 86.7319C148.008 88.7305 154.118 89.7891 154.483 92.0488C154.849 94.3085 148.497 90.411 148.848 93.0647C149.2 95.7184 153.467 95.1962 153.956 97.812C154.445 100.428 149.541 97.4464 149.726 99.9292C149.912 102.412 154.811 102.687 155.323 104.582C155.836 106.476 150.647 103.699 150.79 105.711C150.932 107.724 156.012 107.952 157.032 111.403Z" fill="#E0E0E0"/>
<path d="M156.492 120.186C157.365 115.616 157.826 110.977 157.868 106.324C158.115 96.2171 156.843 86.0248 153.477 76.4686C153.23 75.7707 152.096 76.0224 152.343 76.7249C155.666 86.2194 156.947 96.2693 156.705 106.286C156.672 110.842 156.229 115.386 155.381 119.863C155.234 120.589 156.33 120.941 156.492 120.21V120.186Z" fill="#F0F0F0"/>
<path d="M158.95 113.492C158.95 113.492 154.398 104.776 155.851 98.8709C157.303 92.9653 158.367 106.713 159.045 103.424C159.724 100.134 156.895 93.7534 159.53 89.0061C162.164 84.2589 159.724 97.912 161.467 94.9117C163.209 91.9115 161.167 84.2589 163.598 81.3441C166.029 78.4293 164.372 87.6389 165.53 86.1863C166.688 84.7336 166.404 77.9593 168.246 76.407C170.088 74.8546 168.435 82.8964 169.404 81.3441C170.372 79.7917 172.599 72.7278 175.699 71.8496C178.799 70.9714 173.667 76.2028 175.699 75.7186C177.731 75.2344 182.378 74.171 182.767 76.3025C183.157 78.434 172.988 80.7554 171.825 83.3712C170.662 85.9869 176.473 81.3346 177.522 83.2715C178.571 85.2083 168.611 87.919 167.837 90.8243C167.063 93.7296 176.069 88.4032 175.874 91.4082C175.68 94.4133 165.511 94.9877 165.027 97.6034C164.543 100.219 173.358 94.6981 173.064 97.3138C172.77 99.9296 163.964 101.961 163.384 104.767C162.805 107.573 169.869 102.156 170.064 104.382C170.258 106.609 158.95 113.492 158.95 113.492Z" fill="#EBEBEB"/>
<path d="M152.513 113.217C152.513 113.217 156.919 105.36 155.604 101.525C154.289 97.6888 153.33 107.995 152.623 106.096C151.915 104.197 154.631 97.3612 153.643 93.5634C152.656 89.7656 151.27 101.681 150.458 100.001C149.646 98.3202 151.754 89.1295 150.866 86.4236C149.978 83.7176 149.062 94.5556 147.956 93.0317C146.85 91.5079 148.701 83.9597 146.228 79.5116C143.755 75.0634 145.578 88.1895 144.766 86.7084C143.954 85.2273 144.063 76.2645 141.168 73.6155C138.272 70.9665 142.592 82.8204 141.495 81.6194C140.399 80.4183 137.863 73.6487 134.74 72.0489C131.616 70.4491 137.545 78.7995 136.962 79.4973C136.378 80.1952 130.79 74.3466 130.292 75.9464C129.793 77.5462 137.887 83.1764 138.485 84.9377C139.084 86.6989 132.907 83.4233 133.088 85.4836C133.268 87.5439 141.191 88.3889 142.108 90.1169C143.024 91.8449 135.855 90.4825 136.477 92.3719C137.099 94.2613 143.247 93.4542 144.272 95.5003C145.298 97.5464 138.072 95.7282 139.197 98.154C140.323 100.58 144.244 98.8091 145.492 101.159C146.741 103.509 141.172 102.108 142.093 104.444C143.014 106.78 147.766 105.555 148.82 107.212C149.874 108.869 144.073 107.762 144.832 109.642C145.592 111.522 150.51 110.245 152.513 113.217Z" fill="#EBEBEB"/>
<path d="M154.626 121.762C154.084 117.14 153.131 112.575 151.777 108.123C148.986 98.4052 144.728 89.0579 138.656 80.9401C138.215 80.3515 137.203 80.9401 137.654 81.5288C143.669 89.5706 147.894 98.7993 150.657 108.431C151.987 112.783 152.926 117.244 153.463 121.762C153.534 122.497 154.697 122.502 154.626 121.762Z" fill="#F0F0F0"/>
<path d="M158.756 120.656C158.939 116.612 159.415 112.587 160.181 108.612C161.576 100.936 163.803 93.0933 168.094 86.4994C170.539 82.7348 173.744 79.5114 177.84 77.5888C178.519 77.2707 177.931 76.2691 177.256 76.5824C169.927 80.0289 165.536 87.3634 162.749 94.6647C160.162 101.463 158.728 108.702 157.968 115.923C157.802 117.494 157.655 119.075 157.603 120.67C157.579 121.42 158.737 121.415 158.766 120.67L158.756 120.656Z" fill="#F5F5F5"/>
<path d="M168.241 118.4H144.229L146.94 144.088V150.283H165.53V144.088L168.241 118.4Z" fill="#EBEBEB"/>
<path d="M20.6733 16.6482C20.656 16.5692 20.6546 16.4877 20.6691 16.4082C20.6837 16.3287 20.714 16.2529 20.7582 16.1853C20.8024 16.1177 20.8596 16.0595 20.9266 16.0143C20.9935 15.9691 21.0688 15.9376 21.1481 15.9218C21.2643 15.8996 21.3845 15.9121 21.4936 15.9578C21.6028 16.0034 21.6961 16.0802 21.762 16.1785C21.8279 16.2768 21.8633 16.3923 21.864 16.5106C21.8647 16.6289 21.8305 16.7448 21.7658 16.8439C21.7011 16.9429 21.6086 17.0207 21.5 17.0676C21.3913 17.1145 21.2713 17.1283 21.1548 17.1075C21.0383 17.0866 20.9306 17.0319 20.845 16.9503C20.7593 16.8686 20.6997 16.7635 20.6733 16.6482ZM21.1481 18.153L22.05 17.9536L23.1419 22.9335L22.2399 23.1329L21.1481 18.153Z" fill="#E0E0E0"/>
<path d="M7.12912 23.3227C6.96318 22.4107 7.15754 21.4699 7.67128 20.6982C8.18503 19.9266 8.97809 19.3844 9.88355 19.1857C10.789 18.987 11.7362 19.1474 12.5258 19.633C13.3155 20.1186 13.8859 20.8916 14.1171 21.7893C14.283 22.7014 14.0886 23.6422 13.5749 24.4138C13.0611 25.1854 12.2681 25.7276 11.3626 25.9263C10.4572 26.125 9.50995 25.9647 8.72033 25.479C7.93072 24.9934 7.36029 24.2204 7.12912 23.3227ZM13.1771 21.9935C13.0713 21.4854 12.8167 21.0202 12.4458 20.6572C12.0748 20.2942 11.6043 20.0497 11.094 19.955C10.5837 19.8602 10.0567 19.9193 9.58016 20.1249C9.1036 20.3305 8.69897 20.6733 8.41776 21.1095C8.13655 21.5457 7.99148 22.0558 8.00101 22.5747C8.01053 23.0936 8.17422 23.598 8.47124 24.0236C8.76826 24.4492 9.1852 24.7769 9.66898 24.9649C10.1528 25.1528 10.6815 25.1926 11.188 25.0792C11.5259 25.0161 11.8473 24.8848 12.1326 24.6932C12.4179 24.5016 12.6611 24.2537 12.8473 23.9649C13.0336 23.676 13.1589 23.3522 13.2156 23.0132C13.2723 22.6742 13.2592 22.3272 13.1771 21.9935Z" fill="#E0E0E0"/>
<path d="M15.5131 24.1397L15.6982 23.3327C16.4218 23.6959 17.249 23.7966 18.0386 23.6175C19.1732 23.3659 19.5625 22.82 19.4628 22.2455C19.1115 20.641 15.3517 22.5256 14.8152 20.0855C14.5921 19.0696 15.1903 18.0347 16.9183 17.6549C17.6609 17.4765 18.4393 17.5177 19.159 17.7736L19.0165 18.5902C18.4011 18.3656 17.7351 18.318 17.0939 18.4525C15.9783 18.6993 15.5985 19.2738 15.7267 19.8482C16.078 21.4527 19.8426 19.5728 20.3695 21.9844C20.5926 22.9908 19.9755 24.0352 18.238 24.415C17.3256 24.6466 16.3607 24.5491 15.5131 24.1397Z" fill="#E0E0E0"/>
<path d="M72.9067 21.5286C72.7785 21.2865 72.6408 21.0539 72.4889 20.8166C71.2513 18.8997 69.3694 17.4884 67.1826 16.8373C64.9959 16.1861 62.6484 16.338 60.5639 17.2656C60.317 17.3748 60.0891 17.4982 59.828 17.6312C58.7142 18.2453 57.7345 19.0763 56.9469 20.075C56.1593 21.0738 55.5797 22.2202 55.2422 23.4465L73.671 28.5546C74.3254 26.2011 74.0518 23.6863 72.9067 21.5286ZM61.3139 22.2692L59.8328 21.8562L60.241 20.3751L61.7222 20.7881L61.3139 22.2692ZM70.4381 24.7947L68.957 24.3865L69.3652 22.9053L70.8464 23.3136L70.4381 24.7947Z" fill="#E0E0E0"/>
<path d="M71.5963 23.4174L71.0361 22.7291L76.5524 19.3633L71.5963 23.4174Z" fill="#E0E0E0"/>
<path d="M59.6999 20.119L60.5307 19.8246L57.5352 14.0947L59.6999 20.119Z" fill="#E0E0E0"/>
<path d="M39.1015 2.81543H29.2842V8.30324H39.1015V2.81543Z" fill="#E0E0E0"/>
<path d="M49.8261 2.81543H40.0088V8.30324H49.8261V2.81543Z" fill="#E0E0E0"/>
<path d="M39.1015 9.14746H29.2842V14.6353H39.1015V9.14746Z" fill="#E0E0E0"/>
<path d="M49.8261 9.14746H40.0088V14.6353H49.8261V9.14746Z" fill="#E0E0E0"/>
<path d="M180.855 4.80058L174.373 1.7394C172.339 0.77876 169.912 1.64896 168.951 3.68305L165.89 10.1649C164.929 12.199 165.799 14.6267 167.834 15.5874L174.315 18.6485C176.349 19.6092 178.777 18.739 179.738 16.7049L182.799 10.223C183.76 8.18894 182.889 5.76123 180.855 4.80058Z" fill="#E0E0E0"/>
<path d="M178.306 9.36662L175.41 15.538C175.402 15.5572 175.39 15.5745 175.375 15.5889C175.359 15.6032 175.341 15.6143 175.322 15.6214C175.302 15.6286 175.281 15.6316 175.261 15.6303C175.24 15.629 175.219 15.6235 175.201 15.614L169.504 12.9413C169.466 12.9228 169.437 12.89 169.422 12.8501C169.408 12.8101 169.41 12.7661 169.428 12.7277L173.188 4.72856C173.197 4.70982 173.209 4.69297 173.224 4.67899C173.239 4.66502 173.257 4.65419 173.277 4.64713C173.296 4.64007 173.317 4.63692 173.337 4.63786C173.358 4.6388 173.378 4.64381 173.397 4.65261L177.233 6.45181L178.306 9.36662Z" fill="#F5F5F5"/>
<path d="M177.247 6.43262L176.359 8.30303C176.341 8.34148 176.339 8.38544 176.353 8.42543C176.367 8.46541 176.397 8.49818 176.435 8.51666L178.286 9.3854L177.247 6.43262Z" fill="white"/>
<path d="M172.329 8.07889L172.309 8.12192C172.276 8.1932 172.307 8.27793 172.378 8.31119L176.977 10.4567C177.048 10.4899 177.133 10.4591 177.166 10.3878L177.186 10.3448C177.22 10.2735 177.189 10.1888 177.118 10.1556L172.519 8.01005C172.447 7.97679 172.363 8.00761 172.329 8.07889Z" fill="#E0E0E0"/>
<path d="M171.751 9.31522L171.731 9.35825C171.698 9.42953 171.729 9.51426 171.8 9.54751L176.399 11.693C176.47 11.7263 176.555 11.6955 176.588 11.6242L176.608 11.5812C176.642 11.5099 176.611 11.4251 176.539 11.3919L171.94 9.24637C171.869 9.21312 171.784 9.24394 171.751 9.31522Z" fill="#E0E0E0"/>
<path d="M171.167 10.5476L171.147 10.5907C171.114 10.6619 171.145 10.7467 171.216 10.7799L175.815 12.9254C175.886 12.9587 175.971 12.9279 176.004 12.8566L176.024 12.8136C176.058 12.7423 176.027 12.6576 175.955 12.6243L171.356 10.4788C171.285 10.4455 171.2 10.4764 171.167 10.5476Z" fill="#E0E0E0"/>
<path d="M172.998 12.7319L170.771 11.7065C170.754 11.6986 170.736 11.6942 170.717 11.6935C170.698 11.6928 170.679 11.6958 170.662 11.7024C170.644 11.7091 170.628 11.7191 170.614 11.7321C170.6 11.745 170.589 11.7605 170.582 11.7777V11.8205C170.574 11.8376 170.569 11.8561 170.568 11.875C170.568 11.8938 170.571 11.9126 170.577 11.9303C170.584 11.948 170.594 11.9642 170.607 11.9779C170.62 11.9916 170.636 12.0027 170.653 12.0104L172.86 13.05C172.877 13.0579 172.896 13.0624 172.915 13.0631C172.934 13.0638 172.952 13.0607 172.97 13.0541C172.988 13.0475 173.004 13.0374 173.018 13.0245C173.031 13.0116 173.042 12.996 173.05 12.9788V12.9361C173.061 12.9195 173.068 12.9008 173.072 12.8813C173.075 12.8617 173.074 12.8417 173.069 12.8225C173.064 12.8032 173.055 12.7853 173.043 12.7697C173.031 12.7541 173.015 12.7412 172.998 12.7319Z" fill="#E0E0E0"/>
<path d="M99.9987 12.3859L93.0414 14.0523C90.8563 14.5757 89.5092 16.7714 90.0326 18.9565L91.6991 25.9138C92.2225 28.0989 94.4181 29.446 96.6032 28.9226L103.561 27.2561C105.746 26.7327 107.093 24.5371 106.569 22.352L104.903 15.3947C104.38 13.2096 102.184 11.8625 99.9987 12.3859Z" fill="#E0E0E0"/>
<path d="M99.401 17.9064L99.8995 19.9999C99.9982 20.4159 99.9283 20.8541 99.705 21.2188C99.4818 21.5834 99.1233 21.845 98.7079 21.9463L96.7046 22.421L94.9718 25.2693L94.4212 22.9859C94.0045 23.0845 93.5657 23.0139 93.2009 22.7897C92.8361 22.5655 92.5751 22.2059 92.4748 21.7896L91.9763 19.6961C91.8763 19.28 91.9457 18.8412 92.1691 18.4762C92.3926 18.1112 92.7518 17.8499 93.1679 17.7497L97.4404 16.7243C97.6468 16.6725 97.8614 16.6621 98.0718 16.6935C98.2822 16.725 98.4843 16.7977 98.6666 16.9076C98.8488 17.0174 99.0075 17.1622 99.1335 17.3336C99.2595 17.505 99.3505 17.6997 99.401 17.9064Z" fill="white"/>
<path d="M94.8965 25.7304L94.2841 23.1858C93.8423 23.2428 93.3951 23.1348 93.0281 22.8825C92.6611 22.6303 92.4 22.2514 92.295 21.8186L91.8202 19.7251C91.7102 19.2612 91.7882 18.7726 92.0372 18.3661C92.2863 17.9596 92.6862 17.6682 93.1495 17.5556L97.422 16.5302C97.8859 16.4188 98.3752 16.4963 98.782 16.7455C99.1889 16.9948 99.48 17.3955 99.5915 17.8594L100.095 19.953C100.206 20.4169 100.129 20.9061 99.8793 21.313C99.6301 21.7198 99.2294 22.011 98.7655 22.1224L96.8381 22.5972L94.8965 25.7304ZM93.2112 17.9164C93.0286 17.9598 92.8563 18.039 92.7044 18.1492C92.5525 18.2595 92.4238 18.3987 92.3259 18.5588C92.2279 18.719 92.1626 18.8969 92.1337 19.0824C92.1047 19.2679 92.1128 19.4573 92.1573 19.6396L92.6558 21.7332C92.6987 21.9162 92.7774 22.089 92.8875 22.2414C92.9975 22.3939 93.1366 22.5231 93.2968 22.6215C93.457 22.7199 93.6352 22.7856 93.8209 22.8149C94.0066 22.8441 94.1963 22.8363 94.379 22.7918L94.5594 22.7491L95.0341 24.7762L96.577 22.2601L98.6468 21.7854C98.8298 21.7425 99.0026 21.6637 99.155 21.5537C99.3075 21.4437 99.4367 21.3045 99.5351 21.1443C99.6335 20.9841 99.6992 20.806 99.7285 20.6203C99.7577 20.4345 99.7499 20.2448 99.7054 20.0621L99.207 17.9686C99.164 17.7856 99.0853 17.6128 98.9752 17.4603C98.8652 17.3079 98.7261 17.1787 98.5659 17.0803C98.4057 16.9819 98.2276 16.9162 98.0418 16.8869C97.8561 16.8577 97.6664 16.8655 97.4837 16.91L93.2112 17.9164Z" fill="#FAFAFA"/>
<path d="M104.248 20.0849L104.632 21.6942C104.671 21.8526 104.677 22.0169 104.652 22.1778C104.626 22.3387 104.57 22.493 104.484 22.6319C104.399 22.7708 104.288 22.8916 104.156 22.9873C104.024 23.083 103.875 23.1517 103.716 23.1896L104.134 24.9461L101.955 23.6121L100.403 23.9682C100.082 24.0454 99.7443 23.9923 99.463 23.8205C99.1818 23.6487 98.9802 23.3723 98.9025 23.052L98.518 21.4426C98.4408 21.1222 98.4939 20.7843 98.6657 20.503C98.8375 20.2217 99.1139 20.0201 99.4342 19.9425L102.729 19.1545C102.89 19.1136 103.057 19.1054 103.221 19.1303C103.386 19.1551 103.543 19.2126 103.685 19.2994C103.826 19.3861 103.949 19.5003 104.046 19.6352C104.142 19.7701 104.211 19.923 104.248 20.0849Z" fill="white"/>
<path d="M104.419 25.3403L101.927 23.8069L100.465 24.1582C100.282 24.2027 100.093 24.2108 99.9076 24.1818C99.7221 24.1529 99.5442 24.0876 99.384 23.9897C99.2239 23.8917 99.0847 23.7631 98.9744 23.6111C98.8642 23.4592 98.785 23.287 98.7416 23.1043L98.357 21.495C98.3125 21.3127 98.3045 21.1233 98.3334 20.9378C98.3623 20.7523 98.4277 20.5744 98.5256 20.4142C98.6236 20.2541 98.7522 20.1149 98.9041 20.0046C99.0561 19.8944 99.2283 19.8152 99.4109 19.7718L102.706 18.9837C102.888 18.9393 103.078 18.9314 103.264 18.9607C103.449 18.9899 103.627 19.0556 103.788 19.154C103.948 19.2525 104.087 19.3816 104.197 19.5341C104.307 19.6866 104.386 19.8593 104.429 20.0424L104.813 21.6517C104.895 21.9887 104.851 22.344 104.689 22.6507C104.527 22.9575 104.259 23.1948 103.935 23.318L104.419 25.3403ZM99.5011 20.1183C99.3658 20.1507 99.2382 20.2094 99.1255 20.2911C99.0129 20.3728 98.9175 20.4758 98.8448 20.5945C98.772 20.7131 98.7234 20.8448 98.7016 20.9823C98.6798 21.1197 98.6853 21.26 98.7178 21.3953L99.1024 23.0046C99.1687 23.2771 99.3404 23.5121 99.5799 23.658C99.8193 23.804 100.107 23.849 100.379 23.7832L101.989 23.3987L103.85 24.5428L103.494 23.0379L103.669 22.9951C103.804 22.9634 103.932 22.9052 104.044 22.8239C104.157 22.7427 104.252 22.64 104.325 22.5218C104.398 22.4036 104.447 22.2721 104.469 22.135C104.49 21.9979 104.485 21.8579 104.452 21.7229L104.068 20.1136C104.036 19.9784 103.978 19.8509 103.897 19.7383C103.816 19.6257 103.713 19.5303 103.595 19.4575C103.476 19.3847 103.345 19.336 103.208 19.3142C103.071 19.2924 102.931 19.2978 102.796 19.3303L99.5011 20.1183Z" fill="#FAFAFA"/>
<path d="M97.7679 18.4332L93.8941 19.3826C93.8704 19.3882 93.8459 19.3891 93.8218 19.3852C93.7978 19.3813 93.7748 19.3728 93.7541 19.36C93.7333 19.3472 93.7153 19.3305 93.7011 19.3107C93.6868 19.291 93.6766 19.2686 93.671 19.2449C93.6654 19.2213 93.6645 19.1967 93.6684 19.1727C93.6723 19.1486 93.6808 19.1256 93.6936 19.1049C93.7064 19.0841 93.7232 19.0662 93.7429 19.0519C93.7626 19.0377 93.785 19.0274 93.8087 19.0218L97.6824 18.0724C97.7061 18.0668 97.7307 18.0659 97.7547 18.0698C97.7787 18.0736 97.8018 18.0822 97.8225 18.095C97.8432 18.1078 97.8612 18.1245 97.8755 18.1443C97.8897 18.164 97.8999 18.1864 97.9055 18.21C97.9112 18.2337 97.912 18.2583 97.9082 18.2823C97.9043 18.3064 97.8957 18.3294 97.8829 18.3501C97.8701 18.3708 97.8534 18.3888 97.8337 18.4031C97.8139 18.4173 97.7916 18.4276 97.7679 18.4332Z" fill="#E0E0E0"/>
<path d="M97.9865 19.3404L94.108 20.2898C94.0602 20.3012 94.0098 20.293 93.9679 20.2672C93.9261 20.2414 93.8962 20.2 93.8849 20.1522C93.8735 20.1043 93.8817 20.0539 93.9075 20.0121C93.9333 19.9703 93.9747 19.9404 94.0225 19.929L97.901 18.9796C97.9247 18.974 97.9493 18.9731 97.9733 18.977C97.9974 18.9809 98.0204 18.9894 98.0411 19.0022C98.0618 19.015 98.0798 19.0318 98.0941 19.0515C98.1083 19.0712 98.1185 19.0936 98.1242 19.1173C98.1298 19.141 98.1307 19.1655 98.1268 19.1896C98.1229 19.2136 98.1143 19.2366 98.1015 19.2573C98.0888 19.2781 98.072 19.2961 98.0523 19.3103C98.0325 19.3246 98.0102 19.3348 97.9865 19.3404Z" fill="#E0E0E0"/>
<path d="M97.1276 20.498L94.3267 21.1721C94.3031 21.1777 94.2785 21.1786 94.2545 21.1747C94.2304 21.1709 94.2074 21.1623 94.1867 21.1495C94.166 21.1367 94.148 21.12 94.1337 21.1002C94.1195 21.0805 94.1092 21.0581 94.1036 21.0345C94.098 21.0108 94.0971 20.9862 94.101 20.9622C94.1049 20.9381 94.1135 20.9151 94.1263 20.8944C94.139 20.8737 94.1558 20.8557 94.1755 20.8414C94.1952 20.8272 94.2176 20.8169 94.2413 20.8113L97.0374 20.142C97.0821 20.1365 97.1273 20.1476 97.1644 20.1731C97.2016 20.1985 97.2282 20.2366 97.2392 20.2803C97.2503 20.324 97.245 20.3701 97.2245 20.4102C97.204 20.4503 97.1695 20.4815 97.1276 20.498Z" fill="#E0E0E0"/>
<path d="M184.532 30.8146L177.592 29.0198C175.414 28.4566 173.192 29.7655 172.629 31.9434L170.834 38.8834C170.271 41.0613 171.579 43.2834 173.757 43.8466L180.697 45.6414C182.875 46.2047 185.097 44.8958 185.661 42.7179L187.455 35.7779C188.019 33.6 186.71 31.3779 184.532 30.8146Z" fill="#E0E0E0"/>
<path d="M184.51 39.7622C184.468 39.9188 184.311 40.479 184.249 40.6262L172.937 37.7018C172.937 37.6211 173.074 37.1322 173.093 37.0515C173.257 36.4185 173.651 35.8693 174.198 35.5104C174.744 35.1516 175.405 35.0088 176.051 35.1099C176.051 35.0814 176.051 35.0481 176.051 35.0149C176.233 34.3006 176.666 33.6753 177.27 33.2527C177.874 32.8301 178.61 32.6381 179.343 32.7117C180.077 32.7852 180.76 33.1193 181.268 33.6535C181.776 34.1876 182.076 34.8862 182.113 35.6226C182.291 35.6709 182.464 35.7344 182.63 35.8124C183.356 36.1472 183.941 36.7256 184.285 37.4472C184.628 38.1688 184.708 38.9879 184.51 39.7622Z" fill="#FAFAFA"/>
<path d="M168.374 33.6198L159.088 43.5273L149.803 33.6198H153.976V25.7536C153.976 22.1932 151.398 19.3021 148.227 19.3021H133.007C129.836 19.3021 127.258 22.1932 127.258 25.7536V34.8019H117.764V25.7536C117.764 16.9617 124.604 9.80762 133.007 9.80762H148.227C156.634 9.80762 163.47 16.9617 163.47 25.7536V33.6198H168.374Z" fill="#263238"/>
<path d="M115.266 147.341L113.714 147.483C113.486 147.507 113.486 147.146 113.714 147.127L115.266 146.985C115.499 146.961 115.494 147.322 115.266 147.341Z" fill="black"/>
<path d="M115.357 152.4L116.273 153.089C116.458 153.226 116.273 153.54 116.092 153.402L115.176 152.709C114.996 152.576 115.176 152.263 115.357 152.4Z" fill="black"/>
<path d="M117.645 150.455L119.164 150.768C119.392 150.811 119.297 151.157 119.069 151.11L117.55 150.801C117.327 150.754 117.422 150.407 117.645 150.455Z" fill="black"/>
<path d="M116.325 148.764L115.594 147.644C115.466 147.454 115.774 147.274 115.903 147.463L116.657 148.584C116.786 148.774 116.477 148.954 116.349 148.764H116.325Z" fill="black"/>
<path d="M113.762 150.317L114.982 150.592C115.21 150.645 115.11 150.986 114.887 150.939L113.667 150.664C113.444 150.611 113.539 150.27 113.762 150.317Z" fill="black"/>
<path d="M103.308 151.817L101.789 151.988C101.561 152.016 101.566 151.656 101.789 151.632L103.308 151.456C103.536 151.432 103.536 151.789 103.308 151.817Z" fill="black"/>
<path d="M114.645 143.072L113.506 143.599C113.297 143.699 113.116 143.391 113.325 143.291L114.465 142.759C114.673 142.664 114.854 142.973 114.645 143.072Z" fill="black"/>
<path d="M111.673 139.261L111.099 140.752C111.018 140.965 110.672 140.87 110.752 140.657C110.947 140.158 111.137 139.66 111.327 139.161C111.407 138.948 111.754 139.043 111.673 139.256V139.261Z" fill="black"/>
<path d="M103.151 150.199H101.789C101.747 150.192 101.708 150.17 101.681 150.138C101.653 150.105 101.638 150.064 101.638 150.021C101.638 149.978 101.653 149.937 101.681 149.904C101.708 149.871 101.747 149.85 101.789 149.843H103.151C103.194 149.85 103.232 149.871 103.26 149.904C103.287 149.937 103.303 149.978 103.303 150.021C103.303 150.064 103.287 150.105 103.26 150.138C103.232 150.17 103.194 150.192 103.151 150.199Z" fill="black"/>
<path d="M103.104 146.656L101.97 146.405C101.742 146.357 101.837 146.011 102.064 146.063L103.199 146.31C103.427 146.357 103.327 146.704 103.104 146.656Z" fill="black"/>
<path d="M107.524 140.134L107.173 138.938C107.165 138.893 107.174 138.848 107.198 138.81C107.222 138.772 107.259 138.744 107.303 138.732C107.346 138.72 107.392 138.725 107.432 138.745C107.473 138.766 107.504 138.801 107.519 138.843L107.871 140.039C107.879 140.083 107.87 140.129 107.846 140.167C107.822 140.205 107.784 140.233 107.741 140.245C107.697 140.257 107.651 140.252 107.611 140.232C107.571 140.211 107.54 140.176 107.524 140.134Z" fill="black"/>
<path d="M112.689 154.599C112.689 154.599 120.892 151.171 118.414 148.247C116.041 145.46 115.015 151.921 112.689 152.757C110.363 153.592 112.689 154.599 112.689 154.599Z" fill="#C32C7B"/>
<path opacity="0.1" d="M112.689 154.599C112.689 154.599 120.892 151.171 118.414 148.247C116.041 145.46 115.015 151.921 112.689 152.757C110.363 153.592 112.689 154.599 112.689 154.599Z" fill="white"/>
<path d="M112.997 156.379C112.997 156.379 118.575 139.398 108.615 139.664C98.6556 139.93 104.101 157.405 104.101 157.405L112.997 156.379Z" fill="#C32C7B"/>
<path opacity="0.3" d="M112.997 156.379C112.997 156.379 118.575 139.398 108.615 139.664C98.6556 139.93 104.101 157.405 104.101 157.405L112.997 156.379Z" fill="white"/>
<path opacity="0.2" d="M104.101 157.405C104.101 157.405 102.42 152.002 102.639 147.16C103.028 155.022 109.869 154.599 109.869 154.599L110.343 156.683L104.101 157.405Z" fill="black"/>
<path d="M117.911 153.968L116.634 164.298C116.547 165.008 116.203 165.662 115.667 166.136C115.131 166.61 114.439 166.871 113.724 166.871H105.302C104.586 166.873 103.893 166.612 103.356 166.138C102.819 165.663 102.474 165.009 102.387 164.298L101.11 153.968H117.911Z" fill="#263238"/>
<path d="M117.911 153.968L116.634 164.298C116.547 165.008 116.203 165.662 115.667 166.136C115.131 166.61 114.439 166.871 113.724 166.871H105.302C104.586 166.873 103.893 166.612 103.356 166.138C102.819 165.663 102.474 165.009 102.387 164.298L101.11 153.968H117.911Z" fill="#263238"/>
<path opacity="0.2" d="M117.911 153.968L116.634 164.298C116.547 165.008 116.203 165.662 115.667 166.136C115.131 166.61 114.439 166.871 113.724 166.871H105.302C104.586 166.873 103.893 166.612 103.356 166.138C102.819 165.663 102.474 165.009 102.387 164.298L101.11 153.968H117.911Z" fill="white"/>
<g opacity="0.2">
<path d="M111.981 153.654C112.646 149.462 112.537 142.222 107.144 141.477C106.764 141.425 106.925 140.851 107.3 140.903C113.078 141.7 113.268 149.334 112.556 153.815C112.494 154.195 111.919 154.034 111.981 153.654Z" fill="white"/>
</g>
<g opacity="0.5">
<path d="M109.845 153.284C110.139 149.894 109.46 146.044 107.168 143.433C106.916 143.148 107.334 142.721 107.59 143.011C109.964 145.736 110.752 149.733 110.438 153.284C110.405 153.663 109.807 153.668 109.84 153.284H109.845Z" fill="white"/>
</g>
<g opacity="0.2">
<path d="M107.467 153.365C106.77 150.545 106.276 147.668 105.844 144.82C105.787 144.445 106.361 144.283 106.418 144.663C106.855 147.512 107.368 150.407 108.042 153.208C108.132 153.583 107.567 153.745 107.467 153.37V153.365Z" fill="white"/>
</g>
<g opacity="0.5">
<path d="M104.809 153.365C103.878 150.762 103.495 147.995 103.684 145.238C103.684 144.853 104.306 144.853 104.282 145.238C104.094 147.941 104.47 150.654 105.388 153.203C105.521 153.569 104.942 153.721 104.809 153.365Z" fill="white"/>
</g>
<g opacity="0.3">
<path d="M114.403 152.619C115.642 151.907 117.285 150.787 117.622 149.296C117.707 148.921 118.286 149.078 118.196 149.453C117.826 151.086 116.079 152.325 114.707 153.117C114.638 153.158 114.556 153.169 114.479 153.149C114.402 153.129 114.336 153.079 114.296 153.011C114.256 152.942 114.245 152.86 114.265 152.783C114.285 152.706 114.334 152.64 114.403 152.6V152.619Z" fill="white"/>
</g>
<g opacity="0.2">
<path d="M117.137 149.339C116.675 149.991 116.211 150.638 115.746 151.281C115.523 151.589 115.005 151.281 115.228 150.982L116.624 149.04C116.847 148.732 117.365 149.04 117.137 149.339Z" fill="white"/>
</g>
<path d="M105.364 141.188C105.364 141.188 106.617 140.661 106.66 140.267C106.717 139.693 105.668 138.496 105.098 138.567C104.624 138.629 104.201 140.267 104.201 140.267C104.201 140.267 103.783 138.624 103.304 138.567C102.672 138.496 101.552 139.863 101.642 140.495C101.695 140.86 102.891 141.297 102.891 141.297C102.891 141.297 101.585 141.297 101.414 141.653C101.172 142.128 101.747 143.552 102.278 143.633C102.691 143.714 103.47 142.451 103.47 142.451C103.47 142.451 102.758 143.623 102.995 143.956C103.233 144.288 104.476 144.43 104.785 144.112C105.094 143.794 104.533 142.451 104.533 142.451C104.533 142.451 105.212 143.642 105.616 143.633C106.157 143.633 107.121 142.517 107.011 141.986C106.898 141.544 105.364 141.188 105.364 141.188Z" fill="#C32C7B"/>
<path d="M114.934 149.296L113.714 149.206C113.486 149.206 113.486 148.826 113.714 148.845L114.934 148.94C115.162 148.94 115.167 149.315 114.934 149.296Z" fill="black"/>
<path d="M115.12 145.119L113.952 145.384C113.729 145.437 113.629 145.09 113.857 145.043L115.025 144.777C115.253 144.725 115.347 145.071 115.12 145.119Z" fill="black"/>
<path d="M113.543 140.837L112.546 141.905C112.39 142.076 112.138 141.82 112.295 141.654L113.292 140.581C113.448 140.41 113.7 140.666 113.543 140.837Z" fill="black"/>
<path d="M103.688 153.346L102.065 153.74C102.02 153.748 101.975 153.739 101.937 153.715C101.899 153.691 101.871 153.654 101.859 153.61C101.847 153.567 101.852 153.52 101.872 153.48C101.893 153.44 101.928 153.409 101.97 153.394L103.593 152.999C103.816 152.947 103.911 153.294 103.688 153.346Z" fill="black"/>
<path d="M102.914 148.418L101.741 148.124C101.699 148.108 101.664 148.077 101.644 148.037C101.623 147.997 101.619 147.951 101.63 147.907C101.642 147.864 101.67 147.826 101.708 147.802C101.746 147.778 101.792 147.769 101.836 147.777L103.009 148.072C103.051 148.087 103.086 148.118 103.106 148.158C103.127 148.198 103.131 148.245 103.12 148.288C103.108 148.332 103.08 148.369 103.042 148.393C103.004 148.417 102.958 148.426 102.914 148.418Z" fill="black"/>
<path d="M103.104 145.251L101.97 145.014C101.742 144.967 101.837 144.62 102.064 144.668L103.199 144.91C103.427 144.957 103.332 145.299 103.104 145.251Z" fill="black"/>
<path d="M109.152 140.086V139.013C109.152 138.966 109.171 138.92 109.205 138.886C109.239 138.852 109.285 138.833 109.333 138.833C109.381 138.833 109.426 138.852 109.46 138.886C109.494 138.92 109.513 138.966 109.513 139.013V140.086C109.513 140.134 109.494 140.18 109.46 140.214C109.426 140.248 109.381 140.267 109.333 140.267C109.285 140.267 109.239 140.248 109.205 140.214C109.171 140.18 109.152 140.134 109.152 140.086Z" fill="black"/>
<path d="M113.586 151.836L114.602 152.111C114.647 152.124 114.686 152.154 114.709 152.195C114.732 152.236 114.738 152.284 114.726 152.33C114.713 152.375 114.683 152.413 114.642 152.436C114.601 152.46 114.552 152.466 114.507 152.453L113.491 152.182C113.449 152.167 113.414 152.136 113.394 152.096C113.373 152.055 113.369 152.009 113.38 151.966C113.392 151.922 113.42 151.885 113.458 151.861C113.496 151.837 113.542 151.828 113.586 151.836Z" fill="black"/>
<path d="M113.339 153.094L114.374 153.341C114.597 153.393 114.502 153.74 114.279 153.688L113.244 153.436C113.021 153.384 113.116 153.037 113.339 153.094Z" fill="black"/>
<path d="M116.568 151.57L117.812 152.254C118.016 152.363 117.835 152.672 117.631 152.563L116.387 151.879C116.353 151.852 116.33 151.814 116.322 151.771C116.313 151.728 116.321 151.684 116.343 151.646C116.365 151.608 116.4 151.58 116.441 151.566C116.483 151.552 116.527 151.554 116.568 151.57Z" fill="black"/>
<path d="M117.93 149.102L119.25 148.376C119.454 148.266 119.635 148.575 119.43 148.689L118.111 149.41C118.07 149.427 118.026 149.429 117.984 149.415C117.943 149.401 117.908 149.372 117.886 149.335C117.864 149.297 117.856 149.253 117.865 149.21C117.873 149.167 117.896 149.129 117.93 149.102Z" fill="black"/>
<path d="M117.251 148.048L117.55 146.562C117.597 146.334 117.939 146.429 117.896 146.657L117.597 148.148C117.55 148.371 117.208 148.276 117.251 148.048Z" fill="black"/>
<path d="M115.594 149.496L114.93 148.803C114.768 148.632 115.02 148.38 115.181 148.547L115.846 149.244C116.008 149.411 115.756 149.667 115.594 149.496Z" fill="black"/>
<path d="M40.7872 163.642V165.109C40.7872 165.476 40.9327 165.827 41.1918 166.086C41.4509 166.345 41.8023 166.491 42.1686 166.491H94.863C95.1996 166.489 95.522 166.355 95.7596 166.116C95.9972 165.878 96.1306 165.555 96.1306 165.218V163.794C96.1306 163.458 95.997 163.136 95.7593 162.898C95.5216 162.66 95.1992 162.527 94.863 162.527H81.7607C81.4098 162.529 81.0629 162.453 80.7444 162.306C80.4258 162.159 80.1434 161.944 79.917 161.676C79.6907 161.408 79.5259 161.094 79.4343 160.755C79.3427 160.417 79.3266 160.062 79.387 159.716L83.9824 133.132H54.0605L41.2429 161.492C40.9383 162.168 40.7829 162.901 40.7872 163.642Z" fill="#263238"/>
<path opacity="0.2" d="M96.1305 163.804V165.228C96.1311 165.395 96.0987 165.56 96.0353 165.714C95.9718 165.868 95.8784 166.008 95.7606 166.126C95.6428 166.244 95.5028 166.337 95.3488 166.401C95.1947 166.464 95.0296 166.497 94.863 166.496H42.1686C41.8034 166.495 41.4534 166.349 41.1948 166.092C40.9361 165.834 40.7896 165.484 40.7871 165.119V163.648C40.787 163.258 40.83 162.87 40.9153 162.489C40.9948 162.164 41.1028 161.846 41.2381 161.54L54.0557 133.185H83.9918L79.3964 159.741C79.3659 159.897 79.3547 160.056 79.3632 160.215C79.3707 160.757 79.5631 161.279 79.9085 161.697C80.2539 162.114 80.7315 162.4 81.2621 162.508C81.4178 162.544 81.5771 162.561 81.7368 162.561H94.844C95.1793 162.555 95.5031 162.683 95.7442 162.917C95.9853 163.15 96.1242 163.469 96.1305 163.804Z" fill="white"/>
<path d="M39.5489 161.525L52.3665 133.165H54.0613L41.2437 161.525C40.9372 162.189 40.7754 162.911 40.769 163.642V165.109C40.769 165.476 40.9145 165.827 41.1736 166.086C41.4327 166.345 41.784 166.491 42.1504 166.491H40.4557C40.0893 166.491 39.7379 166.345 39.4788 166.086C39.2198 165.827 39.0742 165.476 39.0742 165.109V163.642C39.0806 162.911 39.2424 162.189 39.5489 161.525Z" fill="#263238"/>
<path opacity="0.2" d="M54.061 133.165H83.9924L82.8198 139.944H50.999L54.061 133.165Z" fill="black"/>
<path opacity="0.3" d="M49.8926 163.813V165.162C49.8939 165.514 50.0343 165.851 50.2833 166.1C50.5323 166.349 50.8697 166.49 51.2218 166.491H94.868C95.0348 166.491 95.2001 166.458 95.3541 166.394C95.5082 166.33 95.6482 166.236 95.7659 166.118C95.8837 166 95.977 165.859 96.0404 165.705C96.1038 165.551 96.1361 165.385 96.1355 165.219V163.794C96.1355 163.458 96.002 163.136 95.7643 162.898C95.5266 162.66 95.2042 162.527 94.868 162.527H81.7608C81.6013 162.525 81.4423 162.508 81.2861 162.475H51.2218C51.0465 162.475 50.8729 162.509 50.711 162.577C50.5491 162.644 50.4021 162.743 50.2786 162.867C50.155 162.992 50.0573 163.139 49.9911 163.302C49.9248 163.464 49.8914 163.638 49.8926 163.813Z" fill="white"/>
<path opacity="0.1" d="M40.9209 162.484H81.2725C80.7419 162.376 80.2643 162.09 79.9189 161.673C79.5735 161.256 79.3811 160.733 79.3736 160.191H41.951L40.9209 162.484Z" fill="black"/>
<path d="M7.9457 136.147H135.647C136.885 136.145 138.072 135.653 138.947 134.777C139.822 133.901 140.313 132.713 140.313 131.475V39.189C140.313 37.9514 139.821 36.7644 138.946 35.8893C138.071 35.0141 136.884 34.5225 135.647 34.5225H7.9457C7.33248 34.5218 6.72515 34.6421 6.15844 34.8763C5.59172 35.1106 5.07672 35.4542 4.64289 35.8876C4.20906 36.321 3.8649 36.8356 3.63009 37.4021C3.39527 37.9686 3.27441 38.5758 3.27441 39.189V131.475C3.27441 132.714 3.76657 133.902 4.6426 134.779C5.51864 135.655 6.7068 136.147 7.9457 136.147Z" fill="#C32C7B"/>
<path d="M140.323 121.497V131.466C140.323 132.704 139.831 133.892 138.956 134.768C138.081 135.644 136.894 136.136 135.656 136.138H7.95547C6.71657 136.138 5.52841 135.645 4.65237 134.769C3.77633 133.893 3.28418 132.705 3.28418 131.466V121.497H140.323Z" fill="#C32C7B"/>
<path opacity="0.6" d="M140.323 121.497V131.466C140.323 132.704 139.831 133.892 138.956 134.768C138.081 135.644 136.894 136.136 135.656 136.138H7.95547C6.71657 136.138 5.52841 135.645 4.65237 134.769C3.77633 133.893 3.28418 132.705 3.28418 131.466V121.497H140.323Z" fill="white"/>
<path d="M8.02638 118.677H135.571C136.242 118.677 136.885 118.411 137.36 117.936C137.834 117.462 138.101 116.818 138.101 116.147V39.8731C138.101 39.5406 138.036 39.2113 137.91 38.904C137.783 38.5968 137.596 38.3176 137.361 38.0825C137.126 37.8474 136.847 37.6611 136.54 37.5341C136.232 37.4072 135.903 37.3422 135.571 37.3428H8.02638C7.3553 37.3428 6.71171 37.6094 6.23719 38.0839C5.76268 38.5584 5.49609 39.202 5.49609 39.8731V116.147C5.49609 116.818 5.76268 117.462 6.23719 117.936C6.71171 118.411 7.3553 118.677 8.02638 118.677Z" fill="#C32C7B"/>
<path opacity="0.8" d="M8.02638 118.677H135.571C136.242 118.677 136.885 118.411 137.36 117.936C137.834 117.462 138.101 116.818 138.101 116.147V39.8731C138.101 39.5406 138.036 39.2113 137.91 38.904C137.783 38.5968 137.596 38.3176 137.361 38.0825C137.126 37.8474 136.847 37.6611 136.54 37.5341C136.232 37.4072 135.903 37.3422 135.571 37.3428H8.02638C7.3553 37.3428 6.71171 37.6094 6.23719 38.0839C5.76268 38.5584 5.49609 39.202 5.49609 39.8731V116.147C5.49609 116.818 5.76268 117.462 6.23719 117.936C6.71171 118.411 7.3553 118.677 8.02638 118.677Z" fill="white"/>
<path opacity="0.2" d="M38.4233 41.4678H15.0146V57.5847H38.4233V41.4678Z" fill="black"/>
<path d="M38.4233 41.4678H15.0146V42.9442H38.4233V41.4678Z" fill="#C32C7B"/>
<path d="M19.3013 50.3828L23.1324 52.5048C23.2768 52.5734 23.4059 52.6702 23.5121 52.7897C23.5792 52.8835 23.6127 52.9973 23.6071 53.1125C23.6082 53.1926 23.5933 53.2721 23.5631 53.3463C23.5329 53.4205 23.4882 53.4879 23.4314 53.5445C23.3776 53.6012 23.3128 53.6464 23.241 53.6774C23.1692 53.7084 23.0919 53.7246 23.0137 53.7249C22.8445 53.7047 22.6822 53.6463 22.539 53.554L17.6018 50.8053C17.5228 50.766 17.4564 50.7053 17.4099 50.6303C17.3635 50.5552 17.3389 50.4687 17.3389 50.3804C17.3389 50.2922 17.3635 50.2057 17.4099 50.1306C17.4564 50.0556 17.5228 49.9949 17.6018 49.9556L22.5485 47.2307C22.6928 47.1416 22.8548 47.0849 23.0232 47.0645C23.1018 47.0635 23.1799 47.0786 23.2525 47.1088C23.3252 47.139 23.3909 47.1837 23.4457 47.2401C23.5023 47.2958 23.547 47.3624 23.5772 47.4358C23.6074 47.5092 23.6224 47.588 23.6213 47.6674C23.6277 47.7827 23.5941 47.8967 23.5264 47.9902C23.4194 48.11 23.2905 48.2083 23.1466 48.2798L19.3013 50.3828Z" fill="white"/>
<path d="M29.1518 46.4287L25.354 54.5892C25.2967 54.7394 25.2076 54.8755 25.0929 54.988C24.9905 55.0691 24.8626 55.1112 24.7321 55.1067C24.6545 55.1076 24.5776 55.093 24.5059 55.0636C24.4341 55.0343 24.369 54.9908 24.3143 54.9358C24.2591 54.886 24.215 54.8253 24.1847 54.7574C24.1545 54.6895 24.1388 54.6161 24.1387 54.5418C24.1539 54.3762 24.2006 54.2151 24.2763 54.067L28.0741 45.9113C28.1329 45.7644 28.22 45.6305 28.3305 45.5173C28.4433 45.4301 28.584 45.3869 28.7263 45.3956C28.8686 45.4044 29.0029 45.4645 29.1043 45.5647C29.1593 45.6136 29.2035 45.6735 29.2337 45.7406C29.264 45.8077 29.2797 45.8804 29.2799 45.954C29.269 46.1192 29.2254 46.2805 29.1518 46.4287Z" fill="white"/>
<path d="M33.9135 50.3832L30.0872 48.2612C29.9413 48.1908 29.8106 48.0924 29.7027 47.9716C29.6369 47.8771 29.6036 47.7638 29.6078 47.6488C29.6071 47.5699 29.6221 47.4916 29.6519 47.4184C29.6817 47.3453 29.7257 47.2788 29.7813 47.2228C29.8369 47.1667 29.903 47.1222 29.9759 47.0919C30.0488 47.0615 30.127 47.0459 30.2059 47.0459C30.3745 47.0655 30.5366 47.1223 30.6806 47.2121L35.6178 49.956C35.6968 49.9953 35.7632 50.0559 35.8097 50.131C35.8561 50.2061 35.8807 50.2926 35.8807 50.3808C35.8807 50.4691 35.8561 50.5556 35.8097 50.6307C35.7632 50.7057 35.6968 50.7663 35.6178 50.8057L30.6806 53.5544C30.5377 53.6472 30.3752 53.7056 30.2059 53.7253C30.1265 53.7256 30.0478 53.7093 29.9751 53.6774C29.9023 53.6455 29.837 53.5987 29.7834 53.5401C29.7273 53.4841 29.6828 53.4175 29.6527 53.3441C29.6225 53.2708 29.6073 53.1922 29.6078 53.1129C29.6043 52.9979 29.6376 52.8848 29.7027 52.7901C29.8098 52.6696 29.9408 52.5726 30.0872 52.5052L33.9135 50.3832Z" fill="white"/>
<path d="M5.12148 34.5225H7.94609C7.33287 34.5218 6.72555 34.6421 6.15883 34.8763C5.59211 35.1106 5.07711 35.4542 4.64328 35.8876C4.20945 36.321 3.86529 36.8356 3.63048 37.4021C3.39566 37.9686 3.27481 38.5758 3.27481 39.189V131.475C3.27481 132.714 3.76696 133.902 4.64299 134.779C5.51903 135.655 6.70719 136.147 7.94609 136.147H5.12148C3.88297 136.145 2.69553 135.653 1.81977 134.777C0.944007 133.901 0.451452 132.714 0.450195 131.475V39.189C0.451454 37.9509 0.94416 36.764 1.82006 35.889C2.69596 35.014 3.8834 34.5225 5.12148 34.5225Z" fill="#C32C7B"/>
<path d="M5.12148 34.5225H7.94609C7.33287 34.5218 6.72555 34.6421 6.15883 34.8763C5.59211 35.1106 5.07711 35.4542 4.64328 35.8876C4.20945 36.321 3.86529 36.8356 3.63048 37.4021C3.39566 37.9686 3.27481 38.5758 3.27481 39.189V131.475C3.27481 132.714 3.76696 133.902 4.64299 134.779C5.51903 135.655 6.70719 136.147 7.94609 136.147H5.12148C3.88297 136.145 2.69553 135.653 1.81977 134.777C0.944007 133.901 0.451452 132.714 0.450195 131.475V39.189C0.451454 37.9509 0.94416 36.764 1.82006 35.889C2.69596 35.014 3.8834 34.5225 5.12148 34.5225Z" fill="#263238"/>
<g opacity="0.2">
<path d="M59.767 47.0079C59.4097 47.0085 59.0557 46.9386 58.7254 46.8021C58.395 46.6656 58.0949 46.4653 57.8422 46.2125C57.5895 45.9598 57.3891 45.6597 57.2527 45.3294C57.1162 44.9991 57.0463 44.6451 57.0469 44.2877C57.0469 43.9307 57.1173 43.5772 57.254 43.2474C57.3908 42.9177 57.5912 42.6181 57.8439 42.3659C58.0965 42.1137 58.3964 41.9138 58.7264 41.7776C59.0564 41.6414 59.4101 41.5716 59.767 41.5723C60.4872 41.5723 61.1779 41.8584 61.6871 42.3676C62.1964 42.8768 62.4825 43.5675 62.4825 44.2877C62.4831 44.6447 62.4133 44.9983 62.2771 45.3283C62.141 45.6583 61.941 45.9582 61.6888 46.2109C61.4366 46.4635 61.1371 46.664 60.8073 46.8007C60.4775 46.9375 60.124 47.0079 59.767 47.0079Z" fill="black"/>
<path d="M59.767 61.0782C59.4097 61.0788 59.0557 61.0089 58.7254 60.8724C58.395 60.7359 58.0949 60.5356 57.8422 60.2829C57.5895 60.0301 57.3891 59.73 57.2527 59.3997C57.1162 59.0694 57.0463 58.7154 57.0469 58.358C57.0469 58.001 57.1173 57.6475 57.254 57.3178C57.3908 56.988 57.5912 56.6884 57.8439 56.4362C58.0965 56.184 58.3964 55.9841 58.7264 55.8479C59.0564 55.7117 59.4101 55.642 59.767 55.6426C60.4872 55.6426 61.1779 55.9287 61.6871 56.4379C62.1964 56.9472 62.4825 57.6378 62.4825 58.358C62.4831 58.715 62.4133 59.0686 62.2771 59.3986C62.141 59.7286 61.941 60.0285 61.6888 60.2812C61.4366 60.5338 61.1371 60.7343 60.8073 60.871C60.4775 61.0078 60.124 61.0782 59.767 61.0782Z" fill="black"/>
<path d="M59.767 75.1495C59.4097 75.1501 59.0557 75.0802 58.7254 74.9437C58.395 74.8072 58.0949 74.6069 57.8422 74.3541C57.5895 74.1014 57.3891 73.8013 57.2527 73.471C57.1162 73.1407 57.0463 72.7867 57.0469 72.4293C57.0469 72.0723 57.1173 71.7188 57.254 71.389C57.3908 71.0593 57.5912 70.7597 57.8439 70.5075C58.0965 70.2553 58.3964 70.0554 58.7264 69.9192C59.0564 69.783 59.4101 69.7132 59.767 69.7139C60.4872 69.7139 61.1779 70 61.6871 70.5092C62.1964 71.0184 62.4825 71.7091 62.4825 72.4293C62.4831 72.7863 62.4133 73.1399 62.2771 73.4699C62.141 73.7999 61.941 74.0998 61.6888 74.3525C61.4366 74.6051 61.1371 74.8056 60.8073 74.9423C60.4775 75.0791 60.124 75.1495 59.767 75.1495Z" fill="black"/>
<path d="M59.767 88.4084C59.41 88.409 59.0564 88.3392 58.7264 88.2031C58.3964 88.0669 58.0965 87.867 57.8439 87.6147C57.5912 87.3625 57.3908 87.063 57.254 86.7332C57.1173 86.4034 57.0469 86.05 57.0469 85.693C57.0469 85.336 57.1173 84.9825 57.254 84.6527C57.3908 84.323 57.5912 84.0234 57.8439 83.7712C58.0965 83.519 58.3964 83.3191 58.7264 83.1829C59.0564 83.0467 59.41 82.9769 59.767 82.9775C60.4872 82.9775 61.1779 83.2636 61.6871 83.7729C62.1964 84.2821 62.4825 84.9728 62.4825 85.693C62.4825 86.4131 62.1964 87.1038 61.6871 87.6131C61.1779 88.1223 60.4872 88.4084 59.767 88.4084Z" fill="black"/>
<path d="M59.767 102.48C59.41 102.48 59.0564 102.41 58.7264 102.274C58.3964 102.138 58.0965 101.938 57.8439 101.686C57.5912 101.434 57.3908 101.134 57.254 100.804C57.1173 100.475 57.0469 100.121 57.0469 99.7641C57.0469 99.0427 57.3335 98.3508 57.8436 97.8407C58.3537 97.3305 59.0456 97.0439 59.767 97.0439C60.4877 97.0452 61.1783 97.3324 61.6874 97.8423C62.1965 98.3523 62.4825 99.0435 62.4825 99.7641C62.4825 100.484 62.1964 101.175 61.6871 101.684C61.1779 102.193 60.4872 102.48 59.767 102.48Z" fill="black"/>
<path d="M59.767 116.541C59.41 116.542 59.0564 116.472 58.7264 116.336C58.3964 116.2 58.0965 116 57.8439 115.747C57.5912 115.495 57.3908 115.196 57.254 114.866C57.1173 114.536 57.0469 114.183 57.0469 113.826C57.0469 113.468 57.1172 113.115 57.2539 112.785C57.3906 112.455 57.591 112.155 57.8436 111.902C58.0962 111.65 58.3961 111.449 58.7261 111.313C59.0561 111.176 59.4098 111.105 59.767 111.105C60.4877 111.107 61.1783 111.394 61.6874 111.904C62.1965 112.414 62.4825 113.105 62.4825 113.826C62.4825 114.546 62.1964 115.236 61.6871 115.746C61.1779 116.255 60.4872 116.541 59.767 116.541Z" fill="black"/>
<path d="M89.3139 41.9902H67.6475V43.6185H89.3139V41.9902Z" fill="black"/>
<path d="M80.4173 56.0938H72.6982V57.7221H80.4173V56.0938Z" fill="black"/>
<path d="M114.004 71.9209H106.285V73.5492H114.004V71.9209Z" fill="black"/>
<path d="M80.4173 84.4824H72.6982V86.1107H80.4173V84.4824Z" fill="black"/>
<path d="M91.5452 84.4824H83.8262V86.1107H91.5452V84.4824Z" fill="black"/>
<path d="M103.546 71.9209H83.8262V73.5492H103.546V71.9209Z" fill="black"/>
<path d="M108.298 84.4824H95.3145V86.1107H108.298V84.4824Z" fill="black"/>
<path d="M102.991 114.646H95.2715V116.275H102.991V114.646Z" fill="black"/>
<path d="M114.118 114.646H106.399V116.275H114.118V114.646Z" fill="black"/>
<path d="M122.198 114.646H117.888V116.275H122.198V114.646Z" fill="black"/>
<path d="M108.299 56.0938H84.2822V57.7221H108.299V56.0938Z" fill="black"/>
<path d="M91.5452 99.1748H83.8262V100.803H91.5452V99.1748Z" fill="black"/>
<path d="M98.5855 99.1748H94.123V100.803H98.5855V99.1748Z" fill="black"/>
<path d="M114.602 99.1748H101.998V100.803H114.602V99.1748Z" fill="black"/>
</g>
<path opacity="0.5" d="M129.575 37.3428H124.671L107.382 118.677H112.29L129.575 37.3428Z" fill="white"/>
<path opacity="0.5" d="M102.426 118.677L119.715 37.3428H101.282L83.9922 118.677H102.426Z" fill="white"/>
<path d="M37.1846 78.0488C37.1846 78.2292 37.1846 78.4096 37.1846 78.5852L36.126 79.1739C36.2051 79.6769 36.3372 80.1702 36.52 80.6455H37.7305C37.8801 80.9786 38.0613 81.2966 38.2717 81.595L37.6498 82.6346C37.9685 83.0292 38.3281 83.3889 38.7227 83.7075L39.7624 83.0856C40.0608 83.296 40.3787 83.4773 40.7118 83.6268L40.6881 84.8374C41.1634 85.0202 41.6567 85.1523 42.1597 85.2314L42.7484 84.1727C42.924 84.1727 43.1044 84.1727 43.2848 84.1727C43.4652 84.1727 43.6504 84.1727 43.826 84.1727L44.4147 85.2314C44.9162 85.1522 45.4079 85.0202 45.8816 84.8374V83.6268C46.2141 83.4761 46.5319 83.2949 46.831 83.0856L47.8707 83.7075C48.2653 83.3889 48.6249 83.0292 48.9435 82.6346L48.3216 81.595C48.532 81.2966 48.7133 80.9786 48.8628 80.6455H50.0734C50.2562 80.1702 50.3883 79.6769 50.4674 79.1739L49.4088 78.5852C49.4088 78.4096 49.4325 78.2292 49.4325 78.0488C49.4325 77.8684 49.4325 77.6833 49.4088 77.5076L50.4674 76.9189C50.3883 76.4174 50.2562 75.9257 50.0734 75.452H48.8628C48.7121 75.1195 48.531 74.8017 48.3216 74.5026L48.9435 73.463C48.6249 73.0684 48.2653 72.7087 47.8707 72.3901L46.831 73.012C46.5319 72.8027 46.2141 72.6215 45.8816 72.4708V71.2602C45.4079 71.0774 44.9162 70.9453 44.4147 70.8662L43.826 71.9249C43.6504 71.9249 43.47 71.9011 43.2848 71.9011C43.0997 71.9011 42.924 71.9011 42.7484 71.9249L42.1597 70.8662C41.6567 70.9453 41.1634 71.0774 40.6881 71.2602L40.7118 72.4708C40.3787 72.6203 40.0608 72.8016 39.7624 73.012L38.7227 72.3901C38.3281 72.7087 37.9685 73.0684 37.6498 73.463L38.2717 74.5026C38.0624 74.8017 37.8813 75.1195 37.7305 75.452H36.52C36.3372 75.9257 36.2051 76.4174 36.126 76.9189L37.1846 77.5076C37.1941 77.6833 37.1846 77.8636 37.1846 78.0488ZM43.2516 75.2906C43.7971 75.2906 44.3304 75.4524 44.7839 75.7555C45.2375 76.0585 45.591 76.4893 45.7998 76.9933C46.0085 77.4973 46.0632 78.0519 45.9567 78.5869C45.8503 79.1219 45.5876 79.6134 45.2019 79.9991C44.8162 80.3848 44.3247 80.6475 43.7897 80.7539C43.2546 80.8604 42.7001 80.8057 42.1961 80.597C41.6921 80.3882 41.2613 80.0347 40.9583 79.5811C40.6552 79.1276 40.4934 78.5943 40.4934 78.0488C40.4934 77.3173 40.784 76.6157 41.3013 76.0985C41.8185 75.5812 42.5201 75.2906 43.2516 75.2906Z" fill="#C32C7B"/>
<path d="M56.0357 68.9775C56.0814 68.5324 56.0622 68.083 55.9787 67.6435L57.2368 66.751L56.6434 65.417L55.1385 65.7541C54.5935 65.0368 53.8486 64.4967 52.9975 64.2017L52.855 62.6636L51.4024 62.5117L50.9277 63.9834C50.035 64.0966 49.1959 64.4716 48.5161 65.061L47.0919 64.4154L46.2849 65.5974L47.334 66.732C46.9796 67.5609 46.882 68.4771 47.0539 69.362L45.7959 70.2545L46.3893 71.5884L47.8942 71.2466C48.4374 71.9667 49.1828 72.5088 50.0352 72.8037L50.1776 74.3418L51.6303 74.4938L52.105 73.0221C52.9976 72.9088 53.8367 72.5339 54.5166 71.9445L55.9408 72.5901L56.8 71.408L55.7509 70.2735C55.9073 69.8573 56.0032 69.4209 56.0357 68.9775ZM51.2505 70.9666C50.7829 70.9188 50.3401 70.7332 49.9781 70.4335C49.6161 70.1338 49.3513 69.7333 49.2171 69.2829C49.0829 68.8325 49.0855 68.3524 49.2244 67.9034C49.3634 67.4545 49.6325 67.0569 49.9977 66.761C50.3628 66.4651 50.8076 66.2843 51.2756 66.2415C51.7436 66.1987 52.2139 66.2957 52.6266 66.5204C53.0394 66.7451 53.3762 67.0873 53.5944 67.5035C53.8125 67.9198 53.9022 68.3915 53.852 68.8588C53.785 69.4826 53.4737 70.0545 52.9862 70.4495C52.4987 70.8445 51.8746 71.0304 51.2505 70.9666Z" fill="#C32C7B"/>
<path d="M42.4446 91.2274C42.193 91.4125 41.9698 91.5455 41.7705 91.7021C41.5538 91.8564 41.327 91.996 41.0916 92.1199C40.6319 92.3792 40.1562 92.6091 39.6674 92.8082C38.6263 93.241 37.5215 93.5008 36.3966 93.5773C35.1097 93.6658 33.8219 93.4171 32.6605 92.8557C32.0574 92.5508 31.5024 92.1589 31.0132 91.6926C30.5785 91.2764 30.1784 90.8255 29.8169 90.3444C29.7125 90.1925 29.6033 90.0406 29.5083 89.8697C28.4285 88.274 27.5514 86.5502 26.8973 84.7379C26.5745 83.8692 26.2755 83.0147 26.0191 82.1602C25.9859 82.07 25.9621 81.9798 25.9337 81.8896C25.7865 81.4148 25.6583 80.9401 25.5301 80.4654C25.402 79.9907 25.2975 79.5159 25.1836 78.9748L29.7837 77.9541C29.8786 78.3291 30.0068 78.7896 30.1207 79.2216L30.491 80.5319C30.7569 81.3958 31.0227 82.2599 31.317 83.1049C31.6114 83.9499 31.9247 84.7806 32.2665 85.5639C32.5861 86.321 32.9688 87.0499 33.4106 87.7429C33.6018 88.0385 33.8127 88.3208 34.0419 88.5879C34.2273 88.7963 34.436 88.9826 34.6638 89.1434C35.1877 89.4967 35.7914 89.7137 36.4203 89.7747C37.2099 89.8663 38.0082 89.8519 38.7939 89.732C39.2259 89.6703 39.6484 89.5943 40.0757 89.4994L40.7118 89.3475L41.3195 89.1861L42.4446 91.2274Z" fill="#FFC3BD"/>
<path d="M23.5264 76.9814C25.7528 74.1568 29.1281 75.1917 31.0223 79.6921C32.0762 82.0894 31.3024 83.1054 32.7835 85.7733L25.6009 89.9034C23.5216 85.6499 21.2382 79.882 23.5264 76.9814Z" fill="#C32C7B"/>
<path opacity="0.3" d="M29.5748 89.8888H29.4941C28.4143 88.2931 27.5372 86.5693 26.8831 84.757C26.5603 83.8883 26.2612 83.0338 26.0049 82.1793C26.3229 81.7473 26.6173 81.5621 26.8357 81.7045C28.2978 82.7109 32.2712 84.0782 29.5748 89.8888Z" fill="black"/>
<path d="M41.6614 88.1558L43.1901 87.3203L43.7218 90.7336C43.7218 90.7336 41.1725 92.2669 40.4414 90.9994L40.5174 90.1164C40.5598 89.7276 40.6836 89.3521 40.8807 89.0144C41.0778 88.6766 41.3438 88.3841 41.6614 88.1558Z" fill="#FFC3BD"/>
<path d="M45.1071 87.1543L46.4458 89.8935L43.7114 90.7337L43.1797 87.3204L45.1071 87.1543Z" fill="#FFC3BD"/>
<path d="M29.4608 79.0697C29.3231 82.9672 28.2075 87.5246 28.0366 102.236L11.3263 104.278C11.2884 103.969 11.2504 103.656 11.2172 103.328C11.2151 103.301 11.2151 103.274 11.2172 103.247C11.4498 102.626 12.8739 98.3151 10.2202 91.4695C10.187 90.3302 10.187 89.2573 10.2202 88.2936C10.2202 87.7382 10.2677 87.1733 10.3009 86.5989C10.4302 83.4433 10.7473 80.2982 11.2504 77.1803C11.3964 76.4282 11.7827 75.7438 12.3511 75.2301C12.9196 74.7164 13.6395 74.4013 14.4026 74.332L18.4994 73.9712L19.4489 73.8857L23.4983 74.4554L27.0302 75.609C27.7567 75.843 28.387 76.3074 28.8256 76.932C29.2642 77.5565 29.4872 78.307 29.4608 79.0697Z" fill="#C32C7B"/>
<path d="M28.1406 102.298C28.34 99.597 28.4255 95.4622 28.3543 92.1866C28.3094 90.9061 28.7407 89.6545 29.5648 88.6736C29.7252 88.4904 29.8594 88.2859 29.9636 88.0659C30.2555 87.4021 30.2743 86.65 30.0158 85.9724C29.5042 84.4089 29.2916 82.7629 29.3892 81.1207C29.4604 79.2218 29.0948 77.2992 27.965 75.7991C27.063 75.4288 24.9647 74.8733 24.9647 74.8496C26.0044 76.2026 25.862 79.801 23.4219 82.6256C23.4219 89.2433 23.27 96.0271 23.251 102.645C24.8664 103.148 26.6123 103.025 28.1406 102.298Z" fill="#263238"/>
<path d="M21.124 82.4165C21.124 89.0342 20.787 96.288 20.806 102.906C19.1492 103.38 11.8669 103.347 11.2403 103.342H11.1976C11.1976 103.342 11.1976 103.314 11.2308 103.262C11.4634 102.64 12.8876 98.3293 10.2339 91.4838C9.6126 89.8893 8.86325 88.3477 7.99316 86.8742C8.77937 87.0025 9.58574 86.9122 10.3241 86.6131C12.8069 85.6114 13.9082 82.4118 13.8513 80.9164C13.7943 79.2786 13.3765 75.2197 13.3765 74.2703C13.3765 74.1231 17.1743 73.9522 17.1743 73.9807C17.1269 78.8846 19.51 81.6617 21.124 82.4165Z" fill="#263238"/>
<path d="M28.5918 147.411L32.1807 148.403L35.3946 139.977L31.8152 138.984L28.5918 147.411Z" fill="#FFC3BD"/>
<path d="M34.0801 147.397C33.8598 146.99 33.4961 146.679 33.0595 146.524L29.5323 145.218C29.4546 145.184 29.3667 145.181 29.287 145.21C29.2073 145.24 29.1421 145.299 29.105 145.375L27.4292 148.513C27.3361 148.685 27.3147 148.887 27.3699 149.075C27.425 149.262 27.5522 149.42 27.7236 149.515C28.9768 150.265 29.9168 150.232 31.9486 150.986C33.2019 151.461 35.7796 152.757 37.6073 152.98C39.435 153.203 39.7294 151.409 38.9888 151.152C36.3683 150.288 34.5644 148.318 34.0801 147.397Z" fill="#C32C7B"/>
<g opacity="0.2">
<path d="M35.3943 139.982L33.6853 144.464L30.1533 143.329L31.8101 138.985L35.3943 139.982Z" fill="black"/>
</g>
<path d="M44.3436 115.116C44.2121 116.45 43.9707 117.771 43.622 119.066C42.6726 122.726 41.0585 126.453 39.715 130.089C37.0661 137.272 34.7684 143.528 34.7684 143.528L29.8503 141.829C29.8503 141.829 34.2699 121.06 37.2655 118.914H18.9933C18.6519 118.916 18.3108 118.894 17.9727 118.847C21.1201 118.444 26.0145 116.507 30.5623 114.575C34.5833 112.861 38.3383 111.157 40.3796 110.497C42.8625 111.551 44.5382 113.023 44.3436 115.116Z" fill="#263238"/>
<path opacity="0.1" d="M44.3436 115.116C44.2121 116.45 43.9707 117.771 43.622 119.066C42.6726 122.726 41.0585 126.453 39.715 130.089C37.0661 137.272 34.7684 143.528 34.7684 143.528L29.8503 141.829C29.8503 141.829 34.2699 121.06 37.2655 118.914H18.9933C18.6519 118.916 18.3108 118.894 17.9727 118.847C21.1201 118.444 26.0145 116.507 30.5623 114.575C34.5833 112.861 38.3383 111.157 40.3796 110.497C42.8625 111.551 44.5382 113.023 44.3436 115.116Z" fill="black"/>
<path opacity="0.6" d="M40.3794 110.506C38.3381 111.166 34.583 112.88 30.5621 114.584C26.0143 116.526 21.1198 118.462 17.9724 118.856C12.6792 118.149 10.6854 111.84 16.2254 104.562C19.8191 104.562 23.4365 108.004 23.4365 108.004C23.4365 108.004 34.3077 107.952 40.3794 110.506Z" fill="black"/>
<path d="M53.5858 140.163H57.602L53.3959 130.094L50.6758 134.718L53.5858 140.163Z" fill="#FFC3BD"/>
<path d="M57.275 139.213L52.561 138.145C52.4811 138.124 52.396 138.133 52.3229 138.172C52.2499 138.211 52.1941 138.276 52.167 138.354L50.852 141.976C50.7983 142.158 50.8179 142.354 50.9066 142.521C50.9953 142.689 51.1461 142.815 51.3267 142.873H51.3504C53.0025 143.215 53.8143 143.3 55.8841 143.77C57.1611 144.06 60.3892 144.905 62.1504 145.304C63.9116 145.703 64.3721 143.979 63.6695 143.652C60.5269 142.199 58.8226 140.803 57.9111 139.621C57.7517 139.417 57.5273 139.273 57.275 139.213Z" fill="#C32C7B"/>
<g opacity="0.2">
<path d="M53.3959 130.093L55.1857 134.384L51.5778 136.402L50.6758 134.721L53.3959 130.093Z" fill="black"/>
</g>
<path d="M55.2426 132.856L50.8229 135.529C50.8229 135.529 47.1438 127.791 43.6214 119.066C43.9701 117.771 44.2114 116.45 44.3429 115.116C44.5376 113.018 42.8618 111.546 40.3837 110.506C38.3424 111.166 34.5874 112.88 30.5664 114.584C26.0186 116.526 21.1242 118.463 17.9768 118.857C17.6166 118.908 17.2534 118.935 16.8896 118.937C10.8511 118.937 8.76236 113.644 11.1929 104.653C14.7914 104.653 20.9438 104.268 20.9438 104.268C20.9438 104.268 32.8119 101.42 41.3569 102.37C43.3884 102.603 45.2929 103.477 46.7949 104.865C48.2969 106.252 49.3185 108.082 49.7121 110.089C51.9006 121.031 55.2426 132.856 55.2426 132.856Z" fill="#263238"/>
<path d="M55.2426 132.856L50.8229 135.529C50.8229 135.529 47.1438 127.791 43.6214 119.066C43.9701 117.771 44.2114 116.45 44.3429 115.116C44.5376 113.018 42.8618 111.546 40.3837 110.506C38.3424 111.166 34.5874 112.88 30.5664 114.584C26.0186 116.526 21.1242 118.463 17.9768 118.857C17.6166 118.908 17.2534 118.935 16.8896 118.937C10.8511 118.937 8.76236 113.644 11.1929 104.653C14.7914 104.653 20.9438 104.268 20.9438 104.268C20.9438 104.268 32.8119 101.42 41.3569 102.37C43.3884 102.603 45.2929 103.477 46.7949 104.865C48.2969 106.252 49.3185 108.082 49.7121 110.089C51.9006 121.031 55.2426 132.856 55.2426 132.856Z" fill="#263238"/>
<path d="M11.1842 103.343L10.7474 104.715C10.6905 104.819 10.8139 104.928 10.9896 104.938L27.8233 103.927C27.9609 103.927 28.0749 103.87 28.0891 103.78L28.2695 102.403C28.2695 102.308 28.1651 102.223 28.0132 102.218L11.4548 103.248C11.4053 103.239 11.3545 103.244 11.3071 103.26C11.2598 103.277 11.2175 103.305 11.1842 103.343Z" fill="#263238"/>
<path opacity="0.1" d="M11.1842 103.343L10.7474 104.715C10.6905 104.819 10.8139 104.928 10.9896 104.938L27.8233 103.927C27.9609 103.927 28.0749 103.87 28.0891 103.78L28.2695 102.403C28.2695 102.308 28.1651 102.223 28.0132 102.218L11.4548 103.248C11.4053 103.239 11.3545 103.244 11.3071 103.26C11.2598 103.277 11.2175 103.305 11.1842 103.343Z" fill="black"/>
<path opacity="0.3" d="M12.8881 75.8042C16.2492 75.2393 16.083 82.8348 14.5544 88.4366C14.1081 90.0554 12.1808 89.386 11.5494 88.9588C9.42736 87.5821 8.71053 78.2443 12.8881 75.8042Z" fill="black"/>
<path d="M12.916 85.773C12.916 85.773 12.0663 91.313 13.8228 92.4191C15.5792 93.5252 25.482 97.8025 25.7383 97.3705C25.2304 98.168 24.7462 98.8469 24.243 99.6444C24.243 99.6444 11.4254 96.7961 9.70215 95.4146C8.1498 94.1566 7.92193 89.4711 8.18778 85.5024C9.58821 84.6764 12.916 85.773 12.916 85.773Z" fill="#FFC3BD"/>
<path d="M11.5825 74.4601C15.0433 73.4442 16.3298 76.2119 15.2949 80.9639C14.7679 83.5274 14.0748 84.8091 13.0922 87.2397L7.97938 86.8694C5.93332 78.7991 8.04585 75.4998 11.5825 74.4601Z" fill="#C32C7B"/>
<path d="M20.1273 67.3203L21.9597 69.4328L24.4473 72.3097C24.2163 72.6197 24.0427 72.9686 23.9345 73.3398C23.765 73.7283 23.7412 74.165 23.8677 74.5696C23.9941 74.9742 24.2623 75.3197 24.6229 75.5425C25.0027 75.7229 23.6735 80.0809 22.5721 80.7645L18.9262 75.7846C18.4515 75.1675 18.347 74.8352 18.8218 74.1706C20.1747 72.2574 20.2792 69.504 20.1273 67.3203Z" fill="#FFC3BD"/>
<path opacity="0.2" d="M23.8451 71.5975L22.2785 69.542C22.2785 69.6037 22.2406 69.6702 22.2168 69.7414C22.1405 70.0341 22.0881 70.3326 22.0602 70.6339C21.9652 71.6593 22.9337 72.9837 23.8784 73.5487L23.9733 73.3398C24.0876 73.0032 24.2473 72.6838 24.448 72.3903C24.4585 72.3728 24.4732 72.3581 24.4908 72.3476L23.8451 71.5975Z" fill="black"/>
<path d="M30.0827 73.4633C30.8043 72.8462 31.7632 71.8588 31.6351 70.9188C31.5069 69.9789 31.1603 69.0674 31.1176 68.1179C31.0369 66.5941 36.2066 63.3375 28.1221 56.9002C27.2999 56.1921 26.2961 55.728 25.224 55.5602C24.152 55.3925 23.0544 55.5277 22.0551 55.9508C20.9775 56.4255 14.545 62.0462 23.7594 62.7631C25.2215 62.8817 26.4131 61.543 27.8752 61.4006C28.1316 61.5288 28.4212 61.7519 28.6775 61.8753C28.9166 61.9839 29.1388 62.1261 29.3374 62.2978C29.4366 62.3843 29.5153 62.4918 29.5679 62.6125C29.6204 62.7332 29.6455 62.8641 29.6412 62.9957C29.5653 63.9451 28.9671 64.8328 28.7677 65.7491C28.3167 66.0529 28.293 66.8789 28.331 67.4154C28.433 67.9466 28.5824 68.4677 28.7772 68.9724C28.9745 69.4826 28.9745 70.0479 28.7772 70.558C28.4395 71.1233 28.0293 71.6419 27.5572 72.1009C27.2913 72.4 27.429 73.0503 27.5572 73.4301L30.1966 75.3622C29.8738 74.7641 29.5748 73.8953 30.0827 73.4633Z" fill="#263238"/>
<path d="M20.2987 63.4275C20.0138 66.8408 19.7005 68.8204 21.1674 70.7573C23.3749 73.6816 27.7756 72.6562 29.0621 69.3711C30.2204 66.4278 30.4862 61.3482 27.3341 59.5918C26.6349 59.2048 25.8494 59.0006 25.0503 58.9981C24.2512 58.9955 23.4644 59.1948 22.7628 59.5773C22.0612 59.9598 21.4675 60.5132 21.0368 61.1863C20.606 61.8593 20.3522 62.6302 20.2987 63.4275Z" fill="#FFC3BD"/>
<path d="M19.7997 66.4471L21.2571 67.0785C21.7603 66.8743 21.8553 66.2809 21.8221 65.7398C21.6939 63.6605 25.4252 61.0969 25.4252 61.0969C25.4252 61.0969 21.4708 59.6016 20.265 59.6016C17.1033 59.6016 17.7252 64.0118 18.6272 65.1938C18.9753 65.6496 19.3681 66.0694 19.7997 66.4471Z" fill="#263238"/>
<path d="M28.0083 66.1049C28.1572 65.8483 28.3788 65.6416 28.6451 65.5109C28.9114 65.3802 29.2105 65.3314 29.5045 65.3706C29.7985 65.4099 30.0744 65.5354 30.2971 65.7314C30.5198 65.9274 30.6793 66.185 30.7557 66.4716C30.832 66.7583 30.8216 67.0612 30.7258 67.3419C30.63 67.6227 30.4531 67.8688 30.2175 68.049C29.9819 68.2293 29.6981 68.3356 29.4021 68.3546C29.106 68.3736 28.811 68.3044 28.5543 68.1557C28.2108 67.9554 27.9606 67.6272 27.8583 67.2429C27.756 66.8587 27.8099 66.4495 28.0083 66.1049ZM28.2125 66.2236C28.0899 66.4408 28.0344 66.6894 28.0529 66.9381C28.0714 67.1868 28.1632 67.4244 28.3166 67.621C28.47 67.8176 28.6782 67.9644 28.9149 68.0429C29.1516 68.1214 29.4062 68.128 29.6467 68.0619C29.8872 67.9958 30.1027 67.8601 30.2661 67.6717C30.4295 67.4833 30.5335 67.2507 30.5649 67.0034C30.5963 66.756 30.5538 66.5048 30.4427 66.2816C30.3315 66.0583 30.1568 65.873 29.9405 65.7489C29.7963 65.6658 29.6371 65.6121 29.472 65.5907C29.307 65.5694 29.1393 65.5809 28.9788 65.6246C28.8182 65.6683 28.6678 65.7432 28.5363 65.8452C28.4048 65.9472 28.2947 66.0742 28.2125 66.2189V66.2236Z" fill="#263238"/>
<path d="M24.576 65.0993C24.7254 64.8445 24.9469 64.6397 25.2126 64.5106C25.4783 64.3816 25.7763 64.3341 26.0689 64.3742C26.3616 64.4143 26.6358 64.5402 26.857 64.7359C27.0782 64.9317 27.2364 65.1886 27.3118 65.4742C27.3872 65.7598 27.3763 66.0613 27.2805 66.3407C27.1847 66.6201 27.0083 66.8649 26.7735 67.0442C26.5387 67.2235 26.2561 67.3292 25.9614 67.3481C25.6666 67.3669 25.3728 67.2981 25.1171 67.1501C24.7745 66.949 24.5252 66.6205 24.4238 66.2363C24.3225 65.8521 24.3771 65.4434 24.576 65.0993ZM24.7801 65.218C24.6575 65.4352 24.602 65.6838 24.6205 65.9325C24.6391 66.1812 24.7308 66.4188 24.8842 66.6154C25.0376 66.812 25.2458 66.9588 25.4825 67.0373C25.7192 67.1158 25.9739 67.1224 26.2143 67.0563C26.4548 66.9903 26.6703 66.8545 26.8337 66.6661C26.9971 66.4777 27.1011 66.2452 27.1325 65.9978C27.1639 65.7504 27.1214 65.4992 27.0103 65.276C26.8991 65.0527 26.7244 64.8674 26.5081 64.7433C26.3636 64.6604 26.2041 64.6069 26.0389 64.586C25.8737 64.565 25.7059 64.5769 25.5453 64.621C25.3847 64.6651 25.2344 64.7406 25.103 64.8431C24.9717 64.9455 24.862 65.073 24.7801 65.218Z" fill="#263238"/>
<path d="M27.3194 66.2997C27.3664 66.2684 27.4194 66.2472 27.4751 66.2374C27.5307 66.2276 27.5878 66.2294 27.6426 66.2428C27.6975 66.2562 27.749 66.2808 27.7939 66.3151C27.8388 66.3494 27.876 66.3927 27.9033 66.4422L28.1122 66.3377C28.0715 66.2612 28.0159 66.1937 27.9486 66.1391C27.8812 66.0846 27.8036 66.0441 27.7204 66.0202C27.6371 65.9963 27.5498 65.9894 27.4638 65.9999C27.3778 66.0104 27.2948 66.0381 27.2197 66.0814L27.3194 66.2997Z" fill="#263238"/>
<path d="M20.5068 64.9329L24.5847 65.5358L24.6322 65.308L20.5543 64.7051L20.5068 64.9329Z" fill="#263238"/>
<path d="M18.5463 65.8301C18.6162 66.5923 18.9643 67.3021 19.5243 67.824C20.2506 68.4886 21.1383 67.7623 21.2428 66.7986C21.333 65.9346 20.8962 64.6718 20.018 64.3775C19.1397 64.0831 18.4609 64.8807 18.5463 65.8301Z" fill="#FFC3BD"/>
<path d="M25.6153 65.5402C25.5678 65.8203 25.6675 66.0814 25.8526 66.1194C26.0378 66.1573 26.2039 65.9675 26.2751 65.6874C26.3125 65.5785 26.3091 65.4597 26.2654 65.3531C26.2218 65.2466 26.1409 65.1595 26.0378 65.1082C25.8716 65.0655 25.6675 65.2696 25.6153 65.5402Z" fill="#263238"/>
<path d="M28.7818 66.4898C28.7248 66.7747 28.834 67.0358 29.0144 67.0738C29.1948 67.1117 29.3847 66.9171 29.4369 66.6465C29.4891 66.3759 29.3847 66.1053 29.2043 66.0673C29.0239 66.0294 28.834 66.2193 28.7818 66.4898Z" fill="#263238"/>
<path d="M26.5691 65.3975C26.3763 65.4276 26.1791 65.3871 26.0137 65.2836C26.0137 65.2361 26.0137 65.1744 26.0137 65.127C26.2178 65.1934 26.384 65.3311 26.5691 65.3975Z" fill="#263238"/>
<path d="M29.7308 66.3331C29.5441 66.3593 29.3542 66.319 29.1943 66.2192C29.1943 66.1717 29.1943 66.11 29.1943 66.0625C29.3795 66.129 29.5456 66.2666 29.7308 66.3331Z" fill="#263238"/>
<path d="M27.6616 66.6035C27.7604 67.4044 27.9614 68.1894 28.2598 68.9392C28.0691 69.0059 27.866 69.0299 27.665 69.0094C27.464 68.9889 27.27 68.9244 27.0967 68.8205L27.6616 66.6035Z" fill="#ED847E"/>
<path d="M26.1513 69.7272C25.8384 69.6178 25.5509 69.4461 25.3061 69.2226C25.0614 68.999 24.8644 68.7282 24.7272 68.4264C24.7193 68.4056 24.7199 68.3826 24.7288 68.3622C24.7376 68.3418 24.7541 68.3257 24.7746 68.3172C24.7961 68.3108 24.8191 68.3127 24.8393 68.3223C24.8595 68.332 24.8753 68.3488 24.8838 68.3694C25.0381 68.6925 25.2634 68.9764 25.5429 69.2C25.8224 69.4236 26.1489 69.5811 26.4979 69.6607C26.5105 69.6577 26.5235 69.6575 26.5362 69.6603C26.5488 69.6631 26.5606 69.6687 26.5708 69.6767C26.5809 69.6847 26.5891 69.6948 26.5948 69.7065C26.6004 69.7181 26.6033 69.7309 26.6033 69.7438C26.6033 69.7567 26.6004 69.7695 26.5948 69.7811C26.5891 69.7927 26.5809 69.8029 26.5708 69.8109C26.5606 69.8189 26.5488 69.8245 26.5362 69.8272C26.5235 69.83 26.5105 69.8299 26.4979 69.8269C26.3806 69.8003 26.2648 69.7671 26.1513 69.7272Z" fill="#263238"/>
<path d="M24.9844 64.3484C24.9565 64.3399 24.9317 64.3234 24.9132 64.3009C24.8824 64.269 24.8652 64.2265 24.8652 64.1822C24.8652 64.1379 24.8824 64.0954 24.9132 64.0635C25.1095 63.8881 25.3463 63.7642 25.6023 63.7029C25.8583 63.6416 26.1256 63.6448 26.3801 63.7122C26.4221 63.7244 26.4577 63.7527 26.479 63.7909C26.5003 63.8291 26.5057 63.8742 26.494 63.9164C26.4875 63.9373 26.4769 63.9567 26.4629 63.9735C26.4489 63.9904 26.4317 64.0043 26.4123 64.0144C26.3929 64.0246 26.3716 64.0308 26.3498 64.0327C26.328 64.0346 26.306 64.0322 26.2851 64.0256C26.0845 63.9766 25.875 63.9774 25.6748 64.0279C25.4746 64.0783 25.2897 64.1769 25.1363 64.3151C25.1158 64.333 25.0912 64.3454 25.0646 64.3513C25.038 64.3571 25.0104 64.3561 24.9844 64.3484Z" fill="#263238"/>
<path d="M28.9145 64.354C28.9074 64.326 28.9074 64.2966 28.9145 64.2686C28.9276 64.2262 28.9568 64.1906 28.9958 64.1693C29.0348 64.148 29.0805 64.1428 29.1233 64.1547C29.3789 64.216 29.6153 64.3396 29.8116 64.5143C30.0079 64.6891 30.1579 64.9096 30.2484 65.1563C30.255 65.1772 30.2575 65.1992 30.2556 65.221C30.2536 65.2428 30.2474 65.2641 30.2373 65.2835C30.2271 65.3029 30.2132 65.3201 30.1964 65.3341C30.1796 65.3482 30.1602 65.3587 30.1392 65.3652C30.1184 65.3725 30.0963 65.3755 30.0742 65.3739C30.0522 65.3723 30.0307 65.3661 30.0111 65.3559C29.9915 65.3457 29.9743 65.3315 29.9604 65.3143C29.9465 65.2972 29.9363 65.2773 29.9304 65.256C29.8559 65.0636 29.7357 64.8922 29.5802 64.7566C29.4248 64.6209 29.2386 64.5251 29.0379 64.4775C29.0083 64.4694 28.9814 64.4538 28.9598 64.4322C28.9381 64.4105 28.9225 64.3836 28.9145 64.354Z" fill="#263238"/>
<path d="M31.4777 102.64L52.997 102.702C53.3724 102.695 53.7323 102.551 54.0094 102.297C54.2864 102.044 54.4615 101.698 54.5019 101.325L55.4893 90.43C55.5081 90.2545 55.4895 90.0769 55.4346 89.909C55.3797 89.7412 55.2899 89.5869 55.171 89.4564C55.0521 89.3258 54.9069 89.222 54.7449 89.1517C54.5829 89.0814 54.4078 89.0462 54.2313 89.0486L32.712 89.0059C32.3366 89.0129 31.9767 89.1566 31.6996 89.4101C31.4226 89.6635 31.2475 90.0093 31.2071 90.3826L30.2197 101.301C30.208 101.473 30.2318 101.646 30.2898 101.808C30.3478 101.971 30.4387 102.119 30.5568 102.245C30.6748 102.371 30.8176 102.471 30.9761 102.538C31.1345 102.606 31.3053 102.641 31.4777 102.64Z" fill="#263238"/>
<path d="M32.1092 102.593L53.6285 102.659C54.0044 102.652 54.3649 102.509 54.6428 102.255C54.9206 102.002 55.0966 101.656 55.1381 101.283L56.1208 90.3639C56.1395 90.1881 56.1209 90.0103 56.0661 89.8423C56.0112 89.6742 55.9215 89.5196 55.8027 89.3887C55.6838 89.2578 55.5387 89.1535 55.3767 89.0827C55.2147 89.0118 55.0396 88.9761 54.8628 88.9777L33.3435 88.916C32.9681 88.9231 32.6082 89.0668 32.3311 89.3202C32.0541 89.5737 31.879 89.9194 31.8386 90.2927L30.856 101.188C30.8319 101.365 30.8466 101.545 30.8989 101.716C30.9512 101.888 31.04 102.045 31.1591 102.179C31.2782 102.312 31.4248 102.418 31.5888 102.49C31.7528 102.561 31.9303 102.597 32.1092 102.593Z" fill="#263238"/>
<path opacity="0.4" d="M32.1092 102.593L53.6285 102.659C54.0044 102.652 54.3649 102.509 54.6428 102.255C54.9206 102.002 55.0966 101.656 55.1381 101.283L56.1208 90.3639C56.1395 90.1881 56.1209 90.0103 56.0661 89.8423C56.0112 89.6742 55.9215 89.5196 55.8027 89.3887C55.6838 89.2578 55.5387 89.1535 55.3767 89.0827C55.2147 89.0118 55.0396 88.9761 54.8628 88.9777L33.3435 88.916C32.9681 88.9231 32.6082 89.0668 32.3311 89.3202C32.0541 89.5737 31.879 89.9194 31.8386 90.2927L30.856 101.188C30.8319 101.365 30.8466 101.545 30.8989 101.716C30.9512 101.888 31.04 102.045 31.1591 102.179C31.2782 102.312 31.4248 102.418 31.5888 102.49C31.7528 102.561 31.9303 102.597 32.1092 102.593Z" fill="white"/>
<path d="M53.928 102.644C53.928 103.295 53.5387 103.826 53.0687 103.826L30.8469 103.722C30.6095 103.722 30.4102 103.456 30.4102 103.133C30.4102 102.811 30.6095 102.535 30.8469 102.535L53.928 102.644Z" fill="#263238"/>
<path opacity="0.3" d="M53.928 102.644C53.928 103.295 53.5387 103.826 53.0687 103.826L30.8469 103.722C30.6095 103.722 30.4102 103.456 30.4102 103.133C30.4102 102.811 30.6095 102.535 30.8469 102.535L53.928 102.644Z" fill="white"/>
<path d="M30.7327 103.722H20.0419C19.7687 103.722 19.5066 103.613 19.3134 103.42C19.1203 103.227 19.0117 102.965 19.0117 102.692C19.0117 102.649 19.0287 102.608 19.059 102.578C19.0893 102.547 19.1303 102.53 19.1731 102.53H30.7327C30.89 102.53 31.041 102.593 31.1523 102.704C31.2635 102.815 31.3261 102.966 31.3261 103.124C31.3261 103.281 31.2637 103.433 31.1526 103.545C31.0414 103.657 30.8905 103.721 30.7327 103.722Z" fill="#263238"/>
<path opacity="0.2" d="M30.7327 103.722H20.0419C19.7687 103.722 19.5066 103.613 19.3134 103.42C19.1203 103.227 19.0117 102.965 19.0117 102.692C19.0117 102.649 19.0287 102.608 19.059 102.578C19.0893 102.547 19.1303 102.53 19.1731 102.53H30.7327C30.89 102.53 31.041 102.593 31.1523 102.704C31.2635 102.815 31.3261 102.966 31.3261 103.124C31.3261 103.281 31.2637 103.433 31.1526 103.545C31.0414 103.657 30.8905 103.721 30.7327 103.722Z" fill="white"/>
<path d="M27.1724 97.7214L28.6963 98.7752L25.1976 101.396C25.1976 101.396 22.0644 98.9746 23.2987 97.6691L24.3526 97.4508C25.2546 97.2609 26.3702 97.1137 27.1724 97.7214Z" fill="#FFC3BD"/>
<path d="M29.4273 101.6L26.6502 102.369L24.7275 101.073L28.6962 98.7705L29.4273 101.6Z" fill="#FFC3BD"/>
<path d="M21.2383 59.7725C21.5374 60.2188 24.2243 61.1445 24.9554 61.4436C25.1137 61.3179 25.3015 61.2347 25.501 61.202C25.7005 61.1692 25.905 61.188 26.0952 61.2565C26.2854 61.3249 26.455 61.4409 26.5878 61.5932C26.7207 61.7456 26.8124 61.9294 26.8543 62.1272C26.9587 62.8203 27.8037 63.1905 28.4399 63.4469C28.7247 63.5561 29.019 63.6273 29.2944 63.7555C29.578 63.8708 29.8071 64.0898 29.9352 64.3679C30.1126 63.2788 29.9553 62.1615 29.484 61.1638C29.0127 60.1661 28.2496 59.335 27.2958 58.7803C25.3969 57.7407 22.8286 58.2724 21.2383 59.7725Z" fill="#263238"/>
<path d="M185.38 47.2541H174.998L164.554 166.747H174.922C177.289 166.705 179.559 165.796 181.303 164.194C183.046 162.591 184.142 160.406 184.383 158.05L193.317 55.9558C193.439 54.8482 193.323 53.7274 192.978 52.6681C192.632 51.6087 192.065 50.635 191.314 49.8118C190.564 48.9886 189.646 48.3347 188.623 47.8937C187.599 47.4527 186.494 47.2347 185.38 47.2541Z" fill="#263238"/>
<path d="M172.785 166.752H130.06C128.946 166.772 127.84 166.554 126.816 166.114C125.793 165.673 124.875 165.019 124.124 164.196C123.373 163.372 122.806 162.398 122.461 161.339C122.115 160.279 122 159.158 122.123 158.05L131.052 55.9558C131.293 53.5997 132.389 51.4134 134.132 49.8101C135.875 48.2068 138.145 47.2975 140.513 47.2541H183.239C184.353 47.2348 185.458 47.4528 186.482 47.8938C187.505 48.3347 188.423 48.9885 189.175 49.8116C189.926 50.6347 190.493 51.6083 190.839 52.6677C191.185 53.7271 191.301 54.848 191.181 55.9558L182.246 158.05C182.006 160.407 180.911 162.593 179.168 164.197C177.424 165.8 175.153 166.709 172.785 166.752Z" fill="#C32C7B"/>
<path d="M183.063 49.2479H171.964C171.602 49.2544 171.253 49.3825 170.973 49.6116C170.693 49.8407 170.499 50.1575 170.421 50.5107L170.345 50.862C170.154 51.724 169.678 52.4964 168.994 53.0552C168.31 53.6141 167.459 53.9267 166.576 53.943H156.018C155.182 53.9596 154.374 53.645 153.769 53.0678C153.164 52.4906 152.812 51.6977 152.79 50.862V50.5107C152.781 50.1678 152.637 49.8423 152.389 49.6056C152.14 49.3689 151.808 49.2403 151.465 49.2479H140.352C138.527 49.2814 136.777 49.9824 135.433 51.2184C134.09 52.4543 133.246 54.1397 133.06 55.9558L124.14 158.05C124.047 158.904 124.137 159.767 124.403 160.583C124.67 161.399 125.107 162.15 125.686 162.784C126.265 163.418 126.972 163.921 127.76 164.261C128.549 164.601 129.401 164.768 130.259 164.753H172.985C174.809 164.72 176.558 164.019 177.902 162.784C179.245 161.549 180.09 159.865 180.276 158.05L189.177 55.9558C189.271 55.1023 189.182 54.2386 188.916 53.4222C188.65 52.6058 188.214 51.8553 187.635 51.2208C187.057 50.5862 186.35 50.0821 185.562 49.7419C184.773 49.4018 183.921 49.2334 183.063 49.2479Z" fill="#C32C7B"/>
<path opacity="0.7" d="M183.063 49.2479H171.964C171.602 49.2544 171.253 49.3825 170.973 49.6116C170.693 49.8407 170.499 50.1575 170.421 50.5107L170.345 50.862C170.154 51.724 169.678 52.4964 168.994 53.0552C168.31 53.6141 167.459 53.9267 166.576 53.943H156.018C155.182 53.9596 154.374 53.645 153.769 53.0678C153.164 52.4906 152.812 51.6977 152.79 50.862V50.5107C152.781 50.1678 152.637 49.8423 152.389 49.6056C152.14 49.3689 151.808 49.2403 151.465 49.2479H140.352C138.527 49.2814 136.777 49.9824 135.433 51.2184C134.09 52.4543 133.246 54.1397 133.06 55.9558L124.14 158.05C124.047 158.904 124.137 159.767 124.403 160.583C124.67 161.399 125.107 162.15 125.686 162.784C126.265 163.418 126.972 163.921 127.76 164.261C128.549 164.601 129.401 164.768 130.259 164.753H172.985C174.809 164.72 176.558 164.019 177.902 162.784C179.245 161.549 180.09 159.865 180.276 158.05L189.177 55.9558C189.271 55.1023 189.182 54.2386 188.916 53.4222C188.65 52.6058 188.214 51.8553 187.635 51.2208C187.057 50.5862 186.35 50.0821 185.562 49.7419C184.773 49.4018 183.921 49.2334 183.063 49.2479Z" fill="white"/>
<g opacity="0.2">
<path d="M159.028 50.3821C159.003 50.6114 158.895 50.8236 158.724 50.9791C158.554 51.1346 158.333 51.2227 158.102 51.2271C157.994 51.2291 157.886 51.208 157.787 51.1652C157.687 51.1224 157.598 51.059 157.525 50.9791C157.452 50.8992 157.396 50.8046 157.362 50.7017C157.329 50.5988 157.317 50.4898 157.329 50.3821C157.353 50.1528 157.459 49.9401 157.629 49.7837C157.798 49.6273 158.019 49.538 158.249 49.5323C158.358 49.5304 158.467 49.5516 158.567 49.5946C158.667 49.6376 158.757 49.7014 158.83 49.7818C158.904 49.8621 158.96 49.9572 158.994 50.0607C159.028 50.1642 159.039 50.2737 159.028 50.3821Z" fill="black"/>
<path d="M165.114 49.5324H162.209C161.977 49.5369 161.756 49.6257 161.585 49.7822C161.415 49.9387 161.307 50.152 161.283 50.3821C161.272 50.4897 161.285 50.5983 161.319 50.7009C161.353 50.8035 161.408 50.8978 161.481 50.9775C161.554 51.0572 161.643 51.1207 161.742 51.1637C161.842 51.2067 161.949 51.2283 162.057 51.2271H164.967C165.197 51.2216 165.417 51.1329 165.586 50.9775C165.755 50.8221 165.863 50.6106 165.888 50.3821C165.9 50.274 165.889 50.1645 165.856 50.061C165.822 49.9575 165.767 49.8624 165.693 49.7819C165.62 49.7015 165.531 49.6376 165.431 49.5946C165.331 49.5515 165.223 49.5303 165.114 49.5324Z" fill="black"/>
</g>
<path d="M137.888 53.9236H138.785L138.861 53.0264H137.964L137.888 53.9236Z" fill="#C32C7B"/>
<path d="M139.763 53.0261L139.683 53.9234H140.58L140.661 53.0261L140.737 52.1289H139.839L139.763 53.0261Z" fill="#C32C7B"/>
<path d="M141.715 51.2324L141.639 52.1297L141.558 53.0269L141.478 53.9241H142.38L142.455 53.0269L142.536 52.1297L142.612 51.2324H141.715Z" fill="#C32C7B"/>
<path d="M180.338 51.2891L180.281 51.9489H179.84L179.726 53.2639H180.158L180.096 53.9238H184.05L184.283 51.2891H180.338ZM181.924 53.2639H180.604L180.718 51.9489H182.056L181.924 53.2639Z" fill="#C32C7B"/>
<g opacity="0.4">
<path d="M156.052 53.9424L126.566 163.604C127.636 164.378 128.925 164.789 130.246 164.776H132.553L162.351 53.9661L156.052 53.9424Z" fill="white"/>
<path d="M183.064 49.2471H171.965C171.603 49.2536 171.254 49.3817 170.974 49.6108C170.694 49.8399 170.5 50.1566 170.422 50.5099L170.346 50.8612C170.158 51.6989 169.701 52.4523 169.046 53.0067C168.39 53.5611 167.572 53.8863 166.714 53.9326L136.911 164.752H159.641L189.178 54.8963C189.084 53.3479 188.396 51.8957 187.256 50.843C186.117 49.7903 184.615 49.2186 183.064 49.2471Z" fill="white"/>
</g>
<g opacity="0.2">
<path d="M140.755 70.0174H140.423C140.207 70.0168 139.994 69.9716 139.797 69.8846C139.6 69.7977 139.423 69.6708 139.277 69.5121C139.131 69.3533 139.02 69.1661 138.95 68.9622C138.88 68.7583 138.853 68.5422 138.871 68.3274L138.904 67.9808C138.936 67.5925 139.113 67.2305 139.4 66.9667C139.686 66.7029 140.062 66.5565 140.451 66.5566H140.755C140.971 66.5565 141.184 66.6012 141.381 66.6879C141.579 66.7747 141.756 66.9016 141.901 67.0606C142.047 67.2196 142.158 67.4072 142.227 67.6114C142.296 67.8156 142.322 68.0319 142.303 68.2467L142.274 68.5932C142.242 68.9762 142.068 69.3336 141.788 69.5966C141.507 69.8595 141.14 70.0094 140.755 70.0174Z" fill="black"/>
<path d="M139.948 78.9705H139.616C139.4 78.9706 139.186 78.9259 138.989 78.8392C138.791 78.7525 138.614 78.6256 138.468 78.4667C138.322 78.3078 138.211 78.1203 138.141 77.9161C138.071 77.7119 138.045 77.4955 138.063 77.2805L138.097 76.9339C138.129 76.5457 138.306 76.1837 138.592 75.9198C138.879 75.656 139.255 75.5096 139.644 75.5098H139.981C140.197 75.5096 140.41 75.5543 140.607 75.6411C140.805 75.7278 140.982 75.8547 141.127 76.0137C141.273 76.1727 141.384 76.3603 141.453 76.5645C141.522 76.7687 141.548 76.9851 141.529 77.1998L141.5 77.5463C141.467 77.935 141.289 78.2971 141.002 78.5608C140.714 78.8245 140.338 78.9707 139.948 78.9705Z" fill="black"/>
<path d="M139.165 87.9236H138.856C138.641 87.9231 138.428 87.8779 138.231 87.7909C138.033 87.7039 137.856 87.5771 137.71 87.4183C137.565 87.2596 137.453 87.0724 137.383 86.8685C137.313 86.6646 137.286 86.4484 137.304 86.2336L137.337 85.8871C137.369 85.4988 137.546 85.1368 137.833 84.873C138.12 84.6091 138.495 84.4628 138.885 84.4629H139.222C139.437 84.4646 139.649 84.5109 139.845 84.5988C140.041 84.6868 140.217 84.8144 140.361 84.9737C140.505 85.133 140.614 85.3205 140.682 85.5243C140.75 85.7281 140.775 85.9437 140.755 86.1577L140.727 86.5042C140.692 86.8937 140.512 87.2559 140.223 87.5189C139.934 87.7819 139.556 87.9264 139.165 87.9236Z" fill="black"/>
<path d="M138.429 96.3601H138.092C137.876 96.3603 137.663 96.3156 137.466 96.2289C137.268 96.1421 137.091 96.0152 136.946 95.8562C136.8 95.6972 136.689 95.5096 136.62 95.3054C136.551 95.1012 136.525 94.8849 136.544 94.6701L136.573 94.3236C136.606 93.9349 136.784 93.5729 137.071 93.3091C137.359 93.0454 137.735 92.8992 138.125 92.8994H138.457C138.673 92.9 138.886 92.9452 139.083 93.0321C139.28 93.1191 139.458 93.246 139.603 93.4047C139.749 93.5635 139.861 93.7507 139.93 93.9545C140 94.1584 140.027 94.3746 140.01 94.5894L139.976 94.936C139.944 95.3243 139.767 95.6862 139.481 95.9501C139.194 96.2139 138.818 96.3603 138.429 96.3601Z" fill="black"/>
<path d="M137.646 105.313H137.309C137.093 105.313 136.879 105.267 136.682 105.18C136.485 105.093 136.308 104.965 136.162 104.806C136.017 104.647 135.906 104.459 135.837 104.254C135.768 104.05 135.742 103.833 135.761 103.618L135.789 103.272C135.823 102.883 136.001 102.521 136.288 102.257C136.576 101.994 136.952 101.847 137.342 101.848H137.674C137.89 101.848 138.104 101.894 138.301 101.981C138.499 102.068 138.676 102.195 138.822 102.355C138.968 102.514 139.079 102.702 139.149 102.906C139.218 103.111 139.245 103.327 139.226 103.542L139.193 103.889C139.161 104.277 138.984 104.639 138.697 104.903C138.411 105.167 138.035 105.313 137.646 105.313Z" fill="black"/>
<path d="M136.862 114.262H136.525C136.31 114.262 136.097 114.217 135.899 114.13C135.702 114.043 135.525 113.917 135.379 113.758C135.234 113.599 135.123 113.411 135.054 113.207C134.985 113.003 134.959 112.786 134.978 112.572L135.006 112.225C135.04 111.836 135.218 111.474 135.505 111.21C135.793 110.947 136.169 110.801 136.559 110.801H136.891C137.107 110.801 137.32 110.845 137.518 110.932C137.715 111.019 137.893 111.146 138.039 111.305C138.185 111.463 138.296 111.651 138.366 111.855C138.435 112.059 138.462 112.276 138.443 112.491L138.41 112.837C138.378 113.226 138.201 113.588 137.914 113.851C137.628 114.115 137.252 114.262 136.862 114.262Z" fill="black"/>
<path d="M159.417 67.8668H145.631L145.721 66.8271H159.507L159.417 67.8668Z" fill="black"/>
<path d="M152.97 76.8396H148.062L148.152 75.8047H153.06L152.97 76.8396Z" fill="black"/>
<path d="M173.459 86.9079H168.546L168.641 85.873H173.549L173.459 86.9079Z" fill="black"/>
<path d="M151.389 94.8972H146.48L146.571 93.8623H151.479L151.389 94.8972Z" fill="black"/>
<path d="M158.472 94.8972H153.559L153.649 93.8623H158.562L158.472 94.8972Z" fill="black"/>
<path d="M166.803 86.9079H154.261L154.351 85.873H166.893L166.803 86.9079Z" fill="black"/>
<path d="M169.129 94.8972H160.869L160.959 93.8623H169.22L169.129 94.8972Z" fill="black"/>
<path d="M164.069 114.087H159.16L159.25 113.052H164.159L164.069 114.087Z" fill="black"/>
<path d="M171.152 114.087H166.238L166.333 113.052H171.242L171.152 114.087Z" fill="black"/>
<path d="M176.293 114.087H173.549L173.639 113.052H176.383L176.293 114.087Z" fill="black"/>
<path d="M170.71 76.8396H155.429L155.519 75.8047H170.8L170.71 76.8396Z" fill="black"/>
<path d="M157.651 104.245H152.742L152.832 103.21H157.741L157.651 104.245Z" fill="black"/>
<path d="M162.132 104.245H159.293L159.383 103.21H162.222L162.132 104.245Z" fill="black"/>
<path d="M172.32 104.245H164.302L164.392 103.21H172.41L172.32 104.245Z" fill="black"/>
</g>
<g opacity="0.2">
<path d="M136.155 123.002H135.823C135.607 123.002 135.393 122.957 135.195 122.87C134.997 122.783 134.82 122.656 134.674 122.496C134.527 122.337 134.416 122.149 134.347 121.944C134.278 121.739 134.252 121.522 134.271 121.307L134.304 120.96C134.336 120.572 134.513 120.21 134.8 119.946C135.087 119.682 135.462 119.536 135.852 119.536H136.184C136.4 119.536 136.614 119.581 136.812 119.668C137.01 119.755 137.187 119.882 137.333 120.041C137.479 120.201 137.591 120.389 137.66 120.594C137.729 120.799 137.755 121.016 137.736 121.231L137.708 121.573C137.676 121.962 137.498 122.325 137.21 122.59C136.923 122.855 136.546 123.002 136.155 123.002Z" fill="black"/>
<path d="M135.371 131.95H135.058C134.842 131.95 134.629 131.905 134.431 131.819C134.234 131.732 134.056 131.605 133.91 131.446C133.764 131.287 133.653 131.1 133.583 130.896C133.514 130.691 133.487 130.475 133.506 130.26L133.539 129.913C133.571 129.525 133.748 129.163 134.035 128.899C134.321 128.635 134.697 128.489 135.087 128.489H135.424C135.639 128.489 135.852 128.534 136.05 128.621C136.247 128.707 136.424 128.834 136.57 128.993C136.715 129.152 136.826 129.34 136.895 129.544C136.964 129.748 136.99 129.965 136.971 130.179L136.943 130.526C136.909 130.918 136.728 131.283 136.437 131.547C136.145 131.811 135.765 131.955 135.371 131.95Z" fill="black"/>
<path d="M134.584 140.903H134.252C134.036 140.903 133.822 140.858 133.624 140.771C133.426 140.684 133.248 140.557 133.102 140.398C132.956 140.238 132.845 140.05 132.776 139.845C132.706 139.641 132.68 139.424 132.699 139.208L132.733 138.862C132.765 138.473 132.942 138.111 133.229 137.848C133.515 137.584 133.891 137.437 134.28 137.438H134.617C134.833 137.438 135.046 137.483 135.244 137.571C135.441 137.658 135.618 137.785 135.764 137.945C135.909 138.104 136.02 138.292 136.089 138.496C136.158 138.701 136.184 138.917 136.165 139.132L136.136 139.479C136.103 139.868 135.925 140.23 135.638 140.493C135.35 140.757 134.974 140.903 134.584 140.903Z" fill="black"/>
<path d="M133.853 149.34H133.516C133.3 149.34 133.087 149.295 132.889 149.208C132.692 149.122 132.515 148.995 132.369 148.836C132.224 148.677 132.113 148.489 132.044 148.285C131.975 148.081 131.949 147.864 131.968 147.65L131.997 147.303C132.03 146.914 132.208 146.552 132.495 146.289C132.783 146.025 133.159 145.879 133.549 145.879H133.881C134.097 145.879 134.311 145.925 134.508 146.012C134.706 146.099 134.883 146.227 135.029 146.386C135.175 146.545 135.286 146.733 135.356 146.937C135.425 147.142 135.452 147.358 135.434 147.574L135.4 147.92C135.367 148.308 135.19 148.668 134.903 148.931C134.616 149.194 134.242 149.34 133.853 149.34Z" fill="black"/>
<path d="M154.841 120.842H141.055L141.145 119.807H154.931L154.841 120.842Z" fill="black"/>
<path d="M148.393 129.819H143.484L143.575 128.779H148.483L148.393 129.819Z" fill="black"/>
<path d="M168.882 139.883H163.969L164.059 138.848H168.972L168.882 139.883Z" fill="black"/>
<path d="M146.813 147.873H141.904L141.994 146.838H146.903L146.813 147.873Z" fill="black"/>
<path d="M153.896 147.873H148.982L149.073 146.838H153.986L153.896 147.873Z" fill="black"/>
<path d="M162.227 139.883H149.685L149.775 138.848H162.317L162.227 139.883Z" fill="black"/>
<path d="M178.957 128.779H177.29H175.728H169.078L168.987 129.814H175.633H177.2H178.862L178.957 128.779Z" fill="black"/>
<path d="M164.553 147.873H156.293L156.383 146.838H164.643L164.553 147.873Z" fill="black"/>
<path d="M166.129 129.819H150.853L150.943 128.779H166.219L166.129 129.819Z" fill="black"/>
<path d="M164.781 120.842H159.872L159.962 119.807H164.871L164.781 120.842Z" fill="black"/>
<path d="M179.744 119.807H178.078H176.507H167.33L167.24 120.842H176.421H177.983H179.65L179.744 119.807Z" fill="black"/>
</g>
</svg>
