<svg width="189" height="151" viewBox="0 0 189 151" fill="none" xmlns="http://www.w3.org/2000/svg">
<path d="M34.3044 65.303L18.9463 59.3499C26.4971 39.8905 40.6552 23.709 58.9396 13.6411C61.2068 12.3941 63.5654 11.2313 65.9495 10.1782C67.5804 9.44684 69.2405 8.78498 70.9117 8.16699L76.6417 23.591C75.2851 24.0956 73.9175 24.6514 72.5864 25.2365C70.6374 26.0958 68.7103 27.0648 66.8564 28.0631C51.9707 36.2703 40.4472 49.4534 34.3044 65.303Z" fill="#C32C7B"/>
<path d="M76.0525 31.3249L65.832 0.411133L92.6759 9.62968L76.0525 31.3249Z" fill="#C32C7B"/>
<path d="M39.1712 44.6388L37.4416 43.4686L38.2753 45.2677L37.9937 45.6773L36.0666 45.5822L37.7487 46.7268L37.1673 47.5788L33.9092 45.3555L34.4284 44.5986L37.0869 44.7375L35.9716 42.3387L36.4872 41.5781L39.7489 43.7941L39.1712 44.6388Z" fill="white"/>
<path d="M41.2524 40.6747L40.2139 41.9801L40.6198 42.7114L39.9104 43.6037L37.9102 39.7861L38.594 38.9268L42.7663 40.0238L42.0349 40.9306L41.2524 40.6747ZM40.404 40.4187L39.0949 40.0384L39.7641 41.2232L40.404 40.4187Z" fill="white"/>
<path d="M43.3147 37.8446L42.9088 38.298L43.684 39.0001L42.9527 39.8265L40.0273 37.1827L41.2377 35.8444C41.9691 35.0472 42.8247 34.9192 43.4939 35.5263C43.6935 35.6934 43.8388 35.9163 43.9111 36.1664C43.9834 36.4166 43.9794 36.6826 43.8998 36.9304L45.3881 37.1316L44.5872 38.0165L43.3147 37.8446ZM41.8301 36.4843L41.4132 36.9451L42.2689 37.7203L42.6858 37.2595C42.9929 36.9158 42.9893 36.6013 42.7223 36.36C42.4554 36.1186 42.1373 36.1333 41.8301 36.477V36.4843Z" fill="white"/>
<path d="M45.7934 34.6995V35.3065L46.4845 36.0123L45.6946 36.7838L42.9375 33.9645L43.7273 33.193L44.8719 34.3668L44.817 32.1289L45.6946 31.2695L45.7641 33.6427L48.5103 34.0267L47.5998 34.9189L45.7934 34.6995Z" fill="white"/>
<path d="M50.5294 31.1605L51.0962 31.8114L48.712 33.8884L46.123 30.9155L48.456 28.8896L49.0192 29.5369L47.5199 30.8423L47.9587 31.3433L49.2788 30.1951L49.8236 30.8204L48.5036 31.9723L48.9789 32.5134L50.5294 31.1605Z" fill="white"/>
<path d="M50.3284 28.5239L49.374 29.2553L48.8291 28.5568L51.6155 26.3848L52.1567 27.0832L51.206 27.8145L53.0855 30.2243L52.2079 30.9118L50.3284 28.5239Z" fill="white"/>
<path d="M52.0615 26.0994L52.9684 25.4521L55.2611 28.6554L54.3543 29.3063L52.0615 26.0994Z" fill="white"/>
<path d="M56.8767 22.8525L59.0122 26.1655L58.2407 26.6628L55.6407 25.8401L56.7816 27.6063L55.8784 28.2096L53.7393 24.8966L54.5108 24.3993L57.1107 25.2221L55.9735 23.4559L56.8767 22.8525Z" fill="white"/>
<path d="M60.9466 22.7245L61.8059 22.2455L62.5994 23.6716C62.3342 24.1988 61.9145 24.6325 61.3963 24.9149C60.2993 25.5256 59.0853 25.2294 58.5039 24.1836C57.9225 23.1377 58.3101 21.9457 59.4254 21.324C59.6999 21.1528 60.0093 21.0455 60.3309 21.0101C60.6524 20.9746 60.9778 21.0119 61.283 21.1193L60.9722 22.0225C60.8018 21.9583 60.6195 21.9326 60.438 21.9472C60.2566 21.9617 60.0806 22.0161 59.9227 22.1066C59.6613 22.252 59.4685 22.4954 59.3865 22.7831C59.3046 23.0707 59.3402 23.3792 59.4857 23.6405C59.6312 23.9019 59.8745 24.0948 60.1622 24.1767C60.4499 24.2587 60.7583 24.223 61.0197 24.0775C61.202 23.9773 61.3604 23.8389 61.4841 23.6716L60.9466 22.7245Z" fill="white"/>
<path d="M34.2644 150.891C23.3608 139.025 15.9014 124.408 12.6899 108.616C12.1743 106.079 11.7647 103.497 11.4685 100.897C10.9571 96.4064 10.7848 91.8837 10.9529 87.3672L27.4081 87.9888C27.2708 91.6728 27.4113 95.3619 27.8286 99.0248C28.07 101.138 28.4064 103.263 28.8269 105.336C31.4408 118.192 37.509 130.092 46.3791 139.757L34.2644 150.891Z" fill="#C32C7B"/>
<path d="M35.0502 95.7702L0.139648 92.428L20.8768 69.9648L35.0502 95.7702Z" fill="#C32C7B"/>
<path d="M29.8028 127.935L28.9032 128.001C28.9391 127.541 28.8453 127.08 28.6326 126.67C28.4169 126.264 28.2158 126.166 28.0475 126.257C27.4954 126.549 28.9581 128.312 27.6819 129.003C27.0639 129.336 26.285 129.098 25.7329 128.067C25.4941 127.631 25.3683 127.142 25.3672 126.645L26.2594 126.557C26.2516 126.937 26.337 127.314 26.5081 127.654C26.7275 128.067 26.9469 128.144 27.1224 128.049C27.6526 127.763 26.2009 126.005 27.4881 125.321C28.0951 124.995 28.8813 125.226 29.4334 126.261C29.7132 126.772 29.8414 127.353 29.8028 127.935Z" fill="white"/>
<path d="M26.7274 125.13L24.7418 126.044L24.2774 125.031L26.2301 124.132C26.8444 123.85 26.9615 123.481 26.775 123.057C26.5885 122.633 26.2192 122.494 25.6048 122.779L23.6521 123.678L23.1914 122.68L25.177 121.766C26.2447 121.272 27.1297 121.623 27.6197 122.68C28.1097 123.737 27.7952 124.636 26.7274 125.13Z" fill="white"/>
<path d="M22.9065 117.963C23.7439 117.641 24.5045 118.069 24.8921 119.06L25.1408 119.7L26.1025 119.334L26.5011 120.373L22.8444 121.792L22.1789 120.12C21.7913 119.118 22.0692 118.292 22.9065 117.963ZM23.3124 119.012C22.9724 119.144 22.8554 119.437 23.0236 119.868L23.2466 120.442L24.3217 120.029L24.0986 119.451C23.9304 119.023 23.6489 118.881 23.3124 119.023V119.012Z" fill="white"/>
<path d="M21.6227 113.977C22.4747 113.703 23.2097 114.178 23.5388 115.202L23.7472 115.856L24.7272 115.542L25.0636 116.606L21.3118 117.802L20.7743 116.098C20.4379 115.063 20.7743 114.269 21.6227 113.977ZM21.9627 115.048C21.6153 115.158 21.48 115.443 21.6227 115.886L21.8091 116.474L22.9062 116.109L22.716 115.52C22.5807 115.092 22.3065 114.939 21.9627 115.048Z" fill="white"/>
<path d="M21.9735 113.385C20.8289 113.67 19.7612 112.976 19.4577 111.754C19.1542 110.533 19.7722 109.418 20.9204 109.136C22.0686 108.854 23.1144 109.542 23.4362 110.767C23.758 111.992 23.1217 113.1 21.9735 113.385ZM21.191 110.226C20.9914 110.287 20.8142 110.405 20.6811 110.566C20.5481 110.727 20.4651 110.923 20.4424 111.13C20.4197 111.338 20.4583 111.547 20.5534 111.733C20.6485 111.919 20.796 112.073 20.9776 112.176C21.1592 112.279 21.3669 112.326 21.5752 112.312C21.7834 112.298 21.983 112.223 22.1492 112.097C22.3155 111.971 22.4411 111.799 22.5106 111.602C22.5801 111.405 22.5904 111.193 22.5403 110.99C22.5068 110.848 22.4445 110.715 22.3571 110.598C22.2697 110.482 22.1592 110.385 22.0326 110.313C21.9059 110.241 21.7657 110.197 21.6209 110.181C21.4761 110.166 21.3297 110.181 21.191 110.226Z" fill="white"/>
<path d="M21.3999 106.628L21.5096 107.224L22.5408 107.041L22.7346 108.138L18.8585 108.833L18.5403 107.059C18.3502 106.003 18.7817 105.231 19.6666 105.081C19.9211 105.025 20.1865 105.046 20.4288 105.142C20.6712 105.238 20.8794 105.404 21.0269 105.619L22.0947 104.565L22.3067 105.739L21.3999 106.628ZM19.4179 106.972L19.5276 107.582L20.6612 107.377L20.5515 106.767C20.4711 106.313 20.2188 106.123 19.8641 106.189C19.5094 106.255 19.3338 106.518 19.4179 106.957V106.972Z" fill="white"/>
<path d="M18.9094 103.665L19.0557 104.865L18.1781 104.974L17.7539 101.471L18.6315 101.365L18.7741 102.561L21.8092 102.195L21.9445 103.292L18.9094 103.665Z" fill="white"/>
<path d="M156.701 121.181L185.45 136.462L159.678 148.35L156.701 121.181Z" fill="#C32C7B"/>
<path d="M173.833 140.539L160.018 131.606C161.582 129.182 163.004 126.668 164.274 124.077C165.214 122.168 166.073 120.201 166.834 118.226C172.942 102.363 173.275 84.8565 167.773 68.7729L183.355 63.4414C190.101 83.1854 189.686 104.673 182.184 124.143C181.248 126.556 180.195 128.966 179.047 131.302C177.493 134.482 175.751 137.566 173.833 140.539Z" fill="#C32C7B"/>
<path d="M178.719 87.5753C179.9 87.5132 180.81 88.3981 180.873 89.6597C180.935 90.9212 180.119 91.8903 178.938 91.9488C178.658 91.9617 178.377 91.9172 178.114 91.818C177.852 91.7188 177.612 91.567 177.41 91.3718C177.208 91.1767 177.048 90.9423 176.94 90.6831C176.831 90.4239 176.777 90.1453 176.781 89.8644C176.718 88.6102 177.538 87.6412 178.719 87.5753ZM178.88 90.8225C179.086 90.8001 179.282 90.7177 179.442 90.5855C179.602 90.4533 179.72 90.277 179.782 90.0785C179.843 89.8799 179.845 89.6678 179.787 89.4682C179.729 89.2686 179.614 89.0904 179.456 88.9554C179.298 88.8205 179.104 88.7347 178.898 88.7088C178.692 88.6829 178.482 88.7179 178.296 88.8095C178.109 88.9011 177.954 89.0453 177.848 89.2243C177.743 89.4034 177.692 89.6094 177.702 89.8169C177.707 89.9627 177.742 90.1059 177.806 90.2374C177.869 90.369 177.958 90.486 178.069 90.5812C178.18 90.6763 178.309 90.7475 178.448 90.7903C178.588 90.8331 178.735 90.8466 178.88 90.8298V90.8225Z" fill="white"/>
<path d="M177.984 94.3148V93.7042H176.934V92.5889L180.876 92.651L180.847 94.4501C180.847 95.5252 180.262 96.1944 179.362 96.1798C179.102 96.1863 178.845 96.1146 178.625 95.9738C178.405 95.833 178.233 95.6296 178.13 95.3899L176.916 96.2054V95.0133L177.984 94.3148ZM179.999 94.3551V93.7371L178.843 93.7188V94.3368C178.843 94.8012 179.044 95.0352 179.406 95.0389C179.768 95.0425 179.991 94.8158 179.999 94.3551Z" fill="white"/>
<path d="M180.81 96.999L180.66 98.8567C180.558 100.158 179.728 100.989 178.521 100.893C177.314 100.798 176.63 99.844 176.733 98.5422L176.883 96.6846L180.81 96.999ZM177.625 98.5678C177.585 98.7228 177.579 98.8848 177.608 99.0424C177.637 99.1999 177.7 99.3492 177.793 99.4797C177.886 99.6103 178.006 99.7189 178.145 99.7979C178.285 99.877 178.44 99.9245 178.599 99.9373C178.759 99.95 178.92 99.9276 179.07 99.8717C179.22 99.8157 179.356 99.7276 179.468 99.6134C179.581 99.4993 179.667 99.3619 179.72 99.2109C179.774 99.06 179.794 98.8991 179.779 98.7396L179.834 98.0375L177.68 97.8657L177.625 98.5678Z" fill="white"/>
<path d="M176.886 104.51L176.034 104.39L176.48 101.256L180.382 101.812L179.947 104.872L179.109 104.763L179.387 102.795L178.729 102.7L178.484 104.434L177.658 104.317L177.906 102.583L177.193 102.481L176.886 104.51Z" fill="white"/>
<path d="M176.623 106.843L176.744 106.247L175.717 106.038L175.94 104.941L179.801 105.72L179.435 107.486C179.223 108.54 178.543 109.092 177.658 108.913C177.401 108.871 177.162 108.753 176.973 108.574C176.783 108.396 176.651 108.165 176.594 107.911L175.212 108.499L175.453 107.322L176.623 106.843ZM178.594 107.252L178.719 106.645L177.589 106.419L177.464 107.026C177.373 107.479 177.538 107.757 177.889 107.819C178.24 107.881 178.507 107.706 178.594 107.252Z" fill="white"/>
<path d="M175.508 108.785L176.21 109.352C175.87 109.664 175.625 110.064 175.5 110.507C175.383 110.954 175.464 111.162 175.65 111.213C176.254 111.37 176.382 109.089 177.8 109.462C178.481 109.641 178.897 110.343 178.59 111.476C178.47 111.96 178.23 112.405 177.892 112.771L177.179 112.226C177.448 111.953 177.645 111.617 177.753 111.25C177.874 110.796 177.753 110.592 177.574 110.544C176.989 110.39 176.842 112.665 175.449 112.296C174.787 112.12 174.352 111.414 174.663 110.284C174.8 109.716 175.093 109.197 175.508 108.785Z" fill="white"/>
<path d="M162.142 54.4165C153.974 41.3552 141.82 31.269 127.477 25.6492C125.509 24.8739 123.476 24.1865 121.436 23.5685C116.944 22.2365 112.335 21.3401 107.672 20.8918L109.237 4.50977C114.955 5.06381 120.606 6.16588 126.113 7.8008C128.606 8.53214 131.093 9.39512 133.503 10.3605C151.116 17.257 166.041 29.6398 176.07 45.6769L162.142 54.4165Z" fill="#C32C7B"/>
<path d="M150.492 50.0181L177.731 32.1807L175.738 60.4945L150.492 50.0181Z" fill="#C32C7B"/>
<path d="M131.394 21.1954L132.063 20.5957C132.319 20.9795 132.676 21.2856 133.094 21.4806C133.514 21.6708 133.734 21.6232 133.825 21.4477C134.081 20.8773 131.847 20.3799 132.443 19.0452C132.732 18.4017 133.489 18.1091 134.56 18.5882C135.018 18.7842 135.419 19.0923 135.727 19.484L135.076 20.102C134.85 19.7893 134.55 19.538 134.202 19.3707C133.774 19.1805 133.555 19.2537 133.471 19.4365C133.226 19.985 135.452 20.486 134.86 21.8134C134.579 22.4387 133.814 22.7422 132.747 22.2631C132.203 22.0431 131.734 21.6727 131.394 21.1954Z" fill="white"/>
<path d="M137.471 23.6453L136.008 22.8774L135.379 23.4113L134.37 22.8883L137.731 20.1934L138.707 20.7016L138.436 25.0019L137.409 24.468L137.471 23.6453ZM137.562 22.764L137.694 21.411L136.663 22.296L137.562 22.764Z" fill="white"/>
<path d="M140.653 21.7549L141.611 22.3253L140.049 24.9545L141.665 25.9162L141.216 26.6768L138.638 25.1446L140.653 21.7549Z" fill="white"/>
<path d="M144.645 27.9348L144.166 28.6661L141.533 26.9072L143.727 23.6162L146.287 25.3349L145.808 26.0662L144.155 24.9692L143.789 25.5214L145.252 26.494L144.791 27.1888L143.329 26.2161L142.93 26.8158L144.645 27.9348Z" fill="white"/>
<path d="M144.619 28.5381L145.405 28.0993C145.568 28.5327 145.848 28.9125 146.213 29.1963C146.579 29.4742 146.802 29.4779 146.919 29.3243C147.285 28.8233 145.23 27.8433 146.107 26.6732C146.532 26.11 147.336 25.9967 148.272 26.6988C148.675 26.9915 148.997 27.3815 149.208 27.8323L148.437 28.2894C148.284 27.9371 148.047 27.6281 147.746 27.3899C147.38 27.1083 147.142 27.1339 147.014 27.2911C146.649 27.7738 148.711 28.7538 147.837 29.9167C147.424 30.4652 146.612 30.5895 145.676 29.8837C145.205 29.5429 144.839 29.0767 144.619 28.5381Z" fill="white"/>
</svg>
