<svg width="70" height="70" viewBox="0 0 70 70" fill="none" xmlns="http://www.w3.org/2000/svg">
<g clip-path="url(#clip0_5071_21611)">
<path d="M34.9997 14.6185C39.03 14.6185 42.3089 11.3395 42.3089 7.30923C42.3089 3.27892 39.03 0 34.9997 0C30.9694 0 27.6904 3.27892 27.6904 7.30923C27.6904 11.3395 30.9694 14.6185 34.9997 14.6185Z" fill="#3A3A3A"/>
<path d="M47.4587 37.0399V24.2742C47.4587 21.4929 45.6712 19.0264 43.0279 18.1604L43.0157 18.1564L40.9296 17.5163C40.6005 17.4152 40.2489 17.5894 40.1306 17.9139L35.7439 29.9499C35.4908 30.6442 34.5089 30.6442 34.2558 29.9499L29.8691 17.9139C29.7736 17.6518 29.5262 17.4873 29.261 17.4873C29.1981 17.4873 26.9864 18.1555 26.9864 18.1555C24.3214 19.0436 22.541 21.5141 22.541 24.3075V37.0397C22.541 37.166 22.578 37.2898 22.6473 37.3954L27.2244 44.3607V61.9849C27.2244 62.3427 27.5146 62.6328 27.8723 62.6328H42.1269C42.4847 62.6328 42.7748 62.3427 42.7748 61.9849V44.3607L47.3519 37.3954C47.4217 37.2898 47.4587 37.1663 47.4587 37.0399Z" fill="#3A3A3A"/>
<path d="M12.2968 57.2835C12.7581 56.2335 12.2806 55.0086 11.2308 54.5473C10.1796 54.0851 8.95568 54.5636 8.49467 55.6134L5.25299 62.9945C4.79174 64.0445 5.26925 65.2694 6.31901 65.7306L13.7001 68.9723C13.9719 69.0915 14.2552 69.1481 14.534 69.1481C15.333 69.1481 16.0945 68.6845 16.4363 67.906C16.8975 66.856 16.42 65.6311 15.3702 65.1699L12.5787 63.9441L24.9228 59.1341V54.6772L11.071 60.0747L12.2968 57.2835Z" fill="#C32C7B"/>
<path d="M15.9028 39.9692C16.9714 39.5529 17.5001 38.349 17.0836 37.2807C16.6672 36.2118 15.463 35.6822 14.3951 36.0999L6.88366 39.0269C5.81504 39.4431 5.28639 40.647 5.70286 41.7154L8.62989 49.2269C8.94972 50.0478 9.7341 50.55 10.5651 50.55C10.8159 50.55 11.0709 50.5045 11.3184 50.4079C12.387 49.9917 12.9157 48.7878 12.4992 47.7194L11.3922 44.8788L24.9229 50.8213V46.2857L13.0623 41.0767L15.9028 39.9692Z" fill="#C32C7B"/>
<path d="M61.3702 56.7307C60.9537 55.6618 59.7498 55.1322 58.6817 55.5499C57.613 55.9661 57.0844 57.17 57.5009 58.2384L58.6079 61.0792L45.0771 55.1367V59.6723L56.9378 64.8813L54.0972 65.9881C53.0286 66.4044 52.5 67.6083 52.9164 68.6766C53.2363 69.4976 54.0207 70.0001 54.8517 69.9998C55.1025 69.9998 55.3575 69.9543 55.605 69.8577L63.1164 66.9307C64.185 66.5144 64.7137 65.3105 64.2972 64.2421L61.3702 56.7307Z" fill="#C32C7B"/>
<path d="M63.6799 40.2273L56.2988 36.9856C55.2476 36.5239 54.0239 37.0019 53.5627 38.0516C53.1014 39.1014 53.5789 40.3265 54.6287 40.7878L57.4202 42.0136L45.0762 46.8236V51.2807L58.9279 45.8829L57.7021 48.6742C57.2409 49.7242 57.7184 50.9491 58.7681 51.4103C59.0399 51.5296 59.3232 51.5861 59.602 51.5861C60.401 51.5861 61.1625 51.1225 61.5043 50.3441L64.7459 42.9629C65.2072 41.9137 64.7297 40.6885 63.6799 40.2273Z" fill="#C32C7B"/>
<path d="M36.6659 17.7524C36.4899 17.5605 36.2323 17.4639 35.9716 17.4639H34.0283C33.7679 17.4639 33.5103 17.5605 33.334 17.7524C33.0613 18.0496 33.0217 18.4788 33.2152 18.8144L34.2539 20.3803L33.7677 24.4825L34.7253 27.0298C34.8186 27.286 35.1809 27.286 35.2744 27.0298L36.232 24.4825L35.7458 20.3803L36.7845 18.8144C36.9782 18.4788 36.9386 18.0496 36.6659 17.7524Z" fill="#3A3A3A"/>
</g>
<defs>
<clipPath id="clip0_5071_21611">
<rect width="70" height="70" fill="white"/>
</clipPath>
</defs>
</svg>
