<svg width="70" height="70" viewBox="0 0 70 70" fill="none" xmlns="http://www.w3.org/2000/svg">
<path d="M35.0823 26.9062C39.2386 26.9062 42.5745 23.5703 42.5745 19.4141C42.5745 15.2578 39.2386 11.8945 35.0823 11.8945C30.9261 11.8945 27.5901 15.2305 27.5901 19.3867C27.5901 23.5703 30.9534 26.9062 35.0823 26.9062ZM17.6643 48.6172H4.18387C-0.191128 48.6172 -0.437222 41.9453 4.2659 41.9453H15.9417L22.6409 32.0742C24.6097 29.3945 26.8792 28.1094 30.0511 28.1094H40.0315C43.2307 28.1094 45.4729 29.2852 47.4417 32.1016L54.1683 41.9727H65.9261C70.6292 41.9727 70.3558 48.6445 66.0901 48.6445H52.6097C51.5432 48.6445 50.2581 48.2617 49.4925 47.1133L44.3518 39.7852L44.3245 58.1602H25.9222L25.8948 39.7852L20.7542 47.1133C20.0159 48.2344 18.7307 48.6172 17.6643 48.6172Z" fill="#3A3A3A"/>
<path d="M8.47656 22.9688C4.10156 22.9688 0.546875 26.5234 0.546875 30.8984C0.546875 35.2734 4.10156 38.8281 8.47656 38.8281C12.8516 38.8281 16.4062 35.2734 16.4062 30.8984C16.4062 26.5234 12.8516 22.9688 8.47656 22.9688ZM8.47656 37.2422C4.97656 37.2422 2.10547 34.3984 2.10547 30.8711C2.10547 27.3438 4.97656 24.5273 8.47656 24.5273C11.9766 24.5273 14.8477 27.3711 14.8477 30.8984C14.793 34.3984 11.9492 37.2422 8.47656 37.2422ZM12.4414 29.3398C12.3047 29.0938 11.9766 28.9297 11.6484 29.1211L8.83203 30.3789V27.043C8.83203 26.8516 8.77734 26.7148 8.64062 26.5781C8.53125 26.4688 8.39453 26.4414 8.23047 26.4414C7.92969 26.4414 7.60156 26.6602 7.60156 27.043V31.3906C7.60156 31.6367 7.73828 31.8555 7.95703 31.9648C8.06641 32.0195 8.14844 32.0469 8.25781 32.0469C8.36719 32.0469 8.44922 32.0195 8.55859 31.9648L12.1953 30.2422C12.3594 30.1602 12.4688 30.0234 12.5234 29.8594C12.5234 29.6953 12.5234 29.5039 12.4414 29.3398Z" fill="#3A3A3A"/>
<path d="M61.1133 27.2344V26.2227L60.0469 26.0313C59.9648 25.6758 59.8281 25.3477 59.6367 25.0742L60.2656 24.1992L59.5547 23.4883L58.6797 24.1172C58.3789 23.9258 58.0508 23.7891 57.7227 23.707L57.5312 22.6406H56.5195L56.3281 23.707C55.9727 23.7891 55.6445 23.9258 55.3711 24.1172L54.4961 23.4883L53.7852 24.1992L54.4141 25.0742C54.2227 25.375 54.0859 25.7031 54.0039 26.0313L52.9375 26.2227V27.2344L54.0039 27.4258C54.0859 27.7812 54.2227 28.1094 54.4141 28.3828L53.7852 29.2578L54.4961 29.9688L55.3711 29.3398C55.6719 29.5313 56 29.668 56.3281 29.75L56.5195 30.8164H57.5312L57.7227 29.75C58.0781 29.668 58.4062 29.5313 58.6797 29.3398L59.5547 29.9688L60.2656 29.2578L59.6367 28.3828C59.8281 28.082 59.9648 27.7539 60.0469 27.4258L61.1133 27.2344ZM57.0117 28.3555C56.1094 28.3555 55.3984 27.6172 55.3984 26.7422C55.3984 25.8672 56.1367 25.1289 57.0117 25.1289C57.9141 25.1289 58.625 25.8672 58.625 26.7422C58.625 27.6172 57.9141 28.3555 57.0117 28.3555ZM68.1953 33.0859L69.4531 32.3203L68.9336 31.0352L67.5117 31.3633C67.2383 30.9805 66.9102 30.625 66.5 30.3516L66.8281 28.9297L65.5703 28.4102L64.7773 29.6406C64.3125 29.5586 63.8203 29.5586 63.3555 29.6406L62.5898 28.4102L61.3047 28.9297L61.6328 30.3516C61.25 30.625 60.8945 30.9531 60.6211 31.3633L59.1992 31.0352L58.6797 32.293L59.9102 33.0859C59.8281 33.5508 59.8281 34.043 59.9102 34.5078L58.6523 35.2734L59.1719 36.5586L60.5938 36.2305C60.8672 36.6133 61.1953 36.9687 61.6055 37.2422L61.2773 38.6641L62.5352 39.1836L63.3281 37.9531C63.793 38.0352 64.2852 38.0352 64.75 37.9531L65.5156 39.1836L66.8008 38.6641L66.4727 37.2422C66.8555 36.9687 67.2109 36.6406 67.4844 36.2305L68.9062 36.5586L69.4258 35.3008L68.1953 34.5078C68.2773 34.0156 68.2773 33.5508 68.1953 33.0859ZM66.0625 34.6172C65.5977 35.7383 64.3125 36.2578 63.1914 35.793C62.0703 35.3281 61.5508 34.043 62.0156 32.9219C62.4805 31.8008 63.7656 31.2812 64.8867 31.7461C66.0078 32.2109 66.5547 33.4961 66.0625 34.6172Z" fill="#C32C7B"/>
</svg>
