<svg width="70" height="70" viewBox="0 0 70 70" fill="none" xmlns="http://www.w3.org/2000/svg">
<g clip-path="url(#clip0_5071_16421)">
<path d="M32.7667 35.277H26.3965V37.2486H32.7667V67.7515H44.7482V65.781H34.7371V37.2486H42.9809V35.277H34.7371V8.05637H44.7482V6.08594H32.7667V35.277Z" fill="#C32C7B"/>
<path d="M12.685 17.0722C15.9807 17.0722 18.6523 14.4006 18.6523 11.105C18.6523 7.80933 15.9807 5.1377 12.685 5.1377C9.38941 5.1377 6.71777 7.80933 6.71777 11.105C6.71777 14.4006 9.38941 17.0722 12.685 17.0722Z" fill="#3A3A3A"/>
<path d="M16.6533 18.5259C16.5531 18.4644 16.4491 18.4213 16.345 18.3771C15.679 17.9338 14.933 17.607 14.1703 17.4201L12.685 18.9165L11.2446 17.4033C11.2378 17.4033 11.2345 17.405 11.2283 17.4067C10.465 17.5897 9.71454 17.9131 9.04635 18.3552C8.92827 18.4039 8.81019 18.4565 8.69491 18.5259C4.06178 21.3671 1.40189 23.614 0.579803 36.763C0.499776 38.0406 1.47184 39.1402 2.74779 39.2203C2.79815 39.2236 2.8474 39.2247 2.89497 39.2247C4.10823 39.2247 5.12787 38.2801 5.20509 37.0517C5.48267 32.6117 5.93205 29.7358 6.57673 27.7513V35.7797C6.57673 36.402 6.69817 36.9823 6.91027 37.5168C6.89348 37.6376 6.88173 37.7602 6.88173 37.8833L6.88564 60.069C6.88564 61.5817 8.11066 62.8062 9.62276 62.8062C11.1354 62.8062 12.3604 61.5812 12.3604 60.0674L12.3576 41.0295C12.4668 41.034 12.5759 41.0418 12.685 41.0418C12.7052 41.0418 12.7276 41.039 12.7488 41.039V60.0662C12.7488 61.5789 13.9733 62.805 15.4854 62.805C16.998 62.805 18.2231 61.58 18.2231 60.0662L18.2259 38.0193C18.5835 37.3539 18.7928 36.6023 18.7928 35.7775V27.8196C19.4274 29.8007 19.8695 32.662 20.1437 37.0517C20.2198 38.2801 21.2394 39.2247 22.4538 39.2247C22.5014 39.2247 22.5512 39.2236 22.5993 39.2203C23.8753 39.1402 24.8468 38.0411 24.7679 36.763C23.9458 23.614 21.2853 21.3671 16.6533 18.5259ZM12.6985 30.7257H12.6699L11.2328 28.7575L12.6699 19.137H12.699L14.1367 28.7575L12.6985 30.7257Z" fill="#3A3A3A"/>
<path d="M68.4538 13.0658L67.2181 12.6102C67.3166 11.7098 67.2836 10.7909 67.1146 9.87648L68.3071 9.3286C69.052 8.98611 69.3783 8.09911 69.0358 7.35425L68.339 5.84271C67.9971 5.09729 67.1118 4.76991 66.3675 5.11352L65.1721 5.66363C64.5884 4.94059 63.9107 4.31997 63.1642 3.80735L63.6192 2.5745C63.9023 1.80502 63.5089 0.946557 62.74 0.662828L61.177 0.0852959C60.431 -0.18836 59.5412 0.220725 59.2659 0.965584L58.8109 2.20123C57.9127 2.1033 56.9916 2.13632 56.0788 2.30476L55.5287 1.11221C55.1862 0.367346 54.3014 0.0394068 53.556 0.383575L52.0439 1.07919C51.2991 1.4228 50.9722 2.30868 51.3147 3.05298L51.8643 4.2461C51.1429 4.83035 50.5217 5.50805 50.0091 6.25571L48.7763 5.80129C48.032 5.52372 47.1394 5.93393 46.864 6.67934L46.2887 8.24293C46.1511 8.61508 46.1656 9.01969 46.3318 9.38065C46.4997 9.74105 46.7963 10.0158 47.1674 10.1513L48.403 10.6096C48.3056 11.5095 48.337 12.4284 48.5082 13.3411L47.3134 13.8907C46.5686 14.2343 46.2417 15.1179 46.5853 15.8628L47.281 17.3766C47.6251 18.1197 48.5093 18.4482 49.2548 18.1046L50.4473 17.5551C51.031 18.2781 51.7087 18.8993 52.4586 19.4102L52.0014 20.6448C51.8626 21.0175 51.8794 21.4215 52.0456 21.7825C52.2112 22.1429 52.509 22.4188 52.8806 22.557L54.4436 23.1323C54.8157 23.2711 55.2198 23.2543 55.5802 23.0886C55.9417 22.9219 56.217 22.6258 56.353 22.2526L56.8097 21.0175C57.7084 21.1148 58.6285 21.0835 59.5423 20.9145L60.0902 22.1071C60.4338 22.8508 61.3197 23.1782 62.0645 22.8357L63.5761 22.1401C64.3226 21.7959 64.6478 20.9117 64.3047 20.1657L63.7552 18.9732C64.4782 18.3878 65.1005 17.7118 65.6103 16.9636L66.8454 17.4196C67.2187 17.5579 67.6233 17.5422 67.9848 17.3743C68.3435 17.2087 68.6183 16.9126 68.7554 16.5394L69.3324 14.9769C69.6167 14.2068 69.2227 13.3495 68.4538 13.0658ZM60.2715 16.9518C59.4914 17.3116 58.6643 17.4924 57.812 17.4924C55.5214 17.4924 53.4234 16.1493 52.4653 14.0697C51.1088 11.1233 52.4026 7.62231 55.3468 6.26634C56.1269 5.9065 56.9541 5.72575 57.8052 5.72575C60.0963 5.72575 62.1944 7.06828 63.153 9.14673C64.5095 12.0931 63.2162 15.5953 60.2715 16.9518Z" fill="#3A3A3A"/>
<path d="M66.3334 38.8219L65.4161 38.4845C65.4889 37.8168 65.4654 37.1341 65.34 36.4575L66.2231 36.0496C66.7771 35.7949 67.0189 35.1379 66.7654 34.585L66.2472 33.463C65.9931 32.9112 65.3367 32.6678 64.7849 32.9224L63.8984 33.3303C63.4664 32.7953 62.9627 32.3348 62.4098 31.9542L62.7478 31.0392C62.9571 30.4679 62.6661 29.8316 62.0948 29.6217L60.9375 29.1925C60.3846 28.9888 59.7236 29.2927 59.5188 29.8456L59.1808 30.7617C58.5137 30.6895 57.8315 30.7135 57.1538 30.8389L56.7459 29.9541C56.4913 29.4012 55.8348 29.1589 55.2819 29.4135L54.1604 29.9301C53.6081 30.1853 53.3646 30.8423 53.6193 31.3935L54.0272 32.2794C53.4922 32.712 53.0305 33.2151 52.6506 33.7697L51.7361 33.4322C51.1838 33.2257 50.5223 33.5312 50.3175 34.0836L49.8905 35.2426C49.7875 35.5185 49.8004 35.8184 49.9229 36.0871C50.0477 36.3546 50.2671 36.5588 50.5424 36.6584L51.4591 36.9976C51.3869 37.6641 51.4099 38.3468 51.5363 39.0245L50.651 39.4325C50.0987 39.686 49.8563 40.3419 50.1104 40.8942L50.627 42.0168C50.8816 42.5692 51.5386 42.8126 52.0909 42.5574L52.9757 42.15C53.4083 42.6867 53.9108 43.1461 54.4671 43.5261L54.1291 44.4422C54.0255 44.7181 54.0379 45.0175 54.1621 45.2861C54.2847 45.5542 54.5046 45.7585 54.7816 45.8603L55.9395 46.2873C56.2154 46.3897 56.5148 46.3774 56.7828 46.2543C57.0509 46.1317 57.2557 45.9101 57.3559 45.6342L57.6944 44.7181C58.3615 44.7903 59.0431 44.7668 59.7208 44.6403L60.1282 45.5262C60.3829 46.0775 61.041 46.3203 61.5922 46.0668L62.7143 45.5497C63.2683 45.2957 63.5089 44.6392 63.2549 44.0863L62.8475 43.201C63.3836 42.7678 63.8436 42.2659 64.223 41.7107L65.1391 42.0493C65.4161 42.1511 65.7155 42.1383 65.9836 42.0152C66.2511 41.8926 66.4542 41.6715 66.5561 41.3968L66.9842 40.2372C67.1957 39.6692 66.9042 39.0329 66.3334 38.8219ZM60.2648 41.7051C59.6856 41.9715 59.0711 42.1058 58.4393 42.1058C56.7403 42.1058 55.1851 41.1097 54.4738 39.5668C53.4682 37.382 54.4262 34.7854 56.611 33.7792C57.1891 33.5111 57.8024 33.3779 58.4354 33.3779C60.1327 33.3779 61.689 34.3729 62.4009 35.9147C63.4076 38.1017 62.4496 40.6995 60.2648 41.7051Z" fill="#3A3A3A"/>
<path d="M65.0471 63.6922L64.2798 63.409C64.3403 62.8505 64.3196 62.2785 64.2155 61.7122L64.9564 61.3708C65.4192 61.1582 65.6212 60.6086 65.4086 60.1464L64.9766 59.2062C64.7639 58.7445 64.2143 58.5414 63.7521 58.754L63.0106 59.0954C62.6485 58.6455 62.2277 58.2621 61.7643 57.9426L62.0469 57.1764C62.2226 56.6985 61.9775 56.1652 61.5002 55.99L60.5292 55.6302C60.067 55.4601 59.5146 55.7142 59.3428 56.177L59.0597 56.9453C58.5 56.8854 57.9298 56.905 57.3634 57.0091L57.0221 56.2687C56.81 55.8065 56.2604 55.6039 55.7976 55.816L54.858 56.248C54.3952 56.4607 54.1926 57.0102 54.4041 57.4725L54.7455 58.214C54.2984 58.5755 53.9111 58.9969 53.5938 59.4614L52.8271 59.1777C52.366 59.0053 51.812 59.261 51.6407 59.7239L51.2826 60.6937C51.1969 60.9259 51.2064 61.1766 51.3094 61.4016C51.4146 61.6249 51.5982 61.795 51.8288 61.8801L52.5966 62.1644C52.5356 62.7223 52.5546 63.2937 52.6592 63.8606L51.92 64.2014C51.4572 64.4146 51.2535 64.9631 51.4656 65.4259L51.8987 66.3666C52.1114 66.8283 52.6615 67.032 53.1232 66.8193L53.8652 66.4791C54.2267 66.9279 54.6481 67.3135 55.1137 67.6308L54.8295 68.3975C54.7433 68.6275 54.7517 68.8787 54.8569 69.1043C54.9604 69.327 55.144 69.4994 55.3751 69.5839L56.3455 69.9426C56.5766 70.0271 56.8262 70.0176 57.0528 69.9146C57.2761 69.8116 57.4468 69.627 57.5313 69.3953L57.8156 68.6275C58.3736 68.689 58.9444 68.6689 59.5113 68.5648L59.8526 69.3046C60.0653 69.7674 60.6148 69.97 61.0782 69.7579L62.0161 69.3248C62.4795 69.1121 62.6815 68.5648 62.4689 68.1003L62.1292 67.3594C62.5774 66.9962 62.9619 66.5759 63.2803 66.112L64.0476 66.3957C64.2793 66.4808 64.53 66.4712 64.7544 66.3672C64.9777 66.2647 65.1472 66.0801 65.2345 65.8484L65.5927 64.8786C65.7701 64.4018 65.525 63.8696 65.0471 63.6922ZM59.9662 66.1058C59.4816 66.3285 58.969 66.4421 58.439 66.4421C57.0176 66.4421 55.7137 65.6083 55.1188 64.3156C54.2765 62.4867 55.079 60.3126 56.9073 59.4703C57.3914 59.2482 57.9063 59.1351 58.4346 59.1351C59.8566 59.1351 61.1588 59.9684 61.7548 61.2583C62.5976 63.0889 61.7951 65.263 59.9662 66.1058Z" fill="#3A3A3A"/>
</g>
<defs>
<clipPath id="clip0_5071_16421">
<rect width="70" height="70" fill="white"/>
</clipPath>
</defs>
</svg>
