<svg width="70" height="74" viewBox="0 0 70 74" fill="none" xmlns="http://www.w3.org/2000/svg">
<g clip-path="url(#clip0_5071_16693)">
<path d="M33.3207 73.2327C24.718 72.4272 16.5912 68.5621 10.8404 62.0465C10.1162 61.2267 7.50225 57.3637 6.93267 57.1948C5.10796 56.6598 0.583825 62.2946 0 57.9312L3.15103 46.214C3.35648 45.6099 3.86708 44.9711 4.53227 44.9365L16.8028 48.1465C20.5478 50.4737 14.1176 51.857 13.1676 53.1792C12.3173 54.3611 14.3169 56.6435 15.1103 57.5691C23.3225 67.1422 37.0983 69.7806 48.3049 63.9078L52.0316 61.6355C52.3856 61.902 52.7843 66.8717 54.4727 66.9266C54.55 67.2622 54.3629 67.3375 54.1655 67.5308C50.9881 70.6309 42.6558 72.6835 38.3189 73.0415L37.9954 73.2307H33.3167L33.3207 73.2327Z" fill="#3A3A3A"/>
<path d="M37.5928 0L46.7469 9.05234C47.1985 9.5609 47.3348 10.2973 46.9645 10.8994C44.6191 13.371 42.2532 16.0277 39.7328 18.3142C38.675 19.2744 37.3141 21.0177 35.9471 19.8033C35.3592 18.3976 36.3519 14.4614 35.1497 13.5297C34.2831 12.8584 30.6296 13.6599 29.4538 13.9345C18.6154 16.4488 10.3198 25.6964 8.93453 36.7444C8.64771 39.0329 8.80027 41.2705 8.80434 43.5367C7.18916 43.1969 5.65332 42.3792 3.97304 42.5643C3.42786 42.6233 2.77284 43.3556 2.604 42.4158C2.43516 41.476 2.53687 38.8254 2.604 37.7391C3.54788 22.938 15.0962 10.1752 29.6227 7.59176C31.2541 7.30086 32.9039 7.33951 34.4275 7.10761C37.1107 6.70076 34.452 1.21444 36.5757 0H37.5928Z" fill="#3A3A3A"/>
<path d="M69.4675 59.6679C70.6047 60.7155 69.7421 61.755 68.5582 62.1924C64.9983 63.5065 60.6288 63.9926 56.9997 65.2864C56.0904 65.4736 55.5371 65.1033 55.1872 64.2835C54.524 60.5487 52.6586 56.4111 52.085 52.7413C51.3405 47.9934 56.8451 52.8247 58.088 53.0566C59.7235 53.3638 60.5372 50.6033 60.9909 49.334C65.0064 38.0806 61.2187 25.4399 51.6069 18.4319C49.9958 17.2582 48.043 15.9929 46.1369 15.4579C45.8724 15.167 48.6451 12.7544 48.9523 12.2743C49.3347 11.6722 49.6012 10.8869 49.5971 10.1709C65.7184 17.6589 72.704 35.8165 66.3714 52.4768C65.8974 53.7238 64.1236 56.1914 65.2689 57.2532C66.1822 58.0995 68.548 58.8196 69.4675 59.6679Z" fill="#3A3A3A"/>
<path d="M33.2581 23.8389L36.7814 23.8979L37.9999 26.7478C39.1391 26.8984 41.1265 28.2959 42.0175 28.4444C43.354 28.6702 44.2735 26.697 45.6262 27.6653C45.8947 27.8585 47.6849 29.6669 47.7337 29.846C47.9493 30.6312 46.684 32.0083 46.5579 32.8526C47.2821 33.9795 47.5709 35.6781 48.1222 36.7664C48.7386 37.9829 51.1939 37.1366 51.4299 39.1546C51.4991 39.7527 51.5153 41.5448 51.2061 41.9903C50.781 42.6067 48.9624 42.6026 48.3643 43.217C48.2117 43.3716 46.7044 46.8888 46.6291 47.1959C46.3097 48.4795 48.4253 49.4621 47.3574 50.9593C47.1682 51.2237 45.5794 52.8002 45.3821 52.8572C44.4097 53.142 43.1811 51.8523 42.1701 51.7546C41.2099 52.491 38.2155 53.0321 37.7537 53.9659C37.471 54.5395 37.4384 55.6482 37.0763 56.1364C36.6573 56.7039 34.5234 56.6368 33.8277 56.5575C31.9785 56.3439 32.8004 54.3829 31.8036 53.496C31.6531 53.3617 28.3169 51.9642 28.0871 51.9174C26.5492 51.6123 25.4954 53.4248 24.2586 52.6985C23.923 52.5012 22.2203 50.6602 22.1654 50.3022L23.3392 47.499C22.615 46.4941 22.0901 43.4733 21.1727 42.9668C20.0905 42.3687 18.6543 42.804 18.4672 41.197C18.0766 37.8324 18.9228 38.1233 21.6202 37.0207L23.3188 33.0092C23.3331 31.9107 21.6996 30.6434 22.3241 29.5896C22.4848 29.3191 24.5027 27.415 24.7713 27.3418L27.7107 28.479L31.7751 26.8353C32.4769 26.3044 32.4118 24.0952 33.256 23.8409L33.2581 23.8389ZM42.4589 40.1392C42.4589 35.9893 39.0943 32.6247 34.9445 32.6247C30.7946 32.6247 27.43 35.9893 27.43 40.1392C27.43 44.289 30.7946 47.6536 34.9445 47.6536C39.0943 47.6536 42.4589 44.289 42.4589 40.1392Z" fill="#C32C7B"/>
</g>
<defs>
<clipPath id="clip0_5071_16693">
<rect width="70" height="73.2324" fill="white"/>
</clipPath>
</defs>
</svg>
