<svg width="176" height="169" viewBox="0 0 176 169" fill="none" xmlns="http://www.w3.org/2000/svg">
<path d="M170.151 1.0166H108.458C105.932 1.0166 103.885 3.06412 103.885 5.58987V156.981C103.885 159.507 105.932 161.554 108.458 161.554H170.151C172.677 161.554 174.724 159.507 174.724 156.981V5.58987C174.724 3.06412 172.677 1.0166 170.151 1.0166Z" fill="white" stroke="#263238" stroke-linecap="round" stroke-linejoin="round"/>
<path d="M172.357 29.1197C172.108 29.1197 171.868 29.0205 171.692 28.844C171.515 28.6675 171.416 28.4281 171.416 28.1785V15.5616C171.435 15.3239 171.542 15.1021 171.717 14.9402C171.892 14.7784 172.122 14.6885 172.36 14.6885C172.598 14.6885 172.828 14.7784 173.003 14.9402C173.178 15.1021 173.286 15.3239 173.304 15.5616V28.1554C173.307 28.2812 173.284 28.4062 173.237 28.5231C173.191 28.64 173.121 28.7465 173.033 28.8362C172.945 28.926 172.84 28.9973 172.724 29.046C172.608 29.0947 172.483 29.1197 172.357 29.1197Z" fill="#263238"/>
<path d="M172.357 40.8072C172.108 40.8072 171.868 40.708 171.692 40.5315C171.515 40.355 171.416 40.1156 171.416 39.8659V32.8155C171.435 32.5778 171.542 32.356 171.717 32.1941C171.892 32.0323 172.122 31.9424 172.36 31.9424C172.598 31.9424 172.828 32.0323 173.003 32.1941C173.178 32.356 173.286 32.5778 173.304 32.8155V39.8659C173.303 40.1161 173.202 40.3555 173.025 40.5318C172.847 40.7082 172.607 40.8072 172.357 40.8072Z" fill="#263238"/>
<path d="M164.81 1.0166H103.117C100.591 1.0166 98.5439 3.06412 98.5439 5.58987V156.981C98.5439 159.507 100.591 161.554 103.117 161.554H164.81C167.336 161.554 169.383 159.507 169.383 156.981V5.58987C169.383 3.06412 167.336 1.0166 164.81 1.0166Z" fill="#263238" stroke="#263238" stroke-linecap="round" stroke-linejoin="round"/>
<path d="M164.666 11.7051H103.262V149.4H164.666V11.7051Z" fill="#C32C7B"/>
<path d="M124.846 7.30469H141.193" stroke="white" stroke-width="3" stroke-linecap="round" stroke-linejoin="round"/>
<path d="M131.763 154.273C131.763 155.399 131.059 156.311 130.187 156.311C129.315 156.311 128.616 155.399 128.616 154.273C128.616 153.147 129.321 152.229 130.187 152.229C131.053 152.229 131.763 153.141 131.763 154.273Z" fill="white"/>
<path d="M133.963 45.9693C139.844 45.9693 144.611 40.411 144.611 33.5545C144.611 26.6979 139.844 21.1396 133.963 21.1396C128.083 21.1396 123.315 26.6979 123.315 33.5545C123.315 40.411 128.083 45.9693 133.963 45.9693Z" fill="white"/>
<path d="M133.964 33.3991C136.196 33.3991 138.006 31.287 138.006 28.6815C138.006 26.076 136.196 23.9639 133.964 23.9639C131.732 23.9639 129.922 26.076 129.922 28.6815C129.922 31.287 131.732 33.3991 133.964 33.3991Z" fill="#263238" stroke="#263238" stroke-linecap="round" stroke-linejoin="round"/>
<path d="M133.964 34.6523C129.922 34.6523 126.613 37.7532 126.613 41.5815C126.617 41.9378 126.649 42.2932 126.711 42.644C127.608 43.6904 128.72 44.5304 129.972 45.1064C131.224 45.6823 132.586 45.9805 133.964 45.9805C135.342 45.9805 136.704 45.6823 137.956 45.1064C139.207 44.5304 140.32 43.6904 141.217 42.644C141.274 42.2927 141.305 41.9375 141.309 41.5815C141.309 37.7532 138.018 34.6523 133.964 34.6523Z" fill="#263238" stroke="#263238" stroke-linecap="round" stroke-linejoin="round"/>
<path d="M146.91 87.6313H121.018C120.333 87.6043 119.686 87.3063 119.221 86.8028C118.755 86.2993 118.509 85.6315 118.535 84.9463V68.9629C118.535 59.7529 125.464 52.2578 133.964 52.2578C142.464 52.2578 149.387 59.7644 149.387 68.9629V84.9347C149.402 85.2745 149.35 85.6139 149.233 85.9334C149.117 86.2529 148.938 86.5463 148.708 86.7967C148.478 87.0472 148.201 87.2498 147.892 87.393C147.584 87.5363 147.25 87.6172 146.91 87.6313ZM123.495 82.2612H144.427V68.9803C144.427 62.7324 139.733 57.6453 133.964 57.6453C128.196 57.6453 123.495 62.7324 123.495 68.9803V82.2612Z" fill="#263238"/>
<path d="M151.939 76.7236H115.988V110.734H151.939V76.7236Z" fill="white"/>
<path d="M139.201 100.139L136.533 93.7233C137.123 93.2773 137.6 92.6991 137.926 92.0352C138.252 91.3713 138.417 90.6402 138.409 89.9007C138.409 87.3427 136.498 85.2812 134.136 85.2812C131.775 85.2812 129.869 87.3485 129.869 89.9007C129.86 90.6398 130.025 91.3707 130.35 92.0347C130.675 92.6986 131.151 93.277 131.74 93.7233L129.078 100.139H139.201Z" fill="#263238" stroke="#263238" stroke-linecap="round" stroke-linejoin="round"/>
<path d="M123.009 141.298C123.065 141.339 123.131 141.361 123.2 141.362C123.249 141.362 123.297 141.349 123.341 141.326C123.384 141.303 123.421 141.27 123.448 141.229L164.665 85.166V84.1035L122.963 140.859C122.937 140.891 122.918 140.928 122.906 140.967C122.895 141.006 122.891 141.048 122.895 141.088C122.9 141.129 122.912 141.169 122.931 141.205C122.951 141.241 122.977 141.272 123.009 141.298Z" fill="white"/>
<path d="M156.374 31.9036C156.349 31.9368 156.331 31.9746 156.321 32.0148C156.312 32.055 156.31 32.0967 156.316 32.1375C156.323 32.1783 156.337 32.2175 156.359 32.2527C156.381 32.2879 156.409 32.3184 156.443 32.3424C156.511 32.3905 156.594 32.4102 156.676 32.3973C156.758 32.3843 156.832 32.3398 156.882 32.2731L164.665 21.6888V20.6494L156.374 31.9036Z" fill="white"/>
<path d="M103.262 105.22L154.145 36.0263C154.194 35.9589 154.214 35.8748 154.201 35.7925C154.188 35.7102 154.143 35.6364 154.076 35.5874C154.008 35.5384 153.924 35.5182 153.842 35.5312C153.76 35.5442 153.686 35.5893 153.637 35.6567L103.285 104.158L103.262 105.22Z" fill="white"/>
<path d="M118.228 148.123C118.277 148.122 118.326 148.11 118.37 148.088C118.414 148.066 118.452 148.035 118.482 147.996L121.369 144.092C121.394 144.059 121.412 144.021 121.422 143.981C121.431 143.941 121.433 143.899 121.427 143.858C121.42 143.818 121.406 143.778 121.384 143.743C121.362 143.708 121.334 143.678 121.3 143.653C121.233 143.605 121.149 143.586 121.067 143.599C120.985 143.612 120.911 143.656 120.861 143.723L117.974 147.62C117.949 147.653 117.931 147.691 117.921 147.731C117.911 147.771 117.908 147.812 117.914 147.853C117.92 147.894 117.934 147.933 117.955 147.969C117.977 148.004 118.005 148.035 118.038 148.059C118.092 148.102 118.159 148.125 118.228 148.123Z" fill="white"/>
<path d="M164.666 96.3916L130.828 142.419C130.794 142.465 130.773 142.521 130.769 142.578C130.764 142.636 130.775 142.694 130.802 142.746C130.828 142.797 130.868 142.84 130.918 142.87C130.967 142.9 131.024 142.916 131.082 142.915C131.132 142.916 131.181 142.905 131.225 142.883C131.269 142.861 131.307 142.828 131.336 142.788L164.666 97.4483V96.3916Z" fill="white"/>
<path d="M45.8245 31.7018C46.3971 30.4332 46.6735 29.051 46.6329 27.6597C46.6329 25.0786 43.509 23.5831 39.8366 23.1731C36.1641 22.7631 34.5357 24.2587 35.0785 25.2114C35.6426 25.9972 36.3311 26.6857 37.1169 27.2498C37.1169 27.2498 33.4444 25.2114 30.9961 26.8456C28.5478 28.4797 32.0874 27.7983 31.406 29.4267C30.7247 31.055 26.9194 30.3795 25.9666 34.7275C25.0139 39.0756 27.7336 43.4294 25.2853 45.335C22.8369 47.2405 15.4689 44.6536 13.3208 49.4116C11.1728 54.1697 14.2216 56.2831 9.05939 59.2742C3.89714 62.2653 0.132285 65.1871 1.62784 72.5263C3.12339 79.8654 8.02002 82.435 17.6747 79.8423C27.3294 77.2497 26.648 71.4118 29.8008 65.4065C32.9536 59.4012 37.8271 60.6485 39.3226 57.2474C40.8182 53.8463 38.9127 49.7696 39.0512 46.64C39.1898 43.5103 42.3137 42.8347 43.5379 39.1333C44.7621 35.432 45.8245 31.7018 45.8245 31.7018Z" fill="#263238" stroke="#263238" stroke-linecap="round" stroke-linejoin="round"/>
<path d="M2.7535 72.3877C2.50027 72.8989 2.37165 73.4629 2.37817 74.0334" stroke="white" stroke-width="0.5" stroke-linecap="round" stroke-linejoin="round"/>
<path d="M40.6043 29.0047C40.6043 29.0047 38.9067 27.0414 42.1749 27.9537C46.292 29.1086 41.4589 33.8724 39.5996 34.8309C35.8694 36.7423 30.9381 36.1302 28.0509 39.6063C25.4294 42.7476 28.969 46.0216 27.3984 48.5103C25.8278 50.9991 19.5396 49.5555 17.4492 52.5524C15.3589 55.5492 21.243 61.9818 15.2204 65.5157C10.8665 68.0738 6.09693 69.0554 3.79297 71.0822" stroke="white" stroke-width="0.5" stroke-linecap="round" stroke-linejoin="round"/>
<path d="M30.8403 40.623C30.4835 41.4581 30.3752 42.3784 30.5285 43.2735C31.0482 45.4966 34.0624 49.6887 31.3138 52.0447C28.5653 54.4006 23.8476 54.2678 23.0681 57.0279C22.2886 59.788 23.8534 67.3697 21.2376 70.8863C18.6219 74.4029 13.5116 74.1603 10.763 76.5163C8.01443 78.8722 8.40709 80.183 8.40709 80.183" stroke="white" stroke-width="0.5" stroke-linecap="round" stroke-linejoin="round"/>
<path d="M32.2257 38.0361C31.9877 38.3725 31.7679 38.7214 31.5674 39.0813" stroke="white" stroke-width="0.5" stroke-linecap="round" stroke-linejoin="round"/>
<path d="M47.586 72.1801L48.25 77.377C48.25 77.377 51.7146 80.8416 54.2611 82.9839C56.8076 85.1261 63.3326 89.659 63.3326 89.659L60.0239 90.6002C60.0239 90.6002 49.2086 84.1907 47.0721 83.671C44.9356 83.1513 43.3361 80.0678 42.672 79.1324C42.008 78.197 45.8479 71.2447 47.586 72.1801Z" fill="white" stroke="#263238" stroke-linecap="round" stroke-linejoin="round"/>
<path d="M54.192 156.734C54.192 156.734 57.4603 159.494 58.8115 160.418C60.1627 161.342 61.7391 161.757 61.4908 162.26C61.2425 162.762 60.5669 163.264 57.3852 162.837C54.2036 162.41 53.2855 161.33 52.6965 161.163C52.1075 160.995 50.687 161.417 49.6014 160.747C48.5159 160.077 50.2366 156.087 50.2366 156.087C50.7135 156.644 51.3722 157.015 52.0961 157.133C52.82 157.252 53.5625 157.11 54.192 156.734Z" fill="white" stroke="#263238" stroke-linecap="round" stroke-linejoin="round"/>
<path d="M61.4786 162.259C61.4812 162.233 61.4812 162.206 61.4786 162.179C59.6417 162.347 57.7893 162.173 56.0161 161.665C53.9604 161.18 53.3541 160.088 51.3966 160.088C50.6284 160.095 49.8647 159.97 49.1389 159.719C49.1178 159.911 49.1442 160.106 49.2156 160.286C49.2871 160.467 49.4015 160.627 49.5488 160.752C50.6344 161.422 52.0607 161.001 52.6439 161.168C53.2271 161.336 54.151 162.427 57.3326 162.843C60.5143 163.258 61.2245 162.762 61.4786 162.259Z" fill="white" stroke="#263238" stroke-linecap="round" stroke-linejoin="round"/>
<path d="M37.0826 45.1328C37.0826 45.1328 37.712 49.3712 36.9036 51.0804C36.0952 52.7896 33.5661 52.9744 31.4065 53.3381C29.2469 53.7019 24.2867 55.5901 24.8237 60.4579C25.3608 65.3256 31.5855 75.8696 31.5855 78.8433C31.5855 81.8171 29.6915 83.3473 27.6185 89.1159C25.5455 94.8844 25.8169 105.613 26.4637 112.554C26.9377 117.135 27.8425 121.661 29.166 126.072C29.166 126.072 23.9691 134.456 21.6594 138.059C19.3497 141.662 11.2656 157.351 11.2656 157.351C11.2656 157.351 11.2656 157.888 12.5244 158.252C13.4101 158.467 14.3263 158.528 15.2326 158.431C15.2326 158.431 30.7309 139.774 33.618 136.621C36.5052 133.468 39.2076 127.96 39.5656 125.442C39.9236 122.925 39.479 107.507 39.479 107.507C39.479 107.507 42.7184 115.256 45.2533 119.223C46.7908 121.651 48.2016 124.156 49.4801 126.73C49.1251 129.992 49.1251 133.284 49.4801 136.546C50.1095 141.05 49.5783 155.521 50.2077 156.693C50.8371 157.865 53.2796 157.374 53.8224 156.837C54.3652 156.3 54.6193 152.795 54.6193 152.795C54.6193 152.795 55.6991 141.824 56.3516 136.662C57.0041 131.499 58.0839 127.105 57.7085 125.933C57.3332 124.761 55.0928 112.23 53.3778 106.3C51.6628 100.37 46.4486 89.266 45.2937 86.3846C44.1389 83.5032 43.4864 80.8817 43.6711 79.9809C43.8559 79.0801 47.3667 73.6753 48.2906 72.2317C48.8173 71.2531 49.1078 70.1649 49.1389 69.054C49.17 67.9431 48.9408 66.8403 48.4696 65.8338C47.3898 63.4894 48.4696 60.3308 48.2906 58.4426C48.1116 56.5544 45.3168 55.7345 43.8733 55.0185C42.4297 54.3025 41.8869 52.6741 41.8869 51.3229C41.975 50.1847 42.2501 49.0688 42.7011 48.02C42.7011 48.02 38.2548 45.1328 37.0826 45.1328Z" fill="white" stroke="#263238" stroke-linecap="round" stroke-linejoin="round"/>
<path d="M48.007 64.4133C47.5321 63.2066 47.1367 61.9702 46.8232 60.7119" stroke="#263238" stroke-linecap="round" stroke-linejoin="round"/>
<path d="M36.3027 74.4491C36.3027 74.4491 37.9311 74.8071 41.1936 73.1787" stroke="#263238" stroke-linecap="round" stroke-linejoin="round"/>
<path d="M53.3951 106.243C51.761 100.561 46.9163 90.1841 45.467 86.7599C38.5378 89.3584 32.059 87.141 29.0159 85.709C28.5771 86.6675 28.1036 87.7762 27.6185 89.1158C25.5455 94.8902 25.8169 105.613 26.4637 112.554C26.9377 117.135 27.8425 121.661 29.166 126.072C29.166 126.072 23.9691 134.456 21.6594 138.059C19.3497 141.662 11.2656 157.351 11.2656 157.351C11.2656 157.351 11.2656 157.888 12.5244 158.252C13.4101 158.467 14.3263 158.528 15.2326 158.431C15.2326 158.431 30.7309 139.774 33.618 136.621C36.5052 133.468 39.2076 127.96 39.5656 125.442C39.9236 122.925 39.479 107.507 39.479 107.507C39.479 107.507 42.7184 115.256 45.2533 119.223C46.7908 121.651 48.2016 124.156 49.4801 126.73C49.1251 129.992 49.1251 133.284 49.4801 136.546C50.1095 141.05 49.5783 155.521 50.2077 156.693C50.8371 157.865 53.2796 157.374 53.8224 156.837C54.3652 156.3 54.6193 152.795 54.6193 152.795C54.6193 152.795 55.6991 141.824 56.3516 136.662C57.0041 131.499 58.0839 127.105 57.7085 125.933C57.3332 124.761 55.1101 112.19 53.3951 106.243Z" fill="#263238" stroke="#263238" stroke-linecap="round" stroke-linejoin="round"/>
<path d="M88.6992 100.52V99.3423H89.6866V90.0918H88.6992H78.9522H77.9648V99.3423H78.9522V100.52H77.959V102.668H81.7643V101.946H85.8871V102.668H89.6924V100.52H88.6992Z" fill="#C32C7B" stroke="#263238" stroke-linecap="round" stroke-linejoin="round"/>
<path d="M25.7012 87.3261H93.6997C93.9723 87.3261 94.2337 87.4344 94.4264 87.6271C94.6192 87.8199 94.7275 88.0813 94.7275 88.3539V90.4211C94.7275 90.6937 94.6192 90.9552 94.4264 91.1479C94.2337 91.3407 93.9723 91.449 93.6997 91.449H25.7012V87.3203V87.3261Z" fill="#C32C7B" stroke="#263238" stroke-linecap="round" stroke-linejoin="round"/>
<path d="M74.5058 86.708H70.3656C70.0499 86.708 69.7939 86.964 69.7939 87.2797V91.5007C69.7939 91.8164 70.0499 92.0724 70.3656 92.0724H74.5058C74.8215 92.0724 75.0775 91.8164 75.0775 91.5007V87.2797C75.0775 86.964 74.8215 86.708 74.5058 86.708Z" fill="#C32C7B" stroke="#263238" stroke-linecap="round" stroke-linejoin="round"/>
<path d="M27.8287 91.1261C28.7868 85.2755 24.8206 79.756 18.9701 78.798C13.1195 77.8399 7.60003 81.8061 6.64196 87.6566C5.68389 93.5072 9.65005 99.0267 15.5006 99.9847C21.3512 100.943 26.8707 96.9766 27.8287 91.1261Z" fill="#C32C7B" stroke="#263238" stroke-linecap="round" stroke-linejoin="round"/>
<path d="M19.4417 89.3642C20.064 89.0662 20.5922 88.6024 20.9681 88.0238C21.344 87.4452 21.5531 86.7741 21.5725 86.0844C21.5725 83.9768 19.6323 82.2676 17.2359 82.2676C14.8396 82.2676 12.8994 83.9999 12.8994 86.0844C12.9175 86.7744 13.1261 87.446 13.5021 88.0249C13.8782 88.6037 14.407 89.0673 15.0301 89.3642C14.4074 89.6632 13.879 90.128 13.5032 90.7077C13.1273 91.2873 12.9184 91.9593 12.8994 92.6498C12.8994 94.7574 14.8396 96.4666 17.2359 96.4666C19.6323 96.4666 21.5725 94.7343 21.5725 92.6498C21.5522 91.9596 21.3428 91.2881 20.9671 90.7087C20.5913 90.1293 20.0637 89.6643 19.4417 89.3642Z" fill="white" stroke="#263238" stroke-linecap="round" stroke-linejoin="round"/>
<path d="M61.2129 91.5416C61.2129 91.5416 64.5735 92.9621 65.6129 92.9621C66.6523 92.9621 67.8534 91.9169 68.4481 90.6523C69.0429 89.3878 69.0256 88.7872 68.6733 89.0875L67.9284 89.6649C67.9284 89.6649 68.5059 88.4003 67.8534 88.5505C67.4015 88.701 67.0264 89.0222 66.8082 89.4455C66.8082 89.4455 66.7331 88.3253 66.1384 88.8681C65.7448 89.2246 65.394 89.6257 65.0932 90.0633C65.0932 90.0633 65.0182 88.6486 64.6428 89.0182C64.2675 89.3877 62.8586 91.403 62.8586 91.403L61.2129 91.5416Z" fill="white" stroke="#263238" stroke-linecap="round" stroke-linejoin="round"/>
<path d="M65.0935 90.0508C65.0935 90.0508 64.8684 91.8408 63.7539 92.1411L65.0935 90.0508Z" fill="white"/>
<path d="M65.0935 90.0508C65.0935 90.0508 64.8684 91.8408 63.7539 92.1411" stroke="#263238" stroke-linecap="round" stroke-linejoin="round"/>
<path d="M66.8081 89.4561C66.8081 89.4561 66.2307 92.2855 65.3184 92.7359L66.8081 89.4561Z" fill="white"/>
<path d="M66.8081 89.4561C66.8081 89.4561 66.2307 92.2855 65.3184 92.7359" stroke="#263238" stroke-linecap="round" stroke-linejoin="round"/>
<path d="M67.9287 89.6758C67.6309 90.7083 67.2305 91.7084 66.7334 92.6611L67.9287 89.6758Z" fill="white"/>
<path d="M67.9287 89.6758C67.6309 90.7083 67.2305 91.7084 66.7334 92.6611" stroke="#263238" stroke-linecap="round" stroke-linejoin="round"/>
<path d="M43.6592 54.8452C43.0776 54.4526 42.6065 53.9172 42.2911 53.2903C41.9757 52.6635 41.8264 51.9662 41.8576 51.2652C41.9611 50.1449 42.2458 49.0489 42.7006 48.02C42.7006 48.02 38.2833 45.1328 37.1111 45.1328C37.1111 45.1328 37.7405 49.3712 36.9321 51.0804C36.6671 51.612 36.235 52.0421 35.7021 52.3045C36.7697 55.1788 38.2165 57.8975 40.004 60.3886C41.6266 62.4269 42.4177 58.1308 43.6592 54.8452Z" fill="white" stroke="#263238" stroke-linecap="round" stroke-linejoin="round"/>
<path d="M30.0261 53.9209C28.9242 54.1091 27.8811 54.5508 26.9792 55.2112C26.0773 55.8715 25.3413 56.7326 24.8292 57.7262C23.0507 61.1561 15.2784 76.7237 15.9425 77.6534C19.7189 82.9658 33.456 86.7884 34.8534 88.1858C36.2504 89.647 37.7837 90.9714 39.4324 92.1412C40.8298 93.0304 43.6188 92.6493 44.127 92.3952C44.6351 92.1412 45.0162 90.9979 44.127 90.9979C43.7872 91.0023 43.4562 90.8901 43.1893 90.6799C42.9223 90.4697 42.7356 90.1743 42.6603 89.843C42.5332 89.3348 44.0577 90.3511 44.8199 89.97C45.5821 89.5889 43.1165 88.1973 42.3542 87.5621C41.592 86.927 40.9569 86.0435 39.9406 86.0435C38.9243 86.0435 37.013 86.0435 37.013 86.0435C37.013 86.0435 32.3358 82.654 29.5064 80.1306C27.3048 78.144 24.9033 76.3908 22.3404 74.899L30.9153 60.7924" fill="white"/>
<path d="M30.0261 53.9209C28.9242 54.1091 27.8811 54.5508 26.9792 55.2112C26.0773 55.8715 25.3413 56.7326 24.8292 57.7262C23.0507 61.1561 15.2784 76.7237 15.9425 77.6534C19.7189 82.9658 33.456 86.7884 34.8534 88.1858C36.2504 89.647 37.7837 90.9714 39.4324 92.1412C40.8298 93.0304 43.6188 92.6493 44.127 92.3952C44.6351 92.1412 45.0162 90.9979 44.127 90.9979C43.7872 91.0023 43.4562 90.8901 43.1893 90.6799C42.9223 90.4697 42.7356 90.1743 42.6603 89.843C42.5332 89.3348 44.0577 90.3511 44.8199 89.97C45.5821 89.5889 43.1165 88.1973 42.3542 87.5621C41.592 86.927 40.9569 86.0435 39.9406 86.0435C38.9243 86.0435 37.013 86.0435 37.013 86.0435C37.013 86.0435 32.3358 82.654 29.5064 80.1306C27.3048 78.144 24.9033 76.3908 22.3404 74.899L30.9153 60.7924" stroke="#263238" stroke-linecap="round" stroke-linejoin="round"/>
<path d="M42.3487 87.5682C41.5865 86.933 40.9513 86.0496 39.935 86.0496C38.9187 86.0496 37.0074 86.0496 37.0074 86.0496C37.0074 86.0496 32.3302 82.66 29.5008 80.1367C27.2992 78.1501 24.8977 76.3969 22.3349 74.9051L25.7648 69.2578C24.0113 68.1964 22.0054 67.6242 19.9559 67.6006C17.6461 72.4164 15.5731 77.1744 15.9138 77.6768C19.6902 82.9892 33.4274 86.8118 34.8247 88.2092C36.2217 89.6704 37.755 90.9948 39.4038 92.1646C40.8012 93.0538 43.5902 92.6727 44.0983 92.4187C44.6065 92.1646 44.9876 91.0213 44.0983 91.0213C43.7586 91.0257 43.4276 90.9135 43.1606 90.7033C42.8937 90.4931 42.707 90.1977 42.6316 89.8664C42.5046 89.3582 44.029 90.3745 44.7912 89.9934C45.5534 89.6123 43.1109 88.2092 42.3487 87.5682Z" fill="white" stroke="#263238" stroke-linecap="round" stroke-linejoin="round"/>
<path d="M46.9964 38.9142C46.546 38.0134 46.546 37.2916 46.725 36.027C46.904 34.7625 45.8243 31.6963 45.8243 31.6963C44.7214 33.6018 41.5339 34.7336 40.125 35.1609C38.5717 35.6344 40.841 36.7084 40.5985 38.1462C40.356 39.584 37.2551 40.4155 37.2551 40.4155C37.2551 40.4155 36.3486 38.5504 35.0898 38.5504C33.831 38.5504 32.936 41.4376 33.652 42.9678C33.8385 43.3917 34.1635 43.7397 34.5737 43.9547C34.9839 44.1698 35.455 44.2392 35.9097 44.1515C35.9097 44.1515 35.8231 46.8597 37.5323 47.6681C39.356 48.5383 41.2586 49.2324 43.2143 49.7411C44.2941 49.9201 45.3739 49.383 45.8243 47.7605C46.1765 46.1253 46.4176 44.4681 46.546 42.8003C47.3021 42.3056 47.9979 41.7242 48.619 41.068C49.0521 40.4444 47.4468 39.815 46.9964 38.9142Z" fill="white" stroke="#263238" stroke-linecap="round" stroke-linejoin="round"/>
<path d="M45.2414 38.9546C45.2414 39.4512 45.0797 39.8496 44.8834 39.8496C44.6871 39.8496 44.5254 39.4512 44.5254 38.9546C44.5254 38.458 44.6871 38.0596 44.8834 38.0596C45.0797 38.0596 45.2414 38.458 45.2414 38.9546Z" fill="#263238"/>
<path d="M43.6885 37.4646C43.6885 37.4646 44.647 36.3848 45.363 36.6273" stroke="#263238" stroke-linecap="round" stroke-linejoin="round"/>
<path d="M45.3624 44.8675C44.9297 44.998 44.4704 45.0134 44.0299 44.9121C43.5894 44.8109 43.1829 44.5964 42.8506 44.29" stroke="#263238" stroke-linecap="round" stroke-linejoin="round"/>
<path d="M11.3057 157.351C11.3057 157.351 9.15185 161.67 9.23269 162.259C9.31353 162.848 13.5865 165.943 15.5844 167.028C17.5824 168.114 21.1971 168.287 20.943 166.78C20.689 165.273 17.259 164.268 16.4217 162.005C15.9758 160.834 15.5904 159.641 15.2669 158.43C13.8711 158.451 12.4978 158.077 11.3057 157.351Z" fill="white" stroke="#263238" stroke-linecap="round" stroke-linejoin="round"/>
<path d="M20.9542 166.804C19.4169 167.01 17.8524 166.788 16.4329 166.163C13.3321 164.817 10.3295 162.069 9.50373 161.289C9.35707 161.6 9.2634 161.934 9.22656 162.276C9.31318 162.854 13.5804 165.96 15.5783 167.046C17.5762 168.132 21.1621 168.282 20.9542 166.804Z" fill="white" stroke="#263238" stroke-linecap="round" stroke-linejoin="round"/>
</svg>
