<svg width="211" height="166" viewBox="0 0 211 166" fill="none" xmlns="http://www.w3.org/2000/svg">
<path d="M181.531 164.523V114.722" stroke="#263238" stroke-linecap="round" stroke-linejoin="round"/>
<path d="M177.493 164.522V139.827" stroke="#263238" stroke-linecap="round" stroke-linejoin="round"/>
<path d="M182.793 122.886C182.793 122.886 178.724 122.422 177.056 119.201C175.388 115.979 175.229 107.669 181.566 98.4594C187.904 89.2494 191.227 89.1523 192.33 96.6677C193.433 104.183 193.274 115.097 190.679 119.232C188.084 123.367 182.793 122.886 182.793 122.886Z" fill="white" stroke="#263238" stroke-linecap="round" stroke-linejoin="round"/>
<path d="M184.236 105.538C184.987 102.978 185.882 100.683 186.924 99.1123" stroke="#263238" stroke-linecap="round" stroke-linejoin="round"/>
<path d="M181.085 122.334C181.643 117.269 182.528 112.245 183.733 107.294" stroke="#263238" stroke-linecap="round" stroke-linejoin="round"/>
<path d="M185.216 139.05C185.216 139.05 182.603 137.025 182.815 134.112C183.027 131.2 186.381 125.396 194.593 121.716C202.806 118.035 205.149 119.342 202.766 124.982C200.383 130.621 195.705 138.084 192.175 139.849C188.645 141.614 185.216 139.05 185.216 139.05Z" fill="white" stroke="#263238" stroke-linecap="round" stroke-linejoin="round"/>
<path d="M193.473 127.692C195.061 126.244 196.641 125.044 198.014 124.391" stroke="#263238" stroke-linecap="round" stroke-linejoin="round"/>
<path d="M192.418 128.688C189.511 131.599 186.796 134.695 184.289 137.956C184.289 137.956 182.184 140.789 181.562 146.416" stroke="#263238" stroke-linecap="round" stroke-linejoin="round"/>
<path d="M183.733 155.873C183.733 155.873 182.22 154.699 182.343 153.013C182.467 151.327 184.408 147.964 189.17 145.828C193.932 143.693 195.282 144.456 193.901 147.726C192.52 150.996 189.81 155.316 187.771 156.336C185.732 157.355 183.733 155.873 183.733 155.873Z" fill="white" stroke="#263238" stroke-linecap="round" stroke-linejoin="round"/>
<path d="M188.504 149.31C189.291 148.55 190.183 147.907 191.152 147.399" stroke="#263238" stroke-linecap="round" stroke-linejoin="round"/>
<path d="M187.895 149.889C186.211 151.573 184.638 153.364 183.186 155.251C183.186 155.251 181.963 156.892 181.602 160.153" stroke="#263238" stroke-linecap="round" stroke-linejoin="round"/>
<path d="M177.842 132.316C177.842 132.316 180.45 130.29 180.242 127.378C180.035 124.465 176.677 118.662 168.46 114.982C160.243 111.301 157.908 112.607 160.291 118.247C162.674 123.887 167.352 131.349 170.882 133.115C174.413 134.88 177.842 132.316 177.842 132.316Z" fill="white" stroke="#263238" stroke-linecap="round" stroke-linejoin="round"/>
<path d="M169.584 120.957C168.232 119.649 166.702 118.538 165.039 117.656" stroke="#263238" stroke-linecap="round" stroke-linejoin="round"/>
<path d="M170.64 121.955C173.544 124.866 176.258 127.962 178.764 131.222C178.764 131.222 180.869 134.056 181.496 139.682" stroke="#263238" stroke-linecap="round" stroke-linejoin="round"/>
<path d="M176.557 154.809C176.557 154.809 179.205 154.893 180.529 153.3C181.853 151.707 182.647 147.258 179.338 141.826C176.028 136.394 173.914 136.014 172.59 139.986C171.266 143.958 170.494 149.778 171.818 152.21C173.142 154.641 176.557 154.809 176.557 154.809Z" fill="white" stroke="#263238" stroke-linecap="round" stroke-linejoin="round"/>
<path d="M176.973 150.758C177.012 151.301 177.039 151.843 177.052 152.382" stroke="#263238" stroke-linecap="round" stroke-linejoin="round"/>
<path d="M174.942 139.726C175.842 142.924 176.483 146.19 176.858 149.492" stroke="#263238" stroke-linecap="round" stroke-linejoin="round"/>
<path d="M202.623 37.5536C207.155 26.2154 201.638 13.3495 190.3 8.81684C178.962 4.28418 166.096 9.80116 161.564 21.1393C157.031 32.4775 162.548 45.3434 173.886 49.876C185.224 54.4087 198.09 48.8917 202.623 37.5536Z" stroke="#263238" stroke-linecap="round" stroke-linejoin="round"/>
<path d="M182.101 48.6501C192.759 48.6501 201.399 40.01 201.399 29.3519C201.399 18.6938 192.759 10.0537 182.101 10.0537C171.443 10.0537 162.803 18.6938 162.803 29.3519C162.803 40.01 171.443 48.6501 182.101 48.6501Z" stroke="#263238" stroke-linecap="round" stroke-linejoin="round"/>
<path d="M182.101 30.6712C182.829 30.6712 183.42 30.0805 183.42 29.3517C183.42 28.623 182.829 28.0322 182.101 28.0322C181.372 28.0322 180.781 28.623 180.781 29.3517C180.781 30.0805 181.372 30.6712 182.101 30.6712Z" stroke="#263238" stroke-linecap="round" stroke-linejoin="round"/>
<path d="M182.101 30.6709V37.1536" stroke="#263238" stroke-linecap="round" stroke-linejoin="round"/>
<path d="M180.781 29.3516H165.044" stroke="#263238" stroke-linecap="round" stroke-linejoin="round"/>
<path d="M81.6908 82.7142L74.4181 71.4256C78.8497 64.2617 80.352 55.6661 78.6131 47.4237C76.8741 39.1813 72.0276 31.9253 65.0797 27.1621C58.1317 22.3989 49.6163 20.4946 41.3013 21.8445C32.9863 23.1944 25.5106 27.6948 20.4263 34.4113C15.3421 41.1278 13.0399 49.5444 13.9978 57.9137C14.9556 66.2829 19.1 73.9617 25.5703 79.3558C32.0406 84.7499 40.3398 87.4449 48.7448 86.8811C57.1497 86.3174 65.0147 82.5383 70.7068 76.3285L81.6908 82.7142Z" fill="#263238" stroke="#263238" stroke-linecap="round" stroke-linejoin="round"/>
<path d="M82.3833 79.9693L75.1062 68.6808C79.5298 61.52 81.0256 52.9306 79.2832 44.696C77.5407 36.4614 72.6939 29.2142 65.7488 24.459C58.8038 19.7038 50.2942 17.8061 41.9868 19.1597C33.6794 20.5133 26.2125 25.0143 21.1362 31.7282C16.06 38.4422 13.7645 46.8532 14.7263 55.215C15.6881 63.5768 19.8333 71.247 26.3013 76.6331C32.7693 82.0192 41.0631 84.7074 49.4609 84.1395C57.8587 83.5717 65.7152 79.7915 71.3992 73.5837L82.3833 79.9693Z" fill="white" stroke="#263238" stroke-linecap="round" stroke-linejoin="round"/>
<path d="M24.2637 56.1394V53.0812L29.2769 45.376C29.6565 44.8067 30.0139 44.2507 30.3537 43.7167C30.6806 43.1995 30.9584 42.6528 31.1834 42.0839C31.3995 41.5298 31.5088 40.9399 31.5055 40.3451C31.5427 39.8683 31.4149 39.3931 31.1437 38.9992C31.0247 38.8547 30.874 38.7397 30.7033 38.6632C30.5326 38.5866 30.3465 38.5506 30.1596 38.5579C29.9611 38.5465 29.7624 38.575 29.5752 38.6417C29.388 38.7084 29.2161 38.8119 29.0695 38.9462C28.7953 39.2326 28.6112 39.5932 28.54 39.9833C28.4384 40.4604 28.3895 40.9473 28.3943 41.4352V42.459H24.2108V41.3469C24.1953 40.2185 24.3976 39.0977 24.8065 38.046C25.1795 37.0969 25.8419 36.2893 26.6997 35.7379C27.7252 35.1337 28.9043 34.8408 30.0934 34.895C31.9792 34.895 33.4002 35.3834 34.3564 36.3602C35.3125 37.3369 35.7921 38.6976 35.795 40.4422C35.803 41.2469 35.667 42.0465 35.3934 42.8032C35.1175 43.5433 34.7608 44.2507 34.3299 44.9126C33.8886 45.5967 33.4208 46.3072 32.9177 47.053L29.0828 52.7899H35.2257V56.1394H24.2637Z" fill="#263238" stroke="#263238" stroke-linecap="round" stroke-linejoin="round"/>
<path d="M43.2092 56.1392V51.4393H36.7529V48.2531L42.2251 35.1641H47.2515V48.2267H49.1933V51.4393H47.2515V56.1392H43.2092ZM40.0451 48.1958H43.2092V39.4932L40.0451 48.1958Z" fill="#263238" stroke="#263238" stroke-linecap="round" stroke-linejoin="round"/>
<path d="M50.8037 56.1393L57.2291 35.1465H59.5106L53.0588 56.1393H50.8037Z" fill="#263238" stroke="#263238" stroke-linecap="round" stroke-linejoin="round"/>
<path d="M62.3086 56.1393L66.8717 38.4386H61.1348V35.1465H71.0862V38.1253L66.5363 56.1393H62.3086Z" fill="#263238" stroke="#263238" stroke-linecap="round" stroke-linejoin="round"/>
<path d="M28.3419 69.5903C27.8273 69.6094 27.3178 69.4824 26.8724 69.224C26.4805 68.977 26.1728 68.6169 25.9898 68.1914C25.7806 67.6983 25.6581 67.1728 25.6279 66.638L26.5105 66.3732C26.5492 66.7851 26.6305 67.1918 26.7533 67.5868C26.849 67.9202 27.0409 68.218 27.3049 68.4429C27.5992 68.6704 27.9662 68.7833 28.3375 68.7607C28.7468 68.7842 29.1496 68.65 29.4629 68.3856C29.609 68.2249 29.7202 68.0357 29.7893 67.8298C29.8585 67.6239 29.8841 67.4059 29.8644 67.1896C29.8728 66.7503 29.7499 66.3186 29.5114 65.9496C29.2283 65.5454 28.9012 65.1739 28.5361 64.8419L26.6297 63.0061C26.3178 62.712 26.0621 62.3636 25.8751 61.9778C25.7133 61.6125 25.632 61.2167 25.6368 60.8172C25.6163 60.4975 25.6656 60.1771 25.7815 59.8783C25.8973 59.5796 26.0768 59.3096 26.3075 59.0873C26.7993 58.6716 27.4294 58.4558 28.0727 58.4827C28.4241 58.4792 28.7739 58.5298 29.1098 58.6328C29.4095 58.7244 29.6823 58.888 29.9042 59.1094C30.136 59.3525 30.3122 59.6431 30.4205 59.9611C30.5564 60.373 30.6423 60.7997 30.6764 61.232L29.7938 61.4615C29.7687 61.0627 29.6946 60.6684 29.5732 60.2876C29.4814 59.991 29.2974 59.7313 29.048 59.5463C28.7554 59.3589 28.4108 59.2693 28.0639 59.2903C27.6679 59.2726 27.2785 59.3962 26.9651 59.6389C26.8131 59.7739 26.6943 59.942 26.6178 60.1302C26.5412 60.3185 26.5091 60.5218 26.5238 60.7245C26.5203 61.0013 26.5775 61.2755 26.6915 61.5277C26.8562 61.8281 27.0746 62.0959 27.3358 62.3176L29.251 64.127C29.6774 64.5196 30.0525 64.9644 30.3675 65.4509C30.6802 65.949 30.8426 66.5266 30.8353 67.1146C30.8517 67.5906 30.7421 68.0626 30.5176 68.4826C30.3162 68.8427 30.0077 69.1312 29.635 69.3079C29.2309 69.4987 28.7888 69.5952 28.3419 69.5903Z" fill="#263238" stroke="#263238" stroke-linecap="round" stroke-linejoin="round"/>
<path d="M32.1895 69.4577V58.5928H36.1171V59.3827H33.2221V63.4604H35.5831V64.2106H33.2221V68.6898H36.1479V69.4577H32.1895Z" fill="#263238" stroke="#263238" stroke-linecap="round" stroke-linejoin="round"/>
<path d="M37.543 69.4576V58.5928H39.9966C40.5495 58.5659 41.1003 58.6782 41.5985 58.9193C41.9799 59.1305 42.2762 59.4674 42.437 59.8725C42.6187 60.3452 42.7057 60.8491 42.693 61.3553C42.6959 61.7391 42.6499 62.1217 42.5562 62.4939C42.4831 62.8289 42.3319 63.1419 42.1149 63.4074C41.8761 63.6721 41.5536 63.8466 41.2014 63.9016L42.8651 69.4576H41.8722L40.279 64.1179H38.5447V69.4576H37.543ZM38.5447 63.3677H39.926C40.2933 63.3886 40.6594 63.3092 40.9851 63.1382C41.2375 62.9855 41.4269 62.7476 41.5191 62.4674C41.6384 62.1092 41.6936 61.7327 41.6824 61.3553C41.72 60.8301 41.5985 60.3057 41.3338 59.8505C41.0999 59.5195 40.6409 59.3562 39.9525 59.3562H38.5447V63.3677Z" fill="#263238" stroke="#263238" stroke-linecap="round" stroke-linejoin="round"/>
<path d="M44.4355 69.4577V58.5928H45.455V69.4577H44.4355Z" fill="#263238" stroke="#263238" stroke-linecap="round" stroke-linejoin="round"/>
<path d="M49.3032 69.4577L46.7568 58.5928H47.7365L49.7886 67.613L51.7171 58.6148H52.6659L50.2122 69.4797L49.3032 69.4577Z" fill="#263238" stroke="#263238" stroke-linecap="round" stroke-linejoin="round"/>
<path d="M53.9902 69.4577V58.5928H55.0096V69.4577H53.9902Z" fill="#263238" stroke="#263238" stroke-linecap="round" stroke-linejoin="round"/>
<path d="M59.4443 69.5895C58.8463 69.632 58.251 69.477 57.7497 69.1482C57.3475 68.8408 57.0575 68.4098 56.9244 67.9214C56.7651 67.3648 56.6878 66.788 56.695 66.2092V61.8755C56.6864 61.2789 56.7652 60.6842 56.9289 60.1103C57.0673 59.6306 57.3625 59.2111 57.7673 58.9188C58.2668 58.6009 58.853 58.4466 59.4443 58.4775C59.9819 58.4492 60.516 58.5797 60.98 58.8526C61.3554 59.1122 61.6359 59.4871 61.7788 59.9206C61.9494 60.4507 62.0314 61.0054 62.0215 61.5622V62.2198H61.0506V61.5931C61.0562 61.1827 61.0178 60.7729 60.9359 60.3707C60.8803 60.0606 60.716 59.7806 60.4725 59.5808C60.1706 59.3716 59.8062 59.272 59.4399 59.2983C59.0516 59.2718 58.6658 59.3775 58.3454 59.5984C58.0904 59.8193 57.9164 60.1191 57.8512 60.4501C57.7613 60.8692 57.7183 61.2969 57.7232 61.7255V66.3548C57.7154 66.801 57.7674 67.2462 57.8777 67.6787C57.9518 68.0039 58.1376 68.2928 58.4028 68.4951C58.711 68.6892 59.0717 68.7833 59.4355 68.7643C59.8036 68.789 60.1688 68.6844 60.4681 68.4686C60.7118 68.2541 60.8752 67.9631 60.9315 67.6434C61.0125 67.2351 61.0509 66.8195 61.0462 66.4033V65.6928H62.0127V66.3371C62.021 66.9085 61.9451 67.478 61.7876 68.0273C61.6644 68.4847 61.3908 68.8873 61.0109 69.1703C60.5463 69.4724 59.9977 69.6192 59.4443 69.5895Z" fill="#263238" stroke="#263238" stroke-linecap="round" stroke-linejoin="round"/>
<path d="M63.6016 69.4577V58.5928H67.5336V59.3827H64.6342V63.4604H66.9952V64.2106H64.6342V68.6898H67.5601V69.4577H63.6016Z" fill="#263238" stroke="#263238" stroke-linecap="round" stroke-linejoin="round"/>
<path d="M140.786 119.319H164.426C164.426 119.319 151.628 150.789 154.042 164.844H130.084C130.084 164.844 134.554 128.904 140.786 119.319Z" fill="#263238" stroke="#263238" stroke-linecap="round" stroke-linejoin="round"/>
<path d="M120.331 74.1478C120.331 74.1478 120.565 78.4064 128.495 80.8909C136.426 83.3754 144.475 80.8909 148.972 84.4213C153.469 87.9518 153.35 93.4151 151.809 96.1379C150.269 98.8608 147.785 101.579 155.124 104.774C162.463 107.969 158.08 117.321 155.004 120.754C151.929 124.187 146.62 125.842 140.684 124.659C134.749 123.477 127.785 109.156 120.212 101.579C112.639 94.002 111.713 80.0259 116.545 76.0189C121.377 72.0119 120.331 74.1478 120.331 74.1478Z" fill="#263238" stroke="#263238" stroke-linecap="round" stroke-linejoin="round"/>
<path d="M119.114 58.8303C119.114 58.8303 122.379 57.4049 123.218 60.1542C124.056 62.9036 124.304 70.4587 124.304 70.4587L122.538 70.0394C122.538 70.0394 122.958 61.4958 121.029 60.1542C119.101 58.8127 117.596 61.8312 117.596 61.8312L119.114 58.8303Z" fill="#A6A6A6" stroke="#263238" stroke-linecap="round" stroke-linejoin="round"/>
<path d="M82.4541 150.745L93.6103 144.779C93.6103 144.779 92.838 133.071 92.9483 132.63C93.0586 132.188 95.8521 109.28 95.8521 109.28L88.1999 131.968L82.4541 150.745Z" fill="#263238" stroke="#263238" stroke-linecap="round" stroke-linejoin="round"/>
<path d="M131.775 97.5151C131.775 97.5151 142.807 103.526 144.29 104.135C145.773 104.744 144.899 112.409 144.899 117.418C144.899 122.427 137.397 164.726 137.397 164.726H81.8369C81.8369 164.726 91.2234 150.335 91.475 146.579C91.7265 142.824 90.0981 139.818 89.8466 136.191C89.595 132.563 94.9789 110.406 95.8527 109.271C96.7265 108.137 100.486 105.269 100.486 105.269L113.752 93.6493L119.886 92.2725L131.775 97.5151Z" fill="#C32C7B" stroke="#263238" stroke-linecap="round" stroke-linejoin="round"/>
<path d="M94.9521 150.648L93.0986 154.461" stroke="#263238" stroke-linecap="round" stroke-linejoin="round"/>
<path d="M96.7311 139.694C96.7311 139.694 93.9774 141.57 95.3543 142.572C96.7311 143.573 97.3578 145.7 97.3578 145.7L95.5926 149.138" stroke="#263238" stroke-linecap="round" stroke-linejoin="round"/>
<path d="M109.7 148.812C110.446 148.87 111.232 148.914 112.052 148.936" stroke="#263238" stroke-linecap="round" stroke-linejoin="round"/>
<path d="M97.8516 145.723C97.8516 145.723 100.848 147.726 107.375 148.582" stroke="#263238" stroke-linecap="round" stroke-linejoin="round"/>
<path d="M90.3849 65.697C89.8573 65.9546 89.4172 66.362 89.1198 66.8682C88.8223 67.3744 88.6806 67.9571 88.7124 68.5434C88.7124 70.7234 90.4776 74.9908 90.4776 74.9908L91.4838 74.6599C91.4838 74.6599 89.6435 70.2204 89.8951 68.6272C89.9766 68.1628 90.1845 67.7297 90.4958 67.3755C90.8072 67.0213 91.2101 66.7597 91.6603 66.6193L91.3249 65.5293L90.3849 65.697Z" fill="#A6A6A6" stroke="#263238" stroke-linecap="round" stroke-linejoin="round"/>
<path d="M94.6961 76.9111C95.1374 79.1176 94.3828 81.1079 93.0412 81.3682C91.6996 81.6286 90.2698 80.0443 89.8462 77.8378C89.4225 75.6313 90.1595 73.6366 91.5011 73.3806C92.8426 73.1247 94.2724 74.709 94.6961 76.9111Z" fill="white" stroke="#263238" stroke-linecap="round" stroke-linejoin="round"/>
<path d="M98.7695 76.1997C99.6036 79.0152 98.6283 81.791 96.5895 82.3779C94.5506 82.9649 92.2206 81.1908 91.3821 78.3753C90.5436 75.5598 91.5233 72.784 93.5621 72.1971C95.601 71.6101 97.9354 73.3842 98.7695 76.1997Z" fill="#263238" stroke="#263238" stroke-linecap="round" stroke-linejoin="round"/>
<path d="M106.329 91.5484L108.311 97.9914L101.797 106.2L100.712 112.541C100.712 112.541 99.6305 130.635 100.248 133.424C100.866 136.213 100.866 136.981 100.866 136.981C100.866 136.981 114.326 121.358 120.976 111.769C127.627 102.179 129.171 96.2968 129.171 96.2968L122.675 92.7664L119.586 78.3799L106.329 91.5484Z" fill="white" stroke="#263238" stroke-linecap="round" stroke-linejoin="round"/>
<path d="M116.603 85.3125L108.31 97.9911L105.998 90.5287L116.603 85.3125Z" fill="#263238" stroke="#263238" stroke-linecap="round" stroke-linejoin="round"/>
<path d="M100.769 112.183L100.707 112.541C100.707 112.541 99.6256 130.634 100.243 133.423C100.861 136.212 100.861 136.98 100.861 136.98C100.861 136.98 114.321 121.358 120.971 111.768C121.492 111.018 121.978 110.29 122.441 109.584C114.114 112.435 105.623 112.483 100.769 112.183Z" fill="white" stroke="#263238" stroke-linecap="round" stroke-linejoin="round"/>
<path d="M97.5075 52.0476C97.5075 52.0476 91.3072 55.8163 90.6364 61.5091C89.9656 67.2019 92.3133 73.3184 93.2356 75.7456C94.158 78.1727 97.3398 87.6387 99.0123 89.4833C100.685 91.328 106.131 94.0861 107.053 94.5892C107.975 95.0923 109.648 94.9246 111.073 93.9184C112.499 92.9123 118.359 85.7985 119.281 84.1215C120.204 82.4445 120.367 78.7597 120.367 78.7597C120.367 78.7597 120.199 71.3899 119.868 66.6194C119.537 61.8489 119.784 57.2373 115.848 53.217C111.912 49.1967 101.36 49.1129 97.5075 52.0476Z" fill="white" stroke="#263238" stroke-linecap="round" stroke-linejoin="round"/>
<path d="M119.868 66.6194C119.533 61.8445 119.785 57.2373 115.848 53.217C111.912 49.1967 101.36 49.1129 97.5076 52.0476C97.5076 52.0476 91.3073 55.8163 90.6365 61.5091C90.2481 64.8189 90.8792 68.2611 91.6515 71.0501C93.0769 70.1675 97.8871 67.2196 103.284 63.4376C109.732 58.9142 111.828 51.8799 111.828 51.8799C111.828 51.8799 112.578 51.4606 112.415 52.383C112.252 53.3053 109.732 58.7466 108.814 59.585L107.891 60.4191C107.891 60.4191 108.646 60.2514 112.079 64.3555C115.513 68.4596 117.437 70.1366 118.443 70.6397C118.977 70.8328 119.539 70.9415 120.107 70.9618C120.041 69.457 119.961 67.9389 119.868 66.6194Z" fill="#263238" stroke="#263238" stroke-linecap="round" stroke-linejoin="round"/>
<path d="M109.555 75.4983C109.661 76.1117 109.436 76.6677 109.047 76.7339C108.659 76.8001 108.262 76.3588 108.165 75.7454C108.068 75.132 108.284 74.576 108.672 74.5053C109.061 74.4347 109.444 74.8849 109.555 75.4983Z" fill="#263238" stroke="#263238" stroke-linecap="round" stroke-linejoin="round"/>
<path d="M100.173 76.8357C100.284 77.4535 100.059 78.0052 99.6702 78.0758C99.2818 78.1464 98.8802 77.7007 98.7876 77.0829C98.6949 76.465 98.9023 75.9178 99.2906 75.8472C99.679 75.7766 100.067 76.2223 100.173 76.8357Z" fill="#263238" stroke="#263238" stroke-linecap="round" stroke-linejoin="round"/>
<path d="M105.711 71.7253C105.711 71.7253 108.478 69.5497 111.007 71.3061" stroke="#263238" stroke-linecap="round" stroke-linejoin="round"/>
<path d="M100.102 72.9076C100.102 72.9076 96.8362 71.3145 94.5723 74.1653" stroke="#263238" stroke-linecap="round" stroke-linejoin="round"/>
<path d="M100.689 72.9824C100.689 72.9824 102.949 74.0724 103.117 76.1642" stroke="#263238" stroke-linecap="round" stroke-linejoin="round"/>
<path d="M103.2 81.9453C103.2 81.9453 104.123 82.6117 105.711 82.113" stroke="#263238" stroke-linecap="round" stroke-linejoin="round"/>
<path d="M102.534 85.4632C104.411 85.3823 106.257 84.9559 107.98 84.2055C110.91 82.9478 112.084 81.1914 112.084 81.1914" stroke="#263238" stroke-linecap="round" stroke-linejoin="round"/>
<path d="M103.955 85.379C104.625 85.9712 105.488 86.2978 106.382 86.2969C107.892 86.2969 109.229 83.6182 109.229 83.6182C109.229 83.6182 105.376 85.2951 103.955 85.379Z" stroke="#263238" stroke-linecap="round" stroke-linejoin="round"/>
<path d="M121.373 79.1784C123.501 79.1784 125.226 76.7976 125.226 73.8607C125.226 70.9238 123.501 68.543 121.373 68.543C119.245 68.543 117.521 70.9238 117.521 73.8607C117.521 76.7976 119.245 79.1784 121.373 79.1784Z" fill="#263238" stroke="#263238" stroke-linecap="round" stroke-linejoin="round"/>
<path d="M123.005 77.0028C124.37 77.0028 125.477 75.1851 125.477 72.9428C125.477 70.7005 124.37 68.8828 123.005 68.8828C121.641 68.8828 120.534 70.7005 120.534 72.9428C120.534 75.1851 121.641 77.0028 123.005 77.0028Z" fill="white" stroke="#263238" stroke-linecap="round" stroke-linejoin="round"/>
<path d="M93.041 79.5273C93.041 79.5273 93.0675 88.2298 95.327 88.9845C97.5864 89.7391 103.787 88.2298 103.787 88.2298" stroke="#263238" stroke-width="2" stroke-linecap="round" stroke-linejoin="round"/>
<path d="M106.969 88.1941C106.969 88.8648 106.144 89.4076 105.124 89.4076C104.105 89.4076 103.284 88.8648 103.284 88.1941C103.284 87.5233 104.109 86.9805 105.124 86.9805C106.139 86.9805 106.969 87.5233 106.969 88.1941Z" fill="#263238" stroke="#263238" stroke-linecap="round" stroke-linejoin="round"/>
<path d="M107.494 98.3936C107.494 98.3936 104.846 103.023 102.988 116.791C101.13 130.56 102.361 133.309 102.361 133.309L99.7135 134.938C99.7135 134.938 94.2105 134.311 96.086 121.297C97.9616 108.283 99.003 106.152 99.003 106.152L107.494 98.3936Z" fill="#C32C7B" stroke="#263238" stroke-linecap="round" stroke-linejoin="round"/>
<path d="M124.264 93.6494C124.264 93.6494 118.258 107.917 112 116.805C105.742 125.692 97.2383 138.442 97.2383 138.442C97.2383 138.442 101.744 136.315 111.258 129.174C120.773 122.034 130.407 105.644 131.408 104.02C132.41 102.396 133.911 98.6406 133.911 98.6406L124.264 93.6494Z" fill="#C32C7B" stroke="#263238" stroke-linecap="round" stroke-linejoin="round"/>
<path d="M72.2737 157.038C70.8056 157.931 69.2661 158.702 67.671 159.341C64.8554 160.493 64.5818 160.29 65.4953 161.261C66.4088 162.232 71.1264 160.493 72.4061 159.981C73.6859 159.469 76.1175 158.702 76.1175 158.702C76.1175 158.702 79.061 160.365 80.8527 160.877C82.6444 161.389 84.8244 160.621 84.8244 160.621C84.8244 160.621 84.9524 158.574 83.4167 157.422C81.8809 156.27 78.5623 153.582 77.4017 153.71C76.2411 153.838 72.2737 157.038 72.2737 157.038Z" fill="white" stroke="#263238" stroke-linecap="round" stroke-linejoin="round"/>
<path d="M71.5059 153.966C71.5059 153.966 69.9701 153.582 68.9463 154.35C67.9225 155.118 66.7707 157.549 66.6427 158.189C66.5147 158.829 66.7707 159.213 67.7945 158.317C68.8183 157.422 70.61 156.142 70.61 156.142L72.1458 155.63L71.5059 153.966Z" fill="white" stroke="#263238" stroke-linecap="round" stroke-linejoin="round"/>
<path d="M75.4734 152.815C75.4734 152.815 72.3843 151.791 71.7621 152.687C71.1399 153.583 68.9466 158.702 69.5865 159.086C70.2263 159.47 71.1222 158.702 72.274 157.038C73.4258 155.374 74.0657 154.479 74.0657 154.479L75.6014 154.223L75.4734 152.815Z" fill="white" stroke="#263238" stroke-linecap="round" stroke-linejoin="round"/>
<path d="M80.9586 153.962C80.9586 153.962 76.956 150.833 75.9542 151.583C74.9524 152.333 71.7 157.214 71.3249 158.203C70.9498 159.191 72.7018 158.706 74.0742 157.452C75.4467 156.199 77.0795 154.804 77.0795 154.804L80.2084 156.433L80.9586 153.962Z" fill="white" stroke="#263238" stroke-linecap="round" stroke-linejoin="round"/>
<path d="M95.354 156.341C95.354 156.341 90.0981 156.089 87.971 155.339C85.844 154.589 81.5854 152.96 80.3365 153.084C79.0876 153.207 74.3259 157.841 73.3242 158.843C72.3224 159.845 72.4416 160.114 73.4257 160.237C74.4098 160.361 76.8281 158.719 77.9579 157.841C78.6568 157.303 79.4113 156.842 80.2085 156.464C81.1068 157.757 82.1121 158.972 83.2138 160.096C84.4627 161.221 87.468 162.095 88.5933 161.972C89.3093 161.89 90.0197 161.765 90.7204 161.597L94.9789 161.473L95.354 156.341Z" fill="white" stroke="#263238" stroke-linecap="round" stroke-linejoin="round"/>
<path d="M131.898 120.167C131.898 120.167 127.269 125.547 127.52 127.427C127.772 129.307 127.896 131.178 127.896 131.178L124.515 151.579C124.515 151.579 121.638 150.203 121.638 151.328V152.458L94.5904 155.211L94.3389 164.721L137.392 164.845C137.392 164.845 139.52 162.471 139.771 161.593C140.023 160.714 144.775 145.573 146.029 129.678C147.282 113.782 146.655 106.65 146.029 105.406C145.402 104.161 138.019 101.778 138.019 101.778" fill="#C32C7B"/>
<path d="M131.898 120.167C131.898 120.167 127.269 125.547 127.52 127.427C127.772 129.307 127.896 131.178 127.896 131.178L124.515 151.579C124.515 151.579 121.638 150.203 121.638 151.328V152.458L94.5904 155.211L94.3389 164.721L137.392 164.845C137.392 164.845 139.52 162.471 139.771 161.593C140.023 160.714 144.775 145.573 146.029 129.678C147.282 113.782 146.655 106.65 146.029 105.406C145.402 104.161 138.019 101.778 138.019 101.778" stroke="#263238" stroke-linecap="round" stroke-linejoin="round"/>
<path d="M125.517 151.46C125.517 151.46 129.519 154.086 131.898 154.712L125.517 151.46Z" fill="white"/>
<path d="M125.517 151.46C125.517 151.46 129.519 154.086 131.898 154.712" stroke="#263238" stroke-linecap="round" stroke-linejoin="round"/>
<path d="M87.9706 126.072L91.0597 116.155C92.3123 114.928 93.4091 113.551 94.3253 112.056C95.6492 109.818 95.6492 105.622 95.4418 104.876C95.2344 104.13 98.147 100.776 98.9723 99.5801C99.7975 98.3842 100.274 96.2218 99.1576 94.6375C98.0411 93.0532 97.4807 95.6657 96.7349 96.8749C95.9891 98.0841 93.3765 99.2977 93.3765 99.2977L90.6184 101.539C90.6184 101.539 86.0509 105.547 85.7641 106.107C85.4772 106.667 84.9256 108.437 84.9256 108.437L85.3007 113.843L82.8779 123.256L87.9706 126.072Z" fill="white" stroke="#263238" stroke-linecap="round" stroke-linejoin="round"/>
<path d="M88.7344 98.2784C88.7344 98.2784 90.9718 94.748 91.6249 93.6183C92.278 92.4885 93.3019 88.027 93.955 88.3226C94.6081 88.6183 95.2789 90.0878 95.0759 92.0516C94.8729 94.0155 92.5561 98.4814 92.5561 98.4814L88.7344 98.2784Z" stroke="#263238" stroke-linecap="round" stroke-linejoin="round"/>
<path d="M83.3281 120.463L85.2875 113.843L84.4402 103.217L87.0483 98.186L94.2239 97.2549C94.2239 97.2549 98.6061 99.585 98.9812 99.585C99.3563 99.585 98.9812 100.609 98.1427 100.794C97.3042 100.979 95.7155 100.516 95.7155 100.516L98.4207 102.281C98.4207 102.281 98.2354 103.12 97.5822 103.305C96.9373 103.435 96.2807 103.499 95.6228 103.495C95.6228 103.495 97.9529 104.987 97.3881 105.26C96.8347 105.514 96.2316 105.641 95.6228 105.631H93.8576L92.4587 105.445L90.314 106.284C90.314 106.284 91.8056 110.106 91.7129 111.972C91.6202 113.839 89.2901 115.061 89.2901 115.061" fill="white"/>
<path d="M83.3281 120.463L85.2875 113.843L84.4402 103.217L87.0483 98.186L94.2239 97.2549C94.2239 97.2549 98.6061 99.585 98.9812 99.585C99.3563 99.585 98.9812 100.609 98.1427 100.794C97.3042 100.979 95.7155 100.516 95.7155 100.516L98.4207 102.281C98.4207 102.281 98.2354 103.12 97.5822 103.305C96.9373 103.435 96.2807 103.499 95.6228 103.495C95.6228 103.495 97.9529 104.987 97.3881 105.26C96.8347 105.514 96.2316 105.641 95.6228 105.631H93.8576L92.4587 105.445L90.314 106.284C90.314 106.284 91.8056 110.106 91.7129 111.972C91.6202 113.839 89.2901 115.061 89.2901 115.061" stroke="#263238" stroke-linecap="round" stroke-linejoin="round"/>
<path d="M95.7247 100.515C95.7247 100.515 94.2331 99.3018 93.3946 99.3018C92.5561 99.3018 87.4326 100.233 87.4326 100.233" stroke="#263238" stroke-linecap="round" stroke-linejoin="round"/>
<path d="M95.6319 103.499C95.6319 103.499 93.2091 102.175 92.4633 102.175C91.7175 102.175 85.8438 103.666 85.8438 103.666" stroke="#263238" stroke-linecap="round" stroke-linejoin="round"/>
<path d="M83.4471 118.384L91.0154 123.481C91.0154 123.481 87.6439 141.574 87.3129 143.123C86.9819 144.672 84.5548 148.754 83.3412 149.972C82.1276 151.19 80.6934 150.965 77.3792 150.083C74.065 149.2 71.2009 146.552 71.3024 143.123C71.4039 139.694 83.4471 118.384 83.4471 118.384Z" fill="#C32C7B" stroke="#263238" stroke-linecap="round" stroke-linejoin="round"/>
<path d="M44.3305 162.236H42.1328V162.912H44.3305V162.236Z" fill="white" stroke="#263238" stroke-linecap="round" stroke-linejoin="round"/>
<path d="M47.3754 162.236H45.1777V162.912H47.3754V162.236Z" fill="white" stroke="#263238" stroke-linecap="round" stroke-linejoin="round"/>
<path d="M50.4203 162.236H48.2227V162.912H50.4203V162.236Z" fill="white" stroke="#263238" stroke-linecap="round" stroke-linejoin="round"/>
<path d="M53.4692 162.236H51.2715V162.912H53.4692V162.236Z" fill="white" stroke="#263238" stroke-linecap="round" stroke-linejoin="round"/>
<path d="M56.5141 162.236H54.3164V162.912H56.5141V162.236Z" fill="white" stroke="#263238" stroke-linecap="round" stroke-linejoin="round"/>
<path d="M59.559 162.236H57.3613V162.912H59.559V162.236Z" fill="white" stroke="#263238" stroke-linecap="round" stroke-linejoin="round"/>
<path d="M62.6049 162.236H60.4072V162.912H62.6049V162.236Z" fill="white" stroke="#263238" stroke-linecap="round" stroke-linejoin="round"/>
<path d="M65.6498 162.236H63.4521V162.912H65.6498V162.236Z" fill="white" stroke="#263238" stroke-linecap="round" stroke-linejoin="round"/>
<path d="M68.6948 162.236H66.4971V162.912H68.6948V162.236Z" fill="white" stroke="#263238" stroke-linecap="round" stroke-linejoin="round"/>
<path d="M71.7397 162.236H69.542V162.912H71.7397V162.236Z" fill="white" stroke="#263238" stroke-linecap="round" stroke-linejoin="round"/>
<path d="M74.7885 162.236H72.5908V162.912H74.7885V162.236Z" fill="white" stroke="#263238" stroke-linecap="round" stroke-linejoin="round"/>
<path d="M77.8334 162.236H75.6357V162.912H77.8334V162.236Z" fill="white" stroke="#263238" stroke-linecap="round" stroke-linejoin="round"/>
<path d="M80.8793 162.236H78.6816V162.912H80.8793V162.236Z" fill="white" stroke="#263238" stroke-linecap="round" stroke-linejoin="round"/>
<path d="M83.9243 162.236H81.7266V162.912H83.9243V162.236Z" fill="white" stroke="#263238" stroke-linecap="round" stroke-linejoin="round"/>
<path d="M86.9692 162.236H84.7715V162.912H86.9692V162.236Z" fill="white" stroke="#263238" stroke-linecap="round" stroke-linejoin="round"/>
<path d="M90.0141 162.236H87.8164V162.912H90.0141V162.236Z" fill="white" stroke="#263238" stroke-linecap="round" stroke-linejoin="round"/>
<path d="M95.3226 162.771H40.8701V164.686H95.3226V162.771Z" fill="white" stroke="#263238" stroke-linecap="round" stroke-linejoin="round"/>
<path d="M95.318 162.771H74.4443V164.686H95.318V162.771Z" fill="white" stroke="#263238" stroke-linecap="round" stroke-linejoin="round"/>
<path d="M57.8606 145.997H15.0497L6.45312 100.472H49.264L57.8606 145.997Z" fill="#263238" stroke="white" stroke-linecap="round" stroke-linejoin="round"/>
<path d="M56.5589 144.845H15.0279L6.86816 101.624H48.3948L56.5589 144.845Z" fill="#263238" stroke="white" stroke-linecap="round" stroke-linejoin="round"/>
<path d="M48.5621 141.403H17.6841L11.6162 109.271H42.4942L48.5621 141.403Z" fill="#263238" stroke="white" stroke-linecap="round" stroke-linejoin="round"/>
<path d="M11.6166 109.272L6.86816 101.624" stroke="#263238" stroke-linecap="round" stroke-linejoin="round"/>
<path d="M42.4941 109.272L48.3944 101.624" stroke="white" stroke-linecap="round" stroke-linejoin="round"/>
<path d="M48.5625 141.402L56.5589 144.845" stroke="white" stroke-linecap="round" stroke-linejoin="round"/>
<path d="M17.684 141.402L15.0273 144.845" stroke="#263238" stroke-linecap="round" stroke-linejoin="round"/>
<path d="M30.2389 131.777H23.209L27.6838 127.788H34.7138L30.2389 131.777Z" fill="#263238" stroke="white" stroke-linecap="round" stroke-linejoin="round"/>
<path d="M53.5619 162.289H27.8428V164.844H53.5619V162.289Z" fill="#263238" stroke="white" stroke-linecap="round" stroke-linejoin="round"/>
<path d="M38.8664 164.844H31.8365L23.209 155.043H30.2389L38.8664 164.844Z" fill="#263238" stroke="white" stroke-linecap="round" stroke-linejoin="round"/>
<path d="M30.2389 131.94H23.209V154.941H30.2389V131.94Z" fill="#263238" stroke="white" stroke-linecap="round" stroke-linejoin="round"/>
<path d="M133.165 160.472C134.169 162.295 135.695 163.776 137.547 164.726L133.165 160.472Z" fill="white"/>
<path d="M133.165 160.472C134.169 162.295 135.695 163.776 137.547 164.726" stroke="#263238" stroke-linecap="round" stroke-linejoin="round"/>
<path d="M1.06055 164.845H202.388" stroke="#263238" stroke-linecap="round" stroke-linejoin="round"/>
</svg>
