<svg width="169" height="167" viewBox="0 0 169 167" fill="none" xmlns="http://www.w3.org/2000/svg">
<path d="M163.167 9.10449H153.631C151.374 9.10449 149.544 10.9343 149.544 13.1914V22.7276C149.544 24.9848 151.374 26.8146 153.631 26.8146H163.167C165.424 26.8146 167.254 24.9848 167.254 22.7276V13.1914C167.254 10.9343 165.424 9.10449 163.167 9.10449Z" fill="#E0E0E0"/>
<path d="M159.127 21.0264C159.127 21.1745 159.083 21.3193 159.001 21.4424C158.918 21.5655 158.801 21.6614 158.664 21.7179C158.527 21.7744 158.377 21.789 158.232 21.7598C158.086 21.7306 157.953 21.659 157.849 21.554C157.744 21.449 157.673 21.3153 157.645 21.1699C157.616 21.0246 157.632 20.874 157.689 20.7374C157.746 20.6008 157.843 20.4842 157.966 20.4025C158.09 20.3208 158.235 20.2776 158.383 20.2783C158.581 20.2794 158.77 20.3586 158.909 20.4988C159.049 20.639 159.127 20.8287 159.127 21.0264Z" fill="white"/>
<path d="M156.871 20.0665C157.062 19.8619 157.293 19.698 157.549 19.5847C157.805 19.4714 158.081 19.4111 158.361 19.4074C158.641 19.4038 158.919 19.4568 159.177 19.5633C159.436 19.6698 159.671 19.8276 159.867 20.0272C159.946 20.106 160.052 20.1505 160.163 20.1509C160.274 20.1513 160.381 20.1075 160.46 20.0291C160.539 19.9508 160.583 19.8444 160.584 19.7333C160.584 19.6221 160.54 19.5154 160.462 19.4366C160.187 19.16 159.86 18.9412 159.5 18.793C159.14 18.6447 158.753 18.57 158.364 18.5733C157.974 18.5766 157.589 18.6579 157.231 18.8122C156.874 18.9665 156.55 19.1909 156.28 19.472C155.91 19.8657 156.501 20.4603 156.871 20.0665Z" fill="white"/>
<path d="M154.355 16.5937C155.45 15.5892 156.873 15.0181 158.359 14.9873C159.873 14.972 161.337 15.5353 162.45 16.5622C162.844 16.9323 163.442 16.3417 163.044 15.9716C161.772 14.7922 160.097 14.1442 158.363 14.1605C156.656 14.1952 155.02 14.8502 153.76 16.0031C153.366 16.3575 153.945 16.952 154.355 16.6016V16.5937Z" fill="white"/>
<path d="M155.355 18.5303C155.733 18.1086 156.195 17.7698 156.711 17.5353C157.227 17.3007 157.785 17.1754 158.352 17.1673C158.918 17.1591 159.481 17.2683 160.003 17.488C160.525 17.7077 160.996 18.033 161.387 18.4436C161.467 18.5148 161.571 18.5528 161.678 18.5501C161.785 18.5473 161.887 18.504 161.963 18.4288C162.039 18.3536 162.084 18.2523 162.088 18.1454C162.092 18.0384 162.055 17.9339 161.985 17.853C161.518 17.3633 160.954 16.9749 160.33 16.7119C159.706 16.449 159.035 16.3171 158.358 16.3245C157.681 16.3319 157.012 16.4784 156.394 16.7549C155.776 17.0314 155.221 17.432 154.764 17.9318C154.398 18.3255 154.985 18.9279 155.355 18.5303Z" fill="white"/>
<path d="M76.8993 9.52605L70.3673 9.49849C70.3632 8.96046 70.4593 8.42637 70.6508 7.92356C70.8191 7.48142 71.0888 7.08494 71.4383 6.76599C71.8726 6.38494 72.4093 6.13987 72.9817 6.06121C72.6421 5.9063 72.3554 5.65507 72.1573 5.33869C71.9593 5.0223 71.8585 4.65471 71.8674 4.28155C71.8651 3.77875 72.0553 3.29414 72.399 2.92711C72.5609 2.75791 72.7552 2.62298 72.9703 2.53032C73.1853 2.43766 73.4168 2.38916 73.651 2.3877C74.1444 2.40719 74.61 2.62095 74.9463 2.98237C75.2826 3.34378 75.4624 3.82353 75.4465 4.31698C75.4513 4.68729 75.3487 5.05106 75.1509 5.36416C74.9531 5.67726 74.6687 5.92624 74.3322 6.0809C74.9015 6.16087 75.4344 6.40746 75.8638 6.78962C76.2057 7.11872 76.466 7.52322 76.6237 7.97081C76.8111 8.47431 76.9019 9.00861 76.8914 9.54574L76.8993 9.52605ZM70.3791 9.47487L76.8836 9.50243C76.8855 8.97367 76.7949 8.44865 76.6158 7.95113C76.459 7.50308 76.1987 7.09837 75.8559 6.76993C75.4229 6.38155 74.8817 6.13433 74.3046 6.06121H74.2692H74.3007C74.6418 5.91183 74.9313 5.6652 75.133 5.35216C75.3347 5.03913 75.4396 4.67358 75.4346 4.30123C75.4527 3.81205 75.2759 3.33571 74.9429 2.97689C74.6099 2.61807 74.1481 2.40615 73.6589 2.3877C73.4235 2.38861 73.1909 2.43803 72.9755 2.53287C72.76 2.62771 72.5665 2.76594 72.4068 2.93892C72.0654 3.30229 71.8765 3.78292 71.8792 4.28155C71.8673 4.65731 71.9682 5.02803 72.1689 5.34593C72.3696 5.66383 72.6609 5.91433 73.0053 6.06515C72.4216 6.13711 71.873 6.38263 71.4304 6.76993C71.0811 7.08585 70.8113 7.47977 70.6429 7.91963C70.4611 8.41768 70.3717 8.94473 70.3791 9.47487Z" fill="#263238"/>
<path d="M78.9034 64.6523H69.3672C67.1101 64.6523 65.2803 66.4821 65.2803 68.7393V78.2794C65.2803 80.5366 67.1101 82.3663 69.3672 82.3663H78.9034C81.1605 82.3663 82.9903 80.5366 82.9903 78.2794V68.7393C82.9903 66.4821 81.1605 64.6523 78.9034 64.6523Z" fill="white"/>
<path d="M78.9117 82.3668C78.9117 82.3668 79.1361 82.3668 79.5535 82.288C80.3396 82.1555 81.0691 81.7943 81.6511 81.2495C82.233 80.7047 82.6415 80.0004 82.8254 79.2248C82.9345 78.6263 82.9702 78.0168 82.9317 77.4097C82.9317 76.76 82.9317 76.071 82.9317 75.3505C82.9317 73.9055 82.9317 72.3266 82.9317 70.6257V69.3224C82.9496 68.8828 82.9258 68.4425 82.8608 68.0074C82.6878 67.0821 82.1944 66.2474 81.4671 65.6498C80.7399 65.0522 79.8254 64.7298 78.8841 64.7394H69.3952C68.8709 64.7399 68.3519 64.8437 67.8677 65.0448C67.3835 65.2459 66.9437 65.5404 66.5733 65.9115C66.2029 66.2826 65.9093 66.7231 65.7091 67.2076C65.5089 67.6922 65.4062 68.2115 65.4067 68.7358C65.4067 70.8147 65.4067 72.8188 65.4067 74.7284C65.4067 75.6812 65.4067 76.6144 65.4067 77.516C65.3924 77.9575 65.4082 78.3995 65.454 78.8389C65.5075 79.2588 65.6327 79.6663 65.8241 80.0438C66.1842 80.7679 66.7534 81.3673 67.4581 81.7644C68.1116 82.1244 68.8503 82.3013 69.596 82.2762L76.4351 82.3117L78.2935 82.3313H78.7778H78.9432C78.8882 82.3371 78.8328 82.3371 78.7778 82.3313H78.2935H76.4351L69.596 82.3628C68.8237 82.3933 68.0576 82.2137 67.3793 81.8431C66.6443 81.434 66.05 80.8123 65.6744 80.0595C65.4731 79.6661 65.34 79.2414 65.2807 78.8035C65.2335 78.3563 65.2177 77.9063 65.2335 77.4569C65.2335 76.5553 65.2335 75.6222 65.2335 74.6693C65.2335 72.7597 65.2335 70.7556 65.2335 68.6767C65.2324 68.1257 65.34 67.5799 65.55 67.0705C65.76 66.5611 66.0684 66.0981 66.4575 65.7079C66.8465 65.3178 67.3087 65.0081 67.8175 64.7967C68.3263 64.5852 68.8718 64.4761 69.4228 64.4756H78.9117C79.9211 64.4728 80.8984 64.8302 81.6678 65.4836C82.3966 66.1084 82.8886 66.9647 83.0616 67.9089C83.1265 68.3547 83.1489 68.8055 83.1286 69.2555V70.5509C83.1286 72.2479 83.1286 73.8267 83.1286 75.2757C83.1286 75.9962 83.1286 76.6852 83.1286 77.3349C83.1607 77.9521 83.1171 78.5709 82.9986 79.1775C82.7579 80.1505 82.1715 81.0028 81.3489 81.5754C80.833 81.9327 80.2414 82.1659 79.6204 82.2565C79.4604 82.2827 79.2983 82.2946 79.1361 82.292L78.9117 82.3668Z" fill="#263238"/>
<path d="M74.9077 73.4176C75.2971 73.2462 75.6275 72.9641 75.8578 72.6063C76.0881 72.2486 76.2082 71.831 76.203 71.4056C76.2203 71.1271 76.1804 70.848 76.0858 70.5855C75.9911 70.3231 75.8437 70.0828 75.6526 69.8794C75.4615 69.6761 75.2308 69.514 74.9747 69.4033C74.7186 69.2925 74.4425 69.2354 74.1635 69.2354C73.8845 69.2354 73.6084 69.2925 73.3523 69.4033C73.0962 69.514 72.8655 69.6761 72.6744 69.8794C72.4833 70.0828 72.3359 70.3231 72.2412 70.5855C72.1466 70.848 72.1067 71.1271 72.124 71.4056C72.1147 71.8349 72.2333 72.2573 72.4647 72.619C72.696 72.9808 73.0297 73.2656 73.4233 73.4373C70.2734 73.9097 70.427 77.3234 70.427 77.3234L77.8488 77.3588C77.8488 77.3588 78.0181 73.8901 74.9077 73.4176Z" fill="#C32C7B"/>
<path d="M90.0781 56.5457C89.9876 56.5515 89.8969 56.5515 89.8064 56.5457L89.019 56.5654L86.1447 56.5969L76.6597 56.6284H75.2896C75.0609 56.6361 74.832 56.6282 74.6045 56.6048C74.3771 56.5728 74.1556 56.5078 73.9469 56.4118C73.5545 56.2244 73.2064 55.9559 72.9254 55.624C72.6444 55.2921 72.437 54.9044 72.3169 54.4865C72.2016 54.1035 72.1445 53.7053 72.1476 53.3053C72.1476 52.9116 72.1476 52.5572 72.1476 52.1989C72.1476 51.4902 72.1476 50.8248 72.1751 50.2303C72.1751 49.0491 72.2145 48.0608 72.2263 47.356C72.2263 47.0332 72.2342 46.7707 72.2499 46.5686C72.2473 46.4774 72.2552 46.3862 72.2736 46.2969C72.2822 46.3872 72.2822 46.4782 72.2736 46.5686C72.2736 46.7654 72.2736 47.0279 72.2736 47.356C72.2736 48.0608 72.2736 49.0372 72.2736 50.2303C72.2736 50.8405 72.2736 51.5059 72.2736 52.2186C72.2736 52.9313 72.1909 53.7069 72.4429 54.4511C72.5579 54.841 72.7532 55.2025 73.0163 55.5124C73.2794 55.8223 73.6045 56.0737 73.9706 56.2504C74.1639 56.3355 74.3678 56.3937 74.5769 56.4237C74.7953 56.4456 75.015 56.4535 75.2344 56.4473H76.6046L86.0896 56.4748L88.9638 56.5063L89.7513 56.526C89.8606 56.5181 89.9705 56.5247 90.0781 56.5457Z" fill="#263238"/>
<path d="M75.9745 20.417H60.1504C57.8933 20.417 56.0635 22.2468 56.0635 24.5039V40.328C56.0635 42.5852 57.8933 44.415 60.1504 44.415H75.9745C78.2316 44.415 80.0614 42.5852 80.0614 40.328V24.5039C80.0614 22.2468 78.2316 20.417 75.9745 20.417Z" fill="white"/>
<path d="M75.9709 44.4105C76.2696 44.3873 76.5667 44.3465 76.8607 44.2885C77.7019 44.0914 78.4588 43.6323 79.0223 42.9773C79.4299 42.5098 79.7213 41.9527 79.8728 41.3512C80.0092 40.6247 80.0515 39.8836 79.9988 39.1463C79.9988 37.5478 79.9988 35.7248 79.9988 33.7168C79.9988 31.7087 79.9988 29.4999 79.9988 27.1336V25.3263C80.0334 24.7141 79.9884 24.1 79.8649 23.4994C79.7037 22.8844 79.3982 22.3168 78.9736 21.8436C78.549 21.3704 78.0177 21.0054 77.4238 20.7787C77.1194 20.6582 76.8002 20.5787 76.4749 20.5425C76.141 20.514 75.8058 20.5035 75.4708 20.511H60.1508C59.4046 20.5162 58.6749 20.7303 58.0443 21.1291C57.7299 21.3224 57.446 21.5613 57.2017 21.8379C56.9534 22.1063 56.7464 22.4102 56.5875 22.7395C56.4253 23.0659 56.3087 23.413 56.241 23.7711C56.1836 24.129 56.1599 24.4915 56.1701 24.8539V27.0469C56.1701 29.9409 56.1701 32.7364 56.1701 35.398C56.1701 36.7288 56.1701 38.0242 56.1701 39.2841C56.1422 39.8995 56.1686 40.5161 56.2489 41.1268C56.3709 41.7042 56.6167 42.2482 56.9694 42.7214C57.3058 43.1691 57.7329 43.5408 58.2227 43.8122C58.7126 44.0836 59.2542 44.2485 59.8121 44.2963C60.8949 44.3357 61.958 44.2963 62.962 44.3239L72.4942 44.3554L75.085 44.3751L72.4942 44.3948L62.962 44.4302C61.954 44.4302 60.9067 44.4499 59.8121 44.4302C59.2303 44.381 58.6654 44.2089 58.155 43.9251C57.6446 43.6414 57.2003 43.2526 56.8513 42.7844C56.4793 42.292 56.2211 41.7231 56.0953 41.1189C56.0074 40.4983 55.9784 39.8708 56.0087 39.2448C56.0087 37.9848 56.0087 36.6894 56.0087 35.3586C56.0087 32.697 56.0087 29.9015 56.0087 27.0076V24.8145C55.9954 24.439 56.0191 24.0631 56.0796 23.6923C56.1514 23.3169 56.2732 22.9527 56.4418 22.6096C56.6113 22.2645 56.8287 21.945 57.0875 21.6607C57.3453 21.3711 57.6437 21.1204 57.9734 20.9165C58.6405 20.4992 59.4111 20.2769 60.198 20.2748H75.4905C75.8335 20.267 76.1766 20.2789 76.5182 20.3102C76.858 20.3508 77.1914 20.4342 77.5104 20.5582C78.132 20.7962 78.6876 21.1795 79.1308 21.6761C79.574 22.1727 79.8919 22.7682 80.0578 23.4128C80.1856 24.0274 80.2307 24.6564 80.1917 25.283V27.0902C80.1917 29.4526 80.1917 31.6575 80.1917 33.6734C80.1917 35.6894 80.1917 37.5045 80.1917 39.103C80.2362 39.8492 80.186 40.598 80.0421 41.3315C79.8833 41.9457 79.5795 42.5128 79.1562 42.9852C78.5794 43.6473 77.8026 44.1034 76.9434 44.2845C76.7234 44.3333 76.4993 44.361 76.2741 44.3672C76.0457 44.4144 75.9709 44.4105 75.9709 44.4105Z" fill="#263238"/>
<path d="M62.9145 37.1934H59.8867V39.5124H62.9145V37.1934Z" fill="#C32C7B"/>
<path d="M66.7456 31.8467H63.7178V39.5126H66.7456V31.8467Z" fill="#C32C7B"/>
<path d="M70.9585 35.1465H67.9307V39.509H70.9585V35.1465Z" fill="#C32C7B"/>
<path d="M74.979 29.6221H71.9512V39.5087H74.979V29.6221Z" fill="#C32C7B"/>
<path d="M61.1945 34.8041C60.8963 34.8041 60.6047 34.7156 60.3567 34.5499C60.1087 34.3842 59.9155 34.1487 59.8013 33.8732C59.6872 33.5976 59.6573 33.2944 59.7155 33.0019C59.7737 32.7094 59.9173 32.4407 60.1282 32.2298C60.3391 32.0189 60.6078 31.8752 60.9003 31.8171C61.1928 31.7589 61.4961 31.7887 61.7716 31.9029C62.0472 32.017 62.2827 32.2103 62.4484 32.4583C62.6141 32.7063 62.7025 32.9978 62.7025 33.2961C62.7025 33.696 62.5436 34.0796 62.2608 34.3624C61.978 34.6452 61.5945 34.8041 61.1945 34.8041ZM61.1945 32.1858C60.974 32.1858 60.7584 32.2512 60.5751 32.3738C60.3917 32.4964 60.2489 32.6707 60.1647 32.8745C60.0805 33.0784 60.0586 33.3026 60.102 33.5189C60.1453 33.7351 60.2518 33.9336 60.408 34.0893C60.5642 34.245 60.7632 34.3508 60.9796 34.3933C61.196 34.4359 61.4201 34.4133 61.6237 34.3283C61.8272 34.2434 62.0009 34.1 62.1229 33.9162C62.2449 33.7324 62.3096 33.5166 62.3088 33.2961C62.3077 33.0012 62.1899 32.7188 61.981 32.5107C61.7722 32.3026 61.4894 32.1858 61.1945 32.1858Z" fill="#C32C7B"/>
<path d="M65.5256 29.0707C65.2273 29.0707 64.9358 28.9822 64.6878 28.8165C64.4398 28.6508 64.2465 28.4153 64.1324 28.1398C64.0182 27.8642 63.9884 27.561 64.0466 27.2685C64.1047 26.976 64.2484 26.7073 64.4593 26.4964C64.6702 26.2855 64.9389 26.1419 65.2314 26.0837C65.5239 26.0255 65.8271 26.0553 66.1027 26.1695C66.3782 26.2836 66.6137 26.4769 66.7794 26.7249C66.9451 26.9729 67.0336 27.2644 67.0336 27.5627C67.0325 27.9623 66.8733 28.3453 66.5907 28.6278C66.3082 28.9104 65.9252 29.0696 65.5256 29.0707ZM65.5256 26.4484C65.3052 26.4484 65.0898 26.5138 64.9065 26.6362C64.7233 26.7586 64.5805 26.9327 64.4961 27.1363C64.4118 27.3399 64.3897 27.5639 64.4327 27.7801C64.4757 27.9962 64.5818 28.1947 64.7377 28.3506C64.8935 28.5064 65.092 28.6125 65.3082 28.6555C65.5243 28.6985 65.7484 28.6765 65.952 28.5921C66.1556 28.5078 66.3296 28.365 66.452 28.1817C66.5745 27.9985 66.6398 27.7831 66.6398 27.5627C66.6398 27.4164 66.611 27.2715 66.555 27.1363C66.499 27.0011 66.4169 26.8782 66.3135 26.7748C66.21 26.6713 66.0872 26.5892 65.952 26.5332C65.8168 26.4772 65.6719 26.4484 65.5256 26.4484Z" fill="#C32C7B"/>
<path d="M69.4621 32.7054C69.1638 32.7054 68.8723 32.617 68.6243 32.4513C68.3763 32.2856 68.183 32.0501 68.0689 31.7745C67.9548 31.499 67.9249 31.1958 67.9831 30.9033C68.0413 30.6107 68.1849 30.342 68.3958 30.1311C68.6067 29.9202 68.8754 29.7766 69.1679 29.7184C69.4604 29.6602 69.7636 29.6901 70.0392 29.8042C70.3147 29.9184 70.5502 30.1117 70.7159 30.3597C70.8816 30.6076 70.9701 30.8992 70.9701 31.1974C70.969 31.5971 70.8098 31.98 70.5273 32.2626C70.2447 32.5452 69.8617 32.7044 69.4621 32.7054ZM69.4621 30.0871C69.2415 30.0871 69.026 30.1526 68.8426 30.2752C68.6593 30.3978 68.5165 30.5721 68.4323 30.7759C68.3481 30.9797 68.3262 31.204 68.3695 31.4202C68.4129 31.6365 68.5194 31.835 68.6756 31.9907C68.8318 32.1464 69.0307 32.2522 69.2471 32.2947C69.4635 32.3373 69.6877 32.3146 69.8912 32.2297C70.0948 32.1448 70.2685 32.0013 70.3905 31.8176C70.5124 31.6338 70.5771 31.418 70.5764 31.1974C70.5764 30.9019 70.459 30.6185 70.25 30.4095C70.041 30.2006 69.7576 30.0832 69.4621 30.0832V30.0871Z" fill="#C32C7B"/>
<path d="M73.632 27.4369C73.3338 27.4369 73.0422 27.3484 72.7942 27.1827C72.5462 27.017 72.353 26.7815 72.2388 26.506C72.1247 26.2304 72.0948 25.9272 72.153 25.6347C72.2112 25.3422 72.3548 25.0735 72.5657 24.8626C72.7766 24.6517 73.0453 24.5081 73.3378 24.4499C73.6303 24.3917 73.9336 24.4216 74.2091 24.5357C74.4847 24.6498 74.7202 24.8431 74.8859 25.0911C75.0516 25.3391 75.14 25.6306 75.14 25.9289C75.139 26.3285 74.9798 26.7115 74.6972 26.9941C74.4146 27.2766 74.0316 27.4358 73.632 27.4369ZM73.632 24.8146C73.4116 24.8146 73.1962 24.88 73.013 25.0024C72.8297 25.1249 72.6869 25.2989 72.6026 25.5025C72.5182 25.7061 72.4962 25.9301 72.5392 26.1463C72.5822 26.3624 72.6883 26.561 72.8441 26.7168C72.9999 26.8726 73.1985 26.9787 73.4146 27.0217C73.6308 27.0647 73.8548 27.0427 74.0584 26.9583C74.262 26.874 74.4361 26.7312 74.5585 26.5479C74.6809 26.3647 74.7463 26.1493 74.7463 25.9289C74.7421 25.6361 74.6229 25.3567 74.4144 25.1512C74.2059 24.9456 73.9248 24.8304 73.632 24.8304V24.8146Z" fill="#C32C7B"/>
<path d="M72.5819 26.7727L70.1504 30.2324L70.4725 30.4588L72.904 26.9991L72.5819 26.7727Z" fill="#C32C7B"/>
<path d="M66.6791 28.4847L66.3945 28.7568L68.245 30.6918L68.5295 30.4197L66.6791 28.4847Z" fill="#C32C7B"/>
<path d="M64.4928 28.5684L61.7646 32.083L62.0757 32.3244L64.8038 28.8099L64.4928 28.5684Z" fill="#C32C7B"/>
<path d="M73.8883 44.6946C73.889 44.9223 73.8222 45.1451 73.6961 45.3348C73.5701 45.5245 73.3906 45.6724 73.1803 45.76C72.9701 45.8475 72.7386 45.8706 72.5152 45.8263C72.2918 45.7821 72.0866 45.6725 71.9256 45.5115C71.7646 45.3505 71.655 45.1452 71.6108 44.9219C71.5665 44.6985 71.5896 44.467 71.6771 44.2567C71.7646 44.0465 71.9126 43.867 72.1023 43.741C72.2919 43.6149 72.5148 43.5481 72.7425 43.5488C73.0464 43.5488 73.3378 43.6696 73.5527 43.8844C73.7675 44.0993 73.8883 44.3907 73.8883 44.6946Z" fill="#263238"/>
<path d="M101.496 39.0326C101.441 39.0326 101.394 35.7252 101.394 31.6462C101.394 27.5671 101.441 24.2598 101.496 24.2598C101.551 24.2598 101.598 27.5671 101.598 31.6462C101.598 35.7252 101.551 39.0326 101.496 39.0326Z" fill="#263238"/>
<path d="M108.729 0.182617H92.9053C90.6481 0.182617 88.8184 2.0124 88.8184 4.26955V20.0936C88.8184 22.3508 90.6481 24.1806 92.9053 24.1806H108.729C110.987 24.1806 112.816 22.3508 112.816 20.0936V4.26955C112.816 2.0124 110.987 0.182617 108.729 0.182617Z" fill="white"/>
<path d="M108.725 24.1768C109.027 24.15 109.326 24.1053 109.623 24.0429C110.464 23.8458 111.221 23.3867 111.784 22.7318C112.192 22.2643 112.483 21.7072 112.635 21.1057C112.773 20.3874 112.819 19.6544 112.773 18.9244C112.773 17.3259 112.773 15.5029 112.773 13.4949C112.773 11.4868 112.773 9.27799 112.773 6.91166V5.09262C112.807 4.48042 112.762 3.86632 112.639 3.26571C112.477 2.65043 112.172 2.08243 111.747 1.60865C111.323 1.13488 110.791 0.768939 110.198 0.541083C109.892 0.423637 109.573 0.345574 109.249 0.308781C108.915 0.278314 108.58 0.267795 108.245 0.277282H92.9048C92.1568 0.278618 91.4242 0.49008 90.7905 0.887566C90.4717 1.0811 90.1837 1.32132 89.9361 1.60022C89.6878 1.86867 89.4808 2.17254 89.3219 2.50187C89.1597 2.82824 89.0431 3.17535 88.9754 3.53344C88.918 3.89136 88.8942 4.25386 88.9045 4.61621V6.80929C88.9045 9.70322 88.9045 12.4987 88.9045 15.1603C88.9045 16.4872 88.9045 17.7865 88.9045 19.0465C88.8766 19.6605 88.903 20.2758 88.9832 20.8852C89.1045 21.4641 89.3503 22.0096 89.7038 22.4838C90.0409 22.9307 90.4681 23.3019 90.9578 23.5732C91.4475 23.8445 91.9888 24.0099 92.5465 24.0587C93.6293 24.0981 94.6924 24.0587 95.6964 24.0862L105.229 24.1177L107.819 24.1374H105.229L95.6964 24.1689C94.6884 24.1689 93.6411 24.1926 92.5465 24.1689C91.6539 24.0882 90.8109 23.7228 90.1417 23.1266C89.4725 22.5305 89.0126 21.735 88.8297 20.8576C88.7418 20.2371 88.7128 19.6095 88.7431 18.9835C88.7431 17.7235 88.7431 16.4242 88.7431 15.0973C88.7431 12.4357 88.7431 9.64022 88.7431 6.7463V4.62014C88.7297 4.24468 88.7535 3.86881 88.8139 3.49801C88.8857 3.12252 89.0076 2.75835 89.1762 2.41525C89.3457 2.07012 89.563 1.75067 89.8219 1.46635C90.0796 1.17676 90.3781 0.926101 90.7078 0.722199C91.3749 0.304903 92.1455 0.0825944 92.9324 0.0804158H108.225C108.568 0.0726871 108.911 0.0845183 109.253 0.115852C109.592 0.156499 109.926 0.23984 110.245 0.363903C110.863 0.604805 111.415 0.98985 111.855 1.48703C112.294 1.9842 112.609 2.57915 112.773 3.2224C112.9 3.83705 112.945 4.46603 112.906 5.09262V6.89985C112.906 9.26224 112.906 11.4671 112.906 13.483C112.906 15.499 112.906 17.3141 112.906 18.9126C112.951 19.6588 112.901 20.4076 112.757 21.1411C112.598 21.7553 112.294 22.3224 111.871 22.7948C111.294 23.4569 110.517 23.913 109.658 24.0941C109.438 24.1429 109.214 24.1706 108.989 24.1768H108.725Z" fill="#263238"/>
<path d="M102.623 24.177C102.623 24.4036 102.555 24.6251 102.429 24.8136C102.304 25.002 102.125 25.1488 101.915 25.2356C101.706 25.3223 101.476 25.345 101.253 25.3008C101.031 25.2565 100.827 25.1474 100.667 24.9872C100.506 24.8269 100.397 24.6228 100.353 24.4005C100.309 24.1783 100.332 23.9479 100.418 23.7385C100.505 23.5292 100.652 23.3502 100.84 23.2243C101.029 23.0984 101.25 23.0312 101.477 23.0312C101.781 23.0312 102.072 23.152 102.287 23.3668C102.502 23.5817 102.623 23.8731 102.623 24.177Z" fill="#263238"/>
<path d="M99.9095 15.2427C99.2743 15.248 98.6456 15.1148 98.0671 14.8525C97.4885 14.5902 96.9741 14.205 96.5594 13.7238C96.1448 13.2426 95.84 12.6768 95.6661 12.0659C95.4922 11.4549 95.4535 10.8134 95.5526 10.186C95.6517 9.55852 95.8863 8.96019 96.24 8.43258C96.5938 7.90496 97.0581 7.46072 97.6009 7.13072C98.1437 6.80073 98.7518 6.59291 99.3831 6.52171C100.014 6.45051 100.653 6.51763 101.256 6.71842C101.804 6.8944 102.311 7.17674 102.749 7.54927C103.188 7.92179 103.548 8.37716 103.81 8.88927C104.072 9.40137 104.23 9.96014 104.276 10.5335C104.321 11.1069 104.253 11.6837 104.075 12.2307C103.787 13.1075 103.228 13.8708 102.48 14.4116C101.732 14.9525 100.833 15.2434 99.9095 15.2427ZM99.9095 7.27752C99.2478 7.27759 98.5989 7.46073 98.0348 7.80667C97.4707 8.15261 97.0132 8.64787 96.7131 9.23765C96.413 9.82743 96.2819 10.4887 96.3343 11.1484C96.3867 11.8081 96.6205 12.4404 97.01 12.9754C97.3995 13.5104 97.9293 13.9273 98.541 14.1798C99.1527 14.4324 99.8223 14.5108 100.476 14.4064C101.129 14.302 101.741 14.0189 102.244 13.5883C102.746 13.1578 103.12 12.5966 103.323 11.9669C103.614 11.061 103.534 10.0765 103.1 9.22977C102.666 8.383 101.914 7.74315 101.008 7.45076C100.655 7.33597 100.285 7.2775 99.9134 7.27752H99.9095Z" fill="#263238"/>
<path d="M105.685 17.869C105.631 17.8683 105.578 17.8564 105.528 17.8341C105.479 17.8117 105.434 17.7794 105.398 17.7391L102.142 14.1994C102.079 14.1215 102.048 14.0227 102.056 13.9229C102.063 13.8232 102.108 13.73 102.182 13.6623C102.256 13.5947 102.352 13.5576 102.452 13.5586C102.553 13.5596 102.648 13.5987 102.721 13.6679L105.973 17.2115C106.043 17.2883 106.08 17.3899 106.076 17.4939C106.071 17.598 106.026 17.696 105.949 17.7666C105.877 17.8323 105.783 17.8687 105.685 17.869Z" fill="#263238"/>
<path d="M138.353 8.41602H122.529C120.272 8.41602 118.442 10.2458 118.442 12.503V28.327C118.442 30.5842 120.272 32.414 122.529 32.414H138.353C140.611 32.414 142.44 30.5842 142.44 28.327V12.503C142.44 10.2458 140.611 8.41602 138.353 8.41602Z" fill="white"/>
<path d="M138.365 32.414C138.665 32.3909 138.964 32.3502 139.259 32.2919C140.1 32.0948 140.857 31.6357 141.421 30.9808C141.828 30.5115 142.119 29.9532 142.271 29.3508C142.406 28.6253 142.448 27.8858 142.397 27.1498C142.397 25.5473 142.397 23.7283 142.397 21.7163C142.397 19.7043 142.397 17.4994 142.397 15.137V13.3298C142.432 12.7174 142.386 12.1031 142.259 11.5029C142.1 10.8872 141.796 10.3186 141.372 9.84459C140.948 9.37059 140.416 9.00496 139.822 8.77827C139.517 8.66175 139.198 8.58371 138.873 8.54597C138.54 8.5136 138.204 8.50307 137.869 8.51447H122.533C121.785 8.51866 121.053 8.73137 120.419 9.12869C120.105 9.32054 119.821 9.55807 119.577 9.83347C119.328 10.103 119.121 10.4083 118.962 10.7391C118.799 11.0636 118.682 11.4095 118.616 11.7667C118.559 12.1259 118.535 12.4897 118.545 12.8534V15.0465C118.545 17.9404 118.545 20.732 118.545 23.3936C118.545 24.7244 118.545 26.0237 118.545 27.2837C118.515 27.8977 118.541 28.5132 118.624 29.1224C118.745 29.7013 118.991 30.2468 119.344 30.7209C119.681 31.1675 120.108 31.5384 120.597 31.8097C121.086 32.0809 121.626 32.2466 122.183 32.2959C123.27 32.3352 124.333 32.2959 125.333 32.3234L134.865 32.3549L137.456 32.3746L134.865 32.3943L125.333 32.4258C124.325 32.4258 123.278 32.4494 122.183 32.4258C121.601 32.3761 121.037 32.2038 120.526 31.9201C120.016 31.6364 119.572 31.2479 119.222 30.78C118.85 30.2874 118.59 29.7188 118.462 29.1145C118.378 28.4936 118.349 27.8664 118.376 27.2404C118.376 25.9804 118.376 24.6811 118.376 23.3503C118.376 20.6887 118.376 17.8971 118.376 15.0032V12.8573C118.362 12.4819 118.386 12.106 118.447 11.7352C118.518 11.3597 118.64 10.9955 118.809 10.6524C118.978 10.3073 119.196 9.98786 119.454 9.70354C119.712 9.41395 120.011 9.16329 120.34 8.95939C121.007 8.5409 121.778 8.31724 122.565 8.31367H137.857C138.2 8.30657 138.543 8.31709 138.885 8.34516C139.225 8.3877 139.558 8.47099 139.877 8.59322C140.492 8.83655 141.04 9.2216 141.477 9.71698C141.914 10.2124 142.228 10.8041 142.393 11.4438C142.521 12.0598 142.566 12.6901 142.527 13.318C142.527 13.9283 142.527 14.5307 142.527 15.1252C142.527 17.4876 142.527 19.6925 142.527 21.7045C142.527 23.7165 142.527 25.5355 142.527 27.138C142.575 27.884 142.526 28.6331 142.381 29.3665C142.186 30.096 141.794 30.7577 141.247 31.2786C140.701 31.7996 140.021 32.1598 139.283 32.3195C139.062 32.366 138.839 32.3937 138.613 32.4022C138.428 32.4179 138.365 32.414 138.365 32.414Z" fill="#263238"/>
<path d="M131.888 32.5833C131.889 32.8108 131.822 33.0335 131.696 33.2231C131.571 33.4127 131.391 33.5606 131.181 33.6482C130.971 33.7359 130.74 33.7592 130.517 33.7153C130.293 33.6714 130.088 33.5622 129.927 33.4016C129.766 33.2409 129.656 33.0361 129.611 32.8129C129.567 32.5898 129.589 32.3585 129.676 32.1481C129.763 31.9378 129.91 31.758 130.099 31.6315C130.289 31.505 130.511 31.4375 130.739 31.4375C131.043 31.4375 131.335 31.5581 131.55 31.7728C131.766 31.9876 131.887 32.279 131.888 32.5833Z" fill="#263238"/>
<path d="M139.515 21.3622C140.117 23.4726 138.727 25.5357 136.582 25.5357H125.211C124.774 25.5378 124.343 25.4392 123.951 25.2477C123.559 25.0562 123.216 24.7768 122.95 24.4314C122.683 24.0859 122.5 23.6837 122.414 23.2559C122.328 22.828 122.342 22.3862 122.454 21.9646C122.481 21.8705 122.514 21.7784 122.553 21.689C122.819 21.0708 123.285 20.56 123.876 20.2387C124.468 19.9173 125.15 19.8041 125.813 19.9172C125.954 18.7611 126.481 17.6865 127.309 16.8677C128.137 16.0488 129.217 15.5338 130.375 15.4061C131.532 15.2785 132.699 15.5457 133.686 16.1644C134.672 16.7832 135.421 17.7171 135.81 18.8147C135.81 18.8147 138.759 18.6572 139.515 21.3622Z" fill="#C32C7B"/>
<path d="M129.896 27.5515V23.1889H128.188C128.142 23.1889 128.097 23.1763 128.058 23.1524C128.019 23.1285 127.987 23.0943 127.967 23.0536C127.946 23.0128 127.937 22.9671 127.94 22.9215C127.944 22.8759 127.96 22.8322 127.987 22.7952L130.802 18.8224C130.825 18.7915 130.854 18.7664 130.888 18.749C130.923 18.7317 130.96 18.7227 130.999 18.7227C131.037 18.7227 131.075 18.7317 131.109 18.749C131.143 18.7664 131.173 18.7915 131.196 18.8224L134.007 22.7597C134.034 22.7968 134.05 22.8405 134.053 22.8861C134.057 22.9317 134.048 22.9774 134.027 23.0181C134.006 23.0589 133.975 23.0931 133.936 23.117C133.897 23.1408 133.852 23.1535 133.806 23.1535H132.141V27.5475L129.896 27.5515Z" fill="white"/>
<path d="M164.454 37.3955H148.63C146.373 37.3955 144.543 39.2253 144.543 41.4824V57.3065C144.543 59.5637 146.373 61.3935 148.63 61.3935H164.454C166.711 61.3935 168.541 59.5637 168.541 57.3065V41.4824C168.541 39.2253 166.711 37.3955 164.454 37.3955Z" fill="white"/>
<path d="M164.449 61.3892C164.748 61.3684 165.046 61.3277 165.339 61.2671C166.181 61.07 166.937 60.6109 167.501 59.956C167.908 59.4885 168.2 58.9313 168.351 58.3299C168.488 57.6033 168.53 56.8623 168.477 56.125C168.477 54.5264 168.477 52.7074 168.477 50.6954C168.477 48.6834 168.477 46.4785 168.477 44.1122V42.3089C168.512 41.6954 168.467 41.08 168.343 40.4781C168.182 39.8631 167.877 39.2954 167.452 38.8223C167.028 38.3491 166.496 37.984 165.902 37.7574C165.598 37.6368 165.279 37.5574 164.953 37.5211C164.62 37.4926 164.284 37.4821 163.949 37.4896H148.629C147.881 37.491 147.149 37.7024 146.515 38.0999C146.202 38.2944 145.918 38.5331 145.672 38.8086C145.424 39.0771 145.217 39.3809 145.058 39.7103C144.897 40.0369 144.78 40.3839 144.712 40.7419C144.654 41.1011 144.631 41.4649 144.641 41.8286V44.0177C144.641 46.9116 144.641 49.7071 144.641 52.3688C144.641 53.6996 144.641 54.9949 144.641 56.2549C144.613 56.8702 144.639 57.4868 144.72 58.0976C144.841 58.6752 145.087 59.2194 145.44 59.6922C145.775 60.1426 146.202 60.5174 146.692 60.7921C147.181 61.0669 147.724 61.2354 148.283 61.2868C149.366 61.3222 150.429 61.2868 151.433 61.3104L160.965 61.3419L163.556 61.3616H164.229C164.383 61.3616 164.461 61.3616 164.461 61.3616H164.229H163.556H160.965L151.433 61.397C150.425 61.397 149.377 61.4207 148.283 61.397C147.39 61.3149 146.547 60.9485 145.878 60.3517C145.209 59.755 144.749 58.9594 144.566 58.0818C144.478 57.4612 144.449 56.8337 144.479 56.2076C144.479 54.9477 144.479 53.6523 144.479 52.3215C144.479 49.6599 144.479 46.8644 144.479 43.9705V41.7813C144.466 41.4045 144.49 41.0274 144.55 40.6552C144.622 40.2797 144.744 39.9156 144.913 39.5725C145.082 39.2274 145.299 38.9079 145.558 38.6236C145.816 38.334 146.114 38.0833 146.444 37.8794C147.111 37.4621 147.882 37.2398 148.669 37.2376H163.961C164.304 37.2299 164.647 37.2417 164.989 37.2731C165.329 37.3137 165.662 37.3971 165.981 37.5211C166.603 37.7591 167.158 38.1424 167.602 38.639C168.045 39.1356 168.363 39.7311 168.529 40.3757C168.656 40.9916 168.702 41.622 168.662 42.2499V44.124C168.662 46.4864 168.662 48.6913 168.662 50.7072C168.662 52.7231 168.662 54.5382 168.662 56.1368C168.707 56.883 168.657 57.6318 168.513 58.3653C168.354 58.9795 168.05 59.5465 167.627 60.019C167.049 60.6805 166.273 61.1376 165.414 61.3222C165.194 61.3681 164.97 61.3945 164.745 61.401C164.524 61.3931 164.449 61.3892 164.449 61.3892Z" fill="#263238"/>
<path d="M156.847 56.6797C155.403 56.6804 153.991 56.2529 152.79 55.4511C151.589 54.6492 150.652 53.5092 150.099 52.1752C149.546 50.8412 149.402 49.3731 149.683 47.9567C149.965 46.5403 150.66 45.2393 151.681 44.2181C152.702 43.197 154.003 42.5017 155.42 42.2202C156.836 41.9386 158.304 42.0835 159.638 42.6365C160.972 43.1895 162.112 44.1257 162.914 45.3268C163.716 46.5278 164.143 47.9397 164.143 49.3838C164.139 51.3178 163.37 53.1717 162.002 54.5393C160.635 55.9069 158.781 56.6765 156.847 56.6797ZM156.847 42.4778C155.481 42.477 154.145 42.8813 153.009 43.6397C151.873 44.3981 150.987 45.4764 150.464 46.7382C149.94 48.0001 149.803 49.3888 150.069 50.7287C150.335 52.0686 150.992 53.2995 151.958 54.2657C152.924 55.232 154.154 55.8901 155.494 56.1569C156.834 56.4237 158.223 56.2871 159.485 55.7645C160.747 55.242 161.826 54.3568 162.585 53.221C163.344 52.0852 163.749 50.7499 163.749 49.3838C163.747 47.5535 163.019 45.7987 161.725 44.5042C160.431 43.2096 158.677 42.4809 156.847 42.4778Z" fill="#C32C7B"/>
<path d="M156.626 56.6567C155.901 56.2032 155.266 55.6184 154.756 54.9322C153.529 53.2984 152.924 51.2819 153.047 49.2428C153.067 47.2193 153.772 45.2622 155.047 43.6911C155.567 43.0523 156.203 42.5178 156.921 42.1162L157.095 42.4706C157.059 42.4706 153.626 44.2463 153.441 49.2624C153.256 54.2786 156.783 56.3024 156.819 56.3221L156.626 56.6567Z" fill="#C32C7B"/>
<path d="M156.949 56.6529L156.744 56.3182C156.776 56.2946 160.193 54.1173 160.008 49.0972C159.823 44.0771 156.535 42.4746 156.504 42.4589L156.669 42.1045C156.815 42.1714 160.213 43.8212 160.402 49.0854C160.591 54.3496 156.984 56.6293 156.949 56.6529Z" fill="#C32C7B"/>
<path d="M156.941 47.0688C153.988 47.0688 152.083 46.0648 151.004 45.2222L151.248 44.9111C152.276 45.7183 154.099 46.675 156.941 46.675C159.697 46.675 161.438 45.7222 162.418 44.9229L162.666 45.2261C161.639 46.0687 159.812 47.0688 156.941 47.0688Z" fill="#C32C7B"/>
<path d="M162.434 53.6367C161.406 52.8492 159.583 51.9279 156.737 51.9279C153.98 51.9279 152.24 52.8492 151.26 53.6288L151.016 53.3178C152.043 52.5028 153.87 51.5342 156.737 51.5342C159.693 51.5342 161.595 52.5067 162.674 53.3217L162.434 53.6367Z" fill="#C32C7B"/>
<path d="M163.953 49.207H149.921V49.6008H163.953V49.207Z" fill="#C32C7B"/>
<path d="M145.602 49.8802C145.602 50.1077 145.535 50.3302 145.408 50.5193C145.282 50.7085 145.102 50.8558 144.891 50.9427C144.681 51.0296 144.45 51.0522 144.227 51.0075C144.004 50.9628 143.799 50.8529 143.638 50.6917C143.477 50.5305 143.368 50.3253 143.324 50.102C143.28 49.8788 143.304 49.6475 143.391 49.4375C143.479 49.2275 143.627 49.0482 143.817 48.9223C144.006 48.7965 144.229 48.7297 144.456 48.7305C144.607 48.7305 144.756 48.7602 144.896 48.8181C145.035 48.8759 145.161 48.9606 145.268 49.0675C145.374 49.1743 145.459 49.301 145.516 49.4405C145.573 49.58 145.603 49.7294 145.602 49.8802Z" fill="#263238"/>
<path d="M145.098 49.8807C145.098 49.9358 142.373 49.9831 139.015 49.9831C135.656 49.9831 132.932 49.9358 132.932 49.8807C132.932 49.8256 135.656 49.7783 139.015 49.7783C142.373 49.7783 145.098 49.8216 145.098 49.8807Z" fill="#263238"/>
<path d="M159.753 68.625H150.217C147.96 68.625 146.13 70.4548 146.13 72.7119V82.2481C146.13 84.5053 147.96 86.3351 150.217 86.3351H159.753C162.01 86.3351 163.84 84.5053 163.84 82.2481V72.7119C163.84 70.4548 162.01 68.625 159.753 68.625Z" fill="white"/>
<path d="M159.753 86.3348C159.753 86.3348 159.981 86.3348 160.394 86.26C161.003 86.1542 161.58 85.9134 162.083 85.5552C162.874 84.9815 163.433 84.1434 163.658 83.1928C163.767 82.5944 163.803 81.9848 163.765 81.3777C163.765 80.7281 163.765 80.039 163.765 79.3185C163.765 77.8735 163.765 76.2907 163.765 74.5937V73.2984C163.783 72.8586 163.758 72.4181 163.69 71.9833C163.524 71.0813 163.051 70.2645 162.351 69.6721C161.615 69.0496 160.681 68.7115 159.717 68.7193H150.228C149.703 68.7198 149.184 68.8238 148.699 69.0254C148.214 69.227 147.774 69.5222 147.404 69.8942C147.033 70.2661 146.74 70.7075 146.54 71.1929C146.34 71.6784 146.238 72.1986 146.24 72.7235C146.24 74.7985 146.24 76.8026 146.24 78.7122C146.24 79.6703 146.24 80.6008 146.24 81.5037C146.224 81.9439 146.239 82.3846 146.283 82.8227C146.34 83.2424 146.466 83.6496 146.657 84.0276C147.015 84.7522 147.583 85.3519 148.287 85.7482C148.942 86.109 149.682 86.2872 150.429 86.2639L157.268 86.2954L159.127 86.3151H159.611H159.772C159.719 86.3202 159.665 86.3202 159.611 86.3151H159.127H157.268L150.429 86.3506C149.657 86.3769 148.891 86.1961 148.212 85.8269C147.477 85.4185 146.882 84.7984 146.504 84.0472C146.304 83.653 146.171 83.2286 146.11 82.7912C146.063 82.344 146.046 81.8942 146.059 81.4447C146.059 80.5391 146.059 79.6086 146.059 78.6531C146.059 76.7435 146.059 74.7394 146.059 72.6645C146.075 71.5687 146.52 70.523 147.298 69.751C148.075 68.9791 149.125 68.5423 150.22 68.5342H159.709C160.718 68.531 161.695 68.8869 162.465 69.5382C163.196 70.1614 163.689 71.0184 163.859 71.9636C163.927 72.409 163.951 72.8601 163.93 73.3102C163.93 73.7511 163.93 74.1803 163.93 74.6055C163.93 76.3025 163.93 77.8853 163.93 79.3303C163.93 80.0509 163.93 80.7399 163.93 81.3895C163.965 82.0053 163.923 82.6231 163.804 83.2283C163.563 84.2022 162.977 85.0557 162.154 85.63C161.639 85.9877 161.047 86.2196 160.426 86.3073C160.266 86.3323 160.104 86.3455 159.942 86.3466C159.878 86.3482 159.815 86.3442 159.753 86.3348Z" fill="#263238"/>
<path d="M150.646 80.5508C151.526 81.1152 152.544 81.4266 153.59 81.451C154.635 81.4754 155.667 81.2118 156.573 80.6891C157.478 80.1663 158.223 79.4046 158.725 78.4872C159.226 77.5697 159.466 76.532 159.418 75.4874C159.808 75.1987 160.145 74.8443 160.414 74.4401C160.048 74.6032 159.659 74.7094 159.26 74.7551C159.679 74.5058 159.993 74.1124 160.142 73.6487C159.749 73.8809 159.319 74.0447 158.871 74.133C158.568 73.8118 158.168 73.5992 157.732 73.5281C157.297 73.4571 156.85 73.5315 156.461 73.74C156.072 73.9484 155.762 74.2791 155.58 74.6811C155.398 75.0831 155.353 75.5339 155.453 75.9638C154.656 75.924 153.876 75.717 153.165 75.3561C152.453 74.9952 151.826 74.4886 151.323 73.8692C151.065 74.3102 150.986 74.8329 151.101 75.3305C151.216 75.8281 151.516 76.2631 151.941 76.5466C151.622 76.5348 151.311 76.4485 151.031 76.2946C151.027 76.7618 151.186 77.216 151.479 77.5794C151.773 77.9428 152.184 78.1929 152.642 78.2869C152.346 78.3666 152.036 78.3774 151.736 78.3184C151.864 78.7174 152.113 79.0665 152.449 79.3165C152.785 79.5665 153.191 79.7049 153.61 79.7122C152.772 80.3736 151.706 80.6752 150.646 80.5508Z" fill="#455A64"/>
<path d="M140.042 85.3712L134.904 67.2832H89.9794L84.1246 85.3122C84.042 85.5635 84.0195 85.8308 84.059 86.0924C84.0985 86.354 84.1989 86.6026 84.3522 86.8183C84.5054 87.034 84.7072 87.2107 84.9412 87.3341C85.1753 87.4575 85.435 87.5243 85.6996 87.5289H106.221L107.052 86.6981H116.741L117.572 87.5289H138.44C138.7 87.5266 138.957 87.4639 139.189 87.3459C139.421 87.2278 139.622 87.0576 139.778 86.8486C139.933 86.6395 140.038 86.3973 140.084 86.141C140.13 85.8847 140.115 85.6212 140.042 85.3712Z" fill="#E0E0E0"/>
<g opacity="0.3">
<path d="M140.042 85.3703L134.904 67.2822H89.9794L84.1246 85.3112C84.042 85.5625 84.0195 85.8298 84.059 86.0914C84.0985 86.353 84.1989 86.6017 84.3522 86.8174C84.5054 87.033 84.7072 87.2097 84.9412 87.3331C85.1753 87.4566 85.435 87.5233 85.6996 87.5279H106.221L107.052 86.6971H116.741L117.572 87.5279H138.44C138.7 87.5256 138.957 87.4629 139.189 87.3449C139.421 87.2269 139.622 87.0566 139.778 86.8476C139.933 86.6385 140.038 86.3963 140.084 86.14C140.13 85.8837 140.115 85.6202 140.042 85.3703Z" fill="black"/>
</g>
<path d="M89.96 66.8143V40.2728C89.9589 40.0233 90.0071 39.776 90.1018 39.5451C90.1965 39.3142 90.3357 39.1042 90.5116 38.9272C90.6876 38.7502 90.8966 38.6096 91.127 38.5135C91.3573 38.4174 91.6043 38.3677 91.8538 38.3672H133.137C133.386 38.3677 133.633 38.4174 133.863 38.5135C134.094 38.6096 134.303 38.7502 134.479 38.9272C134.655 39.1042 134.794 39.3142 134.889 39.5451C134.983 39.776 135.031 40.0233 135.03 40.2728V66.8143H89.96Z" fill="#E0E0E0"/>
<path d="M132.306 40.9932H92.6846V64.5974H132.306V40.9932Z" fill="white"/>
<path d="M132.305 64.5972C132.305 64.5972 132.305 64.4476 132.305 64.1681C132.305 63.8885 132.305 63.4672 132.305 62.9278C132.305 61.8372 132.305 60.2425 132.282 58.203C132.282 54.1121 132.258 48.2219 132.242 41.0009L132.321 41.0796L92.6921 41.0954L92.7945 40.993C92.7945 49.3519 92.7945 57.3329 92.7945 64.5972L92.7 64.5027L121.198 64.546L129.38 64.5736H131.561H132.124H132.321H132.136H131.585H129.419L121.261 64.5972L92.7 64.6445H92.6055V64.5972C92.6055 57.3329 92.6055 49.3519 92.6055 40.993V40.8906H92.6921L132.309 40.9143H132.388V40.993C132.388 48.2377 132.357 54.1436 132.345 58.2463C132.345 60.2859 132.345 61.8726 132.325 62.9711C132.325 63.5026 132.325 63.9121 132.325 64.1956C132.325 64.4791 132.305 64.5972 132.305 64.5972Z" fill="#263238"/>
<path d="M113.225 39.7489C113.228 39.8945 113.188 40.0378 113.109 40.1603C113.031 40.2829 112.917 40.3792 112.783 40.437C112.65 40.4947 112.502 40.5112 112.358 40.4845C112.215 40.4577 112.083 40.3888 111.979 40.2867C111.876 40.1845 111.805 40.0537 111.776 39.911C111.746 39.7682 111.761 39.62 111.816 39.4854C111.872 39.3507 111.966 39.2357 112.087 39.1549C112.209 39.0742 112.351 39.0315 112.497 39.0323C112.592 39.0312 112.686 39.049 112.774 39.0845C112.862 39.12 112.942 39.1725 113.01 39.2391C113.078 39.3057 113.132 39.385 113.169 39.4725C113.205 39.56 113.225 39.6539 113.225 39.7489Z" fill="#263238"/>
<path d="M140.042 84.7013L134.904 66.6133H89.9794L84.1246 84.6423C84.042 84.8936 84.0195 85.1608 84.059 85.4224C84.0985 85.6841 84.1989 85.9327 84.3522 86.1484C84.5054 86.3641 84.7072 86.5408 84.9412 86.6642C85.1753 86.7876 85.435 86.8543 85.6996 86.859H106.221L107.052 86.0282H116.741L117.572 86.859H138.44C138.7 86.8566 138.957 86.794 139.189 86.676C139.421 86.5579 139.622 86.3877 139.778 86.1786C139.933 85.9696 140.038 85.7274 140.084 85.4711C140.13 85.2148 140.115 84.9513 140.042 84.7013Z" fill="#E0E0E0"/>
<path d="M131.715 67.7711L92.5666 67.6412C92.3811 67.6304 92.1968 67.6767 92.0384 67.7739C91.88 67.871 91.7552 68.0143 91.6807 68.1845L88.5309 77.0907C88.3616 77.575 88.7986 78.0554 89.4128 78.0554H134.727C135.338 78.0554 135.779 77.579 135.609 77.0947L132.597 68.3223C132.523 68.1523 132.399 68.0087 132.242 67.9104C132.084 67.812 131.901 67.7635 131.715 67.7711Z" fill="#EBEBEB"/>
<g opacity="0.1">
<path d="M119.557 84.8551H104.111C103.955 84.8457 103.804 84.8016 103.668 84.7261C103.532 84.6505 103.415 84.5453 103.325 84.4183C103.235 84.2914 103.175 84.1458 103.149 83.9924C103.122 83.8391 103.131 83.6818 103.174 83.5321L104.048 79.8744C104.092 79.6566 104.209 79.4603 104.379 79.3173C104.549 79.1743 104.763 79.0931 104.985 79.0869H118.789C119.017 79.0943 119.235 79.1797 119.407 79.3288C119.579 79.4779 119.694 79.6817 119.734 79.9059L120.522 83.5597C120.56 83.7097 120.564 83.8663 120.534 84.0181C120.504 84.17 120.44 84.3132 120.348 84.4373C120.256 84.5615 120.137 84.6634 120 84.7357C119.863 84.808 119.712 84.8487 119.557 84.8551Z" fill="black"/>
</g>
<path d="M119.506 70.5897L119.112 68.7234C119.099 68.6616 119.064 68.6064 119.015 68.5669C118.965 68.5275 118.904 68.5063 118.84 68.5069H116.431C116.391 68.5064 116.352 68.5146 116.315 68.5309C116.279 68.5471 116.247 68.571 116.221 68.601C116.194 68.6309 116.175 68.6661 116.164 68.7042C116.152 68.7424 116.149 68.7825 116.155 68.8218L116.423 70.6881C116.432 70.7546 116.465 70.8154 116.516 70.8595C116.567 70.9036 116.631 70.928 116.699 70.9283H119.246C119.287 70.9264 119.326 70.9156 119.362 70.8968C119.398 70.878 119.43 70.8515 119.454 70.8193C119.479 70.787 119.497 70.7498 119.505 70.7102C119.514 70.6705 119.514 70.6294 119.506 70.5897Z" fill="#263238"/>
<path d="M112.241 70.633L112.068 68.7589C112.063 68.6896 112.031 68.6249 111.98 68.578C111.929 68.5311 111.862 68.5057 111.792 68.5069H109.331C109.294 68.5069 109.257 68.5143 109.223 68.5289C109.188 68.5434 109.157 68.5647 109.131 68.5915C109.105 68.6183 109.084 68.6501 109.071 68.6849C109.057 68.7197 109.051 68.7569 109.052 68.7943L109.119 70.6685C109.122 70.7405 109.153 70.8086 109.205 70.8585C109.257 70.9084 109.326 70.9363 109.398 70.9362H111.985C112.022 70.9332 112.058 70.923 112.091 70.9061C112.123 70.8893 112.152 70.8661 112.176 70.8379C112.2 70.8097 112.218 70.7771 112.229 70.7419C112.24 70.7068 112.244 70.6698 112.241 70.633Z" fill="#263238"/>
<path d="M116.064 70.6133L115.797 68.7431C115.787 68.677 115.754 68.6166 115.703 68.5732C115.653 68.5297 115.588 68.5062 115.521 68.5069H112.686C112.648 68.5067 112.609 68.5146 112.574 68.5301C112.539 68.5457 112.507 68.5685 112.481 68.5971C112.455 68.6257 112.435 68.6594 112.423 68.6961C112.411 68.7328 112.407 68.7716 112.411 68.81L112.58 70.6803C112.588 70.7492 112.62 70.8129 112.672 70.8593C112.723 70.9058 112.79 70.9317 112.859 70.9322H115.789C115.829 70.9327 115.869 70.9245 115.905 70.908C115.942 70.8915 115.974 70.8672 116.001 70.8369C116.027 70.8065 116.046 70.7707 116.057 70.7321C116.068 70.6935 116.071 70.653 116.064 70.6133Z" fill="#263238"/>
<path d="M98.0865 70.6605L98.4803 68.9596C98.4886 68.9054 98.4855 68.8501 98.4712 68.7972C98.4569 68.7443 98.4317 68.6949 98.3972 68.6523C98.3628 68.6097 98.3198 68.5747 98.271 68.5497C98.2223 68.5246 98.1688 68.51 98.1141 68.5068H95.7793C95.699 68.5101 95.6216 68.5379 95.5575 68.5865C95.4935 68.6351 95.4458 68.7021 95.421 68.7785L94.9327 70.4794C94.9207 70.535 94.9209 70.5926 94.9332 70.6481C94.9455 70.7036 94.9697 70.7558 95.0041 70.8011C95.0386 70.8463 95.0824 70.8836 95.1326 70.9103C95.1828 70.9371 95.2382 70.9526 95.295 70.9558H97.7361C97.818 70.9494 97.8959 70.9174 97.9587 70.8644C98.0216 70.8115 98.0663 70.7402 98.0865 70.6605Z" fill="#263238"/>
<path d="M132.097 70.5306L131.388 68.684C131.368 68.6315 131.333 68.5864 131.286 68.5547C131.24 68.5231 131.185 68.5064 131.129 68.5068H126.553C126.509 68.5065 126.464 68.517 126.424 68.5377C126.384 68.5583 126.35 68.5883 126.325 68.6252C126.299 68.6621 126.283 68.7046 126.277 68.7492C126.272 68.7938 126.278 68.839 126.294 68.8809L126.983 70.7314C127.002 70.785 127.037 70.8313 127.083 70.8638C127.13 70.8963 127.186 70.9133 127.242 70.9125H131.845C131.89 70.9112 131.934 70.8992 131.973 70.8773C132.012 70.8555 132.046 70.8245 132.07 70.7871C132.095 70.7496 132.11 70.7068 132.115 70.6621C132.12 70.6175 132.114 70.5724 132.097 70.5306Z" fill="#263238"/>
<path d="M108.441 68.5068H105.78C105.708 68.5067 105.639 68.534 105.587 68.5831C105.535 68.6321 105.504 68.6993 105.5 68.7706L105.409 70.6527C105.408 70.6904 105.414 70.728 105.427 70.7633C105.441 70.7986 105.461 70.8308 105.487 70.858C105.513 70.8853 105.544 70.9069 105.579 70.9217C105.614 70.9365 105.651 70.9441 105.689 70.944H108.512C108.549 70.9441 108.586 70.9366 108.62 70.922C108.655 70.9074 108.685 70.886 108.711 70.8592C108.737 70.8323 108.757 70.8005 108.77 70.7657C108.783 70.7309 108.789 70.6938 108.788 70.6566L108.721 68.7785C108.719 68.7057 108.688 68.6366 108.636 68.5859C108.584 68.5352 108.514 68.5068 108.441 68.5068Z" fill="#263238"/>
<path d="M94.6612 68.5068H92.8067C92.7299 68.5091 92.6554 68.5338 92.5924 68.5778C92.5294 68.6219 92.4808 68.6835 92.4524 68.7549L91.8421 70.4637C91.8261 70.5199 91.8229 70.579 91.8327 70.6367C91.8424 70.6943 91.8649 70.7491 91.8984 70.797C91.932 70.8449 91.9758 70.8847 92.0267 70.9135C92.0775 70.9424 92.1342 70.9595 92.1925 70.9637H94.1611C94.2415 70.9604 94.3188 70.9326 94.3829 70.8841C94.4469 70.8355 94.4946 70.7685 94.5194 70.692L95.0077 68.9872C95.0203 68.9325 95.021 68.8758 95.0099 68.8209C94.9988 68.7659 94.9761 68.714 94.9433 68.6685C94.9105 68.623 94.8684 68.5851 94.8197 68.5572C94.771 68.5293 94.717 68.5121 94.6612 68.5068Z" fill="#263238"/>
<path d="M101.532 70.7078L101.78 68.8179C101.785 68.7788 101.781 68.7392 101.77 68.7015C101.758 68.6639 101.739 68.6291 101.713 68.5997C101.687 68.5702 101.654 68.5467 101.618 68.5306C101.582 68.5146 101.543 68.5065 101.504 68.5068H99.1417C99.0786 68.507 99.0174 68.5285 98.9681 68.5678C98.9188 68.6071 98.8842 68.6619 98.87 68.7234L98.4487 70.6133C98.4391 70.654 98.439 70.6964 98.4482 70.7372C98.4575 70.778 98.4759 70.8162 98.502 70.8488C98.5282 70.8814 98.5615 70.9077 98.5993 70.9255C98.6372 70.9434 98.6786 70.9524 98.7204 70.9519H101.268C101.334 70.9503 101.397 70.9247 101.446 70.8797C101.494 70.8348 101.525 70.7736 101.532 70.7078Z" fill="#263238"/>
<path d="M102.142 68.747L101.894 70.633C101.889 70.6726 101.892 70.7128 101.904 70.7509C101.916 70.789 101.936 70.8242 101.962 70.854C101.989 70.8838 102.021 70.9077 102.058 70.9239C102.094 70.9401 102.134 70.9483 102.173 70.948H104.807C104.879 70.9481 104.948 70.9208 105 70.8717C105.052 70.8227 105.083 70.7556 105.087 70.6842L105.178 68.8021C105.18 68.7643 105.174 68.7264 105.161 68.6909C105.148 68.6553 105.128 68.6229 105.101 68.5955C105.075 68.5682 105.043 68.5466 105.009 68.532C104.974 68.5174 104.936 68.5102 104.898 68.5108H102.418C102.351 68.5109 102.287 68.5348 102.236 68.5781C102.186 68.6214 102.152 68.6813 102.142 68.747Z" fill="#263238"/>
<path d="M123.128 70.5621L122.577 68.7037C122.56 68.6462 122.524 68.5959 122.476 68.5604C122.428 68.5249 122.369 68.5061 122.309 68.5069H119.742C119.701 68.5065 119.66 68.5155 119.622 68.5331C119.585 68.5507 119.552 68.5766 119.525 68.6088C119.499 68.6409 119.481 68.6785 119.471 68.7188C119.462 68.7591 119.461 68.8011 119.47 68.8415L119.864 70.7039C119.877 70.7661 119.912 70.8218 119.961 70.8619C120.01 70.902 120.072 70.924 120.136 70.9244H122.852C122.897 70.9258 122.941 70.9165 122.981 70.8973C123.022 70.8781 123.057 70.8497 123.084 70.8142C123.11 70.7788 123.129 70.7374 123.136 70.6936C123.144 70.6497 123.141 70.6047 123.128 70.5621Z" fill="#263238"/>
<path d="M126.553 70.5385L125.864 68.688C125.844 68.635 125.809 68.5894 125.763 68.557C125.716 68.5247 125.661 68.5072 125.604 68.5068H123.242C123.199 68.5069 123.157 68.517 123.119 68.5362C123.08 68.5555 123.047 68.5835 123.021 68.6179C122.996 68.6523 122.978 68.6922 122.971 68.7344C122.964 68.7767 122.966 68.8201 122.978 68.8612L123.526 70.7196C123.543 70.7768 123.579 70.8267 123.627 70.8621C123.675 70.8976 123.733 70.9166 123.793 70.9165H126.294C126.338 70.9153 126.382 70.9036 126.421 70.8822C126.461 70.8609 126.494 70.8306 126.52 70.7937C126.545 70.7568 126.561 70.7145 126.567 70.6701C126.573 70.6258 126.568 70.5807 126.553 70.5385Z" fill="#263238"/>
<path d="M108.544 71.3613H105.638C105.566 71.3612 105.498 71.3885 105.446 71.4376C105.394 71.4866 105.362 71.5538 105.358 71.6251L105.264 73.5702C105.262 73.6079 105.268 73.6455 105.282 73.6808C105.295 73.7161 105.315 73.7483 105.342 73.7755C105.368 73.8027 105.399 73.8244 105.434 73.8392C105.468 73.854 105.506 73.8616 105.543 73.8615H108.615C108.652 73.861 108.689 73.8531 108.724 73.8381C108.758 73.8231 108.789 73.8014 108.815 73.7743C108.841 73.7472 108.862 73.7152 108.875 73.6802C108.889 73.6451 108.895 73.6077 108.894 73.5702L108.823 71.633C108.821 71.5602 108.791 71.4911 108.739 71.4404C108.686 71.3897 108.617 71.3613 108.544 71.3613Z" fill="#263238"/>
<path d="M127.636 73.456L126.923 71.5463C126.904 71.4931 126.869 71.4471 126.822 71.4147C126.776 71.3823 126.72 71.365 126.664 71.3652H124.089C124.045 71.3653 124.002 71.3755 123.964 71.395C123.925 71.4144 123.891 71.4427 123.865 71.4775C123.839 71.5122 123.822 71.5525 123.814 71.5953C123.806 71.638 123.809 71.6819 123.821 71.7235L124.388 73.6528C124.406 73.71 124.441 73.7599 124.489 73.7954C124.537 73.8308 124.596 73.8498 124.656 73.8497H127.376C127.423 73.8505 127.47 73.8394 127.511 73.8174C127.553 73.7955 127.588 73.7634 127.614 73.7242C127.64 73.6849 127.656 73.6397 127.66 73.5929C127.663 73.546 127.655 73.4989 127.636 73.456Z" fill="#263238"/>
<path d="M123.994 73.4796L123.423 71.5621C123.407 71.505 123.372 71.4547 123.325 71.4192C123.277 71.3836 123.219 71.3647 123.16 71.3652H120.36C120.319 71.3649 120.278 71.3738 120.24 71.3915C120.203 71.4091 120.17 71.435 120.144 71.4671C120.118 71.4993 120.099 71.5369 120.089 71.5772C120.08 71.6175 120.08 71.6595 120.088 71.6999L120.502 73.6213C120.516 73.6832 120.55 73.7385 120.6 73.7785C120.649 73.8185 120.71 73.8408 120.774 73.8418H123.727C123.77 73.8419 123.814 73.8317 123.853 73.812C123.892 73.7923 123.926 73.7637 123.952 73.7284C123.978 73.6932 123.995 73.6523 124.003 73.609C124.01 73.5658 124.007 73.5215 123.994 73.4796Z" fill="#263238"/>
<path d="M101.776 73.8654H104.654C104.725 73.8645 104.793 73.8368 104.844 73.7879C104.895 73.7389 104.926 73.6723 104.93 73.6016L105.024 71.6566C105.026 71.6189 105.02 71.5813 105.006 71.546C104.993 71.5107 104.973 71.4785 104.947 71.4512C104.921 71.424 104.889 71.4024 104.854 71.3876C104.82 71.3728 104.782 71.3652 104.745 71.3652H102.028C101.96 71.3656 101.895 71.3906 101.844 71.4355C101.794 71.4804 101.761 71.5422 101.752 71.6093L101.5 73.5544C101.495 73.5934 101.499 73.6331 101.51 73.6708C101.522 73.7084 101.541 73.7431 101.567 73.7726C101.593 73.8021 101.626 73.8256 101.662 73.8416C101.698 73.8576 101.737 73.8658 101.776 73.8654Z" fill="#263238"/>
<path d="M109.505 73.8536H112.233C112.272 73.8538 112.31 73.8459 112.346 73.8303C112.381 73.8148 112.413 73.792 112.439 73.7634C112.465 73.7348 112.484 73.7011 112.497 73.6644C112.509 73.6277 112.513 73.5889 112.509 73.5504L112.332 71.6212C112.326 71.5519 112.295 71.4872 112.244 71.4399C112.193 71.3926 112.126 71.366 112.056 71.3652H109.434C109.397 71.3657 109.36 71.3737 109.326 71.3887C109.291 71.4037 109.26 71.4255 109.235 71.4527C109.209 71.4798 109.189 71.5119 109.176 71.5469C109.163 71.5819 109.157 71.6192 109.158 71.6566L109.229 73.5898C109.232 73.6608 109.263 73.728 109.314 73.7771C109.365 73.8263 109.434 73.8537 109.505 73.8536Z" fill="#263238"/>
<path d="M112.671 71.685L112.848 73.6143C112.856 73.6832 112.888 73.7469 112.94 73.7933C112.991 73.8398 113.058 73.8657 113.127 73.8663H116.202C116.242 73.8667 116.282 73.8585 116.318 73.8422C116.354 73.826 116.386 73.8021 116.413 73.7722C116.439 73.7422 116.458 73.707 116.469 73.6689C116.481 73.6307 116.484 73.5906 116.478 73.5513L116.202 71.622C116.194 71.5562 116.161 71.4959 116.111 71.4524C116.061 71.4089 115.997 71.3852 115.931 71.3858H112.95C112.912 71.3857 112.874 71.3935 112.838 71.4087C112.803 71.424 112.771 71.4464 112.745 71.4745C112.719 71.5025 112.699 71.5357 112.686 71.572C112.673 71.6082 112.668 71.6467 112.671 71.685Z" fill="#263238"/>
<path d="M120.136 73.5032L119.718 71.5818C119.705 71.52 119.67 71.4648 119.621 71.4253C119.571 71.3859 119.51 71.3647 119.447 71.3652H116.828C116.788 71.3648 116.749 71.373 116.713 71.3893C116.677 71.4055 116.644 71.4294 116.618 71.4594C116.592 71.4893 116.572 71.5245 116.561 71.5626C116.55 71.6008 116.547 71.6409 116.553 71.6802L116.828 73.6056C116.838 73.672 116.871 73.7329 116.921 73.777C116.972 73.8211 117.037 73.8455 117.104 73.8458H119.86C119.902 73.8463 119.944 73.8371 119.983 73.8191C120.021 73.801 120.054 73.7745 120.081 73.7415C120.108 73.7085 120.126 73.6699 120.136 73.6286C120.145 73.5873 120.145 73.5445 120.136 73.5032Z" fill="#263238"/>
<path d="M97.5827 71.3613H91.7791C91.7232 71.3619 91.6686 71.3791 91.6224 71.4106C91.5761 71.4421 91.5402 71.4866 91.5193 71.5385L90.7633 73.5072C90.7473 73.5491 90.7417 73.5943 90.7471 73.6389C90.7525 73.6834 90.7688 73.726 90.7944 73.7629C90.82 73.7997 90.8542 73.8298 90.8941 73.8504C90.934 73.871 90.9783 73.8816 91.0232 73.8812H97.1457C97.2104 73.8805 97.2729 73.8573 97.3224 73.8157C97.372 73.774 97.4055 73.7165 97.4174 73.6529L97.8544 71.6842C97.8606 71.6447 97.8583 71.6043 97.8475 71.5658C97.8368 71.5272 97.8179 71.4915 97.7921 71.4609C97.7664 71.4303 97.7344 71.4055 97.6982 71.3884C97.6621 71.3712 97.6227 71.362 97.5827 71.3613Z" fill="#263238"/>
<path d="M98.0592 73.8695H100.878C100.945 73.8693 101.01 73.8448 101.061 73.8007C101.111 73.7566 101.145 73.6958 101.154 73.6294L101.406 71.6607C101.412 71.6214 101.409 71.5812 101.397 71.5431C101.386 71.505 101.367 71.4697 101.341 71.4398C101.314 71.4099 101.282 71.386 101.246 71.3698C101.209 71.3535 101.17 71.3453 101.13 71.3457H98.4963C98.4332 71.3459 98.372 71.3674 98.3227 71.4067C98.2734 71.446 98.2388 71.5008 98.2246 71.5623L97.7876 73.5309C97.7788 73.5716 97.7792 73.6137 97.7887 73.6542C97.7983 73.6947 97.8167 73.7325 97.8427 73.7649C97.8688 73.7974 97.9017 73.8236 97.9392 73.8417C97.9766 73.8598 98.0176 73.8693 98.0592 73.8695Z" fill="#263238"/>
<path d="M131.1 73.8262H132.911C132.959 73.8269 133.005 73.8159 133.047 73.7939C133.088 73.772 133.124 73.7399 133.15 73.7006C133.175 73.6614 133.191 73.6162 133.195 73.5693C133.199 73.5224 133.191 73.4754 133.171 73.4324L132.408 71.5307C132.387 71.4788 132.351 71.4343 132.304 71.4028C132.258 71.3712 132.204 71.3541 132.148 71.3535H130.49C130.446 71.354 130.403 71.3648 130.364 71.385C130.324 71.4051 130.291 71.4341 130.265 71.4697C130.239 71.5052 130.221 71.5463 130.214 71.5897C130.207 71.6331 130.209 71.6776 130.222 71.7197L130.84 73.6214C130.857 73.6784 130.891 73.7289 130.937 73.7656C130.984 73.8023 131.041 73.8235 131.1 73.8262Z" fill="#263238"/>
<path d="M130.427 73.4638L129.809 71.5582C129.791 71.5024 129.756 71.4538 129.709 71.4191C129.661 71.3845 129.604 71.3657 129.545 71.3652H127.612C127.568 71.3657 127.524 71.3769 127.485 71.3978C127.445 71.4187 127.411 71.4487 127.386 71.4853C127.36 71.5219 127.344 71.564 127.338 71.6082C127.333 71.6524 127.337 71.6973 127.352 71.7393L128.061 73.6489C128.081 73.7024 128.117 73.7485 128.165 73.7809C128.212 73.8133 128.268 73.8304 128.325 73.83H130.164C130.208 73.8306 130.252 73.8204 130.291 73.8005C130.331 73.7806 130.365 73.7514 130.391 73.7155C130.417 73.6796 130.433 73.638 130.44 73.5941C130.446 73.5503 130.442 73.5056 130.427 73.4638Z" fill="#263238"/>
<path d="M101.508 77.1378H104.359C104.466 77.139 104.569 77.0986 104.647 77.0251C104.724 76.9517 104.771 76.851 104.776 76.7441L104.874 74.7164C104.878 74.6598 104.869 74.6031 104.85 74.55C104.83 74.4968 104.8 74.4482 104.761 74.4072C104.721 74.3662 104.674 74.3337 104.622 74.3117C104.57 74.2897 104.514 74.2787 104.457 74.2793H101.772C101.67 74.2784 101.571 74.3148 101.495 74.3815C101.418 74.4482 101.368 74.5407 101.354 74.6416L101.091 76.6653C101.083 76.7246 101.088 76.7848 101.105 76.842C101.122 76.8992 101.152 76.952 101.191 76.9968C101.231 77.0416 101.28 77.0774 101.334 77.1017C101.389 77.126 101.448 77.1383 101.508 77.1378Z" fill="#263238"/>
<path d="M133.278 74.2796H128.915C128.848 74.2792 128.781 74.2952 128.721 74.3262C128.661 74.3572 128.609 74.4024 128.57 74.4578C128.532 74.5132 128.507 74.5771 128.498 74.6442C128.49 74.7112 128.498 74.7793 128.521 74.8426L129.309 76.9097C129.338 76.9907 129.392 77.0606 129.462 77.1099C129.533 77.1592 129.617 77.1856 129.703 77.1853H134.124C134.192 77.1853 134.26 77.1687 134.32 77.137C134.38 77.1053 134.432 77.0594 134.471 77.0032C134.51 76.9471 134.534 76.8824 134.542 76.8146C134.551 76.7469 134.542 76.6782 134.518 76.6144L133.707 74.5355C133.672 74.4523 133.612 74.3824 133.535 74.3362C133.457 74.2901 133.367 74.2702 133.278 74.2796Z" fill="#263238"/>
<path d="M97.5468 74.6062L97.094 76.6221C97.0806 76.682 97.0807 76.7441 97.0941 76.804C97.1074 76.8639 97.1339 76.9201 97.1715 76.9686C97.2091 77.0171 97.2569 77.0567 97.3116 77.0846C97.3662 77.1125 97.4264 77.128 97.4877 77.13H100.311C100.412 77.129 100.51 77.0914 100.586 77.0241C100.662 76.9568 100.711 76.8644 100.724 76.7638L100.988 74.744C100.997 74.685 100.992 74.6248 100.975 74.5676C100.958 74.5104 100.929 74.4575 100.89 74.4127C100.851 74.3678 100.802 74.3319 100.748 74.3076C100.693 74.2832 100.634 74.2709 100.575 74.2715H97.9405C97.8468 74.275 97.757 74.3099 97.6856 74.3706C97.6142 74.4313 97.5653 74.5143 97.5468 74.6062Z" fill="#263238"/>
<path d="M93.7156 74.5825L93.1211 76.6654C93.1059 76.7191 93.1033 76.7755 93.1136 76.8304C93.1238 76.8852 93.1466 76.9369 93.1802 76.9815C93.2137 77.0261 93.2571 77.0624 93.3069 77.0874C93.3568 77.1125 93.4117 77.1257 93.4675 77.126H96.3497C96.4317 77.126 96.5112 77.0979 96.575 77.0463C96.6388 76.9947 96.6829 76.9228 96.7001 76.8425L97.1765 74.7203C97.1891 74.6672 97.1894 74.612 97.1774 74.5587C97.1654 74.5055 97.1413 74.4557 97.1072 74.4132C97.073 74.3706 97.0295 74.3365 96.9801 74.3133C96.9307 74.2901 96.8767 74.2785 96.8221 74.2793L94.066 74.3148C93.9863 74.3146 93.9087 74.3408 93.8454 74.3892C93.782 74.4376 93.7364 74.5055 93.7156 74.5825Z" fill="#263238"/>
<path d="M120.753 74.7833L121.198 76.8426C121.217 76.9333 121.267 77.0149 121.338 77.0742C121.41 77.1335 121.499 77.167 121.592 77.1693H124.513C124.578 77.1677 124.641 77.1513 124.698 77.1213C124.755 77.0914 124.805 77.0487 124.843 76.9966C124.881 76.9444 124.907 76.8843 124.918 76.8207C124.929 76.7571 124.925 76.6919 124.907 76.6299L124.293 74.5707C124.268 74.4851 124.217 74.4097 124.146 74.3557C124.075 74.3018 123.988 74.2723 123.899 74.2715H121.143C121.081 74.2732 121.021 74.2887 120.966 74.3169C120.911 74.3451 120.863 74.3852 120.826 74.4343C120.788 74.4833 120.762 74.5402 120.75 74.6006C120.737 74.661 120.738 74.7234 120.753 74.7833Z" fill="#263238"/>
<path d="M105.213 74.677L105.115 76.7047C105.112 76.7614 105.12 76.8183 105.14 76.8717C105.159 76.9251 105.189 76.9739 105.228 77.0152C105.268 77.0565 105.315 77.0894 105.367 77.1118C105.419 77.1342 105.475 77.1458 105.532 77.1457L120.407 77.1693C120.469 77.1666 120.528 77.1507 120.583 77.1226C120.637 77.0944 120.684 77.0548 120.722 77.0065C120.759 76.9582 120.786 76.9023 120.8 76.8427C120.813 76.7831 120.814 76.7212 120.801 76.6614L120.356 74.6061C120.336 74.5157 120.287 74.4344 120.215 74.3753C120.144 74.3161 120.055 74.2823 119.963 74.2793H105.631C105.523 74.2792 105.42 74.3204 105.342 74.3945C105.265 74.4686 105.218 74.5697 105.213 74.677Z" fill="#263238"/>
<path d="M90.464 74.4961L89.6766 76.6734C89.6582 76.7234 89.6521 76.7772 89.659 76.8301C89.6658 76.8829 89.6854 76.9334 89.7159 76.9771C89.7465 77.0208 89.7871 77.0564 89.8344 77.081C89.8818 77.1056 89.9343 77.1184 89.9876 77.1183H92.4051C92.4769 77.1172 92.5464 77.0934 92.6038 77.0502C92.6611 77.0071 92.7032 76.9468 92.7241 76.8781L93.3462 74.6969C93.3602 74.6476 93.3626 74.5957 93.3531 74.5454C93.3437 74.495 93.3227 74.4475 93.2918 74.4067C93.2608 74.3658 93.2208 74.3327 93.1749 74.31C93.129 74.2872 93.0785 74.2754 93.0272 74.2756H90.7869C90.7166 74.2732 90.6475 74.2934 90.5894 74.333C90.5313 74.3726 90.4874 74.4298 90.464 74.4961Z" fill="#263238"/>
<path d="M124.738 74.8343L125.348 76.8975C125.374 76.9825 125.426 77.0572 125.497 77.111C125.568 77.1647 125.653 77.1947 125.742 77.1967H128.408C128.475 77.1972 128.542 77.1812 128.602 77.1501C128.662 77.1191 128.714 77.0739 128.752 77.0186C128.791 76.9632 128.816 76.8992 128.824 76.8322C128.833 76.7651 128.825 76.697 128.802 76.6337L128.014 74.5666C127.984 74.4864 127.93 74.4174 127.86 74.3688C127.79 74.3202 127.706 74.2944 127.62 74.2949H125.112C125.049 74.2987 124.988 74.3167 124.933 74.3477C124.877 74.3787 124.83 74.4218 124.794 74.4737C124.758 74.5257 124.734 74.5851 124.725 74.6476C124.715 74.7101 124.72 74.7739 124.738 74.8343Z" fill="#263238"/>
<path d="M135.066 66.6805C135.066 66.7356 124.994 66.7829 112.572 66.7829C100.15 66.7829 90.0781 66.7356 90.0781 66.6805C90.0781 66.6254 100.146 66.5781 112.572 66.5781C124.998 66.5781 135.066 66.6214 135.066 66.6805Z" fill="#263238"/>
<path d="M103.784 47.7735C104.196 47.4309 104.653 47.1462 105.142 46.9269L105.225 45.4426L107.646 45.0488L108.209 46.4229C108.748 46.4729 109.277 46.5934 109.784 46.7812L110.891 45.7969L112.891 47.2222L112.316 48.5885C112.658 49.0015 112.944 49.4583 113.166 49.9468L114.647 50.0295L115.04 52.451L113.666 53.014C113.62 53.553 113.5 54.083 113.308 54.5889L114.296 55.6953L112.871 57.6955L111.497 57.1167C111.085 57.4571 110.629 57.7417 110.142 57.9632L110.056 59.4437L107.634 59.8374L107.071 58.4633C106.532 58.4172 106.002 58.2966 105.496 58.105L104.406 59.0854L102.406 57.6601L102.98 56.2938C102.64 55.8796 102.354 55.423 102.13 54.9354L100.65 54.8488L100.256 52.4274L101.63 51.8643C101.68 51.3259 101.8 50.7964 101.988 50.2894L101 49.183L102.425 47.1829L103.796 47.7577L103.784 47.7735ZM105.559 50.8131C105.257 51.2372 105.088 51.7414 105.072 52.2619C105.056 52.7825 105.195 53.296 105.471 53.7376C105.747 54.1792 106.148 54.5291 106.623 54.743C107.097 54.9569 107.625 55.0253 108.139 54.9395C108.652 54.8537 109.129 54.6176 109.509 54.261C109.888 53.9044 110.153 53.4433 110.271 52.9359C110.388 52.4286 110.353 51.8978 110.169 51.4106C109.985 50.9234 109.66 50.5018 109.237 50.1988C108.955 49.9976 108.636 49.854 108.299 49.7761C107.961 49.6983 107.612 49.6877 107.27 49.7452C106.928 49.8026 106.601 49.9268 106.308 50.1107C106.014 50.2946 105.76 50.5346 105.559 50.817V50.8131Z" fill="#F5F5F5"/>
<path d="M117.127 53.9394C117.406 53.709 117.715 53.517 118.045 53.3685L118.104 52.3645L119.742 52.0889L120.135 53.0181C120.496 53.0525 120.851 53.1346 121.191 53.2622L121.939 52.5928L123.293 53.5575L122.899 54.4828C123.13 54.7631 123.322 55.0729 123.47 55.4041L124.474 55.4592L124.75 57.1011L123.821 57.4948C123.785 57.8556 123.703 58.2103 123.577 58.55L124.246 59.2981L123.277 60.6604L122.348 60.2667C122.07 60.4991 121.761 60.6925 121.431 60.8415L121.376 61.8455L119.734 62.1212L119.34 61.188C118.979 61.1545 118.625 61.0737 118.285 60.9478L117.537 61.6132L116.182 60.6486L116.576 59.7233C116.343 59.4455 116.15 59.1367 116.001 58.8059L114.997 58.7469L114.722 57.1089L115.655 56.7152C115.686 56.3541 115.767 55.999 115.895 55.66L115.226 54.9119L116.194 53.5575L117.12 53.9512L117.127 53.9394ZM118.332 55.9986C118.127 56.2858 118.012 56.6275 118.001 56.9803C117.99 57.333 118.084 57.6811 118.271 57.9804C118.458 58.2798 118.73 58.5169 119.052 58.6617C119.373 58.8066 119.731 58.8527 120.079 58.7942C120.427 58.7358 120.75 58.5753 121.007 58.3332C121.264 58.0912 121.443 57.7783 121.522 57.4343C121.601 57.0903 121.576 56.7306 121.451 56.4008C121.325 56.0709 121.104 55.7857 120.817 55.5813C120.432 55.3077 119.954 55.1981 119.488 55.2763C119.022 55.3545 118.607 55.6143 118.332 55.9986Z" fill="#F5F5F5"/>
<path d="M116.36 44.3518C116.607 44.1489 116.88 43.9782 117.171 43.8439L117.222 42.958L118.675 42.7139L119.009 43.5368C119.33 43.5685 119.645 43.6413 119.946 43.7533L120.608 43.1588L121.789 44.0132L121.447 44.8361C121.652 45.0819 121.823 45.3548 121.954 45.6472L122.844 45.6984L123.084 47.1512L122.262 47.4859C122.234 47.8065 122.162 48.1217 122.049 48.423L122.64 49.0845L121.785 50.2853L120.966 49.9388C120.719 50.1444 120.445 50.3152 120.151 50.4468L120.1 51.3366L118.651 51.5807L118.312 50.7578C117.993 50.7264 117.68 50.6536 117.379 50.5413L116.714 51.1319L115.533 50.2775L115.875 49.4585C115.671 49.2103 115.5 48.9363 115.367 48.6435L114.481 48.5923L114.237 47.1434L115.06 46.8047C115.09 46.4853 115.163 46.1714 115.277 45.8716L114.682 45.2062L115.537 44.025L116.36 44.3675V44.3518ZM117.423 46.1748C117.242 46.4283 117.141 46.7297 117.131 47.0408C117.122 47.3519 117.205 47.6588 117.37 47.9228C117.535 48.1868 117.774 48.3959 118.058 48.5239C118.342 48.6519 118.657 48.6929 118.964 48.6419C119.271 48.5908 119.556 48.4499 119.783 48.2369C120.01 48.024 120.169 47.7485 120.239 47.4454C120.31 47.1422 120.289 46.825 120.18 46.5337C120.07 46.2423 119.876 45.99 119.624 45.8086C119.455 45.6878 119.264 45.6014 119.063 45.5544C118.861 45.5074 118.652 45.5007 118.447 45.5347C118.243 45.5687 118.047 45.6428 117.871 45.7526C117.695 45.8625 117.543 46.0059 117.423 46.1748Z" fill="#F5F5F5"/>
<path d="M99.0635 53.2033L99.347 52.5694C99.6474 52.7604 99.995 52.864 100.351 52.8686C100.709 52.8686 100.847 52.7702 100.847 52.6206C100.847 52.1363 99.1147 52.4906 99.1147 51.3567C99.1147 50.8133 99.5596 50.3684 100.465 50.3684C100.85 50.3627 101.231 50.4533 101.572 50.6322L101.304 51.274C101.047 51.1268 100.757 51.0457 100.461 51.0378C100.099 51.0378 99.9691 51.1598 99.9691 51.3134C99.9691 51.778 101.698 51.4315 101.698 52.5536C101.698 53.0852 101.253 53.538 100.347 53.538C99.8962 53.5495 99.4513 53.4335 99.0635 53.2033Z" fill="#263238"/>
<path d="M101.938 51.9548C101.913 51.6139 101.991 51.2732 102.162 50.9772C102.333 50.6812 102.59 50.4437 102.898 50.2957C103.206 50.1476 103.552 50.0959 103.89 50.1472C104.228 50.1986 104.543 50.3506 104.793 50.5835C105.043 50.8163 105.218 51.1193 105.293 51.4527C105.369 51.7862 105.342 52.1347 105.217 52.4528C105.091 52.7709 104.873 53.0438 104.59 53.2359C104.307 53.428 103.973 53.5304 103.631 53.5298C103.415 53.5461 103.197 53.5174 102.992 53.4456C102.787 53.3737 102.599 53.2603 102.44 53.1124C102.281 52.9645 102.155 52.7853 102.068 52.5861C101.982 52.3869 101.938 52.172 101.938 51.9548ZM104.454 51.9548C104.445 51.7944 104.389 51.6402 104.293 51.5112C104.197 51.3823 104.066 51.2842 103.915 51.2291C103.764 51.174 103.6 51.1643 103.444 51.2012C103.287 51.2381 103.145 51.3199 103.035 51.4367C102.924 51.5534 102.851 51.6999 102.822 51.8581C102.794 52.0163 102.813 52.1793 102.877 52.327C102.94 52.4746 103.045 52.6004 103.179 52.6889C103.314 52.7774 103.471 52.8247 103.631 52.825C103.744 52.8263 103.855 52.8044 103.959 52.7605C104.063 52.7166 104.156 52.6518 104.233 52.57C104.311 52.4883 104.37 52.3914 104.408 52.2856C104.446 52.1797 104.462 52.0671 104.454 51.9548Z" fill="#263238"/>
<path d="M106.643 51.0961V51.7655H107.989V52.4309H106.643V53.4782H105.78V50.4229H108.17V51.0883L106.643 51.0961Z" fill="#263238"/>
<path d="M109.25 51.1119H108.312V50.4229H111.041V51.104H110.112V53.4664H109.25V51.1119Z" fill="#263238"/>
<path d="M116.073 50.4229L115.085 53.4703H114.163L113.561 51.6237L112.95 53.4782H112.029L111.057 50.4229H111.943L112.557 52.3679L113.202 50.4229H113.99L114.6 52.3915L115.242 50.4229H116.073Z" fill="#263238"/>
<path d="M118.321 52.8836H117.033L116.793 53.4781H115.923L117.265 50.4307H118.116L119.466 53.4781H118.561L118.321 52.8836ZM118.069 52.2497L117.675 51.2732L117.281 52.2497H118.069Z" fill="#263238"/>
<path d="M121.042 52.6671H120.569V53.4782H119.703V50.4229H121.097C121.928 50.4229 122.451 50.852 122.451 51.5489C122.459 51.7506 122.407 51.95 122.301 52.1218C122.195 52.2937 122.041 52.43 121.857 52.5136L122.514 53.4703H121.589L121.042 52.6671ZM121.042 51.0922H120.561V51.9978H121.042C121.4 51.9978 121.577 51.8324 121.577 51.5529C121.577 51.2733 121.404 51.1079 121.042 51.1079V51.0922Z" fill="#263238"/>
<path d="M125.373 52.8128V53.4782H122.924V50.4229H125.314V51.0883H123.798V51.604H125.152V52.2498H123.798V52.8089L125.373 52.8128Z" fill="#263238"/>
<path d="M98.4219 54.2344H98.8353V57.1441H98.4219V54.2344Z" fill="#263238"/>
<path d="M102.209 54.2344V57.1441H101.871L100.122 54.9746V57.1441H99.709V54.2344H100.048L101.796 56.4038V54.2344H102.209Z" fill="#263238"/>
<path d="M103.658 54.5966H102.662V54.2344H105.068V54.5966H104.072V57.1441H103.678L103.658 54.5966Z" fill="#263238"/>
<path d="M107.631 56.7818V57.1441H105.521V54.2344H107.576V54.5966H105.938V55.4904H107.395V55.8408H105.938V56.7818H107.631Z" fill="#263238"/>
<path d="M110.309 55.6715H110.702V56.8054C110.391 57.0536 110.002 57.1846 109.604 57.1755C109.361 57.1654 109.125 57.096 108.915 56.9735C108.706 56.851 108.529 56.6791 108.401 56.4727C108.273 56.2663 108.198 56.0318 108.181 55.7895C108.165 55.5473 108.208 55.3047 108.307 55.0829C108.405 54.8611 108.557 54.6668 108.748 54.517C108.939 54.3673 109.164 54.2665 109.403 54.2236C109.642 54.1807 109.888 54.1969 110.119 54.2709C110.35 54.3448 110.56 54.4742 110.73 54.6478L110.47 54.9076C110.36 54.7971 110.228 54.7101 110.084 54.6519C109.939 54.5937 109.784 54.5655 109.628 54.569C109.331 54.569 109.047 54.6868 108.837 54.8965C108.627 55.1062 108.509 55.3906 108.509 55.6872C108.509 55.9838 108.627 56.2682 108.837 56.4779C109.047 56.6876 109.331 56.8054 109.628 56.8054C109.868 56.8119 110.105 56.7476 110.309 56.6204V55.6715Z" fill="#263238"/>
<path d="M113.447 57.1441L112.817 56.2503H112.636H111.915V57.1362H111.502V54.2266H112.636C113.392 54.2266 113.849 54.6203 113.849 55.2385C113.858 55.4408 113.801 55.6407 113.686 55.8072C113.571 55.9738 113.404 56.0977 113.211 56.1598L113.9 57.1362L113.447 57.1441ZM113.447 55.2463C113.447 54.8329 113.167 54.5967 112.636 54.5967H111.927V55.9039H112.636C113.167 55.9039 113.435 55.6637 113.435 55.2463H113.447Z" fill="#263238"/>
<path d="M116.377 56.4157H114.829L114.51 57.1441H114.081L115.4 54.2344H115.794L117.117 57.1441H116.711L116.377 56.4157ZM116.231 56.0849L115.601 54.6557L114.975 56.0849H116.231Z" fill="#263238"/>
<path d="M117.994 54.5966H116.998V54.2344H119.404V54.5966H118.408V57.1441H117.994V54.5966Z" fill="#263238"/>
<path d="M119.86 54.2344H120.254V57.1441H119.86V54.2344Z" fill="#263238"/>
<path d="M120.908 55.6875C120.897 55.3792 120.977 55.0744 121.14 54.8123C121.303 54.5502 121.54 54.3427 121.822 54.2165C122.103 54.0903 122.416 54.0511 122.72 54.1039C123.024 54.1568 123.305 54.2993 123.527 54.5132C123.75 54.7271 123.903 55.0025 123.968 55.3042C124.032 55.6058 124.005 55.9199 123.89 56.2061C123.775 56.4923 123.577 56.7376 123.321 56.9103C123.066 57.0831 122.764 57.1756 122.456 57.1758C122.255 57.1854 122.054 57.154 121.866 57.0834C121.678 57.0128 121.506 56.9045 121.361 56.7651C121.216 56.6258 121.101 56.4584 121.024 56.273C120.946 56.0877 120.907 55.8885 120.908 55.6875ZM123.586 55.6875C123.589 55.4624 123.525 55.2415 123.402 55.0529C123.279 54.8642 123.103 54.7164 122.896 54.6283C122.689 54.5402 122.46 54.5157 122.239 54.558C122.018 54.6003 121.814 54.7074 121.654 54.8657C121.494 55.0241 121.385 55.2264 121.34 55.4471C121.296 55.6677 121.318 55.8966 121.404 56.1047C121.49 56.3128 121.636 56.4905 121.823 56.6153C122.01 56.7402 122.231 56.8064 122.456 56.8057C122.604 56.8105 122.753 56.785 122.891 56.7307C123.03 56.6764 123.156 56.5944 123.261 56.4897C123.367 56.3851 123.45 56.26 123.506 56.122C123.562 55.9841 123.589 55.8362 123.586 55.6875Z" fill="#263238"/>
<path d="M127.137 54.2344V57.1441H126.794L125.05 54.9746V57.1441H124.633V54.2344H124.979L126.724 56.4038V54.2344H127.137Z" fill="#263238"/>
<path d="M27.5655 46.4859C25.7662 45.3795 25.2976 42.7612 26.2347 40.8713C27.1718 38.9813 29.2113 37.808 31.2902 37.4379C32.8026 37.186 34.3531 37.295 35.8153 37.7562C37.2776 38.2174 38.6101 39.0176 39.7043 40.0917C40.8855 41.2729 41.8304 42.7927 43.3975 43.3124C44.7755 43.7691 46.2875 43.3124 47.7285 43.4817C49.6657 43.7061 51.339 45.0566 52.3549 46.7142C53.3707 48.3718 53.8038 50.3248 54.0597 52.254C54.296 54.0258 54.4535 55.9709 55.7134 57.2505C56.9733 58.5301 58.8318 58.7349 60.3397 59.6129C63.1746 61.2626 64.1432 65.4362 62.332 68.1687C61.7532 69.0388 60.9146 69.842 60.8634 70.8854C60.8122 71.8383 61.4422 72.6769 61.7414 73.5825C62.5289 75.9134 60.6429 78.7246 58.1978 78.9018C56.9576 78.9924 55.6268 78.5278 54.5243 79.0987C53.4219 79.6696 53.04 81.0004 52.347 82.0202C51.6382 83.008 50.6114 83.7223 49.4388 84.0434C48.2661 84.3645 47.0188 84.273 45.9055 83.7841C44.9881 83.351 44.118 82.6265 43.1061 82.7092C42.0942 82.7919 41.3146 83.666 40.3264 83.8904C39.0271 84.1621 37.7789 83.2211 36.9875 82.158C36.1961 81.0949 35.641 79.835 34.6251 78.9688C33.3101 77.8309 31.4753 77.5749 29.8334 77.0316C28.0022 76.4323 26.3214 75.4457 24.9054 74.139C23.4894 72.8322 22.3713 71.2359 21.6272 69.4585C20.8831 67.6812 20.5304 65.7644 20.593 63.8386C20.6557 61.9128 21.1322 60.0231 21.9903 58.2978" fill="#263238"/>
<path d="M46.7759 69.5157C47.1656 69.0795 47.6544 68.7433 48.2012 68.5353H48.0909C48.1917 68.508 48.2943 68.4883 48.398 68.4762C48.5857 68.4194 48.783 68.4013 48.9779 68.4229C49.1728 68.4446 49.3613 68.5056 49.532 68.6022C50.1663 68.8208 50.6958 69.2688 51.0163 69.8582C51.2677 70.3803 51.3702 70.9616 51.3126 71.5382C51.2549 72.1148 51.0393 72.6643 50.6895 73.1262C50.4394 73.5475 50.0674 73.8829 49.6227 74.0883C49.1779 74.2937 48.6813 74.3594 48.1984 74.2767C47.7155 74.1939 47.2691 73.9666 46.9181 73.6248C46.5671 73.2831 46.3281 72.8429 46.2325 72.3624C46.0749 71.8806 46.0421 71.3668 46.1371 70.869C46.2321 70.3711 46.4519 69.9055 46.7759 69.5157Z" fill="#455A64"/>
<path d="M23.5688 89.4025L21.167 54.6439C21.1204 53.9055 21.3527 53.1766 21.8179 52.6013C22.2831 52.026 22.9473 51.6463 23.679 51.5373L39.1645 46.907C44.157 46.1589 47.7557 52.1909 48.2912 57.211C48.8818 62.7862 49.3857 69.6175 48.9054 73.8147C47.9329 82.2602 41.0307 83.6383 41.0307 83.6383C41.0307 83.6383 41.1056 92.2256 41.2001 95.2731L43.2553 104.703L23.5688 89.4025Z" fill="#FFBF9D"/>
<path d="M45.248 64.4244C45.2612 64.7046 45.1651 64.9789 44.9801 65.1897C44.795 65.4005 44.5353 65.5312 44.2558 65.5544C44.1195 65.5713 43.9812 65.5608 43.849 65.5234C43.7169 65.4859 43.5936 65.4224 43.4864 65.3365C43.3792 65.2506 43.2903 65.1441 43.225 65.0233C43.1597 64.9025 43.1193 64.7698 43.1061 64.6331C43.0908 64.3526 43.1855 64.0772 43.37 63.8654C43.5546 63.6537 43.8144 63.5223 44.0944 63.4991C44.231 63.4833 44.3694 63.4947 44.5016 63.5327C44.6338 63.5708 44.7571 63.6347 44.8644 63.7208C44.9718 63.8068 45.0609 63.9133 45.1268 64.0341C45.1926 64.1549 45.2338 64.2875 45.248 64.4244Z" fill="#263238"/>
<path d="M46.9096 60.2661C46.7836 60.4118 45.945 59.8448 44.7874 59.8999C43.6298 59.955 42.8187 60.5653 42.6731 60.4314C42.6101 60.3684 42.7321 60.1125 43.0904 59.8251C43.5772 59.4569 44.1657 59.2479 44.7756 59.2266C45.3778 59.199 45.9733 59.3631 46.4765 59.6952C46.8427 59.9432 46.9726 60.1913 46.9096 60.2661Z" fill="#263238"/>
<path d="M34.8142 64.7783C34.8295 65.0584 34.7346 65.3333 34.55 65.5444C34.3654 65.7555 34.1055 65.8861 33.8259 65.9083C33.6895 65.9247 33.5512 65.9138 33.419 65.8762C33.2868 65.8386 33.1635 65.7751 33.0561 65.6894C32.9487 65.6036 32.8595 65.4973 32.7936 65.3768C32.7277 65.2562 32.6865 65.1237 32.6723 64.987C32.658 64.7061 32.7536 64.4308 32.9388 64.2191C33.124 64.0075 33.3842 63.8762 33.6645 63.853C33.801 63.8367 33.9394 63.8477 34.0716 63.8856C34.2038 63.9235 34.327 63.9874 34.4341 64.0736C34.5413 64.1598 34.6301 64.2666 34.6953 64.3876C34.7606 64.5086 34.801 64.6415 34.8142 64.7783Z" fill="#263238"/>
<path d="M35.5424 60.9634C35.4125 61.1091 34.5699 60.5421 33.4163 60.5933C32.2627 60.6445 31.4476 61.2626 31.302 61.1248C31.239 61.0657 31.361 60.8059 31.7232 60.5224C32.2068 60.1506 32.7948 59.9399 33.4045 59.92C34.0067 59.8924 34.6022 60.0564 35.1054 60.3885C35.4716 60.6602 35.6015 60.8964 35.5424 60.9634Z" fill="#263238"/>
<path d="M40.1142 69.3659C40.1142 69.3029 40.819 69.1454 41.9766 68.9446C42.2719 68.9013 42.5514 68.8304 42.5908 68.6296C42.6029 68.3222 42.5204 68.0185 42.3546 67.7595L41.386 65.5467C40.0316 62.3968 39.0236 59.7982 39.1693 59.7431C39.315 59.688 40.4962 62.2039 41.8467 65.3538L42.7837 67.5823C42.9848 67.9311 43.0559 68.3397 42.9845 68.7359C42.9462 68.8421 42.884 68.9382 42.8028 69.0166C42.7216 69.0951 42.6235 69.154 42.516 69.1887C42.3554 69.2414 42.1886 69.2731 42.0199 69.2832C40.8466 69.3974 40.1182 69.4328 40.1142 69.3659Z" fill="#263238"/>
<path d="M40.9958 83.064C40.9958 83.064 35.8773 83.6389 30.1406 80.5166C30.1406 80.5166 32.6605 86.7258 41.0194 85.58L40.9958 83.064Z" fill="#FF9A6C"/>
<path d="M40.0591 72.1256C39.7823 71.7548 39.4193 71.4569 39.0015 71.258C38.5836 71.059 38.1236 70.9649 37.6612 70.9838C37.3591 71.0004 37.0657 71.0905 36.8063 71.2462C36.5469 71.402 36.3295 71.6187 36.1729 71.8776C35.9993 72.1769 35.9212 72.522 35.9488 72.8669C35.9764 73.2118 36.1086 73.54 36.3276 73.8078C36.5467 74.0756 36.8422 74.2703 37.1747 74.3658C37.5073 74.4613 37.8611 74.4531 38.1888 74.3424C38.8252 74.1062 39.3952 73.7199 39.8504 73.2163C39.9965 73.0915 40.1146 72.9372 40.1969 72.7635C40.2365 72.6685 40.2508 72.5649 40.2384 72.4628C40.2259 72.3606 40.1872 72.2635 40.126 72.1808" fill="#FF9A6C"/>
<path d="M36.7397 70.3147C36.9287 70.295 36.9838 71.551 38.0981 72.3975C39.2123 73.244 40.5431 73.0472 40.5628 73.2204C40.5825 73.2992 40.2754 73.4803 39.7084 73.5197C38.9734 73.5596 38.2476 73.3409 37.6571 72.9015C37.0891 72.4779 36.709 71.8492 36.5979 71.1494C36.5271 70.6297 36.6531 70.3107 36.7397 70.3147Z" fill="#263238"/>
<path d="M35.8498 56.1755C35.7475 56.4945 34.586 56.396 33.2355 56.6165C31.885 56.837 30.8022 57.2544 30.6093 56.9827C30.5227 56.8488 30.6998 56.5456 31.129 56.2228C31.7044 55.8245 32.3626 55.5619 33.0542 55.4549C33.7457 55.3478 34.4525 55.399 35.1214 55.6046C35.6294 55.7857 35.8892 56.022 35.8498 56.1755Z" fill="#263238"/>
<path d="M46.3311 56.2895C46.1421 56.5612 45.331 56.321 44.3624 56.3525C43.3938 56.384 42.5985 56.6045 42.3937 56.3525C42.3071 56.2226 42.4213 55.9588 42.7875 55.6911C43.2498 55.3737 43.7958 55.2006 44.3564 55.1936C44.9171 55.1866 45.4673 55.346 45.9373 55.6517C46.2956 55.8919 46.4177 56.1556 46.3311 56.2895Z" fill="#263238"/>
<path d="M53.8743 54.7897C53.5063 53.5107 52.708 52.3981 51.6143 51.6398C51.004 51.2461 50.2953 51.0256 49.7283 50.5807C48.5038 49.62 48.1967 47.9191 47.4289 46.5646C46.9251 45.6893 46.2196 44.9469 45.3711 44.3991C44.5226 43.8512 43.5557 43.5138 42.5506 43.4148C40.8851 43.2691 39.1803 43.8085 37.5541 43.4148C36.3493 43.1273 35.2941 42.3674 34.0775 42.1548C31.7151 41.7375 29.5338 43.466 27.8447 45.1826C27.8447 46.8717 29.2267 47.986 30.5378 49.053C31.201 49.5824 31.9708 49.9621 32.7946 50.166C33.6183 50.3699 34.4763 50.3932 35.3099 50.2342C36.5974 49.9783 38.003 49.305 39.133 49.9743C40.263 50.6437 40.393 52.4548 41.4482 53.3447C42.9561 54.6164 45.3107 53.3683 47.2084 53.8998C48.6771 54.3133 49.6102 55.6953 50.5985 56.8568C51.5867 58.0183 53.0554 59.1129 54.5082 58.6561C54.4469 57.3472 54.2342 56.0497 53.8743 54.7897Z" fill="#263238"/>
<path d="M36.0185 47.8958C34.9554 47.6084 32.7742 46.9548 32.1954 46.0413C30.9315 44.0727 28.7345 42.734 26.5099 42.8915C25.3604 42.9979 24.2764 43.474 23.4203 44.2484C22.5642 45.0229 21.9822 46.054 21.7615 47.1871C20.3817 47.2543 19.0455 47.6919 17.8933 48.4541C16.7411 49.2162 15.8155 50.2746 15.2137 51.5181C15.0607 51.8398 14.9292 52.1713 14.82 52.5103C14.4132 53.2571 14.1739 54.0835 14.1189 54.9321C14.0638 55.7806 14.1942 56.631 14.5011 57.4241C14.8948 58.3769 15.5248 59.4321 15.0444 60.3377C14.5641 61.2433 13.2884 61.3102 12.2883 61.6646C11.4458 62.002 10.7481 62.624 10.3165 63.4225C9.88492 64.2209 9.74672 65.1453 9.92593 66.035C10.0716 66.6729 10.3866 67.3028 10.2606 67.9407C10.1346 68.5785 9.57157 69.0864 9.1424 69.6101C8.60784 70.2666 8.25485 71.0518 8.11867 71.8873C7.9825 72.7229 8.06792 73.5795 8.36639 74.3717C8.66487 75.1639 9.16595 75.864 9.81961 76.4019C10.4733 76.9399 11.2566 77.297 12.0915 77.4375C12.8474 77.5635 13.6664 77.5202 14.3239 77.91C15.0799 78.3588 15.4185 79.2565 15.9579 79.9495C16.4886 80.6081 17.2069 81.0899 18.0176 81.3311C18.8283 81.5723 19.6932 81.5614 20.4976 81.3C20.8173 81.1822 21.1204 81.0234 21.3993 80.8275C21.9151 81.5205 22.7143 81.9851 24.0688 81.9654L23.4979 64.275C23.5983 64.4895 23.7494 64.6765 23.9379 64.8198C24.1265 64.9631 24.347 65.0586 24.5806 65.0979C27.4312 65.7004 27.762 59.8416 27.1044 58.2628C28.1642 57.373 29.1074 56.3531 29.9117 55.2271C30.6756 54.0459 31.3213 50.896 31.1323 49.4668C32.1481 49.5259 36.4871 48.0218 36.0185 47.8958Z" fill="#263238"/>
<path d="M24.2893 65.716C24.1712 63.9206 21.9663 63.5662 20.4189 64.4915C19.5724 64.9994 18.9306 66.0034 19.0369 67.913C19.3243 73 24.372 71.6653 24.372 71.5196C24.372 71.3739 24.4232 67.8224 24.2893 65.716Z" fill="#FFBF9D"/>
<path d="M22.7107 69.6771C22.6871 69.6771 22.6281 69.744 22.4824 69.8227C22.2751 69.9235 22.0372 69.9418 21.817 69.8739C21.2697 69.7046 20.7696 68.8778 20.6948 67.9604C20.6564 67.5246 20.717 67.0859 20.872 66.6768C20.9106 66.5156 20.9877 66.3662 21.0967 66.2414C21.2058 66.1166 21.3435 66.0201 21.498 65.9602C21.5987 65.9278 21.7074 65.9312 21.8058 65.97C21.9042 66.0087 21.9861 66.0804 22.0375 66.1728C22.1123 66.3146 22.0847 66.417 22.1123 66.4248C22.1398 66.4327 22.2186 66.3303 22.1635 66.1256C22.1303 65.9996 22.0536 65.8894 21.9469 65.8145C21.8006 65.7185 21.6227 65.6832 21.4508 65.7161C21.2429 65.7697 21.0524 65.8762 20.8979 66.0253C20.7433 66.1743 20.63 66.3608 20.5688 66.5666C20.3761 67.0197 20.2977 67.5132 20.3405 68.0037C20.431 69.0274 21.0098 69.9724 21.754 70.1259C21.8902 70.1558 22.0313 70.1554 22.1674 70.1248C22.3035 70.0942 22.4311 70.0341 22.5414 69.9487C22.7107 69.8031 22.7304 69.6849 22.7107 69.6771Z" fill="#FF9A6C"/>
<path d="M28.9871 46.624C28.5923 46.8346 28.2493 47.1305 27.9831 47.4902C27.4909 48.1911 27.3216 49.5219 27.6602 51.0141L27.6917 51.1441L27.5658 51.1756C26.8361 51.3832 26.1643 51.7567 25.6029 52.2669C25.0415 52.7771 24.6056 53.4102 24.3293 54.1167C24.1775 54.5147 24.0937 54.9352 24.0812 55.3609C24.1007 55.813 24.1614 56.2624 24.2623 56.7036C24.3671 57.1796 24.4381 57.6625 24.475 58.1486C24.5168 58.6824 24.3781 59.2149 24.0812 59.6605C23.4631 60.633 22.4512 61.1212 21.585 61.5937C20.7156 61.984 19.9172 62.5163 19.2226 63.1686C18.0857 64.3146 17.4282 65.8507 17.3839 67.4642C17.3605 68.5571 17.6066 69.6389 18.1004 70.6141C18.4509 71.3071 18.7383 71.6339 18.7107 71.6536C18.6832 71.6732 18.6241 71.5866 18.4902 71.4291C18.2978 71.1954 18.1265 70.945 17.9784 70.681C17.4204 69.7053 17.1285 68.6001 17.1319 67.4761C17.1435 65.7853 17.8079 64.1645 18.9863 62.9521C19.7004 62.2624 20.5257 61.698 21.4275 61.2827C22.2937 60.8102 23.2465 60.3259 23.7899 59.4676C24.3411 58.6801 24.0773 57.68 23.9159 56.7705C23.8114 56.3075 23.752 55.8354 23.7387 55.3609C23.7519 54.8944 23.8451 54.4336 24.0143 53.9986C24.314 53.2488 24.7854 52.5796 25.3905 52.0449C25.9957 51.5102 26.7178 51.1248 27.4988 50.9196L27.4043 51.0811C27.0775 49.5061 27.298 48.136 27.865 47.4036C28.0695 47.1221 28.3399 46.895 28.6524 46.7421C28.7577 46.6869 28.8705 46.6471 28.9871 46.624Z" fill="#455A64"/>
<path d="M20.8367 71.61C21.231 71.1773 21.7221 70.844 22.2699 70.6375H22.1597C22.2617 70.6099 22.3657 70.5901 22.4707 70.5785C22.6585 70.5219 22.8557 70.5038 23.0506 70.5255C23.2455 70.5471 23.434 70.608 23.6047 70.7044C24.2384 70.9201 24.7672 71.3674 25.0851 71.9565C25.337 72.4782 25.4402 73.0594 25.3832 73.6359C25.3263 74.2125 25.1114 74.7622 24.7623 75.2245C24.5124 75.6501 24.1384 75.9892 23.6905 76.1963C23.2426 76.4035 22.742 76.4688 22.2559 76.3836C21.7698 76.2984 21.3213 76.0666 20.9706 75.7194C20.6199 75.3723 20.3836 74.9262 20.2934 74.441C20.1408 73.9612 20.1106 73.4509 20.2055 72.9565C20.3004 72.4621 20.5174 71.9992 20.8367 71.61Z" fill="#455A64"/>
<path d="M94.6338 110.003L98.1026 108.672C98.1026 108.672 99.0515 105.644 99.6775 104.759C100.304 103.873 103.654 101.148 103.851 101.077C104.048 101.006 106.249 96.0689 107.253 96.2263C108.257 96.3838 108.946 97.0926 108.666 98.4312C108.387 99.7699 106.162 102.443 106.776 102.884C107.272 103.189 107.821 103.394 108.395 103.491C108.395 103.491 108.67 101.951 109.513 101.455C110.355 100.959 111.32 101.782 111.32 101.782L111.344 102.447L112.178 101.683C112.178 101.683 113.056 98.5927 114.383 98.6084C114.695 97.9369 115.141 97.3365 115.694 96.8445C115.837 96.737 116.003 96.6643 116.178 96.6322C116.354 96.6001 116.535 96.6095 116.706 96.6596C116.877 96.7097 117.035 96.7991 117.165 96.9208C117.296 97.0425 117.396 97.193 117.458 97.3603L115.076 104.365L108.513 111.594C108.513 111.594 105.438 112.775 104.654 113.137C103.871 113.499 100.323 115.964 98.7483 116.492C97.1734 117.019 95.3425 117.819 95.3425 117.819L94.6338 110.003Z" fill="#FFBF9D"/>
<path d="M103.839 107.845C103.433 107.742 103.013 107.699 102.595 107.719C101.563 107.668 100.537 107.893 99.6221 108.373C99.1226 108.662 98.6999 109.067 98.3897 109.554C98.1463 109.944 97.9494 110.362 97.803 110.798C97.6403 111.186 97.5444 111.599 97.5195 112.019C97.7267 111.659 97.8969 111.279 98.0274 110.885C98.3267 110.203 98.8149 109.219 99.7914 108.66C100.661 108.212 101.621 107.97 102.599 107.951C103.015 107.966 103.431 107.93 103.839 107.845Z" fill="#FF9A6C"/>
<path d="M106.867 103.061C106.918 102.99 106.559 102.668 106 102.498C105.441 102.329 104.965 102.404 104.969 102.498C104.973 102.593 105.398 102.672 105.906 102.825C106.414 102.979 106.819 103.144 106.867 103.061Z" fill="#FF9A6C"/>
<path d="M114.305 104.364C114.301 103.854 114.352 103.344 114.458 102.844C114.596 101.9 114.809 100.581 115.072 99.0646L115.171 99.2615C114.939 99.1552 114.659 98.9898 114.45 98.9229C114.334 98.8903 114.212 98.8816 114.093 98.8971C113.973 98.9127 113.858 98.9523 113.753 99.0134C113.385 99.2445 113.1 99.5883 112.942 99.9938C112.762 100.383 112.617 100.787 112.509 101.203C112.32 102.014 112.194 102.778 112.08 103.392C111.991 104.076 111.849 104.753 111.655 105.416C111.604 105.416 111.655 104.628 111.812 103.348C111.895 102.715 111.993 101.962 112.171 101.124C112.273 100.682 112.419 100.251 112.604 99.8363C112.792 99.3529 113.133 98.9447 113.576 98.6748C113.875 98.5085 114.228 98.4674 114.557 98.5607C114.827 98.6675 115.09 98.7911 115.344 98.9308L115.47 98.9898L115.443 99.1276C115.159 100.644 114.899 101.955 114.698 102.888C114.621 103.393 114.489 103.888 114.305 104.364Z" fill="#FF9A6C"/>
<path d="M105.686 110.345C105.686 110.345 105.686 110.239 105.717 110.046C105.783 109.775 105.877 109.511 105.997 109.259C106.444 108.341 107.026 107.494 107.721 106.747L107.682 106.81C108.138 105.467 107.725 103.522 108.942 101.786C109.096 101.602 109.289 101.456 109.509 101.358C109.728 101.26 109.966 101.214 110.206 101.223C110.647 101.245 111.072 101.394 111.43 101.652L111.517 101.711V101.817C111.273 103.786 111.048 105.483 110.871 106.688C110.832 107.174 110.681 107.644 110.43 108.062C110.261 108.353 110.139 108.487 110.119 108.456C110.169 108.292 110.237 108.133 110.32 107.983C110.52 107.559 110.63 107.098 110.643 106.629C110.753 105.42 110.93 103.719 111.151 101.758L111.225 101.927C110.924 101.721 110.571 101.601 110.206 101.581C110.021 101.575 109.838 101.611 109.671 101.687C109.503 101.763 109.354 101.876 109.237 102.018C108.96 102.363 108.766 102.767 108.67 103.199C108.555 103.622 108.463 104.05 108.394 104.483C108.324 104.912 108.304 105.306 108.253 105.731C108.2 106.123 108.115 106.511 107.997 106.888V106.924L107.973 106.951C107.28 107.66 106.679 108.454 106.186 109.314C105.808 109.948 105.729 110.357 105.686 110.345Z" fill="#FF9A6C"/>
<path d="M21.333 88.5402C21.5456 88.2409 22.9355 85.5518 22.9355 85.5518L30.8337 92.3594C30.8337 92.3594 38.5745 98.8402 38.5745 98.4229L39.8108 92.1861L41.3306 86.5125L44.1694 90.8041C44.1694 90.8041 53.0953 108.298 53.0953 108.522C53.0953 108.747 58.6076 126.838 58.6076 126.838L57.4264 134.182L57.2846 160.188L40.6495 159.487L37.3658 154.246L31.7039 120.901L21.333 88.5402Z" fill="white"/>
<path d="M42.0902 155.026H59.816L62.6233 166.941H35.3652L42.0902 155.026Z" fill="#263238"/>
<path d="M41.531 149.998C40.9759 141.458 41.2082 125.343 37.9402 116.925C34.6722 108.507 21.5452 87.875 21.5452 87.875L18.3205 92.8833L9.875 96.0528L21.3326 142.513C21.3326 142.513 16.9228 152.908 14.8203 158.979C14.1903 160.794 13.3438 163.873 12.4146 166.948H41.4168C41.6728 160.184 41.7948 154.034 41.531 149.998Z" fill="#C32C7B"/>
<path d="M97.0631 107.448L74.707 119.874L59.2254 97.7656L59.0916 97.5885C57.3277 95.2536 55.5952 92.6865 52.7446 92.0447L52.3115 91.9463L53.1384 118.409C53.1384 118.409 64.1628 130.552 70.3326 135.572C72.1713 137.068 76.8331 136.135 79.0538 134.906C87.9482 129.997 103.146 117.409 103.146 117.409L97.0631 107.448Z" fill="#C32C7B"/>
<path d="M59.6584 142.706C59.6584 142.706 61.2884 130.075 61.8239 126.902C64.6194 110.302 52.3035 91.9462 52.3035 91.9462L46.6731 91.0131L41.8145 87.0049L43.9603 92.9975C43.9603 92.9975 51.016 112.731 52.4176 119.039C53.8193 125.346 54.5202 144.726 54.7367 144.257C54.8667 143.986 55.7132 155.963 56.7802 166.94H68.7299L59.6584 142.706Z" fill="#C32C7B"/>
<path d="M58.6188 128.642C58.6049 128.504 58.6049 128.366 58.6188 128.228C58.6188 127.937 58.6542 127.547 58.6818 127.047C58.6818 126.787 58.7133 126.508 58.7329 126.2C58.7526 125.893 58.7329 125.551 58.7329 125.193C58.7329 124.468 58.7329 123.645 58.6778 122.736C58.4083 117.996 57.4807 113.317 55.9217 108.833C55.2872 106.951 54.5377 105.11 53.6774 103.321C52.9167 101.589 52.0515 99.9043 51.0867 98.277C50.2323 96.7887 49.4448 95.4972 48.7833 94.4263L47.2084 91.93C47.0391 91.6544 46.9013 91.4339 46.7911 91.2607C46.7381 91.1863 46.6944 91.1056 46.6611 91.0205C46.725 91.0866 46.7817 91.1592 46.8304 91.2371C46.9446 91.4024 47.0942 91.6308 47.2832 91.8789C47.677 92.4458 48.2242 93.2805 48.9054 94.3397C49.5866 95.3988 50.3937 96.7021 51.2678 98.1628C52.2514 99.7928 53.1325 101.483 53.9058 103.222C54.7806 105.022 55.5382 106.876 56.1737 108.774C57.7478 113.28 58.6577 117.991 58.8747 122.759C58.9337 123.673 58.9022 124.5 58.8747 125.224C58.8747 125.586 58.8747 125.925 58.8511 126.236C58.8274 126.547 58.7999 126.826 58.7763 127.086C58.7251 127.571 58.6896 127.96 58.6581 128.268C58.6542 128.393 58.641 128.518 58.6188 128.642Z" fill="#263238"/>
<path d="M38.429 98.5181C38.3186 98.4857 38.2127 98.4394 38.114 98.3803L37.2635 97.9315L34.2554 96.266L34.4326 96.1794C34.2869 97.5299 34.0389 99.1088 33.7908 100.79C33.6885 101.475 33.594 102.14 33.5152 102.782L33.4876 103.026L33.2987 102.869C31.6922 101.499 30.2905 100.294 29.3023 99.4277L28.1447 98.3961C28.0007 98.2783 27.8688 98.1464 27.751 98.0024C27.9162 98.0904 28.0696 98.1989 28.2077 98.3252L29.4165 99.2938C30.4362 100.129 31.8576 101.306 33.4758 102.664L33.2553 102.751C33.3302 102.105 33.4207 101.436 33.5231 100.751C33.7711 99.0654 34.0349 97.4905 34.2003 96.1518L34.2239 95.9707L34.3775 96.0613L37.3344 97.8094L38.1573 98.3174C38.3581 98.4355 38.4368 98.5063 38.429 98.5181Z" fill="#263238"/>
<path d="M43.0233 90.8047C43.0564 91.0394 43.0643 91.277 43.0469 91.5134C43.0469 92.0253 43.0469 92.6749 43.0115 93.4506C42.9721 95.0885 42.8934 97.3446 42.795 99.8408C42.795 99.8999 42.795 99.9629 42.795 100.022L42.7753 100.459L42.543 100.089C41.413 98.3053 40.3774 96.6713 39.5545 95.3641L39.7435 95.3405L38.9246 97.5887C38.8352 97.8714 38.7206 98.1455 38.582 98.4076C38.6331 98.1163 38.7108 97.8303 38.8143 97.5533C39.0033 96.9587 39.2474 96.1909 39.5427 95.2735L39.6097 95.0649L39.7317 95.2499L42.7713 99.9275L42.5233 99.9944C42.5233 99.9353 42.5233 99.8723 42.5233 99.8133C42.6217 97.321 42.728 95.0609 42.8186 93.4269C42.8698 92.6395 42.9091 92.0056 42.9406 91.4937C42.9445 91.2618 42.9722 91.0309 43.0233 90.8047Z" fill="#263238"/>
<path d="M9.87517 96.0527C9.17198 96.4909 8.51271 96.9959 7.90651 97.5607C6.35333 99.0543 5.18363 100.901 4.49679 102.943C3.70933 105.223 2.92187 108.026 2.44939 109.79L0.315364 142.214C0.123928 145.093 0.589776 147.979 1.67768 150.652L8.2963 166.94H22.573L14.8677 145.147L17.4899 121.106L9.87517 96.0527Z" fill="#C32C7B"/>
<path d="M18.6709 92.3438L21.8089 101.762H25.1557L22.9823 103.144L40.1529 135.953" fill="#C32C7B"/>
<path d="M40.1529 135.953C40.1529 135.953 40.1214 135.918 40.0741 135.839L39.8773 135.493C39.7001 135.162 39.4521 134.705 39.141 134.138L36.4754 129.138L27.774 112.601L22.872 103.203L22.8169 103.1L22.9153 103.037L25.0887 101.659L25.1557 101.88H21.8089H21.7302L21.7066 101.805C20.7695 98.9308 20.0017 96.5763 19.4584 94.9187C19.2064 94.1312 19.0056 93.4815 18.8599 93.0248C18.7969 92.8201 18.7496 92.6586 18.7103 92.5287C18.6887 92.4732 18.6754 92.4148 18.6709 92.3555C18.6985 92.4074 18.7222 92.4614 18.7418 92.5169C18.7851 92.6429 18.8441 92.8043 18.9189 93.0051L19.5765 94.8793C20.1356 96.533 20.9349 98.8757 21.9113 101.738L21.8089 101.667H25.1557H25.5494L25.2029 101.888L23.0334 103.278L23.0807 103.112C24.5769 105.971 26.2305 109.148 28.0023 112.495C31.3648 118.96 34.4123 124.815 36.6329 129.075C37.7157 131.189 38.6016 132.906 39.2197 134.115L39.9324 135.469L40.1056 135.831C40.1245 135.871 40.1403 135.912 40.1529 135.953Z" fill="#263238"/>
<path d="M12.3359 100.644C14.4156 103.064 15.9142 105.928 16.7174 109.017C17.5206 112.105 17.6071 115.337 16.9702 118.464" fill="#C32C7B"/>
<path d="M16.9698 118.464C16.9147 118.464 17.147 117.405 17.2454 115.708C17.3002 114.704 17.2858 113.698 17.2021 112.696C17.09 111.471 16.8833 110.258 16.584 109.065C16.263 107.878 15.8523 106.718 15.3555 105.593C14.948 104.673 14.477 103.782 13.946 102.927C13.0246 101.478 12.308 100.679 12.371 100.644C12.5608 100.808 12.7336 100.992 12.8868 101.191C13.0855 101.407 13.2722 101.635 13.4459 101.872C13.6507 102.148 13.8987 102.455 14.1271 102.821C14.6915 103.667 15.1916 104.554 15.6233 105.475C16.1401 106.607 16.5616 107.78 16.8832 108.983C17.1888 110.189 17.3916 111.42 17.4896 112.66C17.5694 113.673 17.5694 114.691 17.4896 115.704C17.4699 116.137 17.4029 116.523 17.3596 116.865C17.3234 117.158 17.2722 117.448 17.2061 117.735C17.149 117.985 17.0699 118.229 16.9698 118.464Z" fill="#263238"/>
<path d="M22.5733 166.941C22.5524 166.906 22.5353 166.869 22.5221 166.831C22.4906 166.748 22.4512 166.642 22.3961 166.508C22.2859 166.204 22.1323 165.783 21.9315 165.248C21.5378 164.137 20.959 162.555 20.2542 160.602C18.8525 156.664 16.9154 151.215 14.7695 145.183V145.16V145.136C14.7695 144.971 14.8089 144.789 14.8286 144.604C15.5531 138.12 16.2067 132.249 16.6831 127.985C16.9272 125.871 17.128 124.154 17.2697 122.949C17.3406 122.366 17.3957 121.91 17.439 121.583L17.4863 121.229C17.4896 121.187 17.4975 121.146 17.5099 121.106C17.5162 121.147 17.5162 121.188 17.5099 121.229C17.5099 121.323 17.5099 121.441 17.4823 121.587C17.4508 121.914 17.4075 122.374 17.3524 122.961C17.2264 124.166 17.0492 125.882 16.8287 128.001C16.3681 132.269 15.7342 138.139 15.0373 144.628C15.0373 144.809 14.994 144.99 14.9782 145.16V145.112L20.4078 160.554L22.0221 165.22C22.2071 165.764 22.3489 166.189 22.4512 166.492L22.5575 166.827C22.567 166.864 22.5723 166.902 22.5733 166.941Z" fill="#263238"/>
<path d="M56.0752 100.364C56.962 101.772 57.7373 103.246 58.3943 104.774C58.725 105.471 59.0006 106.27 59.3392 107.109C59.6778 107.948 59.9613 108.877 60.2212 109.865C60.4811 110.853 60.7409 111.885 61.0087 112.968C61.1071 113.515 61.2095 114.07 61.3118 114.633C61.4142 115.196 61.4772 115.775 61.5638 116.354C62.051 120.342 62.1038 124.371 61.7213 128.37C61.6347 129.13 61.5599 129.823 61.489 130.434C61.4181 131.044 61.3276 131.56 61.2685 131.985L61.111 132.965C61.0944 133.079 61.0721 133.192 61.0441 133.304C61.0418 133.188 61.051 133.072 61.0716 132.957C61.0992 132.717 61.1386 132.386 61.1898 131.977C61.241 131.568 61.3236 131.028 61.3748 130.422C61.426 129.815 61.5048 129.118 61.5756 128.359C61.9126 124.369 61.84 120.356 61.3591 116.381C61.2725 115.802 61.2134 115.224 61.111 114.665C61.0086 114.106 60.9102 113.55 60.8118 113.007C60.5677 111.932 60.3472 110.889 60.0558 109.916C59.7645 108.944 59.4731 108.026 59.1975 107.16C58.9219 106.294 58.603 105.522 58.2801 104.825L57.8431 103.817C57.7052 103.502 57.5517 103.215 57.4218 102.939C57.154 102.388 56.9296 101.916 56.713 101.542C56.4965 101.167 56.3626 100.884 56.2445 100.671C56.1815 100.573 56.1249 100.47 56.0752 100.364Z" fill="#263238"/>
<path d="M74.928 126.772C74.7505 126.47 74.6179 126.144 74.5342 125.804C74.0158 124.171 73.9397 122.431 74.3137 120.76C74.3718 120.412 74.4806 120.076 74.6366 119.76C74.6681 119.76 74.5618 120.153 74.4555 120.787C74.1659 122.443 74.2412 124.141 74.676 125.764C74.8177 126.386 74.9752 126.76 74.928 126.772Z" fill="#263238"/>
</svg>
