<svg width="56" height="70" viewBox="0 0 56 70" fill="none" xmlns="http://www.w3.org/2000/svg">
<path d="M42 14C42 21.732 35.7319 28 28 28C20.268 28 14 21.732 14 14C14 6.26801 20.268 0 28 0C35.7319 0 42 6.26801 42 14Z" fill="#3A3A3A"/>
<path d="M40.8737 40.2598C39.2179 40.2798 37.6747 40.3403 36.3297 40.5209C34.0795 40.8237 31.6169 41.5468 29.5817 43.5817C27.5468 45.6166 26.8237 48.0795 26.5213 50.3297C26.2493 52.3516 26.2497 54.8223 26.25 57.449V58.051C26.2497 60.6778 26.2493 63.1484 26.5213 65.1704C26.7334 66.7492 27.1527 68.4327 28.0872 70C28.0581 70 28.0291 70 28 70C0 70 0 62.9486 0 54.25C0 45.5515 12.536 38.5 28 38.5C32.6417 38.5 37.0195 39.1353 40.8737 40.2598Z" fill="#3A3A3A"/>
<path fill-rule="evenodd" clip-rule="evenodd" d="M33.2941 68.2059C35.0879 70 37.9754 70 43.75 70C49.5247 70 52.4122 70 54.2059 68.2059C56 66.4122 56 63.5247 56 57.75C56 51.9754 56 49.0879 54.2059 47.2941C52.4122 45.5 49.5247 45.5 43.75 45.5C37.9754 45.5 35.0879 45.5 33.2941 47.2941C31.5 49.0879 31.5 51.9754 31.5 57.75C31.5 63.5247 31.5 66.4122 33.2941 68.2059ZM40.3431 62.9178C37.8858 61.1583 35 59.0916 35 55.5093C35 51.5547 39.8125 48.7497 43.75 52.5518C47.6875 48.7497 52.5 51.5547 52.5 55.5093C52.5 59.0916 49.6143 61.1583 47.1569 62.9178C46.9018 63.1005 46.6508 63.28 46.4086 63.4578C45.5 64.1232 44.625 64.75 43.75 64.75C42.875 64.75 42 64.1232 41.0914 63.4578C40.8492 63.28 40.5983 63.1005 40.3431 62.9178Z" fill="#C32C7B"/>
</svg>
