<svg width="145" height="134" viewBox="0 0 145 134" fill="none" xmlns="http://www.w3.org/2000/svg">
<path d="M72.5792 112.996H26.1348L48.9973 127.181C55.3167 131.099 62.6121 133.187 70.0617 133.187H74.9939C82.4435 133.187 89.739 131.099 96.0583 127.181L118.921 112.996H72.5792Z" fill="#424242"/>
<path d="M132.673 0.390625H46.8575C47.1315 1.21193 47.5425 1.94769 48.0905 2.51234C50.471 4.87358 51.4985 8.27857 50.7964 11.598C50.0257 15.3623 46.9774 18.4251 43.2098 19.2122C42.5076 19.3662 41.8055 19.4346 41.1033 19.4346C38.8256 19.4346 36.6336 18.6646 34.8525 17.2273C32.5234 15.3281 31.1876 12.5391 31.1876 9.52762C31.1876 6.82416 32.2665 4.30893 34.2017 2.42678C34.7497 1.89635 35.1436 1.19481 35.3834 0.407726H12.2811C5.99599 0.407726 0.892578 5.50667 0.892578 11.7862C0.892578 18.0658 5.99599 23.1647 12.2811 23.1647H101.214V26.8606C101.214 29.0507 100.46 31.2409 98.8677 32.7637C97.5319 34.047 96.6928 35.8607 96.6928 37.8626C96.6928 42.2942 100.752 45.7848 105.358 44.8266C108.047 44.2619 110.222 42.0718 110.787 39.3855C111.318 36.8189 110.462 34.4405 108.835 32.8321C107.208 31.2066 106.42 28.9138 106.42 26.621V23.1647H132.622C138.907 23.1647 144.011 18.0658 144.011 11.7862C144.011 5.50667 138.907 0.407726 132.622 0.407726L132.673 0.390625Z" fill="#424242"/>
<path d="M132.674 28.7266H109.606C109.88 29.565 110.291 30.3007 110.856 30.8654C113.237 33.2266 114.247 36.6145 113.562 39.951C112.792 43.7154 109.743 46.7781 105.976 47.5652C105.274 47.7192 104.571 47.7877 103.869 47.7877C101.592 47.7877 99.3995 47.0177 97.6184 45.5804C95.2894 43.6811 93.9536 40.8921 93.9536 37.8807C93.9536 35.1772 95.0325 32.662 96.9677 30.7798C97.5157 30.2494 97.9096 29.5479 98.1665 28.7437H12.3162C6.03114 28.7437 0.927734 33.8426 0.927734 40.1222C0.927734 46.4017 6.03114 51.5006 12.3162 51.5006H38.5183V55.1965C38.5183 57.3866 37.7647 59.5768 36.1721 61.0996C34.8363 62.3829 33.9971 64.1966 33.9971 66.1985C33.9971 70.6301 38.0559 74.1207 42.6626 73.1625C45.3513 72.5979 47.5263 70.4077 48.0914 67.7214C48.6223 65.1548 47.766 62.7764 46.1391 61.168C44.5122 59.5425 43.7244 57.2498 43.7244 54.957V51.5006H132.657C138.942 51.5006 144.046 46.4017 144.046 40.1222C144.046 33.8426 138.942 28.7437 132.657 28.7437L132.674 28.7266Z" fill="#424242"/>
<path d="M132.672 57.0449H46.856C47.13 57.8833 47.541 58.6191 48.1062 59.1666C50.4866 61.5279 51.5141 64.9328 50.812 68.2523C50.0413 72.0166 46.993 75.0623 43.2254 75.8665C42.5232 76.0205 41.8211 76.0889 41.1189 76.0889C38.8412 76.0889 36.6492 75.3189 34.8681 73.8816C32.5391 71.9824 31.2033 69.1934 31.2033 66.1819C31.2033 63.4785 32.2822 60.9632 34.2174 59.081C34.7654 58.5506 35.1593 57.8491 35.4161 57.0449H12.2967C6.01161 57.0449 0.908203 62.1438 0.908203 68.4234C0.908203 74.7029 6.01161 79.8019 12.2967 79.8019H101.23V83.5148C101.23 85.7049 100.476 87.8951 98.8833 89.4179C97.5475 90.7012 96.7084 92.515 96.7084 94.5169C96.7084 98.9485 100.767 102.439 105.374 101.481C108.063 100.916 110.238 98.726 110.803 96.0397C111.334 93.4731 110.477 91.0948 108.85 89.4864C107.223 87.8609 106.436 85.5681 106.436 83.2753V79.8019H132.638C138.923 79.8019 144.026 74.7029 144.026 68.4234C144.026 62.1438 138.923 57.0449 132.638 57.0449H132.672Z" fill="#424242"/>
<path d="M132.674 85.3789H109.606C109.88 86.2173 110.291 86.9531 110.856 87.5177C113.237 89.879 114.247 93.2839 113.562 96.6034C112.792 100.368 109.743 103.43 105.976 104.218C105.274 104.372 104.571 104.44 103.869 104.44C101.592 104.44 99.3995 103.67 97.6184 102.233C95.2894 100.333 93.9536 97.5444 93.9536 94.533C93.9536 91.8295 95.0325 89.3143 96.9677 87.4321C97.5157 86.9017 97.9096 86.1831 98.1665 85.3789H12.3162C6.03114 85.3789 0.927734 90.4778 0.927734 96.7574C0.927734 103.037 6.03114 108.136 12.3162 108.136H132.692C138.977 108.136 144.08 103.037 144.08 96.7574C144.08 90.4778 138.977 85.3789 132.692 85.3789H132.674Z" fill="#424242"/>
</svg>
