<svg width="214" height="169" viewBox="0 0 214 169" fill="none" xmlns="http://www.w3.org/2000/svg">
<path d="M213.522 52.7174C212.512 47.8923 208.59 43.9911 203.761 42.9987C199.171 42.0576 194.89 43.5804 192.012 46.4892C189.101 49.4151 184.991 50.8011 180.864 50.8011H179.494V0C46.925 0 10.2935 89.0601 0.189453 134.642H51.3091V136.456C51.3091 140.392 49.9391 144.31 47.1134 147.048C44.7158 149.357 43.2259 152.591 43.2259 156.185C43.2259 164.141 50.5042 170.386 58.7588 168.658C63.5881 167.649 67.4928 163.73 68.4861 158.905C69.428 154.32 67.9038 150.042 64.9924 147.167C62.064 144.259 60.6768 140.152 60.6768 136.028V134.66H179.494V60.1776H181.292C185.231 60.1776 189.153 61.5464 191.893 64.3697C194.205 66.7651 197.441 68.2538 201.038 68.2538C209.001 68.2538 215.252 60.9818 213.522 52.7345V52.7174Z" fill="#E351A4"/>
<path d="M83.6441 60.38H74.3741V56.99H89.7941L77.6441 77.57L74.4941 75.71L83.6441 60.38Z" fill="white"/>
</svg>
