<svg width="208" height="183" viewBox="0 0 208 183" fill="none" xmlns="http://www.w3.org/2000/svg">
<path d="M207.522 97.2076C206.512 92.3824 202.59 88.4812 197.76 87.4888C193.171 86.5477 188.889 88.0706 186.012 90.9793C183.101 93.9052 178.991 95.2912 174.864 95.2912H173.494V35.1136H125.319V33.4025C125.319 29.4671 126.69 25.5488 129.515 22.8111C131.913 20.5012 133.403 17.2673 133.403 13.6741C133.403 5.71775 126.124 -0.527581 117.87 1.20058C113.04 2.2101 109.136 6.12841 108.143 10.9536C107.201 15.5392 108.725 19.8168 111.636 22.6914C114.565 25.6001 115.952 29.7067 115.952 33.8303V35.0965H0.0976562C13.3186 74.2624 35.8215 102.187 44.6069 112.128C51.3886 119.793 57.7935 127.818 63.7019 136.151C66.6646 140.326 69.4732 144.501 72.1447 148.625H122.511V150.421C122.511 154.357 121.141 158.275 118.315 161.013C115.918 163.323 114.428 166.556 114.428 170.15C114.428 178.106 121.706 184.351 129.961 182.623C134.79 181.614 138.695 177.695 139.688 172.87C140.63 168.285 139.106 164.007 136.194 161.132C133.266 158.224 131.879 154.117 131.879 149.993V148.625H173.476V104.634H175.275C179.214 104.634 183.135 106.002 185.875 108.826C188.187 111.221 191.424 112.71 195.02 112.71C202.984 112.71 209.235 105.438 207.505 97.1905L207.522 97.2076Z" fill="#C32C7B"/>
<path d="M91.0941 114.38H84.4941L83.7141 117.5C84.4041 117.41 84.7341 117.38 85.1841 117.38C89.0841 117.38 91.9941 120.35 91.9941 124.34C91.9941 128.57 88.7841 131.51 84.1641 131.51C81.5841 131.51 79.5441 130.67 77.7741 128.9L79.0641 125.51C80.5641 127.25 82.1841 128.06 84.0741 128.06C86.2941 128.06 88.0941 126.35 88.0941 124.22C88.0941 121.97 86.0841 120.2 83.5341 120.2C82.1541 120.2 80.9241 120.62 79.6941 121.49H79.4841L81.8541 110.99H91.0941V114.38Z" fill="white"/>
</svg>
