<svg width="199" height="125" viewBox="0 0 199 125" fill="none" xmlns="http://www.w3.org/2000/svg">
<path d="M175.737 34.8168V33.0031C175.737 29.0677 177.107 25.1494 179.932 22.4117C182.33 20.1018 183.82 16.8679 183.82 13.2747C183.82 5.31835 176.541 -0.926996 168.287 0.801164C163.458 1.81068 159.553 5.72901 158.56 10.5542C157.618 15.1398 159.142 19.4174 162.053 22.292C164.982 25.2008 166.369 29.3073 166.369 33.4309V34.7997H62.3484C62.7937 36.9214 63.7698 38.8036 65.1399 40.1724C69.2157 44.2105 70.9454 50.0281 69.7809 55.7088C68.4451 62.1423 63.239 67.3781 56.8169 68.7127C55.6181 68.9694 54.4022 69.0892 53.2205 69.0892C49.333 69.0892 45.5654 67.7888 42.5171 65.3077C38.5268 62.0739 36.2491 57.2829 36.2491 52.1498C36.2491 47.5299 38.0815 43.2181 41.421 40.0013C42.7739 38.7009 43.7158 36.8701 44.1097 34.7826H0.816406C16.4349 59.5244 27.0185 82.4182 32.1047 94.2929C34.3311 99.4774 39.4345 102.797 45.0688 102.797H65.4824V106.493C65.4824 108.683 64.7289 110.873 63.1362 112.396C61.8004 113.679 60.9613 115.493 60.9613 117.495C60.9613 121.926 65.02 125.417 69.6268 124.459C72.3155 123.894 74.4904 121.704 75.0556 119.018C75.5864 116.451 74.7302 114.073 73.1032 112.464C71.4763 110.839 70.6886 108.546 70.6886 106.253V102.797H153.85C159.484 102.797 164.588 99.4774 166.78 94.2929C171.849 82.4182 182.467 59.5244 198.102 34.7826H175.685L175.737 34.8168Z" fill="#E17DB6"/>
<path d="M131.034 85.34H133.404V88.46H131.034V92H127.404V88.46H117.624V86.72L127.524 71.63H131.034V85.34ZM127.404 85.34V77.39L122.244 85.34H127.404Z" fill="white"/>
</svg>
