<svg width="168" height="141" viewBox="0 0 168 141" fill="none" xmlns="http://www.w3.org/2000/svg">
<path d="M89.0244 107.248V105.88H167.065C149.204 59.8866 105.756 1.59119 0.673828 0.0683594V46.3351C2.79739 45.8903 4.68121 44.915 6.05125 43.5461C10.0929 39.4738 15.9156 37.7457 21.6184 38.9092C28.0575 40.2438 33.2808 45.4454 34.6337 51.8618C35.7127 56.9607 34.4625 62.1623 31.2258 66.1491C27.989 70.1358 23.1939 72.4115 18.0562 72.4115C13.4323 72.4115 9.11672 70.5807 5.89712 67.2442C4.59558 65.8924 2.76315 64.9513 0.690957 64.5578V105.863H79.6739V107.676C79.6739 111.612 78.3038 115.53 75.4781 118.268C73.0806 120.578 71.5906 123.811 71.5906 127.405C71.5906 135.361 78.869 141.606 87.1235 139.878C91.9529 138.869 95.8575 134.95 96.8508 130.125C97.7927 125.54 96.2685 121.262 93.3572 118.387C90.4287 115.479 89.0415 111.372 89.0415 107.248H89.0244Z" fill="#E17DB6"/>
<path d="M90.8041 46.38H87.9241V42.99H94.7041V63H90.8041V46.38Z" fill="white"/>
</svg>
