<svg width="218" height="91" viewBox="0 0 218 91" fill="none" xmlns="http://www.w3.org/2000/svg">
<path d="M121.448 90.9212C120.986 88.8338 120.027 86.9858 118.674 85.6512C114.598 81.6131 112.868 75.7956 114.033 70.1149C115.369 63.6813 120.575 58.4626 126.997 57.1109C132.1 56.0329 137.324 57.282 141.297 60.5159C145.287 63.7498 147.565 68.5407 147.565 73.6739C147.565 78.2937 145.732 82.6055 142.393 85.8223C141.057 87.1056 140.132 88.9022 139.721 90.9384H183.477V52.7991H185.275C189.214 52.7991 193.136 54.1679 195.876 56.9911C198.188 59.3866 201.425 60.8752 205.021 60.8752C212.984 60.8752 219.235 53.6033 217.505 45.356C216.495 40.5308 212.573 36.6297 207.744 35.6372C203.154 34.6962 198.873 36.219 195.996 39.1278C193.084 42.0537 188.974 43.4396 184.847 43.4396H183.477V0.834497H69.1641C69.6094 2.9562 70.5856 4.83835 71.9556 6.20719C76.0315 10.2453 77.7611 16.0628 76.5966 21.7435C75.2608 28.1771 70.0547 33.3958 63.6326 34.7475C62.4338 35.0042 61.2179 35.1239 60.0362 35.1239C56.1487 35.1239 52.3811 33.8235 49.3328 31.3425C45.3425 28.1086 43.0648 23.3177 43.0648 18.1845C43.0648 13.5647 44.8973 9.25286 48.2367 6.03609C49.5897 4.71858 50.5316 2.88775 50.9255 0.817383H3.33361C0.713409 14.1636 0.4394 22.8899 0.4394 22.8899C-1.34165 47.8028 2.46021 70.748 8.79666 90.9212H121.465H121.448Z" fill="#ED8ECD"/>
<path d="M72.5041 38.18L75.2641 40.25L70.5241 46.34C71.4841 45.95 71.9941 45.83 72.8641 45.83C76.3441 45.83 79.0741 48.74 79.0741 52.43C79.0741 56.6 75.9541 59.51 71.4541 59.51C67.0441 59.51 63.8941 56.66 63.8941 52.64C63.8941 50.72 64.7941 48.5 66.4141 46.31L72.5041 38.18ZM71.5141 48.95C69.4441 48.95 67.7941 50.63 67.7941 52.67C67.7941 54.77 69.4141 56.42 71.5141 56.42C73.5241 56.42 75.1741 54.77 75.1741 52.73C75.1741 50.6 73.5841 48.95 71.5141 48.95Z" fill="white"/>
</svg>
