<svg width="160" height="124" viewBox="0 0 160 124" fill="none" xmlns="http://www.w3.org/2000/svg">
<path d="M89.2984 34.975V33.1613C89.2984 29.2259 90.6685 25.3076 93.4942 22.5699C95.8917 20.26 97.3817 17.0261 97.3817 13.4329C97.3817 5.47653 90.1033 -0.768792 81.8488 0.959368C77.0194 1.96889 73.1148 5.88718 72.1215 10.7123C71.1796 15.298 72.7038 19.5756 75.6151 22.4501C78.5436 25.3589 79.9308 29.4655 79.9308 33.5891V34.9579H0.673828V65.791C2.79739 65.3462 4.68121 64.3708 6.05125 63.002C10.0929 58.9297 15.9156 57.2016 21.6184 58.3651C28.0575 59.6997 33.2808 64.9013 34.6337 71.3177C35.7127 76.4166 34.4625 81.6182 31.2258 85.605C27.989 89.5917 23.1939 91.8674 18.0562 91.8674C13.4323 91.8674 9.11672 90.0366 5.89712 86.7001C4.59558 85.3483 2.76315 84.4072 0.690957 84.0137V123.59H58.8835C58.4382 121.469 57.4963 119.586 56.1263 118.218C52.0504 114.18 50.3207 108.362 51.4853 102.681C52.821 96.2477 58.0272 91.0119 64.4493 89.6773C69.5527 88.5993 74.776 89.8484 78.7491 93.0823C82.7393 96.3161 85.017 101.107 85.017 106.24C85.017 110.86 83.1846 115.172 79.8451 118.389C78.4922 119.689 77.5674 121.537 77.1564 123.607H97.8269C100.499 119.484 103.324 115.275 106.27 111.134C112.178 102.801 118.6 94.7762 125.365 87.1107C132.164 79.4452 147.114 61.0001 159.667 34.9579H89.2813L89.2984 34.975Z" fill="#F4C7E3"/>
<path d="M91.2841 61.79V59H91.8241C93.5041 59 94.5841 57.92 94.5841 56.24C94.5841 54.71 93.4741 53.6 91.8841 53.6C90.3541 53.6 89.4241 54.5 89.2141 56.21H85.5241C86.0641 52.46 88.3441 50.48 92.1541 50.48C95.8141 50.48 98.2741 52.7 98.2741 56.03C98.2741 58.04 97.6141 59.24 95.9641 60.29C96.9241 60.68 97.3741 60.98 97.8241 61.55C98.6041 62.48 99.0241 63.77 99.0241 65.15C99.0241 68.93 96.1141 71.51 91.8841 71.51C89.0941 71.51 86.9041 70.31 85.5841 68.12C84.9841 67.13 84.7441 66.35 84.7141 65.24H88.6141C88.8541 67.01 90.0841 68.06 91.9141 68.06C93.7741 68.06 95.1241 66.71 95.1241 64.91C95.1241 63.11 93.7741 61.73 92.0341 61.73C91.9141 61.73 91.5841 61.76 91.2841 61.79Z" fill="white"/>
</svg>
