<svg width="181" height="144" viewBox="0 0 181 144" fill="none" xmlns="http://www.w3.org/2000/svg">
<path d="M179.548 50.8895C179.548 50.8895 178.846 28.2865 168.605 0.0371094H93.4927C93.9379 2.15881 94.9141 4.04096 96.2841 5.4098C100.36 9.44788 102.09 15.2655 100.925 20.9632C99.6065 27.3968 94.3832 32.6155 87.9611 33.9672C86.7623 34.2239 85.5464 34.3437 84.3648 34.3437C80.4773 34.3437 76.7097 33.0433 73.6613 30.5622C69.6711 27.3284 67.3934 22.5374 67.3934 17.4043C67.3934 12.7844 69.2258 8.47259 72.5653 5.25582C73.9182 3.95542 74.8601 2.12459 75.254 0.0371094H0.689453V66.9562C2.81302 66.5114 4.69682 65.5361 6.06687 64.1672C10.1085 60.0949 15.9312 58.3497 21.634 59.5303C28.0732 60.8649 33.2964 66.0665 34.6494 72.4829C35.7111 77.5819 34.4781 82.8006 31.2414 86.7702C28.0047 90.7569 23.2095 93.0327 18.0719 93.0327C13.448 93.0327 9.13234 91.2018 5.91274 87.8653C4.6112 86.5135 2.77877 85.5725 0.706582 85.1789V143.782H75.4937C75.0485 141.661 74.0723 139.778 72.7023 138.41C68.6264 134.372 66.8967 128.554 68.0613 122.873C69.3799 116.44 74.6032 111.221 81.0253 109.869C86.1287 108.791 91.352 110.04 95.3251 113.274C99.3154 116.508 101.593 121.299 101.593 126.432C101.593 131.052 99.7606 135.364 96.4211 138.581C95.0682 139.898 94.1263 141.712 93.7324 143.799H161.652C173.195 118.562 182.117 86.7189 179.583 50.8895H179.548Z" fill="#DD2A88"/>
<path d="M91.7941 65.61H99.0541V69H84.5041L90.4141 62.31C94.0441 58.17 95.0041 56.64 95.0041 54.96C95.0041 53.25 93.6541 51.93 91.9441 51.93C90.1741 51.93 89.0641 53.16 89.0041 55.23H84.8341C85.1041 51.09 87.8041 48.48 91.8541 48.48C95.9041 48.48 98.9041 51.24 98.9041 54.93C98.9041 57.15 97.8241 59.22 95.2741 61.92L91.7941 65.61Z" fill="white"/>
</svg>
