<svg width="368" height="558" viewBox="0 0 368 558" fill="none" xmlns="http://www.w3.org/2000/svg">
<path d="M183.579 536.996H137.135L159.997 551.181C166.317 555.099 173.612 557.187 181.062 557.187H185.994C193.443 557.187 200.739 555.099 207.058 551.181L229.921 536.996H183.579Z" fill="#424242"/>
<path d="M243.673 424.391H157.857C158.132 425.212 158.543 425.948 159.091 426.512C161.471 428.874 162.499 432.279 161.796 435.598C161.026 439.362 157.977 442.425 154.21 443.212C153.508 443.366 152.805 443.435 152.103 443.435C149.826 443.435 147.634 442.665 145.852 441.227C143.523 439.328 142.188 436.539 142.188 433.528C142.188 430.824 143.267 428.309 145.202 426.427C145.75 425.896 146.144 425.195 146.383 424.408H123.281C116.996 424.408 111.893 429.507 111.893 435.786C111.893 442.066 116.996 447.165 123.281 447.165H212.214V450.861C212.214 453.051 211.46 455.241 209.868 456.764C208.532 458.047 207.693 459.861 207.693 461.863C207.693 466.294 211.752 469.785 216.358 468.827C219.047 468.262 221.222 466.072 221.787 463.385C222.318 460.819 221.462 458.44 219.835 456.832C218.208 455.207 217.42 452.914 217.42 450.621V447.165H243.622C249.907 447.165 255.011 442.066 255.011 435.786C255.011 429.507 249.907 424.408 243.622 424.408L243.673 424.391Z" fill="#424242"/>
<path d="M243.674 452.727H220.606C220.88 453.565 221.291 454.301 221.856 454.865C224.237 457.227 225.247 460.614 224.562 463.951C223.792 467.715 220.743 470.778 216.976 471.565C216.274 471.719 215.571 471.788 214.869 471.788C212.592 471.788 210.399 471.018 208.618 469.58C206.289 467.681 204.954 464.892 204.954 461.881C204.954 459.177 206.032 456.662 207.968 454.78C208.516 454.249 208.91 453.548 209.166 452.744H123.316C117.031 452.744 111.928 457.843 111.928 464.122C111.928 470.402 117.031 475.501 123.316 475.501H149.518V479.196C149.518 481.387 148.765 483.577 147.172 485.1C145.836 486.383 144.997 488.197 144.997 490.199C144.997 494.63 149.056 498.121 153.663 497.163C156.351 496.598 158.526 494.408 159.091 491.721C159.622 489.155 158.766 486.776 157.139 485.168C155.512 483.543 154.724 481.25 154.724 478.957V475.501H243.657C249.942 475.501 255.046 470.402 255.046 464.122C255.046 457.843 249.942 452.744 243.657 452.744L243.674 452.727Z" fill="#424242"/>
<path d="M243.672 481.045H157.856C158.13 481.883 158.541 482.619 159.106 483.167C161.487 485.528 162.514 488.933 161.812 492.252C161.041 496.017 157.993 499.062 154.225 499.866C153.523 500.02 152.821 500.089 152.119 500.089C149.841 500.089 147.649 499.319 145.868 497.882C143.539 495.982 142.203 493.193 142.203 490.182C142.203 487.478 143.282 484.963 145.217 483.081C145.765 482.551 146.159 481.849 146.416 481.045H123.297C117.012 481.045 111.908 486.144 111.908 492.423C111.908 498.703 117.012 503.802 123.297 503.802H212.23V507.515C212.23 509.705 211.476 511.895 209.883 513.418C208.548 514.701 207.708 516.515 207.708 518.517C207.708 522.949 211.767 526.439 216.374 525.481C219.063 524.916 221.238 522.726 221.803 520.04C222.334 517.473 221.477 515.095 219.85 513.486C218.223 511.861 217.436 509.568 217.436 507.275V503.802H243.638C249.923 503.802 255.026 498.703 255.026 492.423C255.026 486.144 249.923 481.045 243.638 481.045H243.672Z" fill="#424242"/>
<path d="M243.674 509.379H220.606C220.88 510.217 221.291 510.953 221.856 511.518C224.237 513.879 225.247 517.284 224.562 520.603C223.792 524.368 220.743 527.43 216.976 528.218C216.274 528.372 215.571 528.44 214.869 528.44C212.592 528.44 210.399 527.67 208.618 526.233C206.289 524.333 204.954 521.544 204.954 518.533C204.954 515.83 206.032 513.314 207.968 511.432C208.516 510.902 208.91 510.183 209.166 509.379H123.316C117.031 509.379 111.928 514.478 111.928 520.757C111.928 527.037 117.031 532.136 123.316 532.136H243.692C249.977 532.136 255.08 527.037 255.08 520.757C255.08 514.478 249.977 509.379 243.692 509.379H243.674Z" fill="#424242"/>
<path d="M276.024 107.248V105.88H354.065C336.204 59.8866 292.756 1.59119 187.674 0.0683594V46.3351C189.797 45.8903 191.681 44.915 193.051 43.5461C197.093 39.4738 202.916 37.7457 208.618 38.9092C215.058 40.2438 220.281 45.4454 221.634 51.8618C222.713 56.9607 221.462 62.1623 218.226 66.1491C214.989 70.1358 210.194 72.4115 205.056 72.4115C200.432 72.4115 196.117 70.5807 192.897 67.2442C191.596 65.8924 189.763 64.9513 187.691 64.5578V105.863H266.674V107.676C266.674 111.612 265.304 115.53 262.478 118.268C260.081 120.578 258.591 123.811 258.591 127.405C258.591 135.361 265.869 141.606 274.123 139.878C278.953 138.869 282.857 134.95 283.851 130.125C284.793 125.54 283.269 121.262 280.357 118.387C277.429 115.479 276.042 111.372 276.042 107.248H276.024Z" fill="#E17DB6"/>
<path d="M277.804 46.38H274.924V42.99H281.704V63H277.804V46.38Z" fill="white"/>
<path d="M366.548 160.889C366.548 160.889 365.846 138.287 355.605 110.037H280.493C280.938 112.159 281.914 114.041 283.284 115.41C287.36 119.448 289.09 125.265 287.925 130.963C286.606 137.397 281.383 142.615 274.961 143.967C273.762 144.224 272.546 144.344 271.365 144.344C267.477 144.344 263.71 143.043 260.661 140.562C256.671 137.328 254.393 132.537 254.393 127.404C254.393 122.784 256.226 118.473 259.565 115.256C260.918 113.955 261.86 112.125 262.254 110.037H187.689V176.956C189.813 176.511 191.697 175.536 193.067 174.167C197.108 170.095 202.931 168.35 208.634 169.53C215.073 170.865 220.296 176.067 221.649 182.483C222.711 187.582 221.478 192.801 218.241 196.77C215.005 200.757 210.21 203.033 205.072 203.033C200.448 203.033 196.132 201.202 192.913 197.865C191.611 196.514 189.779 195.572 187.707 195.179V253.782H262.494C262.048 251.661 261.072 249.778 259.702 248.41C255.626 244.372 253.897 238.554 255.061 232.873C256.38 226.44 261.603 221.221 268.025 219.869C273.129 218.791 278.352 220.04 282.325 223.274C286.315 226.508 288.593 231.299 288.593 236.432C288.593 241.052 286.761 245.364 283.421 248.581C282.068 249.898 281.126 251.712 280.732 253.799H348.652C360.195 228.562 369.117 196.719 366.583 160.889H366.548Z" fill="#DD2A88"/>
<path d="M278.794 175.61H286.054V179H271.504L277.414 172.31C281.044 168.17 282.004 166.64 282.004 164.96C282.004 163.25 280.654 161.93 278.944 161.93C277.174 161.93 276.064 163.16 276.004 165.23H271.834C272.104 161.09 274.804 158.48 278.854 158.48C282.904 158.48 285.904 161.24 285.904 164.93C285.904 167.15 284.824 169.22 282.274 171.92L278.794 175.61Z" fill="white"/>
<path d="M276.298 257.975V256.161C276.298 252.226 277.668 248.308 280.494 245.57C282.892 243.26 284.382 240.026 284.382 236.433C284.382 228.477 277.103 222.231 268.849 223.959C264.019 224.969 260.115 228.887 259.122 233.712C258.18 238.298 259.704 242.576 262.615 245.45C265.544 248.359 266.931 252.465 266.931 256.589V257.958H187.674V288.791C189.797 288.346 191.681 287.371 193.051 286.002C197.093 281.93 202.916 280.202 208.618 281.365C215.058 282.7 220.281 287.901 221.634 294.318C222.713 299.417 221.462 304.618 218.226 308.605C214.989 312.592 210.194 314.867 205.056 314.867C200.432 314.867 196.117 313.037 192.897 309.7C191.596 308.348 189.763 307.407 187.691 307.014V346.59H245.883C245.438 344.469 244.496 342.586 243.126 341.218C239.05 337.18 237.321 331.362 238.485 325.681C239.821 319.248 245.027 314.012 251.449 312.677C256.553 311.599 261.776 312.848 265.749 316.082C269.739 319.316 272.017 324.107 272.017 329.24C272.017 333.86 270.185 338.172 266.845 341.389C265.492 342.689 264.567 344.537 264.156 346.607H284.827C287.499 342.484 290.324 338.275 293.27 334.134C299.178 325.801 305.6 317.776 312.365 310.111C319.164 302.445 334.114 284 346.667 257.958H276.281L276.298 257.975Z" fill="#F4C7E3"/>
<path d="M278.284 284.79V282H278.824C280.504 282 281.584 280.92 281.584 279.24C281.584 277.71 280.474 276.6 278.884 276.6C277.354 276.6 276.424 277.5 276.214 279.21H272.524C273.064 275.46 275.344 273.48 279.154 273.48C282.814 273.48 285.274 275.7 285.274 279.03C285.274 281.04 284.614 282.24 282.964 283.29C283.924 283.68 284.374 283.98 284.824 284.55C285.604 285.48 286.024 286.77 286.024 288.15C286.024 291.93 283.114 294.51 278.884 294.51C276.094 294.51 273.904 293.31 272.584 291.12C271.984 290.13 271.744 289.35 271.714 288.24H275.614C275.854 290.01 277.084 291.06 278.914 291.06C280.774 291.06 282.124 289.71 282.124 287.91C282.124 286.11 280.774 284.73 279.034 284.73C278.914 284.73 278.584 284.76 278.284 284.79Z" fill="white"/>
<path d="M259.737 350.817V349.003C259.737 345.068 261.107 341.149 263.932 338.412C266.33 336.102 267.82 332.868 267.82 329.275C267.82 321.318 260.541 315.073 252.287 316.801C247.458 317.811 243.553 321.729 242.56 326.554C241.618 331.14 243.142 335.417 246.053 338.292C248.982 341.201 250.369 345.307 250.369 349.431V350.8H146.348C146.794 352.921 147.77 354.804 149.14 356.172C153.216 360.211 154.945 366.028 153.781 371.709C152.445 378.142 147.239 383.378 140.817 384.713C139.618 384.969 138.402 385.089 137.221 385.089C133.333 385.089 129.565 383.789 126.517 381.308C122.527 378.074 120.249 373.283 120.249 368.15C120.249 363.53 122.082 359.218 125.421 356.001C126.774 354.701 127.716 352.87 128.11 350.783H84.8164C100.435 375.524 111.018 398.418 116.105 410.293C118.331 415.477 123.434 418.797 129.069 418.797H149.482V422.493C149.482 424.683 148.729 426.873 147.136 428.396C145.8 429.679 144.961 431.493 144.961 433.495C144.961 437.926 149.02 441.417 153.627 440.459C156.315 439.894 158.49 437.704 159.056 435.018C159.586 432.451 158.73 430.073 157.103 428.464C155.476 426.839 154.689 424.546 154.689 422.253V418.797H237.85C243.484 418.797 248.588 415.477 250.78 410.293C255.849 398.418 266.467 375.524 282.102 350.783H259.685L259.737 350.817Z" fill="#E17DB6"/>
<path d="M215.034 401.34H217.404V404.46H215.034V408H211.404V404.46H201.624V402.72L211.524 387.63H215.034V401.34ZM211.404 401.34V393.39L206.244 401.34H211.404Z" fill="white"/>
<path d="M217.522 295.208C216.512 290.382 212.59 286.481 207.76 285.489C203.171 284.548 198.889 286.071 196.012 288.979C193.101 291.905 188.991 293.291 184.864 293.291H183.494V233.114H135.319V231.403C135.319 227.467 136.69 223.549 139.515 220.811C141.913 218.501 143.403 215.267 143.403 211.674C143.403 203.718 136.124 197.472 127.87 199.201C123.04 200.21 119.136 204.128 118.143 208.954C117.201 213.539 118.725 217.817 121.636 220.691C124.565 223.6 125.952 227.707 125.952 231.83V233.096H10.0977C23.3186 272.262 45.8215 300.187 54.6069 310.128C61.3886 317.793 67.7935 325.818 73.7019 334.151C76.6646 338.326 79.4732 342.501 82.1447 346.625H132.511V348.421C132.511 352.357 131.141 356.275 128.315 359.013C125.918 361.323 124.428 364.556 124.428 368.15C124.428 376.106 131.706 382.351 139.961 380.623C144.79 379.614 148.695 375.695 149.688 370.87C150.63 366.285 149.106 362.007 146.194 359.132C143.266 356.224 141.879 352.117 141.879 347.993V346.625H183.476V302.634H185.275C189.214 302.634 193.135 304.002 195.875 306.826C198.187 309.221 201.424 310.71 205.02 310.71C212.984 310.71 219.235 303.438 217.505 295.19L217.522 295.208Z" fill="#C32C7B"/>
<path d="M101.094 312.38H94.4941L93.7141 315.5C94.4041 315.41 94.7341 315.38 95.1841 315.38C99.0841 315.38 101.994 318.35 101.994 322.34C101.994 326.57 98.7841 329.51 94.1641 329.51C91.5841 329.51 89.5441 328.67 87.7741 326.9L89.0641 323.51C90.5641 325.25 92.1841 326.06 94.0741 326.06C96.2941 326.06 98.0941 324.35 98.0941 322.22C98.0941 319.97 96.0841 318.2 93.5341 318.2C92.1541 318.2 90.9241 318.62 89.6941 319.49H89.4841L91.8541 308.99H101.094V312.38Z" fill="white"/>
<path d="M121.448 228.921C120.986 226.834 120.027 224.986 118.674 223.651C114.598 219.613 112.868 213.796 114.033 208.115C115.369 201.681 120.575 196.463 126.997 195.111C132.1 194.033 137.324 195.282 141.297 198.516C145.287 201.75 147.565 206.541 147.565 211.674C147.565 216.294 145.732 220.606 142.393 223.822C141.057 225.106 140.132 226.902 139.721 228.938H183.477V190.799H185.275C189.214 190.799 193.136 192.168 195.876 194.991C198.188 197.387 201.425 198.875 205.021 198.875C212.984 198.875 219.235 191.603 217.505 183.356C216.495 178.531 212.573 174.63 207.744 173.637C203.154 172.696 198.873 174.219 195.996 177.128C193.084 180.054 188.974 181.44 184.847 181.44H183.477V138.834H69.1641C69.6094 140.956 70.5856 142.838 71.9556 144.207C76.0315 148.245 77.7611 154.063 76.5966 159.744C75.2608 166.177 70.0547 171.396 63.6326 172.747C62.4338 173.004 61.2179 173.124 60.0362 173.124C56.1487 173.124 52.3811 171.824 49.3328 169.343C45.3425 166.109 43.0648 161.318 43.0648 156.185C43.0648 151.565 44.8973 147.253 48.2367 144.036C49.5897 142.719 50.5316 140.888 50.9255 138.817H3.33361C0.713409 152.164 0.4394 160.89 0.4394 160.89C-1.34165 185.803 2.46021 208.748 8.79666 228.921H121.465H121.448Z" fill="#ED8ECD"/>
<path d="M72.5041 176.18L75.2641 178.25L70.5241 184.34C71.4841 183.95 71.9941 183.83 72.8641 183.83C76.3441 183.83 79.0741 186.74 79.0741 190.43C79.0741 194.6 75.9541 197.51 71.4541 197.51C67.0441 197.51 63.8941 194.66 63.8941 190.64C63.8941 188.72 64.7941 186.5 66.4141 184.31L72.5041 176.18ZM71.5141 186.95C69.4441 186.95 67.7941 188.63 67.7941 190.67C67.7941 192.77 69.4141 194.42 71.5141 194.42C73.5241 194.42 75.1741 192.77 75.1741 190.73C75.1741 188.6 73.5841 186.95 71.5141 186.95Z" fill="white"/>
<path d="M217.522 52.7174C216.512 47.8923 212.59 43.9911 207.761 42.9987C203.171 42.0576 198.89 43.5804 196.012 46.4892C193.101 49.4151 188.991 50.8011 184.864 50.8011H183.494V0C50.925 0 14.2935 89.0601 4.18945 134.642H55.3091V136.456C55.3091 140.392 53.9391 144.31 51.1134 147.048C48.7158 149.357 47.2259 152.591 47.2259 156.185C47.2259 164.141 54.5042 170.386 62.7588 168.658C67.5881 167.649 71.4928 163.73 72.4861 158.905C73.428 154.32 71.9038 150.042 68.9924 147.167C66.064 144.259 64.6768 140.152 64.6768 136.028V134.66H183.494V60.1776H185.292C189.231 60.1776 193.153 61.5464 195.893 64.3697C198.205 66.7651 201.441 68.2538 205.038 68.2538C213.001 68.2538 219.252 60.9818 217.522 52.7345V52.7174Z" fill="#E351A4"/>
<path d="M87.6441 60.38H78.3741V56.99H93.7941L81.6441 77.57L78.4941 75.71L87.6441 60.38Z" fill="white"/>
</svg>
