<svg width="246" height="240" viewBox="0 0 246 240" fill="none" xmlns="http://www.w3.org/2000/svg">
<path d="M0.472501 57.449C-0.475086 20.4889 34.3606 -7.20742 70.058 2.38747C79.0269 4.79941 87.8778 7.71443 96.594 11.1463C126.663 22.9686 153.83 40.2868 177.344 62.6211C200.852 84.9537 219.537 111.204 232.881 140.632C236.749 149.163 240.119 157.853 242.983 166.687C254.392 201.854 228.517 238.06 191.562 239.004C167.114 239.631 144.966 224.247 137.426 200.979C122.957 156.351 86.5267 121.742 41.221 109.571C17.6023 103.229 1.1054 81.8954 0.479965 57.4449L0.472501 57.449Z" fill="url(#paint0_linear_4613_26610)"/>
<defs>
<linearGradient id="paint0_linear_4613_26610" x1="57.2092" y1="33.9133" x2="233.678" y2="231.216" gradientUnits="userSpaceOnUse">
<stop stop-color="white"/>
<stop offset="1" stop-color="#DD2A88"/>
</linearGradient>
</defs>
</svg>
