<svg width="35" height="35" viewBox="0 0 35 35" fill="none" xmlns="http://www.w3.org/2000/svg">
<path d="M6.19792 0.4375H28.8021C32.2292 0.4375 35 3.20833 35 6.63542V28.3646C35 31.7917 32.2292 34.5625 28.8021 34.5625H6.19792C2.77083 34.5625 0 31.7917 0 28.3646V6.63542C0 3.20833 2.77083 0.4375 6.19792 0.4375Z" fill="#00005B"/>
<path d="M14.0586 20.8543H8.63355L7.52522 24.296C7.49605 24.4272 7.37939 24.5147 7.24814 24.5001H4.50647C4.34606 24.5001 4.3023 24.4126 4.34605 24.2376L9.04189 10.7772C9.08564 10.6314 9.12939 10.5001 9.18772 10.3251C9.24605 10.0189 9.27522 9.69805 9.27522 9.37721C9.26064 9.3043 9.31897 9.23138 9.39189 9.2168H9.43564H13.169C13.2711 9.2168 13.344 9.26055 13.3586 9.33346L18.6815 24.2085C18.7252 24.3689 18.6815 24.4418 18.5356 24.4418H15.4877C15.3856 24.4564 15.2836 24.3835 15.2544 24.2814L14.0586 20.7814V20.8543ZM9.47939 17.9522H13.1836C13.0961 17.646 12.9794 17.2814 12.8481 16.9022C12.7169 16.5085 12.5856 16.0855 12.4544 15.648C12.3086 15.196 12.1773 14.7585 12.0315 14.3064C11.8856 13.8543 11.7544 13.4314 11.6377 13.0085C11.5211 12.6001 11.419 12.221 11.3169 11.871H11.2877C11.1565 12.498 10.9961 13.1251 10.7919 13.7522C10.5731 14.4522 10.3544 15.1814 10.1211 15.9105C9.93147 16.6543 9.69814 17.3397 9.47939 17.9522Z" fill="#9999FF"/>
<path d="M27.2703 19.5419H22.6474C22.7057 19.994 22.8516 20.446 23.0995 20.8398C23.362 21.2335 23.7266 21.5398 24.1641 21.7148C24.7474 21.9627 25.3891 22.094 26.0307 22.0794C26.5411 22.0648 27.0516 22.021 27.5474 21.919C27.9995 21.8606 28.437 21.744 28.8453 21.5835C28.9182 21.5252 28.962 21.5544 28.962 21.7002V23.9315C28.962 23.9898 28.9474 24.0481 28.9328 24.1065C28.9036 24.1502 28.8745 24.1794 28.8307 24.2085C28.3641 24.4127 27.8828 24.5585 27.3724 24.646C26.687 24.7773 26.0016 24.8356 25.3016 24.821C24.1932 24.821 23.2599 24.646 22.5016 24.3106C21.787 24.0044 21.1599 23.5231 20.6641 22.9252C20.1974 22.3565 19.862 21.7148 19.6578 21.0148C19.4536 20.3294 19.3516 19.6148 19.3516 18.8856C19.3516 18.0981 19.4682 17.3252 19.7161 16.5669C19.9495 15.8377 20.3141 15.1669 20.8099 14.569C21.2911 13.9856 21.8891 13.519 22.5745 13.1835C23.2599 12.8481 24.0766 12.7315 25.0099 12.7315C25.7828 12.7169 26.5557 12.8627 27.2703 13.1835C27.8682 13.446 28.3932 13.8398 28.8016 14.3502C29.1807 14.846 29.487 15.4002 29.6766 16.0127C29.8661 16.596 29.9536 17.194 29.9536 17.7919C29.9536 18.1419 29.9391 18.4481 29.9245 18.7252C29.8953 19.0023 29.8807 19.2065 29.8661 19.3377C29.8516 19.4398 29.7641 19.5273 29.662 19.5273C29.5745 19.5273 29.4141 19.5419 29.1807 19.5565C28.9474 19.5856 28.6703 19.6002 28.3349 19.6002C27.9995 19.6002 27.6495 19.5419 27.2703 19.5419ZM22.6474 17.4127H25.7245C26.1036 17.4127 26.3807 17.4127 26.5557 17.3981C26.6724 17.3835 26.7891 17.3544 26.8911 17.2815V17.1356C26.8911 16.946 26.862 16.771 26.8036 16.596C26.5411 15.7794 25.7682 15.2252 24.9078 15.2544C24.1057 15.2106 23.3474 15.6335 22.9682 16.3627C22.7932 16.6981 22.6911 17.0481 22.6474 17.4127Z" fill="#9999FF"/>
</svg>
