<svg width="35" height="35" viewBox="0 0 35 35" fill="none" xmlns="http://www.w3.org/2000/svg">
<g clip-path="url(#clip0_1308_6042)">
<path d="M6.19792 0.4375H28.8021C32.2292 0.4375 35 3.20833 35 6.63542V28.3646C35 31.7917 32.2292 34.5625 28.8021 34.5625H6.19792C2.77083 34.5625 0 31.7917 0 28.3646V6.63542C0 3.20833 2.77083 0.4375 6.19792 0.4375Z" fill="#330000"/>
<path d="M16.916 20.8538H11.491L10.3826 24.2809C10.3535 24.4121 10.2368 24.4996 10.1056 24.485H7.36389C7.20348 24.485 7.15973 24.3975 7.20348 24.2225L11.8993 10.7038C11.9431 10.5579 11.9868 10.3975 12.0451 10.2225C12.1035 9.91628 12.1326 9.59544 12.1326 9.27461C12.1181 9.20169 12.1764 9.12878 12.2493 9.11419H16.0264C16.1431 9.11419 16.2014 9.15794 16.216 9.23086L21.5389 24.2517C21.5826 24.4121 21.5389 24.485 21.3931 24.485H18.3451C18.2431 24.4996 18.141 24.4267 18.1118 24.3246L16.916 20.8538ZM12.3368 17.8934H16.041C15.9535 17.5871 15.8368 17.2225 15.7056 16.8434C15.5743 16.4496 15.4431 16.0267 15.3118 15.5892C15.166 15.1371 15.0347 14.6996 14.8889 14.2475C14.7431 13.7954 14.6118 13.3725 14.4951 12.9496C14.3785 12.5413 14.2764 12.1621 14.1743 11.8121H14.1451C14.0139 12.4392 13.8535 13.0663 13.6493 13.6934C13.4306 14.3934 13.2118 15.1225 12.9785 15.8517C12.7743 16.5954 12.5556 17.2809 12.3368 17.8934ZM24.791 11.6663C24.3097 11.6809 23.8431 11.4913 23.4931 11.1559C23.1576 10.7913 22.9826 10.31 22.9972 9.81419C22.9826 9.31836 23.1722 8.85169 23.5222 8.51628C23.8722 8.18086 24.3389 8.00586 24.8201 8.00586C25.3889 8.00586 25.8264 8.18086 26.1472 8.51628C26.4681 8.86628 26.6431 9.33294 26.6285 9.81419C26.6431 10.31 26.4681 10.7913 26.1181 11.1559C25.7826 11.5059 25.2868 11.6954 24.791 11.6663ZM23.1576 24.3246V13.0954C23.1576 12.9496 23.216 12.8913 23.3472 12.8913H26.2347C26.366 12.8913 26.4243 12.9642 26.4243 13.0954V24.3246C26.4243 24.485 26.366 24.5579 26.2347 24.5579H23.3764C23.2306 24.5579 23.1576 24.4704 23.1576 24.3246Z" fill="#FF9A00"/>
</g>
<defs>
<clipPath id="clip0_1308_6042">
<rect width="35" height="34.125" fill="white" transform="translate(0 0.4375)"/>
</clipPath>
</defs>
</svg>
