<svg width="62" height="26" viewBox="0 0 62 26" fill="none" xmlns="http://www.w3.org/2000/svg">
<path fill-rule="evenodd" clip-rule="evenodd" d="M6.86287 12.4222L1 25.5542H4.83457L5.97443 22.771H11.867L13.0069 25.5542H16.8414L10.9639 12.4222H6.86287ZM8.94527 15.5185L9.94003 18.0155L10.9348 20.5129L8.95121 20.5176L6.96763 20.5226L7.95645 18.0205L8.94527 15.5185ZM35.2993 12.4222L29.4364 25.5542H33.271L34.4108 22.771H40.3034L41.4433 25.5542H45.2778L39.4003 12.4222H35.2993ZM37.3817 15.5185L38.3764 18.0155L39.3712 20.5129L37.3876 20.5176L35.404 20.5226L36.3929 18.0205L37.3817 15.5185ZM46.2808 12.377H50.6357L53.4204 16.5644L56.3726 12.377H60.6648L55.4932 18.7419L60.9998 25.5995H56.6448L53.4832 21.1288L50.3845 25.5995H45.7364L51.3476 18.8047L46.2808 12.377Z" fill="#8C96A1"/>
<path d="M27.8566 6.81934L22.6433 11.947L24.438 13.5709L26.1357 11.8641L26.3252 11.8644V21.656C26.3252 22.899 25.3245 23.8997 24.0815 23.8997H22.2986C21.0556 23.8997 20.0549 22.899 20.0549 21.656V20.6109H16.5884V21.9124C16.5884 24.1597 18.3976 25.969 20.645 25.969H25.2507C27.4981 25.969 29.3073 24.1597 29.3073 21.9124V11.8713L29.4415 11.8716L31.4247 13.571L32.9843 11.947L27.8566 6.81934Z" fill="#8C96A1"/>
<path d="M18.2956 19.5325L23.509 14.4048L21.7143 12.7809L20.0165 14.4877L19.827 14.4874V4.69583C19.827 3.4528 20.8278 2.45207 22.0708 2.45207H23.8536C25.0966 2.45207 26.0974 3.4528 26.0974 4.69583V5.74094H29.5639V4.4394C29.5639 2.19206 27.7546 0.382812 25.5073 0.382812H20.9015C18.6542 0.382812 16.8449 2.19206 16.8449 4.4394V14.4805L16.7108 14.4802L14.7275 12.7809L13.168 14.4048L18.2956 19.5325Z" fill="#8C96A1"/>
<path fill-rule="evenodd" clip-rule="evenodd" d="M20.9023 0.0625C18.6549 0.0625 16.8457 1.87175 16.8457 4.11909V14.1602L16.7115 14.1599L14.7283 12.4606L13.1687 14.0845L18.2964 19.2122L23.5097 14.0845L21.715 12.4606L20.0173 14.1674L19.8278 14.1671V4.37552C19.8278 3.13249 20.8285 2.13176 22.0715 2.13176H23.8543C25.0974 2.13176 26.0981 3.13249 26.0981 4.37552V5.42063H29.5646V4.11909C29.5646 1.87175 27.7554 0.0625 25.508 0.0625H20.9023ZM27.8572 6.49888L22.6438 11.6265L24.4385 13.2505L26.1363 11.5437L26.3258 11.544V21.3355C26.3258 22.5785 25.325 23.5793 24.082 23.5793H22.2992C21.0562 23.5793 20.0554 22.5785 20.0554 21.3355V20.2904H16.5889V21.5919C16.5889 23.8393 18.3982 25.6485 20.6455 25.6485H25.2513C27.4986 25.6485 29.3079 23.8393 29.3079 21.5919V11.5509L29.442 11.5512L31.4253 13.2505L32.9848 11.6265L27.8572 6.49888ZM46.2813 12.0565L51.348 18.4845L45.7369 25.2792H50.3849L53.4836 20.8083L56.6452 25.2792H61.0004L55.4938 18.4216L60.6652 12.0565H56.3731L53.421 16.2441L50.6363 12.0565H46.2813ZM6.86336 12.1019L1.00049 25.2339H4.83506L5.97492 22.4507H11.8675L13.0074 25.2339H16.8419L10.9644 12.1019H6.86336ZM35.2999 12.1019L29.437 25.2339H33.2716L34.4114 22.4507H40.304L41.4439 25.2339H45.2785L39.4009 12.1019H35.2999ZM8.94575 15.1981L9.94052 17.6952L10.9353 20.1925L8.9517 20.1972L6.96812 20.2022L7.95694 17.7002L8.94575 15.1981ZM37.3823 15.1981L38.377 17.6952L39.3718 20.1925L37.3882 20.1972L35.4046 20.2022L36.3935 17.7002L37.3823 15.1981Z" fill="url(#paint0_linear_1361_4652)" stroke="#0C4C75" stroke-width="0.0800561"/>
<defs>
<linearGradient id="paint0_linear_1361_4652" x1="25.0925" y1="-0.142083" x2="25.0925" y2="25.5691" gradientUnits="userSpaceOnUse">
<stop stop-color="#70B0DF"/>
<stop offset="0.5" stop-color="#1B81C5"/>
<stop offset="1" stop-color="#4A98CE"/>
</linearGradient>
</defs>
</svg>
