<svg width="36" height="36" viewBox="0 0 36 36" fill="none" xmlns="http://www.w3.org/2000/svg">
<rect x="0.5" y="0.5" width="35" height="35" rx="2.37288" fill="#1B1B1B"/>
<path d="M12.7633 16.0845C12.7633 16.3726 12.7952 16.6062 12.8511 16.7775C12.9149 16.9488 12.9948 17.1357 13.1065 17.3382C13.1464 17.4005 13.1624 17.4627 13.1624 17.5173C13.1624 17.5951 13.1145 17.673 13.0107 17.7508L12.5079 18.0779C12.436 18.1246 12.3642 18.148 12.3003 18.148C12.2205 18.148 12.1407 18.109 12.0609 18.0389C11.9491 17.9221 11.8533 17.7976 11.7735 17.673C11.6937 17.5406 11.6139 17.3927 11.5261 17.2136C10.9034 17.9299 10.1212 18.2881 9.1793 18.2881C8.5088 18.2881 7.97399 18.1012 7.58287 17.7275C7.19174 17.3537 6.99219 16.8554 6.99219 16.2325C6.99219 15.5706 7.23165 15.0334 7.71856 14.6285C8.20547 14.2236 8.85203 14.0211 9.67419 14.0211C9.94558 14.0211 10.225 14.0445 10.5203 14.0834C10.8156 14.1224 11.119 14.1847 11.4382 14.2547V13.6863C11.4382 13.0946 11.3105 12.6819 11.0631 12.4405C10.8077 12.1991 10.3766 12.0823 9.76199 12.0823C9.48262 12.0823 9.19526 12.1135 8.89992 12.1835C8.60458 12.2536 8.31723 12.3393 8.03785 12.4483C7.91014 12.5028 7.81435 12.5339 7.75847 12.5495C7.7026 12.5651 7.66269 12.5729 7.63076 12.5729C7.51901 12.5729 7.46313 12.495 7.46313 12.3315V11.9499C7.46313 11.8254 7.4791 11.7319 7.51901 11.6774C7.55892 11.6229 7.63076 11.5684 7.74251 11.5139C8.02189 11.3737 8.35714 11.257 8.74826 11.1635C9.13939 11.0623 9.55446 11.0156 9.99348 11.0156C10.9434 11.0156 11.6378 11.2258 12.0848 11.6463C12.5238 12.0667 12.7473 12.7052 12.7473 13.5617V16.0845H12.7633ZM9.52253 17.2681C9.78594 17.2681 10.0573 17.2214 10.3447 17.1279C10.632 17.0345 10.8875 16.8632 11.103 16.6296C11.2307 16.4817 11.3265 16.3181 11.3744 16.1313C11.4223 15.9444 11.4542 15.7186 11.4542 15.4538V15.1268C11.2227 15.0723 10.9753 15.0256 10.7199 14.9944C10.4644 14.9633 10.217 14.9477 9.96953 14.9477C9.43473 14.9477 9.0436 15.049 8.78019 15.2592C8.51678 15.4694 8.38906 15.7653 8.38906 16.1546C8.38906 16.5206 8.48485 16.7931 8.6844 16.98C8.87598 17.1746 9.15535 17.2681 9.52253 17.2681ZM15.9322 18.109C15.7885 18.109 15.6927 18.0857 15.6289 18.0312C15.565 17.9844 15.5091 17.8754 15.4613 17.7275L13.5854 11.7086C13.5376 11.5528 13.5136 11.4516 13.5136 11.3971C13.5136 11.2725 13.5775 11.2024 13.7052 11.2024H14.4874C14.6391 11.2024 14.7429 11.2258 14.7987 11.2803C14.8626 11.327 14.9105 11.436 14.9584 11.584L16.2994 16.7386L17.5446 11.584C17.5845 11.4283 17.6324 11.327 17.6963 11.2803C17.7601 11.2336 17.8719 11.2024 18.0155 11.2024H18.6541C18.8058 11.2024 18.9095 11.2258 18.9734 11.2803C19.0373 11.327 19.0931 11.436 19.1251 11.584L20.3862 16.8009L21.7672 11.584C21.815 11.4283 21.8709 11.327 21.9268 11.2803C21.9907 11.2336 22.0944 11.2024 22.2381 11.2024H22.9804C23.1082 11.2024 23.18 11.2647 23.18 11.3971C23.18 11.436 23.172 11.475 23.164 11.5217C23.156 11.5684 23.1401 11.6307 23.1082 11.7164L21.1845 17.7353C21.1366 17.891 21.0807 17.9922 21.0168 18.0389C20.953 18.0857 20.8492 18.1168 20.7135 18.1168H20.027C19.8754 18.1168 19.7716 18.0934 19.7078 18.0389C19.6439 17.9844 19.588 17.8832 19.5561 17.7275L18.3189 12.7052L17.0896 17.7197C17.0497 17.8754 17.0018 17.9767 16.938 18.0312C16.8741 18.0857 16.7623 18.109 16.6187 18.109H15.9322ZM26.1893 18.3193C25.7742 18.3193 25.3591 18.2725 24.96 18.1791C24.5609 18.0857 24.2496 17.9844 24.0421 17.8676C23.9144 17.7976 23.8266 17.7197 23.7946 17.6496C23.7627 17.5795 23.7467 17.5017 23.7467 17.4316V17.0345C23.7467 16.871 23.8106 16.7931 23.9303 16.7931C23.9782 16.7931 24.0261 16.8009 24.074 16.8165C24.1219 16.832 24.1937 16.8632 24.2736 16.8943C24.5449 17.0111 24.8403 17.1046 25.1516 17.1669C25.4709 17.2292 25.7822 17.2603 26.1015 17.2603C26.6043 17.2603 26.9955 17.1746 27.2669 17.0033C27.5383 16.832 27.6819 16.5829 27.6819 16.2636C27.6819 16.0456 27.6101 15.8665 27.4664 15.7186C27.3227 15.5706 27.0513 15.4383 26.6602 15.3137L25.5028 14.9633C24.9201 14.7842 24.4891 14.5195 24.2257 14.1691C23.9622 13.8265 23.8265 13.4449 23.8265 13.04C23.8265 12.713 23.8984 12.4249 24.0421 12.1758C24.1857 11.9266 24.3773 11.7086 24.6168 11.5373C24.8562 11.3582 25.1276 11.2258 25.4469 11.1324C25.7662 11.0389 26.1015 11 26.4527 11C26.6283 11 26.8119 11.0078 26.9875 11.0311C27.1711 11.0545 27.3387 11.0857 27.5063 11.1168C27.666 11.1557 27.8176 11.1947 27.9613 11.2414C28.105 11.2881 28.2167 11.3348 28.2966 11.3815C28.4083 11.4438 28.4881 11.5061 28.536 11.5762C28.5839 11.6385 28.6079 11.7241 28.6079 11.8331V12.1991C28.6079 12.3626 28.544 12.4483 28.4243 12.4483C28.3604 12.4483 28.2566 12.4171 28.1209 12.3548C27.666 12.1524 27.1551 12.0512 26.5884 12.0512C26.1334 12.0512 25.7742 12.1212 25.5267 12.2692C25.2793 12.4171 25.1516 12.6429 25.1516 12.9622C25.1516 13.1802 25.2314 13.3671 25.3911 13.515C25.5507 13.663 25.846 13.8109 26.2691 13.9433L27.4026 14.2937C27.9773 14.4728 28.3923 14.7219 28.6398 15.0412C28.8872 15.3604 29.007 15.7264 29.007 16.1313C29.007 16.4661 28.9351 16.7698 28.7994 17.0345C28.6558 17.2992 28.4642 17.5328 28.2167 17.7197C27.9693 17.9144 27.6739 18.0545 27.3307 18.1557C26.9715 18.2648 26.5964 18.3193 26.1893 18.3193Z" fill="white"/>
<path fill-rule="evenodd" clip-rule="evenodd" d="M27.698 22.1035C25.0719 23.9956 21.2564 25.0001 17.9758 25.0001C13.3781 25.0001 9.23532 23.3416 6.10632 20.5852C5.85888 20.3671 6.08238 20.0713 6.37772 20.2426C9.76215 22.158 13.9368 23.3182 18.2551 23.3182C21.1686 23.3182 24.3695 22.7264 27.3149 21.5118C27.7539 21.3171 28.1291 21.7921 27.698 22.1035Z" fill="#FF9900"/>
<path fill-rule="evenodd" clip-rule="evenodd" d="M28.7916 20.8883C28.4564 20.4679 26.5726 20.6859 25.7185 20.7871C25.4631 20.8182 25.4232 20.6002 25.6547 20.4367C27.1553 19.4089 29.6218 19.7048 29.9091 20.0474C30.1965 20.3978 29.8293 22.8038 28.4245 23.9562C28.209 24.1353 28.0014 24.0418 28.0972 23.8082C28.4165 23.0374 29.1269 21.301 28.7916 20.8883Z" fill="#FF9900"/>
</svg>
