<svg width="45" height="37" viewBox="0 0 45 37" fill="none" xmlns="http://www.w3.org/2000/svg">
<path fill-rule="evenodd" clip-rule="evenodd" d="M9.34664 0.660156C6.779 0.660156 4.87907 2.91708 4.96415 5.36467C5.0458 7.71613 4.93972 10.7616 4.1763 13.2452C3.41016 15.7358 2.11535 17.314 0 17.5166V19.8037C2.11535 20.0067 3.41016 21.5842 4.17621 24.0751C4.93972 26.5587 5.04571 29.6042 4.96406 31.9556C4.87898 34.4029 6.77892 36.6602 9.34699 36.6602H35.6568C38.2244 36.6602 40.124 34.4032 40.0389 31.9556C39.9573 29.6042 40.0634 26.5587 40.8268 24.0751C41.5929 21.5842 42.8846 20.0061 45 19.8037V17.5166C42.8846 17.3136 41.593 15.7361 40.8268 13.2452C40.0633 10.762 39.9573 7.71613 40.0389 5.36467C40.124 2.91744 38.2244 0.660156 35.6568 0.660156H9.34629H9.34664ZM30.5085 22.8205C30.5085 26.1907 28.0053 28.2347 23.8511 28.2347H16.7796C16.5774 28.2347 16.3834 28.154 16.2403 28.0103C16.0973 27.8667 16.0169 27.6719 16.0169 27.4687V9.85169C16.0169 9.64855 16.0973 9.45372 16.2403 9.31007C16.3834 9.16643 16.5774 9.08573 16.7796 9.08573H23.8109C27.2747 9.08573 29.548 10.97 29.548 13.863C29.548 15.8935 28.0187 17.7113 26.0705 18.0298V18.1357C28.7227 18.4278 30.5085 20.2726 30.5085 22.8205ZM23.0801 11.5138H19.048V17.2334H22.444C25.0693 17.2334 26.5169 16.1717 26.5169 14.2741C26.5166 12.4957 25.2721 11.5138 23.0801 11.5138ZM19.048 19.5027V25.8058H23.2284C25.9618 25.8058 27.4097 24.7043 27.4097 22.6344C27.4097 20.5644 25.9212 19.5024 23.0527 19.5024H19.048V19.5027Z" fill="#563D7C"/>
</svg>
