<svg width="36" height="43" viewBox="0 0 36 43" fill="none" xmlns="http://www.w3.org/2000/svg">
<path d="M2.5501 27.255C2.58364 27.3308 2.62156 27.4008 2.66239 27.4708C2.68135 27.5117 2.7076 27.5539 2.73093 27.5919C2.76885 27.6677 2.80968 27.7406 2.84906 27.8135L3.07802 28.1985C3.12031 28.27 3.16115 28.34 3.20927 28.41C3.28948 28.5471 3.38427 28.6812 3.4674 28.8183C3.50532 28.8752 3.54032 28.9321 3.58261 28.989C3.74303 29.2383 3.88886 29.4454 4.04491 29.6467C4.15574 29.7969 4.26658 29.9442 4.38616 30.0915C4.42553 30.1469 4.46929 30.2023 4.51012 30.2577L4.83241 30.6486C4.87179 30.6938 4.91117 30.7463 4.95346 30.7929C5.09638 30.965 5.24804 31.1313 5.39971 31.3004C5.39971 31.3034 5.40409 31.3063 5.407 31.3107C5.59513 31.5469 5.79784 31.7569 6.01951 31.9436L6.02534 31.9494C6.14201 32.069 6.25868 32.1871 6.38264 32.3038L6.52993 32.4452C6.69181 32.5969 6.85369 32.7471 7.02431 32.893C7.02723 32.893 7.02869 32.8959 7.0316 32.8973L7.11473 32.9702C7.26348 33.1 7.41369 33.2284 7.56682 33.348L7.74911 33.5011C7.87307 33.6003 8.00141 33.6936 8.12828 33.7913L8.32662 33.943C8.46224 34.045 8.60662 34.1442 8.74516 34.2434C8.79621 34.2798 8.84725 34.3163 8.89975 34.3498L8.94204 34.3834L9.35184 34.6517L9.52684 34.7684C9.74122 34.9055 9.95414 35.0338 10.1671 35.1621C10.2283 35.1928 10.2896 35.2263 10.3464 35.2613C10.5039 35.3517 10.6673 35.4436 10.8262 35.5267C10.9137 35.5763 11.0041 35.6186 11.0946 35.6638C11.2039 35.7251 11.3177 35.7849 11.4344 35.8461C11.4664 35.8563 11.4927 35.8665 11.5189 35.8811L11.5248 35.8753C11.5729 35.8972 11.6181 35.9205 11.6648 35.9438C11.8398 36.0313 12.0221 36.1144 12.2117 36.1961C12.2467 36.2107 12.2846 36.2253 12.3225 36.2457C12.5325 36.3376 12.7425 36.4251 12.9598 36.5097C13.0094 36.5242 13.0619 36.549 13.1129 36.568C13.3098 36.6424 13.5125 36.7182 13.7138 36.7897L13.7867 36.8159C14.0098 36.8917 14.23 36.9647 14.4575 37.0332C14.51 37.0478 14.564 37.0667 14.6194 37.0813C14.8513 37.1513 15.0759 37.2345 15.3107 37.2782C30.2923 39.9951 34.6454 28.3152 34.6454 28.3152C30.9879 33.0548 24.4968 34.3046 18.3498 32.9134C18.1223 32.8609 17.8948 32.788 17.6644 32.7209C17.3392 32.6288 17.0168 32.5272 16.6975 32.4161L16.8361 32.4584L16.7457 32.4234C16.5473 32.3563 16.3563 32.2819 16.1623 32.2075C16.1149 32.1874 16.0667 32.1689 16.018 32.1521L16.0019 32.1477C15.7875 32.0617 15.579 31.9742 15.3719 31.8823C15.3267 31.8677 15.2888 31.8473 15.2436 31.8298C14.9983 31.7229 14.7552 31.6111 14.5144 31.4944L14.7156 31.5834C14.6631 31.5601 14.6116 31.5348 14.5611 31.5075C14.424 31.4434 14.2869 31.3704 14.1527 31.3019C14.0505 31.2535 13.9499 31.2019 13.8508 31.1473L13.88 31.1619C13.7152 31.0744 13.5504 30.9796 13.3842 30.8906C13.3346 30.8556 13.2777 30.8265 13.2208 30.7944C12.9737 30.6508 12.7296 30.502 12.4887 30.3481L12.5806 30.4036C12.5189 30.3654 12.4586 30.3251 12.3998 30.2825L12.4085 30.2883C12.2518 30.1921 12.0981 30.0909 11.9477 29.985C11.8981 29.9529 11.8529 29.9179 11.8019 29.8829C11.6447 29.7757 11.4901 29.6648 11.3381 29.5504L11.3731 29.5752C11.3119 29.5256 11.2462 29.479 11.1806 29.4308C11.0523 29.3302 10.9225 29.234 10.7941 29.129L10.6221 28.9919C10.4387 28.846 10.2587 28.6957 10.0825 28.5413L10.081 28.5398L9.57497 28.0804L9.42913 27.9433C9.30955 27.8223 9.18704 27.7071 9.06454 27.5875L8.92308 27.4417C8.7721 27.2921 8.62476 27.139 8.4812 26.9823L8.47245 26.9721L8.44766 26.9517C8.29325 26.7821 8.14108 26.6105 7.9912 26.4369C7.95182 26.3916 7.91536 26.3435 7.87453 26.2954L7.54348 25.8944C7.39426 25.7069 7.2484 25.5168 7.10598 25.3241L7.04765 25.2425C3.63803 20.6108 2.40426 14.2188 5.13283 8.97461L2.72364 12.0211C-0.375349 16.453 0.00819653 22.2164 2.37801 26.9225C2.43197 27.0377 2.49176 27.1456 2.5501 27.255Z" fill="#1266A9"/>
<path d="M12.9882 20.8699L12.9721 20.8466L12.959 20.8291L12.9882 20.8699Z" fill="black"/>
<path d="M14.6183 22.7838L14.7496 22.9151C14.9158 23.0755 15.0865 23.2315 15.26 23.3876L15.2819 23.4065C15.4569 23.5611 15.6538 23.723 15.8565 23.8805L15.8871 23.9038C15.9367 23.9374 15.979 23.9767 16.0271 24.0103C16.2313 24.1678 16.4369 24.318 16.6513 24.4682L16.6731 24.4813C16.7636 24.547 16.8598 24.6068 16.9619 24.6709C17.0027 24.6972 17.0494 24.7322 17.0931 24.7584C17.2477 24.8576 17.3994 24.9495 17.5554 25.0443C17.5802 25.0545 17.6021 25.0676 17.6254 25.0778C17.7567 25.158 17.8996 25.2353 18.0367 25.3053C18.0848 25.3345 18.1315 25.3563 18.1811 25.3841C18.2788 25.4322 18.375 25.4832 18.4684 25.5328L18.515 25.5532C18.7119 25.6495 18.9132 25.7399 19.11 25.8288C19.1596 25.8478 19.2019 25.8638 19.2442 25.8843C19.4061 25.9543 19.5709 26.0213 19.7328 26.0826C19.8057 26.1074 19.8742 26.1366 19.9428 26.1584C20.0915 26.2139 20.2476 26.2649 20.3948 26.3159L20.599 26.3816C20.8119 26.4472 21.0278 26.5332 21.2538 26.5682C32.8229 28.4728 35.5004 19.6105 35.5004 19.6105C33.0898 23.0624 28.4245 24.7074 23.453 23.4226C23.2048 23.36 22.9587 23.2895 22.7151 23.2111L22.7982 23.2344C22.7282 23.2155 22.667 23.1936 22.5999 23.1732C22.4482 23.1207 22.2922 23.0697 22.1449 23.0157L21.9349 22.9369C21.7715 22.8713 21.6053 22.8101 21.4463 22.7401C21.3967 22.7182 21.3515 22.7036 21.3136 22.6817C21.1094 22.5899 20.9038 22.4994 20.704 22.4032L20.4036 22.2471L20.2301 22.1596C20.0959 22.0896 19.9719 22.0167 19.8436 21.9424C19.8109 21.927 19.7792 21.9094 19.7488 21.8898L19.7532 21.8913C19.5986 21.7951 19.4382 21.7017 19.2894 21.604C19.2398 21.5763 19.1946 21.5428 19.148 21.5136L18.8446 21.3167C18.6346 21.1709 18.429 21.0148 18.2205 20.8632C18.1738 20.8209 18.1286 20.7859 18.0834 20.748C15.8973 19.0373 14.1735 16.6996 13.3554 14.0527C12.4935 11.3008 12.6831 8.21492 14.1721 5.71094L12.3419 8.2893C10.0945 11.4991 10.2214 15.7896 11.9714 19.1846C12.2908 19.8117 12.6146 20.3411 12.9719 20.8457C13.3044 21.3211 13.6719 21.8782 14.1152 22.2603C14.2727 22.4396 14.4419 22.6103 14.6183 22.7838Z" fill="#1266A9"/>
<path d="M20.4287 5.4974C19.1031 7.43262 18.9762 9.83598 19.8891 11.9695C20.8589 14.2358 22.8408 16.015 25.1508 16.8579C25.2456 16.8944 25.3375 16.925 25.4352 16.96L25.5636 16.9994C25.6977 17.0417 25.8333 17.0913 25.9719 17.1219C32.3609 18.3484 34.0905 13.8581 34.5557 13.1975C33.0347 15.3704 30.484 15.8925 27.3544 15.1356C27.0823 15.0693 26.8144 14.9865 26.5523 14.8877L26.6004 14.9037C26.2743 14.7909 25.9549 14.6594 25.6438 14.51L25.6992 14.5348C25.1013 14.2431 24.5879 13.9281 24.111 13.5664C21.3139 11.4518 19.5843 7.42533 21.4102 4.14551L20.4287 5.4974Z" fill="#1266A9"/>
</svg>
