<svg width="35" height="40" viewBox="0 0 35 40" fill="none" xmlns="http://www.w3.org/2000/svg">
<path d="M35 0.15332L31.8114 35.8736L17.4786 39.8471L3.18521 35.8792L0 0.15332H35Z" fill="#264DE4"/>
<path d="M29.0816 33.5998L31.8065 3.0752H17.5V36.8107L29.0816 33.5998Z" fill="#2965F1"/>
<path d="M7.30273 16.3252L7.69545 20.7068H17.5007V16.3252H7.30273Z" fill="#EBEBEB"/>
<path d="M17.5007 7.45605H17.4856H6.51367L6.91198 11.8377H17.5007V7.45605Z" fill="#EBEBEB"/>
<path d="M17.5001 32.2623V27.7036L17.4809 27.7087L12.601 26.391L12.2891 22.8965H9.91787H7.89062L8.50449 29.7763L17.4799 32.2679L17.5001 32.2623Z" fill="#EBEBEB"/>
<path d="M22.8799 20.7062L22.3713 26.3888L17.4844 27.7078V32.2664L26.467 29.7769L26.5329 29.0366L27.5625 17.5012L27.6694 16.3246L28.4604 7.45605H17.4844V11.8377H23.6585L23.2598 16.3246H17.4844V20.7062H22.8799Z" fill="white"/>
</svg>
