<svg width="45" height="45" viewBox="0 0 45 45" fill="none" xmlns="http://www.w3.org/2000/svg">
<g clip-path="url(#clip0_1308_6060)">
<path d="M20.8878 26.2096L28.6582 16.9492L27.058 15.6065L19.2876 24.8668L20.8878 26.2096Z" fill="black"/>
<path d="M28.6593 16.9498L36.4297 7.68945L34.8294 6.34668L27.0591 15.607L28.6593 16.9498Z" fill="#0019FF"/>
<path d="M28.7606 17.0608L36.6914 7.9375L35.1148 6.56701L27.184 15.6903L28.7606 17.0608Z" fill="#0015FF"/>
<path d="M28.8624 17.174L36.9512 8.19043L35.3988 6.79263L27.3099 15.7762L28.8624 17.174Z" fill="#0011FF"/>
<path d="M28.9607 17.2883L37.2051 8.44727L35.6773 7.02259L27.4329 15.8636L28.9607 17.2883Z" fill="#000CFF"/>
<path d="M29.0577 17.4048L37.4551 8.70898L35.9524 7.25786L27.555 15.9536L29.0577 17.4048Z" fill="#0008FF"/>
<path d="M29.1533 17.5235L37.7012 8.97559L36.224 7.49846L27.6761 16.0463L29.1533 17.5235Z" fill="#0004FF"/>
<path d="M29.2456 17.6425L37.9414 9.24512L36.4903 7.74243L27.7945 16.1398L29.2456 17.6425Z" fill="#0000FF"/>
<path d="M29.3367 17.7639L38.1777 9.51953L36.7531 7.99175L27.9121 16.2361L29.3367 17.7639Z" fill="#0500FF"/>
<path d="M29.4247 17.8867L38.4082 9.79785L37.0104 8.24544L28.0269 16.3343L29.4247 17.8867Z" fill="#0900FF"/>
<path d="M29.5114 18.0119L38.6348 10.0811L37.2643 8.50448L28.1409 16.4353L29.5114 18.0119Z" fill="#0D00FF"/>
<path d="M29.5951 18.1376L38.8555 10.3672L37.5127 8.76694L28.2523 16.5373L29.5951 18.1376Z" fill="#1100FF"/>
<path d="M29.6777 18.2638L39.0723 10.6562L37.7576 9.03281L28.3631 16.6404L29.6777 18.2638Z" fill="#1600FF"/>
<path d="M29.7573 18.3936L39.2832 10.9512L37.9971 9.30504L28.4712 16.7475L29.7573 18.3936Z" fill="#1A00FF"/>
<path d="M29.8359 18.5231L39.4902 11.248L38.2331 9.57972L28.5787 16.8548L29.8359 18.5231Z" fill="#1E00FF"/>
<path d="M29.9096 18.6543L39.6895 11.5488L38.4616 9.85881L28.6817 16.9643L29.9096 18.6543Z" fill="#2200FF"/>
<path d="M29.9844 18.7872L39.8867 11.8535L38.6885 10.1423L28.7862 17.076L29.9844 18.7872Z" fill="#2700FF"/>
<path d="M30.0543 18.9219L40.0762 12.1621L38.908 10.4303L28.8862 17.1901L30.0543 18.9219Z" fill="#2B00FF"/>
<path d="M30.1215 19.0565L40.2598 12.4727L39.122 10.7207L28.9837 17.3046L30.1215 19.0565Z" fill="#2F00FF"/>
<path d="M30.1878 19.1931L40.4395 12.7871L39.3325 11.0156L29.0808 17.4215L30.1878 19.1931Z" fill="#3300FF"/>
<path d="M30.2514 19.3306L40.6133 13.1045L39.5374 11.3139L29.1755 17.54L30.2514 19.3306Z" fill="#3800FF"/>
<path d="M30.3123 19.4691L40.7812 13.4248L39.7368 11.6157L29.2678 17.66L30.3123 19.4691Z" fill="#3C00FF"/>
<path d="M30.3724 19.6087L40.9453 13.748L39.9326 11.921L29.3597 17.7816L30.3724 19.6087Z" fill="#4000FF"/>
<path d="M30.428 19.7494L41.1016 14.0742L40.1208 12.2298L29.4473 17.905L30.428 19.7494Z" fill="#4400FF"/>
<path d="M30.481 19.8904L41.252 14.4023L40.3036 12.5411L29.5326 18.0291L30.481 19.8904Z" fill="#4800FF"/>
<path d="M30.5333 20.0336L41.3984 14.7344L40.4827 12.8568L29.6176 18.1561L30.5333 20.0336Z" fill="#4D00FF"/>
<path d="M30.5812 20.1772L41.5371 15.0684L40.6543 13.1751L29.6983 18.2839L30.5812 20.1772Z" fill="#5100FF"/>
<path d="M30.6284 20.3212L41.6719 15.4043L40.8222 13.4959L29.7788 18.4128L30.6284 20.3212Z" fill="#5500FF"/>
<path d="M30.6713 20.4665L41.7988 15.7432L40.9826 13.8203L29.855 18.5436L30.6713 20.4665Z" fill="#5900FF"/>
<path d="M30.7116 20.6124L41.9199 16.084L41.1374 14.1471L29.9291 18.6756L30.7116 20.6124Z" fill="#5E00FF"/>
<path d="M30.7515 20.7589L42.0371 16.4268L41.2885 14.4765L30.0029 18.8087L30.7515 20.7589Z" fill="#6200FF"/>
<path d="M30.787 20.906L42.1465 16.7715L41.432 14.8085L30.0725 18.943L30.787 20.906Z" fill="#6600FF"/>
<path d="M30.822 21.0538L42.252 17.1182L41.5718 15.143L30.1419 19.0786L30.822 21.0538Z" fill="#6A00FF"/>
<path d="M30.8527 21.2014L42.3496 17.4658L41.7041 15.4791L30.2072 19.2147L30.8527 21.2014Z" fill="#6F00FF"/>
<path d="M30.8811 21.3508L42.4414 17.8164L41.8306 15.8187L30.2703 19.3531L30.8811 21.3508Z" fill="#7300FF"/>
<path d="M30.9071 21.5L42.5273 18.168L41.9515 16.1599L30.3313 19.492L30.9071 21.5Z" fill="#7700FF"/>
<path d="M30.9288 21.6493L42.6055 18.5205L42.0648 16.5027L30.3882 19.6315L30.9288 21.6493Z" fill="#7B00FF"/>
<path d="M30.9502 21.7995L42.6797 18.875L42.1743 16.8481L30.4449 19.7726L30.9502 21.7995Z" fill="#8000FF"/>
<path d="M30.9674 21.9498L42.7461 19.2305L42.2762 17.195L30.4975 19.9144L30.9674 21.9498Z" fill="#8400FF"/>
<path d="M30.9823 22.1003L42.8066 19.5869L42.3723 17.5436L30.5479 20.0569L30.9823 22.1003Z" fill="#8800FF"/>
<path d="M30.9949 22.2509L42.8613 19.9443L42.4627 17.8937L30.5963 20.2003L30.9949 22.2509Z" fill="#8C00FF"/>
<path d="M31.0053 22.4029L42.9102 20.3037L42.5474 18.2465L30.6425 20.3456L31.0053 22.4029Z" fill="#9100FF"/>
<path d="M31.0134 22.5542L42.9531 20.6631L42.6263 18.5998L30.6866 20.4909L31.0134 22.5542Z" fill="#9500FF"/>
<path d="M31.0174 22.7049L42.9883 21.0225L42.6976 18.9538L30.7267 20.6362L31.0174 22.7049Z" fill="#9900FF"/>
<path d="M31.0191 22.857L43.0176 21.3838L42.763 19.3104L30.7646 20.7836L31.0191 22.857Z" fill="#9D00FF"/>
<path d="M31.0187 23.0087L43.041 21.7451L42.8227 19.6676L30.8003 20.9312L31.0187 23.0087Z" fill="#A100FF"/>
<path d="M31.016 23.16L43.0586 22.1064L42.8765 20.0254L30.834 21.079L31.016 23.16Z" fill="#A600FF"/>
<path d="M31.0112 23.311L43.0703 22.4678L42.9246 20.3839L30.8655 21.2271L31.0112 23.311Z" fill="#AA00FF"/>
<path d="M31.0022 23.4618L43.0742 22.8291L42.9649 20.743L30.8929 21.3757L31.0022 23.4618Z" fill="#AE00FF"/>
<path d="M30.9911 23.6133L43.0723 23.1914L42.9994 21.1037L30.9182 21.5256L30.9911 23.6133Z" fill="#B200FF"/>
<path d="M30.9777 23.7647L43.0645 23.5537L43.028 21.4651L30.9413 21.676L30.9777 23.7647Z" fill="#B700FF"/>
<path d="M30.9603 23.915H43.0488V21.8261H30.9603V23.915Z" fill="#BB00FF"/>
<path d="M30.9426 24.0654L43.0293 24.2764L43.0658 22.1877L30.9791 21.9767L30.9426 24.0654Z" fill="#BF00FF"/>
<path d="M30.9208 24.2148L43.002 24.6367L43.0749 22.549L30.9937 22.1271L30.9208 24.2148Z" fill="#C300FF"/>
<path d="M30.8948 24.3644L42.9668 24.9971L43.0761 22.911L31.0041 22.2783L30.8948 24.3644Z" fill="#C800FF"/>
<path d="M30.8686 24.5132L42.9277 25.3564L43.0735 23.2726L31.0144 22.4293L30.8686 24.5132Z" fill="#CC00FF"/>
<path d="M30.8403 24.6622L42.8828 25.7158L43.0649 23.6348L31.0223 22.5812L30.8403 24.6622Z" fill="#D000FF"/>
<path d="M30.8078 24.8106L42.8301 26.0742L43.0484 23.9967L31.0261 22.7331L30.8078 24.8106Z" fill="#D400FF"/>
<path d="M30.773 24.9574L42.7715 26.4307L43.0261 24.3573L31.0276 22.884L30.773 24.9574Z" fill="#D900FF"/>
<path d="M30.7361 25.1047L42.707 26.7871L42.9978 24.7185L31.0269 23.0361L30.7361 25.1047Z" fill="#DD00FF"/>
<path d="M30.6951 25.2505L42.6348 27.1416L42.9616 25.0783L31.0218 23.1873L30.6951 25.2505Z" fill="#E100FF"/>
<path d="M30.6537 25.396L42.5586 27.4951L42.9213 25.4379L31.0164 23.3387L30.6537 25.396Z" fill="#E500FF"/>
<path d="M30.6082 25.5411L42.4746 27.8477L42.8732 25.7971L31.0068 23.4905L30.6082 25.5411Z" fill="#EA00FF"/>
<path d="M30.5623 25.6849L42.3867 28.1982L42.821 26.1549L30.9967 23.6416L30.5623 25.6849Z" fill="#EE00FF"/>
<path d="M30.5123 25.8275L42.291 28.5469L42.7609 26.5114L30.9822 23.7921L30.5123 25.8275Z" fill="#F200FF"/>
<path d="M30.46 25.97L42.1895 28.8945L42.6948 26.8676L30.9654 23.9431L30.46 25.97Z" fill="#F600FF"/>
<path d="M30.4034 26.1115L42.0801 29.2402L42.6207 27.2224L30.9441 24.0937L30.4034 26.1115Z" fill="#FA00FF"/>
<path d="M30.3465 26.251L41.9668 29.583L42.5426 27.575L30.9223 24.2429L30.3465 26.251Z" fill="#FF00FF"/>
<path d="M30.2873 26.3905L41.8477 29.9248L42.4584 27.9271L30.8981 24.3928L30.2873 26.3905Z" fill="#FF00FB"/>
<path d="M30.2258 26.5291L41.7227 30.2646L42.3682 28.2779L30.8713 24.5423L30.2258 26.5291Z" fill="#FF00F7"/>
<path d="M30.1599 26.6659L41.5898 30.6016L42.2699 28.6264L30.84 24.6908L30.1599 26.6659Z" fill="#FF00F3"/>
<path d="M30.0936 26.802L41.4531 30.9365L42.1676 28.9735L30.8081 24.839L30.0936 26.802Z" fill="#FF00EE"/>
<path d="M30.0249 26.9364L41.3105 31.2686L42.0592 29.3183L30.7735 24.9862L30.0249 26.9364Z" fill="#FF00EA"/>
<path d="M29.9538 27.0702L41.1621 31.5986L41.9447 29.6618L30.7364 25.1333L29.9538 27.0702Z" fill="#FF00E6"/>
<path d="M29.8783 27.2024L41.0059 31.9258L41.8221 30.0029L30.6945 25.2795L29.8783 27.2024Z" fill="#FF00E2"/>
<path d="M29.8023 27.3331L40.8457 32.25L41.6954 30.3416L30.6519 25.4248L29.8023 27.3331Z" fill="#FF00DD"/>
<path d="M29.7237 27.4624L40.6797 32.5713L41.5625 30.678L30.6066 25.5692L29.7237 27.4624Z" fill="#FF00D9"/>
<path d="M29.6427 27.5914L40.5078 32.8906L41.4236 31.0131L30.5584 25.7138L29.6427 27.5914Z" fill="#FF00D5"/>
<path d="M29.5611 27.717L40.332 33.2051L41.2804 31.3438L30.5094 25.8557L29.5611 27.717Z" fill="#FF00D1"/>
<path d="M29.4749 27.8423L40.1484 33.5176L41.1292 31.6731L30.4556 25.9979L29.4749 27.8423Z" fill="#FF00CC"/>
<path d="M29.3881 27.9665L39.9609 33.8271L40.9737 32.0001L30.4008 26.1394L29.3881 27.9665Z" fill="#FF00C8"/>
<path d="M29.2986 28.0885L39.7676 34.1328L40.8121 32.3237L30.3431 26.2794L29.2986 28.0885Z" fill="#FF00C4"/>
<path d="M29.2065 28.2095L39.5684 34.4355L40.6443 32.6449L30.2824 26.4189L29.2065 28.2095Z" fill="#FF00C0"/>
<path d="M29.1136 28.3284L39.3652 34.7344L40.4722 32.9628L30.2206 26.5569L29.1136 28.3284Z" fill="#FF00BB"/>
<path d="M29.0179 28.4454L39.1562 35.0293L40.294 33.2773L30.1557 26.6934L29.0179 28.4454Z" fill="#FF00B7"/>
<path d="M28.9195 28.5615L38.9414 35.3213L40.1095 33.5894L30.0877 26.8296L28.9195 28.5615Z" fill="#FF00B3"/>
<path d="M28.8203 28.6747L38.7227 35.6084L39.9208 33.8972L30.0185 26.9635L28.8203 28.6747Z" fill="#FF00AF"/>
<path d="M28.7182 28.7871L38.498 35.8926L39.7259 34.2026L29.9461 27.0971L28.7182 28.7871Z" fill="#FF00AB"/>
<path d="M28.6152 28.8978L38.2695 36.1729L39.5267 34.5045L29.8724 27.2295L28.6152 28.8978Z" fill="#FF00A6"/>
<path d="M28.5093 29.0068L38.0352 36.4492L39.3213 34.8031L29.7954 27.3606L28.5093 29.0068Z" fill="#FF00A2"/>
<path d="M28.4023 29.1131L37.7969 36.7207L39.1115 35.0973L29.7169 27.4897L28.4023 29.1131Z" fill="#FF009E"/>
<path d="M28.2924 29.2179L37.5527 36.9883L38.8955 35.388L29.6351 27.6177L28.2924 29.2179Z" fill="#FF009A"/>
<path d="M28.1813 29.3212L37.3047 37.252L38.6752 35.6754L29.5518 27.7446L28.1813 29.3212Z" fill="#FF0095"/>
<path d="M28.0672 29.4219L37.0508 37.5107L38.4486 35.9583L29.465 27.8695L28.0672 29.4219Z" fill="#FF0091"/>
<path d="M27.9539 29.5213L36.7949 37.7656L38.2196 36.2378L29.3786 27.9935L27.9539 29.5213Z" fill="#FF008D"/>
<path d="M27.8374 29.6172L36.5332 38.0146L37.9843 36.512L29.2886 28.1146L27.8374 29.6172Z" fill="#FF0089"/>
<path d="M27.7197 29.7128L36.2676 38.2607L37.7447 36.7836L29.1968 28.2357L27.7197 29.7128Z" fill="#FF0084"/>
<path d="M27.5987 29.8052L35.9961 38.501L37.4988 37.0499L29.1014 28.3541L27.5987 29.8052Z" fill="#FF0080"/>
<path d="M27.4783 29.8963L35.7227 38.7373L37.2504 37.3126L29.0061 28.4716L27.4783 29.8963Z" fill="#FF007C"/>
<path d="M27.3545 29.9852L35.4434 38.9688L36.9958 37.571L28.907 28.5874L27.3545 29.9852Z" fill="#FF0078"/>
<path d="M27.2313 30.071L35.1621 39.1943L36.7387 37.8238L28.8079 28.7005L27.2313 30.071Z" fill="#FF0073"/>
<path d="M27.1046 30.1557L34.875 39.416L36.4752 38.0732L28.7049 28.8129L27.1046 30.1557Z" fill="#FF006F"/>
<path d="M26.9764 30.2373L34.584 39.6318L36.2074 38.3172L28.5999 28.9226L26.9764 30.2373Z" fill="#FF006B"/>
<path d="M26.8486 30.3169L34.291 39.8428L35.9372 38.5567L28.4947 29.0308L26.8486 30.3169Z" fill="#FF0067"/>
<path d="M26.7191 30.3945L33.9941 40.0488L35.6625 38.7917L28.3874 29.1373L26.7191 30.3945Z" fill="#FF0062"/>
<path d="M26.5859 30.4702L33.6914 40.25L35.3814 39.0221L28.276 29.2423L26.5859 30.4702Z" fill="#FF005E"/>
<path d="M26.455 30.543L33.3887 40.4453L35.0999 39.2471L28.1662 29.3448L26.455 30.543Z" fill="#FF005A"/>
<path d="M26.3202 30.6139L33.0801 40.6357L34.8119 39.4676L28.0521 29.4457L26.3202 30.6139Z" fill="#FF0056"/>
<path d="M26.1856 30.682L32.7695 40.8203L34.5215 39.6826L27.9376 29.5443L26.1856 30.682Z" fill="#FF0052"/>
<path d="M26.0491 30.7474L32.4551 40.999L34.2266 39.892L27.8207 29.6404L26.0491 30.7474Z" fill="#FF004D"/>
<path d="M25.9107 30.8109L32.1367 41.1729L33.9273 40.0969L27.7013 29.735L25.9107 30.8109Z" fill="#FF0049"/>
<path d="M25.7721 30.8728L31.8164 41.3418L33.6255 40.2973L27.5812 29.8283L25.7721 30.8728Z" fill="#FF0045"/>
<path d="M25.6335 30.931L31.4941 41.5039L33.3212 40.4912L27.4606 29.9183L25.6335 30.931Z" fill="#FF0041"/>
<path d="M25.4927 30.9876L31.168 41.6611L33.0124 40.6804L27.3372 30.0069L25.4927 30.9876Z" fill="#FF003C"/>
<path d="M25.3498 31.0406L30.8379 41.8115L32.6992 40.8631L27.2111 30.0922L25.3498 31.0406Z" fill="#FF0038"/>
<path d="M25.2085 31.0919L30.5078 41.957L32.3854 41.0413L27.0861 30.1762L25.2085 31.0919Z" fill="#FF0034"/>
<path d="M25.065 31.1407L30.1738 42.0967L32.0671 41.2138L26.9582 30.2579L25.065 31.1407Z" fill="#FF0030"/>
<path d="M24.921 31.187L29.8379 42.2305L31.7463 41.3808L26.8294 30.3374L24.921 31.187Z" fill="#FF002B"/>
<path d="M24.7747 31.2308L29.498 42.3584L31.421 41.5422L26.6976 30.4146L24.7747 31.2308Z" fill="#FF0027"/>
<path d="M24.6298 31.2722L29.1582 42.4805L31.0951 41.6979L26.5666 30.4896L24.6298 31.2722Z" fill="#FF0023"/>
<path d="M24.4843 31.3111L28.8164 42.5967L30.7666 41.8481L26.4345 30.5624L24.4843 31.3111Z" fill="#FF001F"/>
<path d="M24.3362 31.3475L28.4707 42.707L30.4337 41.9926L26.2992 30.633L24.3362 31.3475Z" fill="#FF001A"/>
<path d="M24.1894 31.3806L28.125 42.8105L30.1002 42.1304L26.1645 30.7005L24.1894 31.3806Z" fill="#FF0016"/>
<path d="M24.0398 31.4113L27.7754 42.9082L29.7621 42.2627L26.0266 30.7658L24.0398 31.4113Z" fill="#FF0012"/>
<path d="M23.8914 31.4397L27.4258 43L29.4235 42.3892L25.8891 30.8289L23.8914 31.4397Z" fill="#FF000E"/>
<path d="M23.7422 31.4657L27.0742 43.0859L29.0823 42.5101L25.7502 30.8899L23.7422 31.4657Z" fill="#FF0009"/>
<path d="M23.592 31.4884L26.7207 43.165L28.7385 42.6244L25.6098 30.9477L23.592 31.4884Z" fill="#FF0005"/>
<path d="M23.4427 31.5098L26.3672 43.2393L28.3941 42.7339L25.4696 31.0044L23.4427 31.5098Z" fill="#FF0001"/>
<path d="M23.2924 31.5269L26.0117 43.3057L28.0472 42.8357L25.3278 31.057L23.2924 31.5269Z" fill="#FF0300"/>
<path d="M23.1409 31.5428L25.6543 43.3672L27.6976 42.9329L25.1843 31.1085L23.1409 31.5428Z" fill="#FF0700"/>
<path d="M22.9903 31.5554L25.2969 43.4219L27.3475 43.0233L25.0409 31.1568L22.9903 31.5554Z" fill="#FF0C00"/>
<path d="M22.8383 31.5648L24.9375 43.4697L26.9947 43.107L24.8956 31.2021L22.8383 31.5648Z" fill="#FF1000"/>
<path d="M22.6871 31.572L24.5781 43.5117L26.6414 43.1849L24.7503 31.2452L22.6871 31.572Z" fill="#FF1400"/>
<path d="M22.5364 31.577L24.2188 43.5479L26.2874 43.2571L24.605 31.2862L22.5364 31.577Z" fill="#FF1800"/>
<path d="M22.3842 31.5797L23.8574 43.5781L25.9308 43.3235L24.4576 31.3251L22.3842 31.5797Z" fill="#FF1D00"/>
<path d="M22.2325 31.5792L23.4961 43.6016L25.5736 43.3832L24.31 31.3609L22.2325 31.5792Z" fill="#FF2100"/>
<path d="M22.0812 31.5756L23.1348 43.6182L25.2158 43.4361L24.1622 31.3936L22.0812 31.5756Z" fill="#FF2500"/>
<path d="M21.9302 31.5698L22.7734 43.6289L24.8573 43.4832L24.0141 31.4241L21.9302 31.5698Z" fill="#FF2900"/>
<path d="M21.7794 31.5608L22.4121 43.6328L24.4982 43.5235L23.8656 31.4515L21.7794 31.5608Z" fill="#FF2E00"/>
<path d="M21.6289 31.5497L22.0508 43.6309L24.1385 43.558L23.7166 31.4768L21.6289 31.5497Z" fill="#FF3200"/>
<path d="M21.4785 31.5363L21.6895 43.623L23.7781 43.5866L23.5671 31.4999L21.4785 31.5363Z" fill="#FF3600"/>
<path d="M21.3281 31.5199V43.6084H23.4171V31.5199H21.3281Z" fill="#FF3A00"/>
<path d="M21.1758 31.5012L20.9648 43.5879L23.0535 43.6243L23.2645 31.5376L21.1758 31.5012Z" fill="#FF3F00"/>
<path d="M21.0274 31.4794L20.6055 43.5605L22.6932 43.6335L23.1151 31.5523L21.0274 31.4794Z" fill="#FF4300"/>
<path d="M20.8768 31.4554L20.2441 43.5273L22.3303 43.6367L22.9629 31.5647L20.8768 31.4554Z" fill="#FF4700"/>
<path d="M20.728 31.4282L19.8848 43.4873L21.9687 43.633L22.8119 31.5739L20.728 31.4282Z" fill="#FF4B00"/>
<path d="M20.579 31.3989L19.5254 43.4414L21.6064 43.6235L22.66 31.5809L20.579 31.3989Z" fill="#FF5000"/>
<path d="M20.4316 31.3673L19.168 43.3896L21.2455 43.608L22.5091 31.5857L20.4316 31.3673Z" fill="#FF5400"/>
<path d="M20.2838 31.3326L18.8105 43.3311L20.884 43.5856L22.3572 31.5872L20.2838 31.3326Z" fill="#FF5800"/>
<path d="M20.1375 31.2947L18.4551 43.2656L20.5237 43.5564L22.2061 31.5855L20.1375 31.2947Z" fill="#FF5C00"/>
<path d="M19.9907 31.2556L18.0996 43.1953L20.1629 43.5221L22.0539 31.5824L19.9907 31.2556Z" fill="#FF6000"/>
<path d="M19.8452 31.2133L17.7461 43.1182L19.8033 43.4809L21.9025 31.576L19.8452 31.2133Z" fill="#FF6500"/>
<path d="M19.7011 31.1687L17.3945 43.0352L19.4451 43.4338L21.7517 31.5673L19.7011 31.1687Z" fill="#FF6900"/>
<path d="M19.5563 31.1209L17.043 42.9453L19.0863 43.3796L21.5996 31.5553L19.5563 31.1209Z" fill="#FF6D00"/>
<path d="M19.4146 31.0709L16.6953 42.8496L18.7307 43.3195L21.4501 31.5408L19.4146 31.0709Z" fill="#FF7100"/>
<path d="M19.2721 31.0186L16.3477 42.748L18.3746 43.2534L21.2991 31.524L19.2721 31.0186Z" fill="#FF7600"/>
<path d="M19.1307 30.964L16.002 42.6406L18.0197 43.1813L21.1485 31.5047L19.1307 30.964Z" fill="#FF7A00"/>
<path d="M18.9903 30.9071L15.6582 42.5273L17.6663 43.1031L20.9983 31.4829L18.9903 30.9071Z" fill="#FF7E00"/>
<path d="M18.8508 30.8469L15.3164 42.4072L17.3141 43.018L20.8485 31.4577L18.8508 30.8469Z" fill="#FF8200"/>
<path d="M18.7141 30.7853L14.9785 42.2822L16.9653 42.9278L20.7008 31.4309L18.7141 30.7853Z" fill="#FF8700"/>
<path d="M18.5763 30.7204L14.6406 42.1504L16.6158 42.8305L20.5514 31.4006L18.5763 30.7204Z" fill="#FF8B00"/>
<path d="M18.4392 30.6542L14.3047 42.0137L16.2677 42.7281L20.4022 31.3686L18.4392 30.6542Z" fill="#FF8F00"/>
<path d="M18.3048 30.5845L13.9727 41.8701L15.9229 42.6187L20.255 31.3331L18.3048 30.5845Z" fill="#FF9300"/>
<path d="M18.171 30.5134L13.6426 41.7217L15.5794 42.5042L20.1079 31.2959L18.171 30.5134Z" fill="#FF9800"/>
<path d="M18.0398 30.4388L13.3164 41.5664L15.2393 42.3826L19.9627 31.2551L18.0398 30.4388Z" fill="#FF9C00"/>
<path d="M17.909 30.3628L12.9922 41.4062L14.9006 42.2559L19.8174 31.2125L17.909 30.3628Z" fill="#FFA000"/>
<path d="M17.7788 30.2843L12.6699 41.2402L14.5632 42.1231L19.672 31.1671L17.7788 30.2843Z" fill="#FFA400"/>
<path d="M17.6508 30.2032L12.3516 41.0684L14.2291 41.9841L19.5284 31.119L17.6508 30.2032Z" fill="#FFA900"/>
<path d="M17.5252 30.1197L12.0371 40.8906L13.8984 41.839L19.3865 31.068L17.5252 30.1197Z" fill="#FFAD00"/>
<path d="M17.3998 30.0345L11.7246 40.708L13.5691 41.6887L19.2443 31.0152L17.3998 30.0345Z" fill="#FFB100"/>
<path d="M17.2747 29.9476L11.4141 40.5205L13.2411 41.5333L19.1018 30.9604L17.2747 29.9476Z" fill="#FFB500"/>
<path d="M17.1536 29.8582L11.1094 40.3271L12.9185 41.3716L18.9628 30.9026L17.1536 29.8582Z" fill="#FFB900"/>
<path d="M17.0327 29.766L10.8066 40.1279L12.5972 41.2038L18.8233 30.8419L17.0327 29.766Z" fill="#FFBE00"/>
<path d="M16.9138 29.6731L10.5078 39.9248L12.2794 41.0318L18.6853 30.7801L16.9138 29.6731Z" fill="#FFC200"/>
<path d="M16.7968 29.5765L10.2129 39.7148L11.9649 40.8526L18.5487 30.7143L16.7968 29.5765Z" fill="#FFC600"/>
<path d="M16.6798 29.4791L9.91992 39.501L11.6518 40.6691L18.4116 30.6473L16.6798 29.4791Z" fill="#FFCA00"/>
<path d="M16.5665 29.3799L9.63281 39.2822L11.344 40.4804L18.2777 30.5781L16.5665 29.3799Z" fill="#FFCF00"/>
<path d="M16.4551 29.2778L9.34961 39.0576L11.0396 40.2855L18.1451 30.5056L16.4551 29.2778Z" fill="#FFD300"/>
<path d="M16.3434 29.1738L9.06836 38.8281L10.7367 40.0853L18.0118 30.431L16.3434 29.1738Z" fill="#FFD700"/>
<path d="M16.2354 29.0688L8.79297 38.5947L10.4391 39.8808L17.8816 30.3549L16.2354 29.0688Z" fill="#FFDB00"/>
<path d="M16.1291 28.9609L8.52148 38.3555L10.1449 39.6701L17.7525 30.2755L16.1291 28.9609Z" fill="#FFE000"/>
<path d="M16.0243 28.8519L8.25391 38.1123L9.85415 39.4551L17.6245 30.1947L16.0243 28.8519Z" fill="#FFE400"/>
<path d="M15.921 28.7409L7.99023 37.8643L9.5668 39.2347L17.4976 30.1114L15.921 28.7409Z" fill="#FFE800"/>
<path d="M15.8193 28.6278L7.73047 37.6113L9.28288 39.0091L17.3717 30.0256L15.8193 28.6278Z" fill="#FFEC00"/>
<path d="M15.7209 28.5125L7.47656 37.3535L9.00434 38.7782L17.2487 29.9372L15.7209 28.5125Z" fill="#FFF100"/>
<path d="M15.624 28.396L7.22656 37.0918L8.72925 38.5429L17.1267 29.8472L15.624 28.396Z" fill="#FFF500"/>
<path d="M15.5284 28.2783L6.98047 36.8262L8.4576 38.3033L17.0055 29.7554L15.5284 28.2783Z" fill="#FFF900"/>
<path d="M15.436 28.1583L6.74023 36.5557L8.19136 38.0583L16.8871 29.6609L15.436 28.1583Z" fill="#FFFD00"/>
<path d="M15.3449 28.0379L6.50391 36.2822L7.92858 37.81L16.7696 29.5656L15.3449 28.0379Z" fill="#FCFF00"/>
<path d="M15.257 27.9141L6.27344 36.0029L7.67124 37.5553L16.6548 29.4665L15.257 27.9141Z" fill="#F8FF00"/>
<path d="M15.1702 27.7899L6.04688 35.7207L7.41737 37.2973L16.5407 29.3665L15.1702 27.7899Z" fill="#F4FF00"/>
<path d="M15.0865 27.6642L5.82617 35.4346L7.16894 37.0348L16.4293 29.2645L15.0865 27.6642Z" fill="#F0FF00"/>
<path d="M15.0039 27.537L5.60938 35.1445L6.92401 36.768L16.3186 29.1604L15.0039 27.537Z" fill="#ECFF00"/>
<path d="M14.9243 27.4081L5.39844 34.8506L6.68454 36.4967L16.2104 29.0543L14.9243 27.4081Z" fill="#E7FF00"/>
<path d="M14.8477 27.2786L5.19336 34.5537L6.45054 36.222L16.1049 28.947L14.8477 27.2786Z" fill="#E3FF00"/>
<path d="M14.772 27.1465L4.99219 34.252L6.22006 35.942L15.9999 28.8365L14.772 27.1465Z" fill="#DFFF00"/>
<path d="M14.6992 27.0136L4.79688 33.9473L5.99506 35.6585L15.8974 28.7248L14.6992 27.0136Z" fill="#DBFF00"/>
<path d="M14.6273 26.8798L4.60547 33.6396L5.77361 35.3715L15.7955 28.6117L14.6273 26.8798Z" fill="#D6FF00"/>
<path d="M14.5602 26.7442L4.42188 33.3281L5.55961 35.0801L15.6979 28.4962L14.5602 26.7442Z" fill="#D2FF00"/>
<path d="M14.4939 26.6077L4.24219 33.0137L5.34918 34.7852L15.6008 28.3793L14.4939 26.6077Z" fill="#CEFF00"/>
<path d="M14.4303 26.4712L4.06836 32.6973L5.14426 34.4879L15.5062 28.2618L14.4303 26.4712Z" fill="#CAFF00"/>
<path d="M14.3694 26.3317L3.90039 32.376L4.94488 34.1851L15.4139 28.1408L14.3694 26.3317Z" fill="#C5FF00"/>
<path d="M14.3112 26.1921L3.73828 32.0527L4.75104 33.8798L15.3239 28.0192L14.3112 26.1921Z" fill="#C1FF00"/>
<path d="M14.2536 26.0523L3.58008 31.7275L4.56079 33.572L15.2343 27.8968L14.2536 26.0523Z" fill="#BDFF00"/>
<path d="M14.2007 25.9104L3.42969 31.3984L4.37806 33.2597L15.149 27.7716L14.2007 25.9104Z" fill="#B9FF00"/>
<path d="M14.1503 25.7671L3.28516 31.0664L4.2009 32.944L15.066 27.6447L14.1503 25.7671Z" fill="#B4FF00"/>
<path d="M14.1005 25.6236L3.14453 30.7324L4.02737 32.6257L14.9833 27.5168L14.1005 25.6236Z" fill="#B0FF00"/>
<path d="M14.0552 25.4796L3.01172 30.3965L3.86138 32.3049L14.9048 27.388L14.0552 25.4796Z" fill="#ACFF00"/>
<path d="M14.0104 25.3352L2.88281 30.0586L3.69904 31.9815L14.8266 27.2581L14.0104 25.3352Z" fill="#A8FF00"/>
<path d="M13.97 25.1893L2.76172 29.7178L3.54426 31.6546L14.7526 27.1262L13.97 25.1893Z" fill="#A3FF00"/>
<path d="M13.9302 25.0429L2.64453 29.375L3.39315 31.3252L14.6788 26.9931L13.9302 25.0429Z" fill="#9FFF00"/>
<path d="M13.8947 24.8957L2.53516 29.0303L3.24963 30.9933L14.6091 26.8587L13.8947 24.8957Z" fill="#9BFF00"/>
<path d="M13.8616 24.7479L2.43164 28.6836L3.11174 30.6588L14.5417 26.7231L13.8616 24.7479Z" fill="#97FF00"/>
<path d="M13.8309 24.5994L2.33398 28.335L2.97951 30.3217L14.4764 26.5861L13.8309 24.5994Z" fill="#93FF00"/>
<path d="M13.8025 24.451L2.24219 27.9854L2.85294 29.983L14.4133 26.4487L13.8025 24.451Z" fill="#8EFF00"/>
<path d="M13.7765 24.3017L2.15625 27.6338L2.73205 29.6418L14.3523 26.3098L13.7765 24.3017Z" fill="#8AFF00"/>
<path d="M13.7528 24.1515L2.07617 27.2803L2.61684 29.2981L14.2935 26.1693L13.7528 24.1515Z" fill="#86FF00"/>
<path d="M13.7334 24.0023L2.00391 26.9268L2.50928 28.9537L14.2387 26.0292L13.7334 24.0023Z" fill="#82FF00"/>
<path d="M13.7143 23.852L1.93555 26.5713L2.40546 28.6067L14.1842 25.8874L13.7143 23.852Z" fill="#7DFF00"/>
<path d="M13.6994 23.7005L1.875 26.2139L2.30932 28.2572L14.1337 25.7438L13.6994 23.7005Z" fill="#79FF00"/>
<path d="M13.6868 23.5498L1.82031 25.8564L2.21891 27.907L14.0854 25.6004L13.6868 23.5498Z" fill="#75FF00"/>
<path d="M13.6764 23.3989L1.77148 25.498L2.13423 27.5553L14.0391 25.4561L13.6764 23.3989Z" fill="#71FF00"/>
<path d="M13.6702 23.2476L1.73047 25.1387L2.05726 27.2019L13.997 25.3109L13.6702 23.2476Z" fill="#6CFF00"/>
<path d="M13.6643 23.0959L1.69336 24.7783L1.98409 26.847L13.955 25.1646L13.6643 23.0959Z" fill="#68FF00"/>
<path d="M13.6625 22.9447L1.66406 24.418L1.91864 26.4914L13.9171 25.0182L13.6625 22.9447Z" fill="#64FF00"/>
<path d="M13.6629 22.793L1.64062 24.0566L1.85898 26.1342L13.8813 24.8706L13.6629 22.793Z" fill="#60FF00"/>
<path d="M13.6656 22.6417L1.62305 23.6953L1.80511 25.7763L13.8477 24.7228L13.6656 22.6417Z" fill="#5BFF00"/>
<path d="M13.6724 22.4907L1.61328 23.334L1.759 25.4179L13.8181 24.5746L13.6724 22.4907Z" fill="#57FF00"/>
<path d="M13.6814 22.339L1.60938 22.9717L1.7187 25.0578L13.7907 24.4251L13.6814 22.339Z" fill="#53FF00"/>
<path d="M13.6925 22.1875L1.61133 22.6094L1.68423 24.6971L13.7654 24.2752L13.6925 22.1875Z" fill="#4FFF00"/>
<path d="M13.7058 22.0371L1.61914 22.248L1.6556 24.3367L13.7423 24.1257L13.7058 22.0371Z" fill="#4AFF00"/>
<path d="M13.7214 21.8867H1.63281V23.9757H13.7214V21.8867Z" fill="#46FF00"/>
<path d="M13.741 21.7364L1.6543 21.5254L1.61784 23.614L13.7045 23.825L13.741 21.7364Z" fill="#42FF00"/>
<path d="M13.7628 21.5859L1.68164 21.1641L1.60874 23.2518L13.6899 23.6737L13.7628 21.5859Z" fill="#3EFF00"/>
<path d="M13.7868 21.4364L1.71484 20.8037L1.60552 22.8898L13.6775 23.5225L13.7868 21.4364Z" fill="#3AFF00"/>
<path d="M13.813 21.2876L1.75391 20.4443L1.60819 22.5282L13.6673 23.3715L13.813 21.2876Z" fill="#35FF00"/>
<path d="M13.8433 21.1395L1.80078 20.0859L1.61871 22.167L13.6613 23.2206L13.8433 21.1395Z" fill="#31FF00"/>
<path d="M13.8758 20.9911L1.85352 19.7275L1.63516 21.8051L13.6575 23.0687L13.8758 20.9911Z" fill="#2DFF00"/>
<path d="M13.9086 20.8433L1.91016 19.3701L1.65557 21.4435L13.654 22.9167L13.9086 20.8433Z" fill="#29FF00"/>
<path d="M13.9475 20.697L1.97656 19.0146L1.68583 21.0833L13.6567 22.7657L13.9475 20.697Z" fill="#24FF00"/>
<path d="M13.9866 20.5502L2.04688 18.6592L1.72009 20.7224L13.6598 22.6135L13.9866 20.5502Z" fill="#20FF00"/>
<path d="M14.0279 20.4048L2.12305 18.3057L1.7603 20.3629L13.6652 22.4621L14.0279 20.4048Z" fill="#1CFF00"/>
<path d="M14.0735 20.2607L2.20703 17.9541L1.80844 20.0047L13.6749 22.3113L14.0735 20.2607Z" fill="#18FF00"/>
<path d="M14.1213 20.1169L2.29688 17.6035L1.86255 19.6468L13.6869 22.1602L14.1213 20.1169Z" fill="#13FF00"/>
<path d="M14.1713 19.9742L2.39258 17.2549L1.92266 19.2903L13.7014 22.0097L14.1713 19.9742Z" fill="#0FFF00"/>
<path d="M14.2236 19.8317L2.49414 16.9072L1.98877 18.9342L13.7182 21.8586L14.2236 19.8317Z" fill="#0BFF00"/>
<path d="M14.2782 19.6903L2.60156 16.5615L2.0609 18.5793L13.7375 21.7081L14.2782 19.6903Z" fill="#07FF00"/>
<path d="M14.3351 19.5498L2.71484 16.2178L2.13904 18.2258L13.7593 21.5579L14.3351 19.5498Z" fill="#02FF00"/>
<path d="M14.3943 19.4113L2.83398 15.877L2.22323 17.8747L13.7836 21.409L14.3943 19.4113Z" fill="#00FF02"/>
<path d="M14.4578 19.2727L2.96094 15.5371L2.31541 17.5238L13.8123 21.2594L14.4578 19.2727Z" fill="#00FF06"/>
<path d="M14.5217 19.1358L3.0918 15.2002L2.41169 17.1754L13.8416 21.111L14.5217 19.1358Z" fill="#00FF0A"/>
<path d="M14.588 18.9998L3.22852 14.8652L2.51404 16.8282L13.8736 20.9628L14.588 18.9998Z" fill="#00FF0F"/>
<path d="M14.6567 18.8644L3.37109 14.5322L2.62247 16.4825L13.9081 20.8146L14.6567 18.8644Z" fill="#00FF13"/>
<path d="M14.7298 18.7316L3.52148 14.2031L2.73894 16.14L13.9472 20.6684L14.7298 18.7316Z" fill="#00FF17"/>
<path d="M14.8033 18.5993L3.67578 13.876L2.85955 15.7989L13.9871 20.5223L14.8033 18.5993Z" fill="#00FF1B"/>
<path d="M14.8794 18.4686L3.83594 13.5518L2.98627 15.4601L14.0297 20.377L14.8794 18.4686Z" fill="#00FF1F"/>
<path d="M14.9579 18.3383L4.00195 13.2295L3.11911 15.1227L14.0751 20.2316L14.9579 18.3383Z" fill="#00FF24"/>
<path d="M15.0389 18.2104L4.17383 12.9111L3.25808 14.7887L14.1232 20.088L15.0389 18.2104Z" fill="#00FF28"/>
<path d="M15.1225 18.0838L4.35156 12.5957L3.40319 14.457L14.1742 19.9451L15.1225 18.0838Z" fill="#00FF2C"/>
<path d="M15.2068 17.9584L4.5332 12.2832L3.55249 14.1277L14.226 19.8029L15.2068 17.9584Z" fill="#00FF30"/>
<path d="M15.2936 17.8353L4.7207 11.9746L3.70795 13.8017L14.2808 19.6623L15.2936 17.8353Z" fill="#00FF35"/>
<path d="M15.383 17.7132L4.91406 11.6689L3.86957 13.4781L14.3386 19.5223L15.383 17.7132Z" fill="#00FF39"/>
<path d="M15.4752 17.5923L5.11328 11.3662L4.03738 13.1568L14.3993 19.3829L15.4752 17.5923Z" fill="#00FF3D"/>
<path d="M15.5681 17.4733L5.31641 11.0674L4.20942 12.8389L14.4611 19.2449L15.5681 17.4733Z" fill="#00FF41"/>
<path d="M15.6657 17.3554L5.52734 10.7715L4.38961 12.5234L14.5279 19.1073L15.6657 17.3554Z" fill="#00FF46"/>
<path d="M15.7621 17.2403L5.74023 10.4805L4.57209 12.2123L14.594 18.9721L15.7621 17.2403Z" fill="#00FF4A"/>
<path d="M15.8613 17.1261L5.95898 10.1924L4.7608 11.9036L14.6632 18.8373L15.8613 17.1261Z" fill="#00FF4E"/>
<path d="M15.9634 17.0137L6.18359 9.9082L4.95572 11.5982L14.7356 18.7037L15.9634 17.0137Z" fill="#00FF52"/>
<path d="M16.0684 16.903L6.41406 9.62793L5.15689 11.2963L14.8112 18.5713L16.0684 16.903Z" fill="#00FF57"/>
<path d="M16.1724 16.795L6.64648 9.35254L5.36038 10.9987L14.8863 18.4411L16.1724 16.795Z" fill="#00FF5B"/>
<path d="M16.2813 16.6886L6.88672 9.08105L5.57208 10.7045L14.9666 18.3121L16.2813 16.6886Z" fill="#00FF5F"/>
<path d="M16.3893 16.5838L7.12891 8.81348L5.78614 10.4137L15.0465 18.1841L16.3893 16.5838Z" fill="#00FF63"/>
<path d="M16.5022 16.4806L7.37891 8.5498L6.00841 10.1264L15.1318 18.0572L16.5022 16.4806Z" fill="#00FF68"/>
<path d="M16.6144 16.3798L7.63086 8.29102L6.23306 9.84343L15.2166 17.9322L16.6144 16.3798Z" fill="#00FF6C"/>
<path d="M16.7297 16.2805L7.88867 8.03613L6.46399 9.56391L15.305 17.8083L16.7297 16.2805Z" fill="#00FF70"/>
<path d="M16.8462 16.1835L8.15039 7.78613L6.69927 9.28882L15.395 17.6862L16.8462 16.1835Z" fill="#00FF74"/>
<path d="M16.9639 16.0889L8.41602 7.54102L6.93889 9.01814L15.4868 17.566L16.9639 16.0889Z" fill="#00FF78"/>
<path d="M17.083 15.9956L8.68555 7.2998L7.18286 8.75093L15.5803 17.4467L17.083 15.9956Z" fill="#00FF7D"/>
<path d="M17.2034 15.9045L8.95898 7.06348L7.4312 8.48816L15.6756 17.3292L17.2034 15.9045Z" fill="#00FF81"/>
<path d="M17.3271 15.8165L9.23828 6.83301L7.68587 8.23081L15.7747 17.2143L17.3271 15.8165Z" fill="#00FF85"/>
<path d="M17.4523 15.7298L9.52148 6.60645L7.94491 7.97694L15.8757 17.1003L17.4523 15.7298Z" fill="#00FF89"/>
<path d="M17.577 15.6461L9.80664 6.38574L8.20639 7.72851L15.9768 16.9889L17.577 15.6461Z" fill="#00FF8E"/>
<path d="M17.7052 15.5635L10.0977 6.16895L8.47422 7.48358L16.0818 16.8781L17.7052 15.5635Z" fill="#00FF92"/>
<path d="M17.8331 15.4849L10.3906 5.95898L8.74449 7.24509L16.1869 16.771L17.8331 15.4849Z" fill="#00FF96"/>
<path d="M17.9645 15.4063L10.6895 5.75195L9.02112 7.00913L16.2962 16.6635L17.9645 15.4063Z" fill="#00FF9A"/>
<path d="M18.0957 15.3316L10.9902 5.55176L9.30022 6.77963L16.4057 16.5595L18.0957 15.3316Z" fill="#00FF9F"/>
<path d="M18.2286 15.2588L11.2949 5.35645L9.58373 6.55463L16.5174 16.457L18.2286 15.2588Z" fill="#00FFA3"/>
<path d="M18.3614 15.1879L11.6016 5.16602L9.86972 6.33416L16.6296 16.356L18.3614 15.1879Z" fill="#00FFA7"/>
<path d="M18.498 15.1188L11.9141 4.98047L10.1621 6.11821L16.746 16.2565L18.498 15.1188Z" fill="#00FFAB"/>
<path d="M18.6325 15.0534L12.2266 4.80176L10.455 5.90875L16.861 16.1604L18.6325 15.0534Z" fill="#00FFB0"/>
<path d="M18.771 14.9898L12.5449 4.62793L10.7543 5.70383L16.9804 16.0657L18.771 14.9898Z" fill="#00FFB4"/>
<path d="M18.9095 14.9289L12.8652 4.45996L11.0561 5.50445L17.1004 15.9734L18.9095 14.9289Z" fill="#00FFB8"/>
<path d="M19.0501 14.8707L13.1895 4.29785L11.3624 5.31061L17.223 15.8835L19.0501 14.8707Z" fill="#00FFBC"/>
<path d="M19.1909 14.8142L13.5156 4.14062L11.6712 5.12134L17.3464 15.7949L19.1909 14.8142Z" fill="#00FFC1"/>
<path d="M19.3318 14.7602L13.8438 3.98926L11.9825 4.93763L17.4705 15.7086L19.3318 14.7602Z" fill="#00FFC5"/>
<path d="M19.4751 14.7089L14.1758 3.84375L12.2982 4.7595L17.5975 15.6246L19.4751 14.7089Z" fill="#00FFC9"/>
<path d="M19.6167 14.66L14.5078 3.7041L12.6146 4.58694L17.7234 15.5429L19.6167 14.66Z" fill="#00FFCD"/>
<path d="M19.7626 14.6137L14.8457 3.57031L12.9373 4.41998L17.8542 15.4634L19.7626 14.6137Z" fill="#00FFD1"/>
<path d="M19.907 14.5699L15.1836 3.44238L13.2607 4.25861L17.9841 15.3862L19.907 14.5699Z" fill="#00FFD6"/>
<path d="M20.0519 14.5286L15.5234 3.32031L13.5866 4.10286L18.115 15.3112L20.0519 14.5286Z" fill="#00FFDA"/>
<path d="M20.1993 14.4907L15.8672 3.20508L13.917 3.9537L18.2491 15.2393L20.1993 14.4907Z" fill="#00FFDE"/>
<path d="M20.3455 14.4542L16.2109 3.09473L14.2479 3.8092L18.3825 15.1687L20.3455 14.4542Z" fill="#00FFE2"/>
<path d="M20.4942 14.4202L16.5586 2.99023L14.5834 3.67034L18.5191 15.1003L20.4942 14.4202Z" fill="#00FFE7"/>
<path d="M20.6418 14.3904L16.9062 2.89355L14.9195 3.53908L18.6551 15.036L20.6418 14.3904Z" fill="#00FFEB"/>
<path d="M20.7902 14.3611L17.2559 2.80078L15.2582 3.41154L18.7925 14.9719L20.7902 14.3611Z" fill="#00FFEF"/>
<path d="M20.9395 14.3361L17.6074 2.71582L15.5994 3.29162L18.9314 14.9119L20.9395 14.3361Z" fill="#00FFF3"/>
<path d="M21.0897 14.3124L17.9609 2.63574L15.9431 3.17641L19.0719 14.853L21.0897 14.3124Z" fill="#00FFF8"/>
<path d="M21.2409 14.292L18.3164 2.5625L16.2895 3.06787L19.214 14.7973L21.2409 14.292Z" fill="#00FFFC"/>
<path d="M21.3912 14.2748L18.6719 2.49609L16.6364 2.96601L19.3558 14.7447L21.3912 14.2748Z" fill="#00FEFF"/>
<path d="M21.5407 14.259L19.0273 2.43457L16.984 2.86889L19.4974 14.6933L21.5407 14.259Z" fill="#00FAFF"/>
<path d="M21.6914 14.2463L19.3848 2.37988L17.3342 2.77848L19.6408 14.6449L21.6914 14.2463Z" fill="#00F5FF"/>
<path d="M21.8433 14.2359L19.7441 2.33105L17.6869 2.6938L19.7861 14.5987L21.8433 14.2359Z" fill="#00F1FF"/>
<path d="M21.9946 14.2288L20.1035 2.28906L18.0403 2.61585L19.9313 14.5556L21.9946 14.2288Z" fill="#00EDFF"/>
<path d="M22.1453 14.2238L20.4629 2.25293L18.3942 2.54366L20.0766 14.5146L22.1453 14.2238Z" fill="#00E9FF"/>
<path d="M22.2974 14.2221L20.8242 2.22363L18.7508 2.47821L20.224 14.4767L22.2974 14.2221Z" fill="#00E4FF"/>
<path d="M22.4491 14.2225L21.1855 2.2002L19.108 2.41855L20.3716 14.4409L22.4491 14.2225Z" fill="#00E0FF"/>
<path d="M22.6005 14.2261L21.5469 2.18359L19.4658 2.36566L20.5194 14.4082L22.6005 14.2261Z" fill="#00DCFF"/>
<path d="M22.7515 14.2319L21.9082 2.17285L19.8243 2.31857L20.6676 14.3777L22.7515 14.2319Z" fill="#00D8FF"/>
<path d="M22.9022 14.2399L22.2695 2.16797L20.1834 2.2773L20.8161 14.3493L22.9022 14.2399Z" fill="#00D4FF"/>
<path d="M23.0547 14.2511L22.6328 2.16992L20.5451 2.24283L20.967 14.324L23.0547 14.2511Z" fill="#00CFFF"/>
<path d="M23.2051 14.2644L22.9941 2.17773L20.9055 2.21419L21.1165 14.3009L23.2051 14.2644Z" fill="#00CBFF"/>
<path d="M23.3555 14.2809V2.19238H21.2665V14.2809H23.3555Z" fill="#00C7FF"/>
<path d="M23.5058 14.3006L23.7168 2.21387L21.6281 2.17741L21.4172 14.2641L23.5058 14.3006Z" fill="#00C3FF"/>
<path d="M23.6562 14.3224L24.0781 2.24121L21.9904 2.16831L21.5685 14.2495L23.6562 14.3224Z" fill="#00BEFF"/>
<path d="M23.8048 14.3454L24.4375 2.27344L22.3514 2.16411L21.7187 14.2361L23.8048 14.3454Z" fill="#00BAFF"/>
<path d="M23.9536 14.3726L24.7969 2.31348L22.713 2.16776L21.8697 14.2269L23.9536 14.3726Z" fill="#00B6FF"/>
<path d="M24.1027 14.4029L25.1562 2.36035L23.0752 2.17829L22.0216 14.2208L24.1027 14.4029Z" fill="#00B2FF"/>
<path d="M24.2501 14.4344L25.5137 2.41211L23.4361 2.19375L22.1725 14.2161L24.2501 14.4344Z" fill="#00ADFF"/>
<path d="M24.3979 14.4691L25.8711 2.4707L23.7977 2.21612L22.3245 14.2146L24.3979 14.4691Z" fill="#00A9FF"/>
<path d="M24.5442 14.5061L26.2266 2.53516L24.1579 2.24443L22.4755 14.2153L24.5442 14.5061Z" fill="#00A5FF"/>
<path d="M24.691 14.5462L26.582 2.60645L24.5188 2.27966L22.6277 14.2194L24.691 14.5462Z" fill="#00A1FF"/>
<path d="M24.8364 14.5885L26.9355 2.68359L24.8783 2.32085L22.7792 14.2257L24.8364 14.5885Z" fill="#009CFF"/>
<path d="M24.9805 14.633L27.2871 2.7666L25.2365 2.36801L22.9299 14.2344L24.9805 14.633Z" fill="#0098FF"/>
<path d="M25.1253 14.6808L27.6387 2.85645L25.5953 2.42212L23.082 14.2465L25.1253 14.6808Z" fill="#0094FF"/>
<path d="M25.2689 14.7299L27.9883 2.95117L25.9528 2.48125L23.2335 14.26L25.2689 14.7299Z" fill="#0090FF"/>
<path d="M25.4095 14.7832L28.334 3.05371L26.3071 2.54834L23.3826 14.2778L25.4095 14.7832Z" fill="#008BFF"/>
<path d="M25.5509 14.8378L28.6797 3.16113L26.6619 2.62047L23.5331 14.2971L25.5509 14.8378Z" fill="#0087FF"/>
<path d="M25.6914 14.8947L29.0234 3.27441L27.0154 2.69861L23.6833 14.3189L25.6914 14.8947Z" fill="#0083FF"/>
<path d="M25.8309 14.9549L29.3652 3.39453L27.3675 2.78377L23.8332 14.3441L25.8309 14.9549Z" fill="#007FFF"/>
<path d="M25.9695 15.0164L29.7051 3.51953L27.7183 2.874L23.9828 14.3709L25.9695 15.0164Z" fill="#007BFF"/>
<path d="M26.1073 15.0813L30.043 3.65137L28.0678 2.97126L24.1322 14.4012L26.1073 15.0813Z" fill="#0076FF"/>
<path d="M26.2424 15.1476L30.377 3.78809L28.414 3.07361L24.2794 14.4331L26.2424 15.1476Z" fill="#0072FF"/>
<path d="M26.3768 15.2173L30.709 3.93164L28.7588 3.18302L24.4266 14.4686L26.3768 15.2173Z" fill="#006EFF"/>
<path d="M26.5106 15.2884L31.0391 4.08008L29.1022 3.29753L24.5737 14.5058L26.5106 15.2884Z" fill="#006AFF"/>
<path d="M26.6419 15.3629L31.3652 4.23535L29.4423 3.41912L24.719 14.5467L26.6419 15.3629Z" fill="#0065FF"/>
<path d="M26.7726 15.4389L31.6895 4.39551L29.7811 3.54584L24.8642 14.5893L26.7726 15.4389Z" fill="#0061FF"/>
<path d="M26.9029 15.5175L32.0117 4.56152L30.1185 3.67868L25.0096 14.6346L26.9029 15.5175Z" fill="#005DFF"/>
<path d="M27.0308 15.5975L32.3301 4.73242L30.4525 3.81667L25.1532 14.6818L27.0308 15.5975Z" fill="#0059FF"/>
<path d="M27.1584 15.6811L32.6465 4.91016L30.7852 3.96178L25.2971 14.7328L27.1584 15.6811Z" fill="#0054FF"/>
<path d="M27.2838 15.7663L32.959 5.09277L31.1145 4.11206L25.4393 14.7856L27.2838 15.7663Z" fill="#0050FF"/>
<path d="M27.4069 15.8541L33.2676 5.28125L31.4405 4.26849L25.5799 14.8414L27.4069 15.8541Z" fill="#004CFF"/>
<path d="M27.5299 15.9436L33.5742 5.47461L31.7651 4.43012L25.7208 14.8991L27.5299 15.9436Z" fill="#0048FF"/>
<path d="M27.6489 16.0348L33.875 5.67285L32.0844 4.59695L25.8583 14.9589L27.6489 16.0348Z" fill="#0043FF"/>
<path d="M27.7679 16.1286L34.1738 5.87695L32.4023 4.76996L25.9963 15.0216L27.7679 16.1286Z" fill="#003FFF"/>
<path d="M27.8868 16.2242L34.4707 6.08594L32.7187 4.9482L26.1348 15.0865L27.8868 16.2242Z" fill="#003BFF"/>
<path d="M28.0019 16.3217L34.7617 6.2998L33.0299 5.13166L26.27 15.1535L28.0019 16.3217Z" fill="#0037FF"/>
<path d="M28.1151 16.4219L35.0488 6.51953L33.3376 5.32134L26.4039 15.2237L28.1151 16.4219Z" fill="#0032FF"/>
<path d="M28.2285 16.523L35.334 6.74316L33.644 5.51529L26.5385 15.2951L28.2285 16.523Z" fill="#002EFF"/>
<path d="M28.3382 16.627L35.6133 6.97266L33.945 5.71548L26.6699 15.3698L28.3382 16.627Z" fill="#002AFF"/>
<path d="M28.4462 16.7329L35.8887 7.20703L34.2425 5.92093L26.8001 15.4468L28.4462 16.7329Z" fill="#0026FF"/>
<path d="M28.5526 16.8399L36.1602 7.44531L34.5367 6.13068L26.9291 15.5252L28.5526 16.8399Z" fill="#0022FF"/>
<path d="M22.9508 42.9178H21.7642C21.7091 42.8978 21.6539 42.8928 21.5984 42.8928C20.9648 42.8628 20.3358 42.8117 19.7124 42.727C18.5461 42.5761 17.3994 42.3196 16.2832 41.963C14.3675 41.35 12.5825 40.4702 10.9282 39.3238C9.39417 38.2578 8.03708 37.0012 6.85522 35.5537C5.4619 33.8545 4.37621 31.9792 3.60655 29.9186C2.91745 28.0888 2.50525 26.194 2.37926 24.2383C2.37926 24.1327 2.35924 24.0272 2.32422 23.9216V21.8555C2.35924 21.7644 2.37425 21.6693 2.37926 21.574C2.40428 21.1063 2.45431 20.6387 2.51536 20.1766C2.81728 17.9447 3.48056 15.8279 4.5015 13.822C5.20542 12.4394 6.06034 11.1531 7.06557 9.96602C8.0613 8.78997 9.17761 7.7389 10.4142 6.81923C12.4307 5.32094 14.6483 4.24026 17.0717 3.57707C18.2481 3.25574 19.4503 3.04459 20.6667 2.94371C20.8826 2.9237 21.1094 2.94371 21.3254 2.88867H23.3567C23.5124 2.9337 23.6736 2.90869 23.8292 2.9237C24.6342 2.99375 25.4335 3.09492 26.2275 3.25054C28.7267 3.74319 31.0444 4.67847 33.1869 6.06018C34.8515 7.13086 36.3197 8.4227 37.6017 9.92569C38.6328 11.1323 39.5072 12.4444 40.2214 13.8615C41.0661 15.5358 41.6693 17.2898 42.0119 19.1345C42.1926 20.1096 42.3287 21.0949 42.3333 22.0903C42.3333 22.1564 42.3484 22.2264 42.3534 22.2913V23.4778C42.3333 23.5528 42.3333 23.6334 42.3283 23.7138C42.3283 23.9047 42.3283 24.0963 42.3133 24.2871C42.2223 25.5038 42.0317 26.705 41.7298 27.8913C41.1517 30.1184 40.2209 32.1845 38.9287 34.0894C37.9681 35.5071 36.8471 36.7841 35.5596 37.9149C34.2776 39.041 32.8743 39.9912 31.3505 40.7598C29.5953 41.6443 27.75 42.2581 25.814 42.5944C25.0701 42.725 24.3207 42.8102 23.5667 42.8556C23.368 42.8786 23.1573 42.8738 22.9508 42.9178Z" fill="#383838"/>
<path style="mix-blend-mode:lighten" d="M17.1327 14.599C17.1187 14.9668 17.1841 15.3688 17.2924 15.7709C17.4988 16.536 17.8409 17.2371 18.2444 17.8993C19.1634 19.4052 20.3217 20.6944 21.5785 21.8914C21.6815 21.9898 21.804 22.0729 21.9352 22.1362C22.0666 22.2046 22.1978 22.2046 22.3336 22.146C22.4648 22.0874 22.5822 22.004 22.6807 21.8957C23.1169 21.4448 23.548 20.9932 23.9609 20.5271C24.5423 19.8649 25.0959 19.1837 25.5977 18.4529C26.0529 17.7908 26.4606 17.0942 26.7605 16.339C27.0603 15.5883 27.206 14.8141 27.1076 14C26.9435 12.6566 26.395 11.5184 25.4147 10.6259C24.2556 9.57232 22.9054 9.15048 21.386 9.38546C18.9148 9.76845 17.1232 12.0442 17.1327 14.599Z" fill="url(#paint0_radial_1308_6060)"/>
<path d="M29.9225 32.9092C29.6115 32.9187 29.2622 32.8802 28.9131 32.806C27.8801 32.5799 27.0027 32.1102 26.3284 31.2775C25.9183 30.7697 25.5736 30.2194 25.2764 29.6406C24.9271 28.9587 24.6352 28.2482 24.3806 27.5289C24.0696 26.6589 23.8054 25.77 23.6021 24.8714C23.4892 24.368 23.6161 24.0526 24.1729 23.8792C24.8801 23.6582 25.5926 23.4607 26.3189 23.3005C27.5213 23.037 28.7333 22.868 29.9696 22.9096C30.3188 22.9236 30.6673 22.9611 31.0121 23.0223C32.0121 23.1965 32.8608 23.6575 33.5541 24.3863C34.7382 25.628 35.2092 27.1096 34.9172 28.7985C34.4975 31.2117 32.356 32.9282 29.9225 32.9092Z" fill="url(#paint1_radial_1308_6060)"/>
<path d="M14.3464 32.9092C14.6574 32.9187 15.0067 32.8802 15.3558 32.806C16.3889 32.5799 17.2663 32.1102 17.9406 31.2775C18.3506 30.7697 18.6954 30.2194 18.9925 29.6406C19.3419 28.9587 19.6338 28.2482 19.8883 27.5289C20.1994 26.6589 20.4635 25.77 20.6668 24.8714C20.7797 24.368 20.6528 24.0526 20.096 23.8792C19.3888 23.6582 18.6763 23.4607 17.95 23.3005C16.7476 23.037 15.5356 22.868 14.2994 22.9096C13.9501 22.9236 13.6016 22.9611 13.2569 23.0223C12.2569 23.1965 11.4081 23.6575 10.7149 24.3863C9.53073 25.628 9.05974 27.1096 9.35174 28.7985C9.77139 31.2117 11.9129 32.9282 14.3464 32.9092Z" fill="url(#paint2_radial_1308_6060)"/>
</g>
<defs>
<radialGradient id="paint0_radial_1308_6060" cx="0" cy="0" r="1" gradientUnits="userSpaceOnUse" gradientTransform="translate(22.2313 21.5218) rotate(4.82254) scale(5.31502 9.82482)">
<stop stop-color="white"/>
<stop offset="1" stop-color="#009BD8"/>
</radialGradient>
<radialGradient id="paint1_radial_1308_6060" cx="0" cy="0" r="1" gradientUnits="userSpaceOnUse" gradientTransform="translate(23.62 24.5639) rotate(21.7759) scale(11.7207 6.26327)">
<stop stop-color="white"/>
<stop offset="1" stop-color="#FF3044"/>
</radialGradient>
<radialGradient id="paint2_radial_1308_6060" cx="0" cy="0" r="1" gradientUnits="userSpaceOnUse" gradientTransform="translate(20.5867 24.1392) rotate(146.321) scale(11.8446 5.38399)">
<stop stop-color="white"/>
<stop offset="1" stop-color="#FCFF7C"/>
</radialGradient>
<clipPath id="clip0_1308_6060">
<rect width="45" height="45" fill="white"/>
</clipPath>
</defs>
</svg>
