<svg width="32" height="40" viewBox="0 0 32 40" fill="none" xmlns="http://www.w3.org/2000/svg">
<g clip-path="url(#clip0_1308_5976)">
<path d="M22.7538 8.43152C19.8826 5.69311 17.1588 3.02671 16.3488 0C15.5388 3.02671 12.815 5.69371 9.9438 8.43212C5.67388 12.612 0.81526 17.3682 0.81526 24.5029C0.594302 32.8627 7.44093 39.8533 15.9808 39.9976C24.5206 40.1419 31.6617 33.5116 31.8091 25.1518V24.5032C31.8824 17.3682 27.0238 12.612 22.7538 8.43182V8.43152ZM8.76607 25.8718C8.32446 26.4484 7.88285 27.097 7.58804 27.7456C7.51418 27.8179 7.44063 27.9619 7.29383 27.9619L7.22028 27.9613C6.85222 27.9613 6.48386 27.3127 6.48386 27.3127C6.41 27.1684 6.2629 26.9527 6.18966 26.8084L6.1158 26.6647C5.15842 24.6463 5.96839 21.8362 5.96839 21.8362C6.33614 20.4673 6.99902 19.0974 7.80899 17.9445C8.32415 17.2236 8.91348 16.5033 9.50219 15.7824L10.2386 16.5033L13.6989 19.9627C13.8463 20.107 13.8463 20.3227 13.6989 20.467L10.0912 24.4309L8.76576 25.8715L8.76607 25.8718ZM16.4962 35.8171C13.5514 35.8171 11.1221 33.4387 11.1954 30.5563C11.1954 29.2588 11.7105 28.0342 12.5208 27.097C13.6253 25.7995 15.024 24.5026 16.5701 22.7731C18.3368 24.6469 19.5149 25.8718 20.6193 27.3136C20.6932 27.3859 20.7668 27.5299 20.8403 27.6739C21.4293 28.5385 21.7971 29.5477 21.7971 30.6289C21.8703 33.5113 19.4413 35.8177 16.4962 35.8177V35.8171ZM26.5821 27.457C26.5083 27.6736 26.2879 27.8173 26.067 27.8893L25.9931 27.8899C25.7722 27.8176 25.6254 27.6736 25.478 27.5296C24.5212 26.1607 23.4906 24.8632 22.3125 23.71L20.9142 22.2688L16.2023 17.5125C15.2456 16.6479 14.2882 15.6387 13.4047 14.7018C13.4047 14.6298 13.3311 14.6298 13.3311 14.6298C13.1837 14.4135 13.0369 14.1975 12.963 13.9089V13.7646C12.8156 12.9717 13.1105 12.1791 13.6995 11.6025C14.5827 10.7379 15.5401 9.80072 16.4233 8.86412C17.3801 9.87302 18.4107 10.8819 19.4419 11.8908C21.5032 13.7646 23.3438 15.8547 25.037 18.0888C26.4353 20.0344 27.1718 22.2688 27.1718 24.6472C27.0241 25.5118 26.8767 26.5207 26.5824 27.4573L26.5821 27.457Z" fill="#009CDE"/>
</g>
<defs>
<clipPath id="clip0_1308_5976">
<rect width="31" height="40" fill="white" transform="translate(0.810059)"/>
</clipPath>
</defs>
</svg>
