<svg width="35" height="35" viewBox="0 0 35 35" fill="none" xmlns="http://www.w3.org/2000/svg">
<path d="M11.6673 34.9997C14.8873 34.9997 17.5007 32.3863 17.5007 29.1663V23.333H11.6673C8.44732 23.333 5.83398 25.9463 5.83398 29.1663C5.83398 32.3863 8.44732 34.9997 11.6673 34.9997Z" fill="#0ACF83"/>
<path d="M5.83398 17.5003C5.83398 14.2803 8.44732 11.667 11.6673 11.667H17.5007V23.3336H11.6673C8.44732 23.3336 5.83398 20.7203 5.83398 17.5003Z" fill="#A259FF"/>
<path d="M5.83398 5.83333C5.83398 2.61333 8.44732 0 11.6673 0H17.5007V11.6667H11.6673C8.44732 11.6667 5.83398 9.05333 5.83398 5.83333Z" fill="#F24E1E"/>
<path d="M17.5 0H23.3333C26.5534 0 29.1667 2.61333 29.1667 5.83333C29.1667 9.05333 26.5534 11.6667 23.3333 11.6667H17.5V0Z" fill="#FF7262"/>
<path d="M29.1667 17.5003C29.1667 20.7203 26.5534 23.3336 23.3333 23.3336C20.1133 23.3336 17.5 20.7203 17.5 17.5003C17.5 14.2803 20.1133 11.667 23.3333 11.667C26.5534 11.667 29.1667 14.2803 29.1667 17.5003Z" fill="#1ABCFE"/>
</svg>
