<svg width="36" height="34" viewBox="0 0 36 34" fill="none" xmlns="http://www.w3.org/2000/svg">
<path d="M2.5501 23.255C2.58364 23.3308 2.62156 23.4008 2.66239 23.4708C2.68135 23.5117 2.7076 23.5539 2.73093 23.5919C2.76885 23.6677 2.80968 23.7406 2.84906 23.8135L3.07802 24.1985C3.12031 24.27 3.16115 24.34 3.20927 24.41C3.28948 24.5471 3.38427 24.6812 3.4674 24.8183C3.50532 24.8752 3.54032 24.9321 3.58261 24.989C3.74303 25.2383 3.88886 25.4454 4.04491 25.6467C4.15574 25.7969 4.26658 25.9442 4.38616 26.0915C4.42553 26.1469 4.46929 26.2023 4.51012 26.2577L4.83241 26.6486C4.87179 26.6938 4.91117 26.7463 4.95346 26.7929C5.09638 26.965 5.24804 27.1313 5.39971 27.3004C5.39971 27.3034 5.40409 27.3063 5.407 27.3107C5.59513 27.5469 5.79784 27.7569 6.01951 27.9436L6.02534 27.9494C6.14201 28.069 6.25868 28.1871 6.38264 28.3038L6.52993 28.4452C6.69181 28.5969 6.85369 28.7471 7.02431 28.893C7.02723 28.893 7.02869 28.8959 7.0316 28.8973L7.11473 28.9702C7.26348 29.1 7.41369 29.2284 7.56682 29.348L7.74911 29.5011C7.87307 29.6003 8.00141 29.6936 8.12828 29.7913L8.32662 29.943C8.46224 30.045 8.60662 30.1442 8.74516 30.2434C8.79621 30.2798 8.84725 30.3163 8.89975 30.3498L8.94204 30.3834L9.35184 30.6517L9.52684 30.7684C9.74122 30.9055 9.95414 31.0338 10.1671 31.1621C10.2283 31.1928 10.2896 31.2263 10.3464 31.2613C10.5039 31.3517 10.6673 31.4436 10.8262 31.5267C10.9137 31.5763 11.0041 31.6186 11.0946 31.6638C11.2039 31.7251 11.3177 31.7849 11.4344 31.8461C11.4664 31.8563 11.4927 31.8665 11.5189 31.8811L11.5248 31.8753C11.5729 31.8972 11.6181 31.9205 11.6648 31.9438C11.8398 32.0313 12.0221 32.1144 12.2117 32.1961C12.2467 32.2107 12.2846 32.2253 12.3225 32.2457C12.5325 32.3376 12.7425 32.4251 12.9598 32.5097C13.0094 32.5242 13.0619 32.549 13.1129 32.568C13.3098 32.6424 13.5125 32.7182 13.7138 32.7897L13.7867 32.8159C14.0098 32.8917 14.23 32.9647 14.4575 33.0332C14.51 33.0478 14.564 33.0667 14.6194 33.0813C14.8513 33.1513 15.0759 33.2345 15.3107 33.2782C30.2923 35.9951 34.6454 24.3152 34.6454 24.3152C30.9879 29.0548 24.4968 30.3046 18.3498 28.9134C18.1223 28.8609 17.8948 28.788 17.6644 28.7209C17.3392 28.6288 17.0168 28.5272 16.6975 28.4161L16.8361 28.4584L16.7457 28.4234C16.5473 28.3563 16.3563 28.2819 16.1623 28.2075C16.1149 28.1874 16.0667 28.1689 16.018 28.1521L16.0019 28.1477C15.7875 28.0617 15.579 27.9742 15.3719 27.8823C15.3267 27.8677 15.2888 27.8473 15.2436 27.8298C14.9983 27.7229 14.7552 27.6111 14.5144 27.4944L14.7156 27.5834C14.6631 27.5601 14.6116 27.5348 14.5611 27.5075C14.424 27.4434 14.2869 27.3704 14.1527 27.3019C14.0505 27.2535 13.9499 27.2019 13.8508 27.1473L13.88 27.1619C13.7152 27.0744 13.5504 26.9796 13.3842 26.8906C13.3346 26.8556 13.2777 26.8265 13.2208 26.7944C12.9737 26.6508 12.7296 26.502 12.4887 26.3481L12.5806 26.4036C12.5189 26.3654 12.4586 26.3251 12.3998 26.2825L12.4085 26.2883C12.2518 26.1921 12.0981 26.0909 11.9477 25.985C11.8981 25.9529 11.8529 25.9179 11.8019 25.8829C11.6447 25.7757 11.4901 25.6648 11.3381 25.5504L11.3731 25.5752C11.3119 25.5256 11.2462 25.479 11.1806 25.4308C11.0523 25.3302 10.9225 25.234 10.7941 25.129L10.6221 24.9919C10.4387 24.846 10.2587 24.6957 10.0825 24.5413L10.081 24.5398L9.57497 24.0804L9.42913 23.9433C9.30955 23.8223 9.18704 23.7071 9.06454 23.5875L8.92308 23.4417C8.7721 23.2921 8.62476 23.139 8.4812 22.9823L8.47245 22.9721L8.44766 22.9517C8.29325 22.7821 8.14108 22.6105 7.9912 22.4369C7.95182 22.3916 7.91536 22.3435 7.87453 22.2954L7.54348 21.8944C7.39426 21.7069 7.2484 21.5168 7.10598 21.3241L7.04765 21.2425C3.63803 16.6108 2.40426 10.2188 5.13283 4.97461L2.72364 8.0211C-0.375349 12.453 0.00819653 18.2164 2.37801 22.9225C2.43197 23.0377 2.49176 23.1456 2.5501 23.255Z" fill="#1266A9"/>
<path d="M12.9882 16.8699L12.9721 16.8466L12.959 16.8291L12.9882 16.8699Z" fill="black"/>
<path d="M14.6183 18.7838L14.7496 18.9151C14.9158 19.0755 15.0865 19.2315 15.26 19.3876L15.2819 19.4065C15.4569 19.5611 15.6538 19.723 15.8565 19.8805L15.8871 19.9038C15.9367 19.9374 15.979 19.9767 16.0271 20.0103C16.2313 20.1678 16.4369 20.318 16.6513 20.4682L16.6731 20.4813C16.7636 20.547 16.8598 20.6068 16.9619 20.6709C17.0027 20.6972 17.0494 20.7322 17.0931 20.7584C17.2477 20.8576 17.3994 20.9495 17.5554 21.0443C17.5802 21.0545 17.6021 21.0676 17.6254 21.0778C17.7567 21.158 17.8996 21.2353 18.0367 21.3053C18.0848 21.3345 18.1315 21.3563 18.1811 21.3841C18.2788 21.4322 18.375 21.4832 18.4684 21.5328L18.515 21.5532C18.7119 21.6495 18.9132 21.7399 19.11 21.8288C19.1596 21.8478 19.2019 21.8638 19.2442 21.8843C19.4061 21.9543 19.5709 22.0213 19.7328 22.0826C19.8057 22.1074 19.8742 22.1366 19.9428 22.1584C20.0915 22.2139 20.2476 22.2649 20.3948 22.3159L20.599 22.3816C20.8119 22.4472 21.0278 22.5332 21.2538 22.5682C32.8229 24.4728 35.5004 15.6105 35.5004 15.6105C33.0898 19.0624 28.4245 20.7074 23.453 19.4226C23.2048 19.36 22.9587 19.2895 22.7151 19.2111L22.7982 19.2344C22.7282 19.2155 22.667 19.1936 22.5999 19.1732C22.4482 19.1207 22.2922 19.0697 22.1449 19.0157L21.9349 18.9369C21.7715 18.8713 21.6053 18.8101 21.4463 18.7401C21.3967 18.7182 21.3515 18.7036 21.3136 18.6817C21.1094 18.5899 20.9038 18.4994 20.704 18.4032L20.4036 18.2471L20.2301 18.1596C20.0959 18.0896 19.9719 18.0167 19.8436 17.9424C19.8109 17.927 19.7792 17.9094 19.7488 17.8898L19.7532 17.8913C19.5986 17.7951 19.4382 17.7017 19.2894 17.604C19.2398 17.5763 19.1946 17.5428 19.148 17.5136L18.8446 17.3167C18.6346 17.1709 18.429 17.0148 18.2205 16.8632C18.1738 16.8209 18.1286 16.7859 18.0834 16.748C15.8973 15.0373 14.1735 12.6996 13.3554 10.0527C12.4935 7.30079 12.6831 4.21492 14.1721 1.71094L12.3419 4.2893C10.0945 7.49912 10.2214 11.7896 11.9714 15.1846C12.2908 15.8117 12.6146 16.3411 12.9719 16.8457C13.3044 17.3211 13.6719 17.8782 14.1152 18.2603C14.2727 18.4396 14.4419 18.6103 14.6183 18.7838Z" fill="#1266A9"/>
<path d="M20.4287 1.4974C19.1031 3.43262 18.9762 5.83598 19.8891 7.96954C20.8589 10.2358 22.8408 12.015 25.1508 12.8579C25.2456 12.8944 25.3375 12.925 25.4352 12.96L25.5636 12.9994C25.6977 13.0417 25.8333 13.0913 25.9719 13.1219C32.3609 14.3484 34.0905 9.8581 34.5557 9.19747C33.0347 11.3704 30.484 11.8925 27.3544 11.1356C27.0823 11.0693 26.8144 10.9865 26.5523 10.8877L26.6004 10.9037C26.2743 10.7909 25.9549 10.6594 25.6438 10.51L25.6992 10.5348C25.1013 10.2431 24.5879 9.9281 24.111 9.56643C21.3139 7.45183 19.5843 3.42533 21.4102 0.145508L20.4287 1.4974Z" fill="#1266A9"/>
</svg>
