<svg width="39" height="40" viewBox="0 0 39 40" fill="none" xmlns="http://www.w3.org/2000/svg">
<path d="M39 0H0V40H39V0Z" fill="#F7DF1E"/>
<path d="M26.1989 31.2498C26.9844 32.5653 28.0065 33.5323 29.8141 33.5323C31.3326 33.5323 32.3027 32.7539 32.3027 31.6783C32.3027 30.3895 31.306 29.933 29.6346 29.1831L28.7184 28.7799C26.0738 27.6244 24.317 26.1768 24.317 23.1164C24.317 20.2974 26.4112 18.1514 29.6841 18.1514C32.0142 18.1514 33.6893 18.9831 34.8965 21.1609L32.0427 23.0403C31.4143 21.8847 30.7365 21.4295 29.6841 21.4295C28.6107 21.4295 27.9303 22.1279 27.9303 23.0403C27.9303 24.1679 28.6113 24.6244 30.1837 25.3228L31.0999 25.7253C34.2137 27.0949 35.9718 28.491 35.9718 31.6301C35.9718 35.0142 33.3798 36.8682 29.8989 36.8682C26.4954 36.8682 24.2965 35.2047 23.2206 33.0244L26.1989 31.2498ZM13.2527 31.5755C13.8284 32.6231 14.3521 33.5088 15.6113 33.5088C16.8153 33.5088 17.5749 33.0257 17.5749 31.1469V18.366H21.2397V31.1977C21.2397 35.0898 19.0148 36.8612 15.7673 36.8612C12.833 36.8612 11.1337 35.3037 10.2695 33.4279L13.2527 31.5755Z" fill="black"/>
</svg>
