<svg width="35" height="36" viewBox="0 0 35 36" fill="none" xmlns="http://www.w3.org/2000/svg">
<path d="M34.472 7.92931C34.4845 7.97569 34.4909 8.02351 34.491 8.07155V15.5385C34.491 15.6343 34.4657 15.7285 34.4177 15.8114C34.3696 15.8943 34.3006 15.9631 34.2174 16.0108L27.9503 19.619V26.7709C27.9503 26.9655 27.8468 27.1452 27.6781 27.2432L14.5959 34.7741C14.566 34.7911 14.5333 34.802 14.5007 34.8136C14.4884 34.8177 14.4769 34.8252 14.4639 34.8286C14.3725 34.8526 14.2763 34.8526 14.1849 34.8286C14.1699 34.8245 14.1563 34.8163 14.142 34.8109C14.1121 34.8 14.0808 34.7905 14.0522 34.7741L0.972798 27.2432C0.889708 27.1955 0.820669 27.1267 0.772639 27.0438C0.724609 26.9608 0.699285 26.8667 0.699219 26.7709V4.37006C0.699219 4.32106 0.706024 4.27342 0.718274 4.22715C0.722357 4.21149 0.731885 4.1972 0.737329 4.18155C0.747537 4.15297 0.757065 4.1237 0.772037 4.09716C0.782245 4.07947 0.797217 4.06518 0.809467 4.04884C0.82512 4.02706 0.839411 4.00461 0.857786 3.98555C0.873438 3.9699 0.893855 3.95833 0.911549 3.94472C0.931285 3.92839 0.948979 3.91069 0.971437 3.89776H0.972117L7.51216 0.132301C7.59496 0.0846496 7.68883 0.0595703 7.78437 0.0595703C7.87991 0.0595703 7.97378 0.0846496 8.05659 0.132301L14.5966 3.89776H14.598C14.6198 3.91137 14.6381 3.92839 14.6579 3.94404C14.6756 3.95765 14.6953 3.9699 14.711 3.98487C14.73 4.00461 14.7436 4.02706 14.76 4.04884C14.7715 4.06518 14.7872 4.07947 14.7967 4.09716C14.8124 4.12438 14.8212 4.15297 14.8321 4.18155C14.8375 4.1972 14.8471 4.21149 14.8512 4.22783C14.8637 4.2742 14.8701 4.32202 14.8702 4.37006V18.3614L20.32 15.2234V8.07087C20.32 8.02323 20.3268 7.97491 20.3391 7.92931C20.3438 7.91298 20.3527 7.89869 20.3581 7.88304C20.369 7.85445 20.3785 7.82519 20.3935 7.79865C20.4037 7.78096 20.4187 7.76666 20.4303 7.75033C20.4466 7.72855 20.4602 7.7061 20.4793 7.68704C20.4949 7.67139 20.5147 7.65982 20.5323 7.64621C20.5528 7.62987 20.5705 7.61218 20.5922 7.59925H20.5929L27.1336 3.83379C27.2164 3.78607 27.3103 3.76095 27.4058 3.76095C27.5014 3.76095 27.5953 3.78607 27.6781 3.83379L34.2181 7.59925C34.2412 7.61286 34.2589 7.62987 34.2794 7.64553C34.2964 7.65914 34.3161 7.67139 34.3318 7.68636C34.3508 7.7061 34.3644 7.72855 34.3808 7.75033C34.393 7.76666 34.408 7.78096 34.4175 7.79865C34.4332 7.82519 34.442 7.85445 34.4529 7.88304C34.459 7.89869 34.4679 7.91298 34.472 7.92931ZM33.4008 15.2234V9.0141L31.1121 10.3316L27.9503 12.1521V18.3614L33.4015 15.2234H33.4008ZM26.8607 26.4558V20.2424L23.7506 22.0187L14.8695 27.0874V33.3593L26.8607 26.4558ZM1.78945 5.31262V26.4558L13.7793 33.3586V27.088L7.51556 23.5431L7.51352 23.5417L7.51079 23.5404C7.4897 23.5281 7.472 23.5104 7.45227 23.4954C7.43525 23.4818 7.41552 23.4709 7.40055 23.456L7.39919 23.4539C7.38149 23.4369 7.36924 23.4158 7.35427 23.3968C7.34066 23.3784 7.32433 23.3627 7.31344 23.3437L7.31276 23.3416C7.30051 23.3212 7.29302 23.2967 7.28417 23.2736C7.27533 23.2532 7.26376 23.2341 7.25831 23.2123V23.2117C7.25151 23.1858 7.25015 23.1586 7.24742 23.132C7.2447 23.1116 7.23926 23.0912 7.23926 23.0708V8.45061L4.07813 6.62947L1.78945 5.3133V5.31262ZM7.78505 1.23342L2.33593 4.37006L7.78369 7.5067L13.2321 4.36938L7.78369 1.23342H7.78505ZM10.6188 20.8086L13.78 18.9889V5.31262L11.4913 6.63015L8.32949 8.45061V22.1269L10.6188 20.8086ZM27.4058 4.93491L21.9574 8.07155L27.4058 11.2082L32.8536 8.07087L27.4058 4.93491ZM26.8607 12.1521L23.6989 10.3316L21.4102 9.0141V15.2234L24.5714 17.0432L26.8607 18.3614V12.1521ZM14.3237 26.1448L22.3154 21.5824L26.3102 19.3026L20.8658 16.168L14.5973 19.7769L8.88414 23.066L14.3237 26.1448Z" fill="#FF2D20"/>
</svg>
