<svg width="18" height="38" viewBox="0 0 18 38" fill="none" xmlns="http://www.w3.org/2000/svg">
<path d="M9.1924 0.103516L10.2024 2.00812C10.4295 2.3596 10.6755 2.6707 10.9652 2.96043C11.8147 3.80269 12.6065 4.70163 13.3352 5.6511C15.0465 7.90718 16.2008 10.4126 17.0251 13.1223C17.5195 14.7775 17.7879 16.4755 17.8081 18.1925C17.8908 23.3257 16.1381 27.7334 12.6044 31.3965C12.0296 31.9774 11.4086 32.5104 10.7476 32.9901C10.3975 32.9901 10.232 32.7205 10.0877 32.4723C9.82492 32.0122 9.65004 31.5068 9.57203 30.9821C9.44785 30.3611 9.36625 29.7401 9.40646 29.0989V28.8092C9.37808 28.7474 9.0694 0.249567 9.1924 0.103516Z" fill="#599636"/>
<path d="M9.19162 0.0408505C9.15023 -0.0422683 9.10884 0.0206645 9.06744 0.0610365C9.08755 0.476631 8.94326 0.847103 8.71738 1.20095C8.46902 1.55243 8.14024 1.82197 7.81028 2.1117C5.97717 3.7052 4.53433 5.63 3.37887 7.78277C1.84142 10.6801 1.04905 13.7851 0.824341 17.0541C0.72145 18.2332 1.19569 22.3939 1.56587 23.5944C2.57585 26.7814 4.39004 29.4519 6.73998 31.7697C7.31711 32.3278 7.93446 32.8455 8.57309 33.343C8.75877 33.343 8.77887 33.1768 8.82145 33.0533C8.90285 32.789 8.96491 32.5192 9.00713 32.2458L9.42106 29.1419L9.19162 0.0408505Z" fill="#6CAC48"/>
<path d="M10.2022 34.2516C10.2436 33.7766 10.4707 33.3824 10.7179 32.9894C10.4695 32.8861 10.285 32.6806 10.1407 32.4515C10.0163 32.2345 9.91335 32.0058 9.83326 31.7687C9.54469 30.8995 9.48319 29.9876 9.40041 29.0994V28.5615C9.29752 28.6446 9.27623 29.3476 9.27623 29.4521C9.21605 30.3908 9.09197 31.3243 8.90487 32.246C8.84338 32.6189 8.80198 32.9905 8.57373 33.3218C8.57373 33.3634 8.57373 33.405 8.59384 33.4667C8.96519 34.5639 9.0669 35.6812 9.12958 36.8199V37.2355C9.12958 37.7319 9.10947 37.6274 9.51986 37.7936C9.68543 37.8553 9.86992 37.8767 10.0355 38.0002C10.1597 38.0002 10.1798 37.8969 10.1798 37.8138L10.1183 37.131V35.2264C10.0982 34.894 10.1597 34.5639 10.2011 34.2528L10.2022 34.2516Z" fill="#C2BFBF"/>
</svg>
