<svg width="35" height="36" viewBox="0 0 35 36" fill="none" xmlns="http://www.w3.org/2000/svg">
<path d="M32.2386 27.5513C30.3343 27.5031 28.8584 27.6965 27.6206 28.228C27.2635 28.3728 26.6921 28.373 26.6445 28.8321C26.835 29.0255 26.8588 29.3396 27.0254 29.6053C27.3114 30.0885 27.8109 30.741 28.2633 31.0794C28.7631 31.466 29.2632 31.8525 29.7866 32.1908C30.7151 32.7708 31.7626 33.109 32.6672 33.689C33.1911 34.027 33.7144 34.4623 34.2382 34.8246C34.5 35.0177 34.6666 35.3321 35 35.4528V35.3804C34.8332 35.1628 34.7856 34.8488 34.6191 34.6071C34.3813 34.3655 34.1429 34.148 33.9049 33.9063C33.2146 32.9641 32.3577 32.1425 31.4293 31.466C30.6676 30.9343 29.0011 30.2095 28.6918 29.3153C28.6918 29.3153 28.6678 29.2913 28.6442 29.2671C29.1678 29.2188 29.7866 29.0255 30.2867 28.8805C31.096 28.6628 31.8339 28.7113 32.6672 28.4938C33.048 28.3971 33.4289 28.2763 33.8096 28.1555V27.9381C33.3814 27.5031 33.0719 26.9233 32.6196 26.5125C31.4055 25.449 30.0723 24.4102 28.6918 23.5403C27.9538 23.057 27.0015 22.7428 26.216 22.3322C25.9306 22.187 25.4543 22.1147 25.2878 21.873C24.8591 21.3415 24.621 20.6408 24.3117 20.0125C23.6216 18.6834 22.9548 17.2095 22.3596 15.8082C21.9314 14.8657 21.6695 13.9232 21.1458 13.0535C18.6939 8.94568 16.0278 6.45686 11.9335 4.01622C11.0526 3.50887 10.0052 3.29138 8.88644 3.02569C8.29154 3.00139 7.69622 2.95319 7.10118 2.92889C6.72027 2.75973 6.33935 2.30071 6.00605 2.08322C4.64946 1.21324 1.14994 -0.671299 0.150181 1.81753C-0.492612 3.38804 1.10247 4.93439 1.64976 5.73201C2.05475 6.28769 2.57824 6.91587 2.86392 7.54419C3.03057 7.95474 3.07805 8.39 3.2447 8.82485C3.62575 9.88774 3.98258 11.072 4.48267 12.0628C4.74455 12.5702 5.0301 13.1017 5.3634 13.5608C5.55385 13.8265 5.88702 13.9475 5.95858 14.3824C5.62541 14.8657 5.60147 15.5907 5.41087 16.1947C4.55395 18.9252 4.88739 22.308 6.10128 24.3135C6.48206 24.9174 7.38673 26.2468 8.60076 25.7392C9.67208 25.3043 9.43401 23.927 9.74323 22.7188C9.81492 22.4285 9.76731 22.2355 9.91001 22.0422V22.0906C10.2433 22.767 10.5765 23.4196 10.886 24.0961C11.624 25.28 12.9093 26.5125 13.9805 27.3341C14.552 27.7688 15.0042 28.518 15.7184 28.7838V28.7112H15.6707C15.5278 28.4937 15.3135 28.3971 15.1232 28.2278C14.6948 27.7931 14.2186 27.2615 13.8854 26.7782C12.8858 25.4249 12.0048 23.9268 11.2193 22.3803C10.8385 21.6315 10.5051 20.8098 10.1957 20.0608C10.0527 19.7706 10.0527 19.3358 9.81478 19.191C9.45768 19.7225 8.93406 20.1817 8.67218 20.834C8.22012 21.873 8.17237 23.1537 8.00572 24.4825C7.91049 24.507 7.95796 24.4825 7.91035 24.5311C7.1488 24.3375 6.88692 23.5403 6.60109 22.8637C5.88688 21.1482 5.76785 18.3935 6.38697 16.4122C6.55362 15.9047 7.26783 14.31 6.98215 13.8267C6.8393 13.3675 6.36302 13.1017 6.10128 12.7393C5.79193 12.2802 5.45849 11.7005 5.24436 11.1929C4.67299 9.83969 4.3873 8.34153 3.76846 6.98837C3.48277 6.36005 2.98309 5.70785 2.57824 5.12786C2.12604 4.47552 1.62609 4.01622 1.26898 3.24305C1.15008 2.97736 0.983294 2.54237 1.17375 2.25238C1.22137 2.05905 1.31646 1.98669 1.50705 1.93836C1.81654 1.67239 2.69741 2.01072 3.00663 2.15571C3.88749 2.51793 4.62538 2.85653 5.3634 3.36388C5.69656 3.60554 6.05367 4.06469 6.48206 4.18552H6.98201C7.74384 4.35455 8.60062 4.23386 9.31483 4.45121C10.5766 4.8619 11.7191 5.46605 12.7428 6.11853C15.8612 8.12404 18.4319 10.9754 20.1698 14.3824C20.4555 14.9379 20.5744 15.4457 20.8363 16.0254C21.3363 17.2095 21.9552 18.4177 22.4549 19.5775C22.9548 20.713 23.4308 21.873 24.145 22.8155C24.5021 23.3227 25.9303 23.5886 26.5731 23.8545C27.0492 24.0718 27.7873 24.2653 28.2156 24.531C29.025 25.0382 29.8343 25.6185 30.5961 26.174C30.977 26.464 32.1671 27.0681 32.2386 27.5513Z" fill="#00546B"/>
<path d="M7.95824 6.55371C7.55366 6.55371 7.26811 6.60232 6.98242 6.67468V6.72301H7.03004C7.22063 7.10967 7.55366 7.3755 7.79159 7.71368C7.98218 8.1002 8.1487 8.487 8.33929 8.87365C8.36296 8.84935 8.38677 8.82532 8.38677 8.82532C8.7202 8.58352 8.88672 8.197 8.88672 7.61702C8.74387 7.44799 8.72007 7.27883 8.60103 7.10967C8.45832 6.86787 8.1487 6.74718 7.95824 6.55371Z" fill="#00546B"/>
</svg>
