<svg width="58" height="30" viewBox="0 0 58 30" fill="none" xmlns="http://www.w3.org/2000/svg">
<path fill-rule="evenodd" clip-rule="evenodd" d="M29.4048 30.001C45.145 30.001 57.9048 23.285 57.9048 15.001C57.9048 6.71696 45.145 0.000976562 29.4048 0.000976562C13.665 0.000976562 0.904785 6.71696 0.904785 15.001C0.904785 23.285 13.665 30.001 29.4048 30.001Z" fill="#6E81B6"/>
<path fill-rule="evenodd" clip-rule="evenodd" d="M35.1812 19.8491L36.5948 12.2928C36.914 10.5873 36.6486 9.31525 35.8067 8.51137C34.9909 7.73361 33.6062 7.35529 31.5736 7.35529H29.1254L29.8257 3.61147C29.8388 3.54179 29.8369 3.46996 29.8201 3.40113C29.8034 3.3323 29.7721 3.26818 29.7287 3.21337C29.6852 3.15855 29.6306 3.11441 29.5688 3.08411C29.507 3.0538 29.4395 3.03809 29.3711 3.03809H25.992C25.7701 3.03809 25.5795 3.20165 25.5371 3.42786L24.0356 11.4499C23.8991 10.5472 23.5627 9.77123 23.0244 9.13092C22.0333 7.95265 20.4656 7.35529 18.3644 7.35529H11.8151C11.5931 7.35529 11.4026 7.51886 11.3602 7.74471L8.3216 23.9827C8.29506 24.1241 8.33055 24.2694 8.41878 24.3804C8.50666 24.4917 8.63762 24.5557 8.7765 24.5557H12.1821C12.4041 24.5557 12.5946 24.3922 12.637 24.1656L13.3721 20.2382H15.9072C17.2375 20.2382 18.3554 20.0886 19.228 19.7937C20.1203 19.4923 20.9415 18.9812 21.6652 18.2775C22.2501 17.7195 22.7332 17.0946 23.1051 16.4206L22.4982 19.6648C22.4717 19.8062 22.5072 19.9522 22.5954 20.0624C22.6833 20.1738 22.8146 20.2378 22.9531 20.2378H26.3322C26.5541 20.2378 26.7447 20.0743 26.7871 19.8484L28.4547 10.9352H30.7734C31.7614 10.9352 32.0509 11.1396 32.1298 11.2272C32.2012 11.3074 32.3494 11.5898 32.1829 12.48L30.8389 19.6644C30.826 19.7341 30.8281 19.8059 30.845 19.8746C30.8619 19.9433 30.8931 20.0073 30.9366 20.0621C30.98 20.1168 31.0346 20.1609 31.0963 20.1912C31.1581 20.2215 31.2255 20.2373 31.2938 20.2375H34.7266C34.834 20.2377 34.9382 20.199 35.0211 20.1282C35.1041 20.0573 35.1607 19.9586 35.1812 19.8491ZM19.5151 13.6056C19.3028 14.7384 18.903 15.5462 18.3261 16.0069C17.7403 16.4761 16.8032 16.7138 15.5409 16.7138H14.0314L15.1228 10.8804H17.0744C18.5081 10.8804 19.0857 11.1986 19.3176 11.4653C19.6392 11.8353 19.7074 12.5759 19.5151 13.6056ZM49.4146 9.13092C48.4238 7.95265 46.8561 7.35529 44.7549 7.35529H38.2056C37.9833 7.35529 37.7931 7.51886 37.7507 7.74471L34.7125 23.9827C34.6856 24.1241 34.7211 24.2694 34.8093 24.3804C34.8975 24.4913 35.0289 24.5557 35.1667 24.5557H38.5727C38.7949 24.5557 38.9852 24.3922 39.0276 24.1656L39.7627 20.2382H42.2981C43.6287 20.2382 44.7456 20.0886 45.6186 19.7937C46.5112 19.4923 47.3324 18.9812 48.0558 18.2775C48.6596 17.7016 49.1562 17.0542 49.5325 16.3551C49.9088 15.6561 50.1787 14.8766 50.3362 14.0376C50.7232 11.9685 50.4134 10.3178 49.4146 9.13092ZM46.099 13.6056C45.8863 14.7384 45.4866 15.5462 44.9104 16.0069C44.3241 16.4761 43.3871 16.7138 42.1251 16.7138H40.6153L41.7064 10.8804H43.6583C45.092 10.8804 45.6696 11.1986 45.9018 11.4653C46.2227 11.8353 46.2913 12.5759 46.099 13.6056Z" fill="white"/>
<path fill-rule="evenodd" clip-rule="evenodd" d="M16.9765 10.3991C18.2703 10.3991 19.1329 10.6471 19.564 11.1432C19.9948 11.6392 20.0975 12.4911 19.8721 13.6976C19.6364 14.9543 19.1828 15.8512 18.5108 16.3888C17.8388 16.9264 16.8159 17.1948 15.4429 17.1948H13.371L14.6427 10.3991H16.9765ZM8.67822 24.0744H12.0838L12.892 19.7575H15.8093C17.0965 19.7575 18.1555 19.6169 18.9867 19.3359C19.818 19.0549 20.5738 18.5843 21.2537 17.9232C21.8244 17.3788 22.2862 16.7775 22.6398 16.1204C22.9931 15.4632 23.2439 14.7384 23.3925 13.9457C23.753 12.0208 23.481 10.5215 22.5774 9.44771C21.6742 8.3736 20.2367 7.83673 18.2665 7.83673H11.7172L8.67822 24.0744ZM25.8938 3.51953H29.2729L28.4651 7.83673H31.4757C33.3691 7.83673 34.6763 8.17961 35.3952 8.86574C36.1141 9.55187 36.3295 10.6639 36.0421 12.2012L34.6284 19.7575H31.1955L32.5396 12.5727C32.6923 11.7552 32.6364 11.1979 32.3707 10.9005C32.105 10.6034 31.5395 10.4545 30.6752 10.4545H27.9747L26.2339 19.7575H22.8549L25.8938 3.51953ZM43.5605 10.3991C44.8542 10.3991 45.7165 10.6471 46.1479 11.1432C46.5787 11.6392 46.6811 12.4911 46.4557 13.6976C46.2207 14.9543 45.7671 15.8512 45.0948 16.3888C44.4231 16.9264 43.3999 17.1948 42.0276 17.1948H39.9557L41.227 10.3991H43.5605ZM35.2615 24.0744H38.6674L39.4752 19.7575H42.3925C43.6801 19.7575 44.7391 19.6169 45.5703 19.3359C46.4016 19.0549 47.1574 18.5843 47.8373 17.9232C48.408 17.3788 48.8698 16.7775 49.2231 16.1204C49.5763 15.4632 49.8275 14.7384 49.9764 13.9457C50.3365 12.0208 50.0646 10.5215 49.1614 9.44771C48.2574 8.3736 46.8203 7.83673 44.8501 7.83673H38.3008L35.2615 24.0744Z" fill="black"/>
</svg>
