<svg width="35" height="35" viewBox="0 0 35 35" fill="none" xmlns="http://www.w3.org/2000/svg">
<g clip-path="url(#clip0_1308_6435)">
<path d="M6.19792 0.4375H28.8021C32.2292 0.4375 35 3.20833 35 6.63542V28.3646C35 31.7917 32.2292 34.5625 28.8021 34.5625H6.19792C2.77083 34.5625 0 31.7917 0 28.3646V6.63542C0 3.20833 2.77083 0.4375 6.19792 0.4375Z" fill="#00005B"/>
<path d="M8.3125 24.3547V9.33385C8.3125 9.23177 8.35625 9.17344 8.45833 9.17344C8.70625 9.17344 8.93958 9.17344 9.275 9.15885C9.625 9.14427 9.98958 9.14427 10.3833 9.12969C10.7771 9.1151 11.2 9.1151 11.6521 9.10052C12.1042 9.08594 12.5417 9.08594 12.9792 9.08594C14.175 9.08594 15.1667 9.23177 15.9833 9.53802C16.7125 9.78594 17.3833 10.1943 17.9375 10.7339C18.4042 11.2005 18.7688 11.7693 19.0021 12.3964C19.2208 13.0089 19.3375 13.6359 19.3375 14.2922C19.3375 15.5464 19.0458 16.5818 18.4625 17.3984C17.8792 18.2151 17.0625 18.8276 16.1146 19.1776C15.1229 19.5422 14.0292 19.6734 12.8333 19.6734C12.4833 19.6734 12.25 19.6734 12.1042 19.6589C11.9583 19.6443 11.7542 19.6443 11.4771 19.6443V24.3255C11.4917 24.4276 11.4187 24.5151 11.3167 24.5297H11.2583H8.4875C8.37083 24.5297 8.3125 24.4714 8.3125 24.3401V24.3547ZM11.4917 12.0026V16.9026C11.6958 16.9172 11.8854 16.9318 12.0604 16.9318H12.8333C13.4021 16.9318 13.9708 16.8443 14.5104 16.6693C14.9771 16.538 15.3854 16.2609 15.7062 15.8964C16.0125 15.5318 16.1583 15.0359 16.1583 14.3943C16.1729 13.9422 16.0562 13.4901 15.8229 13.0964C15.575 12.7172 15.225 12.4255 14.8021 12.2651C14.2625 12.0464 13.6792 11.9589 13.0812 11.9734C12.7021 11.9734 12.3667 11.9734 12.0896 11.988C11.7979 11.9734 11.5938 11.988 11.4917 12.0026Z" fill="#9999FF"/>
<path d="M21.4377 12.8631H23.9898C24.1356 12.8631 24.2523 12.9651 24.296 13.0964C24.3398 13.2131 24.3689 13.3297 24.3835 13.461C24.4127 13.6068 24.4419 13.7672 24.4564 13.9131C24.471 14.0735 24.4856 14.2485 24.4856 14.4381C24.9231 13.9276 25.4481 13.5047 26.046 13.1839C26.7169 12.8047 27.4898 12.6151 28.2627 12.6151C28.3648 12.6006 28.4523 12.6735 28.4669 12.7756V12.8339V15.6776C28.4669 15.7943 28.3939 15.8381 28.2335 15.8381C27.7085 15.8235 27.1689 15.8672 26.6585 15.9839C26.2356 16.0714 25.8273 16.2026 25.4335 16.3776C25.1564 16.5089 24.8939 16.6839 24.6898 16.9172V24.3547C24.6898 24.5006 24.6314 24.5589 24.5002 24.5589H21.6273C21.5106 24.5735 21.4085 24.5006 21.3939 24.3839V24.3256V16.2464C21.3939 15.8964 21.3939 15.5318 21.3794 15.1526C21.3648 14.7735 21.3648 14.3943 21.3502 14.0151C21.3502 13.6797 21.321 13.3589 21.2919 13.0235C21.2773 12.9506 21.321 12.8776 21.3939 12.8631C21.3939 12.8485 21.4231 12.8485 21.4377 12.8631Z" fill="#9999FF"/>
</g>
<defs>
<clipPath id="clip0_1308_6435">
<rect width="35" height="34.125" fill="white" transform="translate(0 0.4375)"/>
</clipPath>
</defs>
</svg>
