<svg width="35" height="35" viewBox="0 0 35 35" fill="none" xmlns="http://www.w3.org/2000/svg">
<g clip-path="url(#clip0_1308_6045)">
<path d="M6.19792 0.4375H28.8021C32.2292 0.4375 35 3.20833 35 6.63542V28.3646C35 31.7917 32.2292 34.5625 28.8021 34.5625H6.19792C2.77083 34.5625 0 31.7917 0 28.3646V6.63542C0 3.20833 2.77083 0.4375 6.19792 0.4375Z" fill="#001E36"/>
<path d="M7.875 24.3694V9.36315C7.875 9.26107 7.91875 9.20273 8.02083 9.20273C8.26875 9.20273 8.50208 9.20273 8.8375 9.18815C9.1875 9.17357 9.55208 9.17357 9.94583 9.15898C10.3396 9.1444 10.7625 9.1444 11.2146 9.12982C11.6667 9.11523 12.1042 9.11523 12.5417 9.11523C13.7375 9.11523 14.7292 9.26107 15.5458 9.56732C16.275 9.81523 16.9458 10.2236 17.5 10.7632C17.9667 11.2298 18.3313 11.7986 18.5646 12.4257C18.7833 13.0382 18.9 13.6652 18.9 14.3215C18.9 15.5757 18.6083 16.6111 18.025 17.4277C17.4417 18.2444 16.625 18.8569 15.6771 19.2069C14.6854 19.5715 13.5917 19.7027 12.3958 19.7027C12.0458 19.7027 11.8125 19.7027 11.6667 19.6882C11.5208 19.6736 11.3167 19.6736 11.0396 19.6736V24.3548C11.0542 24.4569 10.9812 24.5444 10.8792 24.559C10.8646 24.559 10.85 24.559 10.8208 24.559H8.05C7.93333 24.559 7.875 24.5007 7.875 24.3694ZM11.0542 12.0173V16.9173C11.2583 16.9319 11.4479 16.9465 11.6229 16.9465H12.3958C12.9646 16.9465 13.5333 16.859 14.0729 16.684C14.5396 16.5527 14.9479 16.2757 15.2687 15.9111C15.575 15.5465 15.7208 15.0507 15.7208 14.409C15.7354 13.9569 15.6187 13.5048 15.3854 13.1111C15.1375 12.7319 14.7875 12.4402 14.3646 12.2798C13.825 12.0611 13.2417 11.9736 12.6437 11.9882C12.2646 11.9882 11.9292 11.9882 11.6521 12.0027C11.3604 11.9882 11.1563 12.0027 11.0542 12.0173Z" fill="#31A8FF"/>
<path d="M28.0004 16.0273C27.5629 15.7939 27.0963 15.6335 26.6004 15.5314C26.0608 15.4148 25.5213 15.3419 24.9671 15.3419C24.6754 15.3273 24.3692 15.371 24.0921 15.4439C23.9025 15.4877 23.7421 15.5898 23.64 15.7356C23.5671 15.8523 23.5233 15.9981 23.5233 16.1294C23.5233 16.2606 23.5817 16.3919 23.6692 16.5085C23.8004 16.6689 23.9754 16.8002 24.165 16.9023C24.5004 17.0773 24.8504 17.2377 25.2004 17.3835C25.9879 17.646 26.7463 18.0106 27.4463 18.4481C27.9275 18.7544 28.3213 19.1627 28.5983 19.6585C28.8317 20.1252 28.9483 20.6356 28.9338 21.1606C28.9483 21.846 28.7442 22.5314 28.365 23.1002C27.9567 23.6835 27.3879 24.1356 26.7317 24.3981C26.0171 24.7044 25.1421 24.8648 24.0921 24.8648C23.4213 24.8648 22.765 24.8064 22.1088 24.6752C21.5983 24.5877 21.0879 24.4273 20.6213 24.2085C20.5192 24.1502 20.4463 24.0481 20.4608 23.9314V21.3939C20.4608 21.3502 20.4754 21.2919 20.5192 21.2627C20.5629 21.2335 20.6067 21.2481 20.6504 21.2773C21.2192 21.6127 21.8171 21.846 22.4588 21.9919C23.0129 22.1377 23.5963 22.2106 24.1796 22.2106C24.7338 22.2106 25.1275 22.1377 25.39 22.0064C25.6233 21.9044 25.7838 21.6564 25.7838 21.3939C25.7838 21.1898 25.6671 21.0002 25.4338 20.8106C25.2004 20.621 24.7192 20.4023 24.0046 20.1252C23.2608 19.8627 22.5754 19.5127 21.9338 19.0752C21.4817 18.7544 21.1025 18.3314 20.8254 17.8356C20.5921 17.3689 20.4754 16.8585 20.49 16.3481C20.49 15.721 20.665 15.1231 20.9858 14.5835C21.3504 14.0002 21.89 13.5335 22.5171 13.2419C23.2025 12.8919 24.0629 12.7314 25.0983 12.7314C25.6963 12.7314 26.3088 12.7752 26.9067 12.8627C27.3442 12.921 27.7671 13.0377 28.1608 13.1981C28.2192 13.2127 28.2775 13.271 28.3067 13.3294C28.3213 13.3877 28.3358 13.446 28.3358 13.5044V15.8814C28.3358 15.9398 28.3067 15.9981 28.2629 16.0273C28.1317 16.0564 28.0588 16.0564 28.0004 16.0273Z" fill="#31A8FF"/>
</g>
<defs>
<clipPath id="clip0_1308_6045">
<rect width="35" height="34.125" fill="white" transform="translate(0 0.4375)"/>
</clipPath>
</defs>
</svg>
