<svg width="35" height="36" viewBox="0 0 35 36" fill="none" xmlns="http://www.w3.org/2000/svg">
<path d="M17.3739 0.59082C8.48871 0.59082 9.04349 4.44396 9.04349 4.44396L9.05335 8.43594H17.5323V9.63444H5.68564C5.68564 9.63444 0 8.98962 0 17.9547C0 26.9201 4.96256 26.6021 4.96256 26.6021H7.9242V22.4418C7.9242 22.4418 7.76454 17.4793 12.8076 17.4793H21.2172C21.2172 17.4793 25.942 17.5556 25.942 12.9129V5.23652C25.942 5.23652 26.6596 0.59082 17.3739 0.59082ZM12.6986 3.27534C12.899 3.27516 13.0974 3.3145 13.2825 3.39109C13.4677 3.46768 13.6359 3.58003 13.7776 3.72171C13.9193 3.86339 14.0316 4.03161 14.1082 4.21676C14.1848 4.40191 14.2241 4.60034 14.224 4.8007C14.2241 5.00107 14.1848 5.1995 14.1082 5.38465C14.0316 5.56979 13.9193 5.73802 13.7776 5.8797C13.6359 6.02138 13.4677 6.13373 13.2825 6.21032C13.0974 6.28691 12.899 6.32624 12.6986 6.32606C12.4982 6.32624 12.2998 6.28691 12.1147 6.21032C11.9295 6.13373 11.7613 6.02138 11.6196 5.8797C11.4779 5.73802 11.3656 5.56979 11.289 5.38465C11.2124 5.1995 11.1731 5.00107 11.1732 4.8007C11.1731 4.60034 11.2124 4.40191 11.289 4.21676C11.3656 4.03161 11.4779 3.86339 11.6196 3.72171C11.7613 3.58003 11.9295 3.46768 12.1147 3.39109C12.2998 3.3145 12.4982 3.27516 12.6986 3.27534Z" fill="url(#paint0_linear_1308_6455)"/>
<path d="M17.626 35.4092C26.5112 35.4092 25.9564 31.5561 25.9564 31.5561L25.9465 27.5642H17.4674V26.3657H29.3141C29.3141 26.3657 34.9997 27.0105 34.9997 18.0452C34.9997 9.07992 30.0372 9.39788 30.0372 9.39788H27.0755V13.558C27.0755 13.558 27.2352 18.5206 22.1922 18.5206H13.7826C13.7826 18.5206 9.05778 18.4443 9.05778 23.0871V30.7636C9.05778 30.7636 8.34032 35.4092 17.6258 35.4092H17.626ZM22.3013 32.725C22.1009 32.7251 21.9025 32.6858 21.7173 32.6092C21.5322 32.5326 21.364 32.4203 21.2223 32.2786C21.0806 32.1369 20.9683 31.9687 20.8917 31.7835C20.8151 31.5984 20.7757 31.4 20.7759 31.1996C20.7757 30.9992 20.815 30.8008 20.8916 30.6156C20.9682 30.4305 21.0806 30.2622 21.2222 30.1205C21.3639 29.9788 21.5321 29.8665 21.7173 29.7899C21.9025 29.7133 22.1009 29.6739 22.3013 29.6741C22.5016 29.6739 22.7001 29.7133 22.8852 29.7898C23.0704 29.8664 23.2386 29.9788 23.3803 30.1205C23.522 30.2621 23.6343 30.4304 23.7109 30.6155C23.7875 30.8007 23.8268 30.9991 23.8266 31.1995C23.8268 31.3998 23.7875 31.5983 23.7109 31.7834C23.6343 31.9686 23.522 32.1368 23.3803 32.2785C23.2386 32.4201 23.0704 32.5325 22.8852 32.6091C22.7001 32.6857 22.5016 32.725 22.3013 32.7248V32.725Z" fill="url(#paint1_linear_1308_6455)"/>
<defs>
<linearGradient id="paint0_linear_1308_6455" x1="3.36349" y1="3.72249" x2="20.7084" y2="20.8944" gradientUnits="userSpaceOnUse">
<stop stop-color="#387EB8"/>
<stop offset="1" stop-color="#366994"/>
</linearGradient>
<linearGradient id="paint1_linear_1308_6455" x1="14.0096" y1="14.7496" x2="32.636" y2="32.3578" gradientUnits="userSpaceOnUse">
<stop stop-color="#FFE052"/>
<stop offset="1" stop-color="#FFC331"/>
</linearGradient>
</defs>
</svg>
