<svg width="37" height="38" viewBox="0 0 37 38" fill="none" xmlns="http://www.w3.org/2000/svg">
<path d="M18.4996 21.8216C20.3008 21.8216 21.761 20.3614 21.761 18.5602C21.761 16.759 20.3008 15.2988 18.4996 15.2988C16.6984 15.2988 15.2383 16.759 15.2383 18.5602C15.2383 20.3614 16.6984 21.8216 18.4996 21.8216Z" fill="#61DAFB"/>
<path d="M18.5 25.2416C28.165 25.2416 36 22.25 36 18.5597C36 14.8695 28.165 11.8779 18.5 11.8779C8.83502 11.8779 1 14.8695 1 18.5597C1 22.25 8.83502 25.2416 18.5 25.2416Z" stroke="#61DAFB" stroke-width="1.84964"/>
<path d="M12.7139 21.9007C17.5464 30.2709 24.0546 35.5604 27.2505 33.7153C30.4463 31.8701 29.1196 23.589 24.2871 15.2189C19.4546 6.8488 12.9463 1.55925 9.75049 3.40439C6.55462 5.24952 7.88137 13.5306 12.7139 21.9007Z" stroke="#61DAFB" stroke-width="1.84964"/>
<path d="M12.7139 15.2187C7.88137 23.5889 6.55462 31.87 9.75049 33.7151C12.9463 35.5602 19.4546 30.2707 24.2871 21.9006C29.1196 13.5304 30.4463 5.24934 27.2505 3.40421C24.0546 1.55907 17.5464 6.84862 12.7139 15.2187Z" stroke="#61DAFB" stroke-width="1.84964"/>
</svg>
