<svg width="40" height="40" viewBox="0 0 40 40" fill="none" xmlns="http://www.w3.org/2000/svg">
<path d="M33.1955 7.85453C33.1687 7.65453 32.9979 7.54384 32.8567 7.53165C32.7158 7.5196 29.7336 7.29288 29.7336 7.29288C29.7336 7.29288 27.6625 5.18398 27.4352 4.95055C27.2077 4.71727 26.7635 4.78823 26.591 4.84028C26.5657 4.84795 26.1385 4.98316 25.432 5.2074C24.7402 3.16549 23.5191 1.28905 21.3711 1.28905C21.3118 1.28905 21.2507 1.29151 21.1897 1.29508C20.5788 0.466445 19.822 0.106445 19.1684 0.106445C14.1645 0.106445 11.7739 6.5222 11.0243 9.78247C9.07991 10.4004 7.69862 10.8397 7.52218 10.8966C6.43686 11.2458 6.40254 11.2808 6.26003 12.3297C6.15278 13.1238 3.31299 35.6484 3.31299 35.6484L25.4412 39.9007L37.431 37.2404C37.431 37.2404 33.222 8.05453 33.1955 7.85453ZM24.209 5.59535L22.3366 6.18973C22.3372 6.05439 22.3379 5.92124 22.3379 5.77562C22.3379 4.50658 22.1661 3.4848 21.8906 2.6748C22.9974 2.81727 23.7346 4.10891 24.209 5.59535ZM20.5176 2.92645C20.8253 3.71727 21.0254 4.8522 21.0254 6.38371C21.0254 6.46206 21.0247 6.53371 21.0241 6.60617C19.8064 6.99302 18.4832 7.41302 17.1571 7.83439C17.9017 4.88699 19.2974 3.46343 20.5176 2.92645ZM19.0309 1.48302C19.2469 1.48302 19.4645 1.55823 19.6727 1.70521C18.069 2.47918 16.3501 4.4285 15.6242 8.32124L12.5675 9.2922C13.4177 6.32302 15.4368 1.48302 19.0309 1.48302Z" fill="#95BF46"/>
<path d="M32.8583 7.53243C32.7173 7.52037 29.7352 7.29366 29.7352 7.29366C29.7352 7.29366 27.664 5.18475 27.4367 4.95133C27.3516 4.86448 27.2369 4.81996 27.117 4.80078L25.4438 39.9012L37.4326 37.2412C37.4326 37.2412 33.2235 8.0553 33.1971 7.8553C33.1703 7.6553 32.9994 7.54462 32.8583 7.53243Z" fill="#5E8E3E"/>
<path d="M21.3721 14.3267L19.8937 18.8371C19.8937 18.8371 18.5984 18.128 17.0106 18.128C14.6829 18.128 14.5658 19.6263 14.5658 20.0038C14.5658 22.0638 19.8014 22.8531 19.8014 27.6783C19.8014 31.4746 17.4538 33.9191 14.2884 33.9191C10.4899 33.9191 8.54736 31.4945 8.54736 31.4945L9.56444 28.0479C9.56444 28.0479 11.5612 29.8061 13.2461 29.8061C14.347 29.8061 14.7948 28.9171 14.7948 28.2675C14.7948 25.5804 10.4995 25.4605 10.4995 21.045C10.4995 17.3287 13.1002 13.7324 18.35 13.7324C20.3728 13.7324 21.3721 14.3267 21.3721 14.3267Z" fill="white"/>
</svg>
