<svg width="35" height="36" viewBox="0 0 35 36" fill="none" xmlns="http://www.w3.org/2000/svg">
<g clip-path="url(#clip0_1308_5965)">
<path d="M2.48828 18.0015C2.48828 23.9439 5.94172 29.0794 10.9495 31.513L3.78807 11.8916C2.95506 13.7587 2.48828 15.825 2.48828 18.0015Z" fill="#21759B"/>
<path d="M27.6356 17.2431C27.6356 15.3877 26.9692 14.1028 26.3975 13.1026C25.6365 11.866 24.9232 10.8187 24.9232 9.58206C24.9232 8.202 25.9699 6.91735 27.4442 6.91735C27.5108 6.91735 27.5739 6.92564 27.6388 6.92935C24.9678 4.48232 21.4092 2.98828 17.5007 2.98828C12.2558 2.98828 7.64145 5.67927 4.95703 9.75518C5.30926 9.76575 5.64121 9.77317 5.92316 9.77317C7.49347 9.77317 9.92422 9.58263 9.92422 9.58263C10.7335 9.53493 10.8289 10.7236 10.0205 10.8193C10.0205 10.8193 9.20719 10.915 8.3022 10.9624L13.7693 27.224L17.0548 17.3705L14.7157 10.9618C13.9073 10.9144 13.1414 10.8187 13.1414 10.8187C12.3324 10.7713 12.4272 9.53436 13.2363 9.58206C13.2363 9.58206 15.7156 9.7726 17.1907 9.7726C18.7608 9.7726 21.1918 9.58206 21.1918 9.58206C22.0017 9.53436 22.0968 10.723 21.2881 10.8187C21.2881 10.8187 20.4731 10.9144 19.5698 10.9618L24.9952 27.1003L26.4927 22.0963C27.1417 20.0198 27.6356 18.5283 27.6356 17.2431Z" fill="#21759B"/>
<path d="M17.7642 19.3145L13.2598 32.4035C14.6047 32.7988 16.027 33.0151 17.5008 33.0151C19.2491 33.0151 20.9257 32.7128 22.4863 32.1641C22.446 32.0998 22.4094 32.0315 22.3794 31.9572L17.7642 19.3145Z" fill="#21759B"/>
<path d="M30.6731 10.7979C30.7377 11.2761 30.7742 11.7894 30.7742 12.3416C30.7742 13.8651 30.4897 15.5776 29.6327 17.719L25.0469 30.9777C29.5101 28.375 32.5122 23.5395 32.5122 18.001C32.5125 15.3908 31.8458 12.9364 30.6731 10.7979Z" fill="#21759B"/>
<path d="M17.5006 0.500977C7.851 0.500977 0 8.35141 0 18.001C0 27.6517 7.851 35.5018 17.5006 35.5018C27.1499 35.5018 35.002 27.6517 35.002 18.001C35.0017 8.35141 27.1499 0.500977 17.5006 0.500977ZM17.5006 34.6997C8.2935 34.6997 0.80244 27.2086 0.80244 18.001C0.80244 8.79391 8.29322 1.30342 17.5006 1.30342C26.7074 1.30342 34.1978 8.79391 34.1978 18.001C34.1978 27.2086 26.7074 34.6997 17.5006 34.6997Z" fill="#21759B"/>
</g>
<defs>
<clipPath id="clip0_1308_5965">
<rect width="35" height="35.0009" fill="white" transform="translate(0 0.5)"/>
</clipPath>
</defs>
</svg>
