<svg width="35" height="35" viewBox="0 0 35 35" fill="none" xmlns="http://www.w3.org/2000/svg">
<path d="M6.19792 0.4375H28.8021C32.2292 0.4375 35 3.20833 35 6.63542V28.3646C35 31.7917 32.2292 34.5625 28.8021 34.5625H6.19792C2.77083 34.5625 0 31.7917 0 28.3646V6.63542C0 3.20833 2.77083 0.4375 6.19792 0.4375Z" fill="#470137"/>
<path d="M18.4034 9.40625L14.0284 16.625L18.695 24.2812C18.7242 24.3396 18.7388 24.3979 18.7242 24.4562C18.7096 24.5146 18.6513 24.4708 18.5638 24.4854H15.2242C14.9909 24.4854 14.8305 24.4708 14.7284 24.325C14.4221 23.7125 14.1013 23.1146 13.795 22.5021C13.4888 21.9042 13.1534 21.2917 12.8034 20.6646C12.4534 20.0375 12.1034 19.4104 11.7534 18.7687H11.7242C11.418 19.3958 11.0825 20.0229 10.7471 20.65C10.4117 21.2771 10.0763 21.9042 9.75546 22.5167C9.42004 23.1292 9.08463 23.7562 8.74921 24.3542C8.69088 24.5 8.57421 24.5146 8.41379 24.5146H5.20546C5.14713 24.5146 5.10338 24.5437 5.10338 24.4708C5.08879 24.4125 5.10338 24.3542 5.13254 24.3104L9.66796 16.8729L5.24921 9.39167C5.20546 9.33333 5.19088 9.275 5.22004 9.24583C5.24921 9.20208 5.30754 9.1875 5.36588 9.1875H8.67629C8.74921 9.1875 8.82213 9.20208 8.88046 9.21667C8.93879 9.24583 8.98254 9.28958 9.02629 9.34792C9.30338 9.975 9.62421 10.6021 9.95963 11.2292C10.3096 11.8563 10.645 12.4687 11.0096 13.0812C11.3596 13.6937 11.6805 14.3063 11.9867 14.9333H12.0159C12.3221 14.2917 12.643 13.6646 12.9638 13.0521C13.2846 12.4396 13.62 11.8271 13.9555 11.2146C14.2909 10.6021 14.6117 9.975 14.9325 9.37708C14.9471 9.31875 14.9763 9.26042 15.02 9.23125C15.0784 9.20208 15.1367 9.1875 15.2096 9.20208H18.2867C18.3596 9.1875 18.4325 9.23125 18.4471 9.30417C18.4617 9.31875 18.4325 9.37708 18.4034 9.40625Z" fill="#FF61F6"/>
<path d="M25.1421 24.7912C24.0629 24.8058 22.9837 24.587 22.0067 24.1349C21.0879 23.712 20.3296 23.012 19.8046 22.1516C19.265 21.262 19.0025 20.1537 19.0025 18.8266C18.9879 17.7474 19.265 16.6829 19.8046 15.7495C20.3588 14.8016 21.1608 14.0141 22.1233 13.4891C23.1442 12.9204 24.3692 12.6433 25.8129 12.6433C25.8858 12.6433 25.9879 12.6433 26.1192 12.6579C26.2504 12.6724 26.3962 12.6724 26.5712 12.687V8.0787C26.5712 7.97662 26.615 7.91828 26.7171 7.91828H29.6775C29.7504 7.9037 29.8088 7.96203 29.8233 8.02037C29.8233 8.03495 29.8233 8.04953 29.8233 8.04953V21.9329C29.8233 22.1954 29.8379 22.487 29.8525 22.8079C29.8817 23.1141 29.8963 23.4058 29.9108 23.6537C29.9108 23.7558 29.8671 23.8433 29.765 23.887C29.0067 24.2079 28.2046 24.4412 27.3879 24.587C26.6442 24.7183 25.9004 24.7912 25.1421 24.7912ZM26.5712 21.8745V15.4579C26.44 15.4287 26.3087 15.3995 26.1775 15.3849C26.0171 15.3704 25.8567 15.3558 25.6962 15.3558C25.1275 15.3558 24.5587 15.4724 24.0483 15.7349C23.5525 15.9829 23.1296 16.3474 22.8087 16.8141C22.4879 17.2808 22.3275 17.9079 22.3275 18.6662C22.3129 19.1766 22.4004 19.687 22.5754 20.1683C22.7213 20.562 22.94 20.912 23.2317 21.2037C23.5088 21.4662 23.8442 21.6704 24.2233 21.787C24.6171 21.9183 25.0254 21.9766 25.4337 21.9766C25.6525 21.9766 25.8567 21.962 26.0463 21.9474C26.2358 21.962 26.3962 21.9329 26.5712 21.8745Z" fill="#FF61F6"/>
</svg>
