<svg width="63" height="70" viewBox="0 0 63 70" fill="none" xmlns="http://www.w3.org/2000/svg">
<path d="M62.4218 11.9452C61.9863 10.7978 60.7037 10.2181 59.5593 10.6537L47.9082 15.048C47.2654 15.2944 46.7759 15.811 46.5716 16.4688L38.0773 43.7028C32.3313 43.7028 12.8346 43.7028 10.2846 43.7028C9.48561 40.9335 4.36135 23.0917 4.36135 23.0917C4.01296 21.9083 2.78746 21.2294 1.60999 21.5659C0.429601 21.9053 -0.252287 23.1338 0.0871951 24.3202L6.47288 46.5352C6.74622 47.4874 7.61721 48.1481 8.60544 48.1481H36.7526C36.1459 50.2446 35.3649 52.9388 34.9835 54.2455C32.0309 54.2455 8.32917 54.2455 8.32917 54.2455C7.10367 54.2455 6.10945 55.2397 6.10945 56.4712C6.10945 57.7027 7.10367 58.6879 8.32917 58.6879H36.6506C37.6417 58.6879 38.5129 58.0392 38.7922 57.0899L41.847 46.5381C41.847 46.5351 41.847 46.5321 41.847 46.5291C42.0152 45.9944 49.8937 20.7247 50.4884 18.8234C52.1794 18.1866 61.1274 14.8076 61.1274 14.8076C62.0134 14.4682 62.5661 13.6212 62.5661 12.7321C62.563 12.4738 62.515 12.2035 62.4218 11.9452Z" fill="#3A3A3A"/>
<path d="M36.2684 69.9996C38.9806 69.9996 41.1793 67.8009 41.1793 65.0887C41.1793 62.3764 38.9806 60.1777 36.2684 60.1777C33.5561 60.1777 31.3574 62.3764 31.3574 65.0887C31.3574 67.8009 33.5561 69.9996 36.2684 69.9996Z" fill="#3A3A3A"/>
<path d="M9.50859 69.9996C12.2208 69.9996 14.4195 67.8009 14.4195 65.0887C14.4195 62.3764 12.2208 60.1777 9.50859 60.1777C6.79636 60.1777 4.59766 62.3764 4.59766 65.0887C4.59766 67.8009 6.79636 69.9996 9.50859 69.9996Z" fill="#3A3A3A"/>
<path d="M15.6524 26.7355H32.6771C36.4316 24.0683 38.9036 19.704 38.9036 14.742C38.9097 6.59595 32.3047 0 24.1588 0C16.0189 0 9.41992 6.59302 9.41992 14.7389C9.41992 19.7039 11.892 24.0683 15.6524 26.7355ZM24.1588 12.8255C25.0149 12.8255 25.7117 15.3877 25.7117 18.5415C25.7117 21.6952 25.0149 24.2574 24.1588 24.2574C23.2968 24.2574 22.615 21.6923 22.615 18.5384C22.6149 15.3847 23.2998 12.8255 24.1588 12.8255Z" fill="#C32C7B"/>
<path d="M19.6861 38.8974C20.2118 40.144 21.9749 41.0871 24.1615 41.0871C26.3542 41.0871 28.1052 40.144 28.6339 38.8974H32.6347V28.4658H15.6973V38.9005H19.6861V38.8974Z" fill="#3A3A3A"/>
</svg>
