<svg width="71" height="70" viewBox="0 0 71 70" fill="none" xmlns="http://www.w3.org/2000/svg">
<path d="M0 39.4212C0.368906 38.3181 1.15649 37.6799 2.33274 37.5745L28.7264 37.5693C29.6362 37.633 30.3601 37.898 30.8615 38.6892C30.9281 38.7946 31.2296 39.4022 31.2296 39.4651V41.6214H36.024C36.6359 41.6214 37.4967 42.1119 37.9614 42.4991C41.1594 45.1656 44.0989 48.9703 47.2851 51.74C47.4959 51.9998 48.0317 52.9023 48.0317 53.1929V55.5249H0V39.4212ZM34.0652 51.8081C34.2021 51.9076 34.3639 51.9069 34.5242 51.9208C37.2558 52.1499 40.3 51.7385 43.0654 51.9208L43.3772 51.7934C43.6246 51.4048 43.3208 51.1969 43.0632 50.9466C40.8183 48.7646 38.4833 46.6683 36.2391 44.4849C35.9369 44.2777 34.2431 44.2792 34.0645 44.4578C33.984 44.5676 33.9694 44.7001 33.9554 44.8311C33.7893 46.3975 33.8178 49.7542 33.9518 51.3484C33.965 51.5087 33.965 51.6705 34.0645 51.8081H34.0652Z" fill="#C32C7B"/>
<path d="M0 56.7568H48.0317V62.4332C48.0317 62.581 47.7067 63.1563 47.5896 63.3108C46.5026 64.7454 44.7555 64.102 43.1971 64.233C42.6181 60.2139 38.4511 57.7765 34.6369 59.2418C33.0339 59.8574 31.6308 61.2232 31.0108 62.8306C30.8476 63.2537 30.8146 63.736 30.6851 64.0888C30.6594 64.1576 30.6375 64.2096 30.5577 64.2257L18.0918 64.2411C18.0193 64.2242 17.725 63.056 17.6365 62.8306C16.1601 59.0954 11.6271 57.6513 8.24183 59.8537C6.69008 60.8631 5.77587 62.4463 5.40037 64.2425C3.36627 64.083 0.845409 64.9686 0 62.4771V56.7568Z" fill="#C32C7B"/>
<path d="M41.7595 65.1644C41.7595 67.8346 39.5951 69.9997 36.9256 69.9997C34.2562 69.9997 32.0918 67.8346 32.0918 65.1644C32.0918 62.4942 34.2562 60.3291 36.9256 60.3291C39.5951 60.3291 41.7595 62.4942 41.7595 65.1644ZM39.3184 65.1651C39.3184 63.844 38.2475 62.7724 36.9264 62.7724C35.6052 62.7724 34.5343 63.8432 34.5343 65.1651C34.5343 66.487 35.6052 67.5579 36.9264 67.5579C38.2475 67.5579 39.3184 66.487 39.3184 65.1651Z" fill="#C32C7B"/>
<path d="M16.5651 65.1649C16.5651 67.8351 14.4015 69.9987 11.7328 69.9987C9.06405 69.9987 6.90039 67.8343 6.90039 65.1649C6.90039 62.4955 9.06405 60.3311 11.7328 60.3311C14.4015 60.3311 16.5651 62.4955 16.5651 65.1649ZM14.1248 65.1642C14.1248 63.8415 13.0532 62.7699 11.7313 62.7699C10.4094 62.7699 9.3378 63.8415 9.3378 65.1642C9.3378 66.4868 10.4094 67.5584 11.7313 67.5584C13.0532 67.5584 14.1248 66.4868 14.1248 65.1642Z" fill="#C32C7B"/>
<path d="M51.0219 59.1333V54.7335C51.3725 54.6955 51.7341 54.4781 52.0489 54.309C54.4409 53.0193 56.6646 51.4222 58.586 49.4978C58.5838 49.2541 54.6407 47.6694 54.0998 47.6431L52.5634 51.0401L51.0234 53.5895C50.9356 52.2244 50.4539 51.0262 49.6451 49.9377L51.1105 46.7274L45.399 45.7078L42.1374 42.4154C44.8647 42.5435 47.5729 42.8751 50.2475 43.4094C50.533 43.4665 51.9683 43.864 52.0811 43.7857C53.261 40.0461 53.747 36.1184 53.9256 32.2061H41.2576V41.5342C40.2329 40.7868 39.5112 39.6713 38.2669 39.2461V32.2061H25.5989L25.7746 34.6699H22.8277L22.696 34.4503L22.6081 32.2061H13.1952L13.4594 34.6699H9.41315C7.26194 19.1305 17.6316 4.33909 32.8123 0.833024C60.3214 -5.51962 81.2049 25.8198 64.5543 48.6898C61.1807 53.3238 56.4011 57.1278 51.0234 59.134L51.0219 59.1333ZM38.2661 4.13341C36.6258 3.97019 35.1846 4.96126 34.0018 5.9838C31.4187 8.21626 29.7689 11.483 28.4155 14.5623C28.4213 14.6699 29.1913 14.8039 29.3641 14.8427C32.2868 15.5007 35.2761 15.7722 38.2661 15.926V4.13341ZM41.2576 15.9252C43.9769 15.7825 46.6983 15.5549 49.3692 15.0198C49.6107 14.9715 51.101 14.6816 51.1083 14.5623C49.6927 11.2861 47.8679 7.77563 44.995 5.54316C43.881 4.67799 42.7333 3.99068 41.2584 4.13341V15.9252H41.2576ZM29.733 6.07017C26.426 7.3467 23.365 9.38812 20.9363 11.9639L25.4262 13.7769C26.5292 11.0394 27.8504 8.35753 29.733 6.07017ZM58.5874 11.9639C56.2042 9.38885 53.1139 7.41404 49.8793 6.0687L51.4984 8.45195C52.5144 10.1486 53.373 11.9346 54.0976 13.7762L58.5874 11.9631V11.9639ZM13.1952 29.1253H22.6081C22.6564 24.8953 23.3672 20.7049 24.4519 16.6352C22.532 16.0006 20.6597 15.216 18.8781 14.2593C18.1988 15.1186 17.5613 16.016 16.9948 16.9544C14.7659 20.6419 13.5172 24.8192 13.1952 29.1253ZM66.3286 29.1253C65.9568 23.7184 64.0288 18.479 60.6486 14.2542C58.8744 15.2247 56.9932 16.0006 55.0718 16.6345C56.1639 20.7005 56.8798 24.8953 56.9156 29.1246H66.3286V29.1253ZM38.2661 19.0053C34.6217 18.8508 30.9685 18.4607 27.4471 17.5084C26.3038 21.27 25.776 25.1962 25.5982 29.1253H38.2661V19.0053ZM53.9249 29.1253C53.7536 25.2093 53.2368 21.2912 52.0811 17.5458C48.5413 18.4117 44.9057 18.8787 41.2569 19.0053V29.1253H53.9249ZM66.3286 32.2054H56.9156C56.8922 36.4683 56.1442 40.6829 55.0718 44.7855C57.0247 45.2913 58.8297 46.2106 60.642 47.0626C64.0705 42.9073 65.9568 37.5779 66.3286 32.2047V32.2054Z" fill="#3A3A3A"/>
</svg>
