<svg width="79" height="72" viewBox="0 0 79 72" fill="none" xmlns="http://www.w3.org/2000/svg">
<path d="M63.088 24.6925H55.7735M55.7735 24.6925H48.459M55.7735 24.6925V17.3779M55.7735 24.6925V32.007" stroke="#C32C7B" stroke-width="5.4859" stroke-linecap="round"/>
<path d="M39.3156 12.1632L37.3121 14.0365C37.8307 14.5912 38.556 14.9061 39.3156 14.9061C40.0752 14.9061 40.8004 14.5912 41.319 14.0365L39.3156 12.1632ZM5.12598 41.8162C5.90996 43.1127 7.59632 43.5278 8.89256 42.744C10.1888 41.9599 10.6041 40.2735 9.82012 38.9774L5.12598 41.8162ZM19.3372 50.9176C18.2803 49.8322 16.5437 49.8091 15.4584 50.8661C14.373 51.9227 14.35 53.6595 15.4068 54.7446L19.3372 50.9176ZM5.4859 25.8537C5.4859 15.2308 10.1221 8.66385 15.858 6.41785C21.5812 4.17682 29.5887 5.77633 37.3121 14.0365L41.319 10.2898C32.5855 0.948958 22.3065 -1.99869 13.8577 1.3096C5.4216 4.61291 0 13.6918 0 25.8537H5.4859ZM52.1559 64.7798C57.614 60.3505 64.1535 54.4143 69.3516 47.7845C74.497 41.2219 78.6312 33.5994 78.6312 25.8536H73.1453C73.1453 31.747 69.9294 38.1563 65.0346 44.3993C60.1927 50.575 54.0017 56.217 48.699 60.5202L52.1559 64.7798ZM78.6312 25.8536C78.6312 13.6917 73.2096 4.61288 64.7734 1.3096C56.3248 -1.99869 46.0457 0.948958 37.3121 10.2898L41.319 14.0365C49.0424 5.77633 57.05 4.17678 62.7733 6.41785C68.509 8.66381 73.1453 15.2307 73.1453 25.8536H78.6312ZM26.4754 64.7798C31.1254 68.5533 34.3501 71.3226 39.3156 71.3226V65.8367C36.6717 65.8367 35.0252 64.6529 29.9322 60.5202L26.4754 64.7798ZM48.699 60.5202C43.6059 64.6529 41.9594 65.8367 39.3156 65.8367V71.3226C44.2811 71.3226 47.5057 68.5533 52.1559 64.7798L48.699 60.5202ZM9.82012 38.9774C7.08818 34.4603 5.4859 30.0138 5.4859 25.8537H0C0 31.3842 2.10827 36.8269 5.12598 41.8162L9.82012 38.9774ZM29.9322 60.5202C26.5785 57.7984 22.854 54.5292 19.3372 50.9176L15.4068 54.7446C19.111 58.5485 23.004 61.9629 26.4754 64.7798L29.9322 60.5202Z" fill="#3A3A3A"/>
</svg>
