<svg width="79" height="70" viewBox="0 0 79 70" fill="none" xmlns="http://www.w3.org/2000/svg">
<path d="M46.4732 16.8871C46.9881 18.3835 48.3719 18.1261 48.5167 18.0939C49.4177 17.8686 49.9487 16.9515 49.7234 16.0505L45.9423 1.26382C45.717 0.362786 44.7999 -0.184272 43.8988 0.0570773L29.1122 3.83821C28.2112 4.06347 27.6802 4.9806 27.9055 5.88163C28.1307 6.78267 29.0478 7.32973 29.9489 7.08838L41.4693 4.14392L26.7792 25.8331L21.7752 13.7174C21.5821 13.0256 20.0858 12.0119 18.8951 13.3474L0.343414 37.6592C-0.219733 38.3994 -0.0749241 39.4452 0.665213 40.0084C0.970921 40.2336 2.11331 40.7485 3.01434 39.6866L19.78 17.6756L24.8645 29.9843C25.8138 31.7221 27.4871 30.8854 27.8089 30.2901L43.8506 6.62177L46.4732 16.8871Z" fill="#C32C7B"/>
<path d="M55.9507 20.2822C44.8486 20.2822 33.0547 23.5968 33.0547 29.7431V60.5392C33.0547 66.6856 44.8486 70.0001 55.9507 70.0001C67.3262 70.0001 78.8466 66.7499 78.8466 60.5392V29.7431C78.8466 23.5324 67.3262 20.2822 55.9507 20.2822ZM75.4838 60.5392C75.4838 63.0332 67.8733 66.6534 55.9346 66.6534C43.9958 66.6534 36.3853 63.0332 36.3853 60.5392V55.3744C40.6813 58.2223 48.4688 59.7347 55.9346 59.7347C63.5612 59.7347 71.2361 58.2705 75.4838 55.4548V60.5392ZM75.4838 50.2739C75.4838 52.7678 67.8733 56.388 55.9346 56.388C43.9958 56.388 36.3853 52.7678 36.3853 50.2739V45.109C40.6813 47.9569 48.4688 49.4694 55.9346 49.4694C63.5612 49.4694 71.2361 48.0052 75.4838 45.1894V50.2739ZM75.4838 40.0085C75.4838 42.5024 67.8733 46.1227 55.9346 46.1227C43.9958 46.1227 36.3853 42.5024 36.3853 40.0085V34.8436C40.6813 37.6915 48.4688 39.204 55.9346 39.204C63.5612 39.204 71.2361 37.7398 75.4838 34.9241V40.0085ZM55.9507 35.8573C44.0119 35.8573 36.4014 32.237 36.4014 29.7431C36.4014 27.2492 44.0119 23.6289 55.9507 23.6289C67.8894 23.6289 75.4999 27.2492 75.4999 29.7431C75.4838 32.237 67.8733 35.8573 55.9507 35.8573Z" fill="#3A3A3A"/>
<path d="M60.1169 29.6622C59.5216 29.2761 58.3792 28.9543 56.722 28.7129V26.5086C57.3977 26.6695 57.8 26.9752 57.9609 27.4096L60.5836 27.2166C60.4066 26.6534 59.9882 26.2029 59.3446 25.865C58.701 25.5271 57.8161 25.3179 56.722 25.2536V24.6904H55.2256V25.2536C54.035 25.3179 53.0856 25.5593 52.3616 25.9776C51.6375 26.396 51.2836 26.9108 51.2836 27.5383C51.2836 28.1498 51.6054 28.6646 52.2329 29.0991C52.8604 29.5335 53.858 29.8392 55.2095 30.0484V32.4136C54.8394 32.3171 54.5016 32.1562 54.1958 31.947C53.8901 31.7217 53.681 31.4643 53.5683 31.1747L50.8652 31.3356C51.0744 32.0757 51.5571 32.6549 52.2972 33.0572C53.0374 33.4594 54.0189 33.7008 55.2095 33.7812V34.811H56.7059V33.7491C58.0574 33.6364 59.1033 33.3629 59.8595 32.8963C60.6157 32.4297 61.0019 31.8504 61.0019 31.1747C61.018 30.5472 60.7123 30.0484 60.1169 29.6622ZM55.2095 28.4394C54.759 28.3268 54.4211 28.198 54.1958 28.021C53.9706 27.8441 53.858 27.6671 53.858 27.4579C53.858 27.2326 53.9867 27.0396 54.228 26.8626C54.4694 26.6856 54.7912 26.5569 55.2095 26.4764V28.4394ZM57.9931 32.0918C57.6713 32.301 57.2529 32.4297 56.722 32.478V30.2736C57.3495 30.3702 57.7839 30.515 58.0574 30.692C58.331 30.869 58.4597 31.0942 58.4597 31.3356C58.4758 31.6413 58.3149 31.8826 57.9931 32.0918Z" fill="#C32C7B"/>
</svg>
