<svg width="70" height="70" viewBox="0 0 70 70" fill="none" xmlns="http://www.w3.org/2000/svg">
<g clip-path="url(#clip0_4839_65)">
<path d="M48.125 61.25H26.25V56.875H48.125V21.875H13.125V43.75H8.75V21.875C8.75122 20.7151 9.21254 19.603 10.0328 18.7828C10.853 17.9625 11.9651 17.5012 13.125 17.5H48.125C49.285 17.5012 50.397 17.9625 51.2172 18.7828C52.0375 19.603 52.4988 20.7151 52.5 21.875V56.875C52.4988 58.035 52.0375 59.147 51.2172 59.9672C50.397 60.7875 49.285 61.2488 48.125 61.25Z" fill="#3A3A3A"/>
<path d="M61.25 48.125H56.875V43.75H61.25V8.75H26.25V13.125H21.875V8.75C21.8762 7.59005 22.3375 6.47796 23.1578 5.65775C23.978 4.83754 25.0901 4.37622 26.25 4.375H61.25C62.41 4.37622 63.522 4.83754 64.3422 5.65775C65.1625 6.47796 65.6238 7.59005 65.625 8.75V43.75C65.6238 44.91 65.1625 46.022 64.3422 46.8422C63.522 47.6625 62.41 48.1238 61.25 48.125Z" fill="#C32C7B"/>
<path d="M21.875 30.625V35H31.9069L6.5625 60.3444L9.65563 63.4375L35 38.0931V48.125H39.375V30.625H21.875Z" fill="#3A3A3A"/>
</g>
<defs>
<clipPath id="clip0_4839_65">
<rect width="70" height="70" fill="white"/>
</clipPath>
</defs>
</svg>
