<svg width="55" height="55" viewBox="0 0 55 55" fill="none" xmlns="http://www.w3.org/2000/svg">
<path fill-rule="evenodd" clip-rule="evenodd" d="M22.9194 2.3648V22.8162C22.9249 23.443 22.6818 24.0465 22.2432 24.4944C21.8047 24.9424 21.2066 25.1983 20.5798 25.2062H2.33737C1.89191 25.2054 1.45634 25.0748 1.08393 24.8304C0.682399 24.566 0.36918 24.1875 0.184593 23.7436C5.41208e-06 23.2997 -0.0475011 22.8107 0.0481882 22.3396C0.116932 21.895 0.210883 21.4573 0.330039 21.0243C1.43805 16.1414 3.81664 11.6381 7.22496 7.97021C10.6333 4.30235 14.9503 1.60024 19.7388 0.137488C20.0111 0.0515945 20.2943 0.00529141 20.5798 0C20.8888 0.00119874 21.1946 0.0633681 21.4795 0.182945C21.7645 0.302523 22.023 0.477157 22.2404 0.69684C22.4577 0.916524 22.6296 1.17694 22.7461 1.46316C22.8626 1.74938 22.9215 2.05578 22.9194 2.3648Z" fill="#C32C7B"/>
<path fill-rule="evenodd" clip-rule="evenodd" d="M54.8621 24.8624C54.2484 19.1189 51.8731 13.7059 48.0619 9.36545C44.2508 5.02505 39.1903 1.9698 33.5744 0.618613C32.6303 0.389466 31.6724 0.210731 30.71 0.0915743C30.1274 -0.0227123 29.5282 -0.0227123 28.9456 0.0915743C28.4726 0.225567 28.0648 0.527747 27.7989 0.941294C27.5331 1.35484 27.4275 1.85126 27.502 2.33722V27.5205C27.5045 27.821 27.4467 28.119 27.3322 28.3969C27.2176 28.6748 27.0485 28.9269 26.8349 29.1383C26.6213 29.3498 26.3676 29.5163 26.0886 29.6281C25.8096 29.7398 25.511 29.7946 25.2105 29.789H2.18119C-1.27893 29.789 0.256358 34.1772 0.89797 36.0791C2.25868 40.1631 4.55405 43.8731 7.60133 46.9136C10.6486 49.9541 14.3636 52.2412 18.4506 53.5929C24.3459 55.5391 30.7212 55.4677 36.5714 53.3898C42.4215 51.312 47.4136 47.346 50.7604 42.1172C53.5284 37.7348 54.9982 32.658 54.9996 27.4747C54.9996 26.6039 54.9538 25.7309 54.8621 24.8624ZM27.1812 50.3435C22.2884 50.3493 17.5192 48.8076 13.5557 45.9389C9.59224 43.0702 6.63754 39.0215 5.11428 34.372H24.9584C26.8087 34.3836 28.5901 33.6709 29.9218 32.3863C31.2535 31.1017 32.0299 29.3471 32.0849 27.4976V4.58286C37.6648 5.79447 42.5998 9.026 45.9412 13.6562C49.2826 18.2863 50.7944 23.9883 50.186 29.6657C49.5776 35.3431 46.892 40.5952 42.6454 44.4123C38.3988 48.2293 32.8911 50.3418 27.1812 50.3435Z" fill="#3A3A3A"/>
</svg>
