<svg width="58" height="70" viewBox="0 0 58 70" fill="none" xmlns="http://www.w3.org/2000/svg">
<path d="M35.9216 0.000654328C41.7413 1.26158 41.5169 9.29627 35.5833 10.158V13.5456C38.946 14.4113 42.2256 15.7226 45.0628 17.7406L49.566 13.3827L53.0648 26.9381L39.5081 23.4399L42.4801 20.3357C31.7403 13.2832 17.3094 15.8397 9.38533 25.8106C-4.829 43.6965 10.5703 69.7296 33.0654 66.1091C44.9947 64.1892 54.1909 53.5221 54.0267 41.3709H57.6125C57.7191 55.6978 46.7248 68.0597 32.5419 69.7845C13.7989 72.0636 -2.00354 55.9294 0.686473 37.2289C2.40347 25.2937 11.7717 15.5675 23.5781 13.2832L23.5519 10.1404C19.917 9.66925 17.8421 5.8446 19.6389 2.56568C20.3888 1.1981 21.7511 0.36447 23.2398 0H35.9223L35.9216 0.000654328Z" fill="#3A3A3A"/>
<path d="M30.1495 19.1553H28.4004V22.7411H30.1495V19.1553Z" fill="#C32C7B"/>
<path d="M10.994 40.1465H7.4082V41.8955H10.994V40.1465Z" fill="#C32C7B"/>
<path d="M51.1405 40.1465H47.5547V41.8955H51.1405V40.1465Z" fill="#C32C7B"/>
<path d="M30.1495 59.3008H28.4004V62.8866H30.1495V59.3008Z" fill="#C32C7B"/>
<path d="M28.5752 47.2308H20.3534C20.6387 46.6052 21.2715 46.0896 21.7989 45.659C24.8926 43.1326 28.8762 42.0686 28.5739 37.1303C28.1735 30.598 18.5527 29.5883 16.3756 35.1627C16.2186 35.5644 15.8927 36.6513 15.8927 37.0413V38.3094H19.5662C19.4589 36.4282 20.3331 34.5306 22.4957 34.7243C24.4228 34.897 25.1766 36.8594 24.6655 38.5541C24.059 40.5656 20.9757 42.1616 19.3902 43.5121C17.1903 45.3855 15.5623 47.3904 15.631 50.4671H28.5759V47.2308H28.5752Z" fill="#C32C7B"/>
<path d="M30.1495 59.3008H28.4004V62.8866H30.1495V59.3008Z" fill="#3A3A3A"/>
<path d="M10.994 40.1465H7.4082V41.8955H10.994V40.1465Z" fill="#3A3A3A"/>
<path d="M30.1495 19.1553H28.4004V22.7411H30.1495V19.1553Z" fill="#3A3A3A"/>
<path d="M51.1405 40.1465H47.5547V41.8955H51.1405V40.1465Z" fill="#3A3A3A"/>
<path d="M40.8182 31.5749H36.6638L29.623 43.0763V46.3559H37.1447V50.4664H40.8182V46.3559H42.9174V43.3819H40.8182V31.5742V31.5749ZM37.1447 43.3819H32.4217L37.1447 35.5978V43.3819Z" fill="#C32C7B"/>
</svg>
