<svg width="500" height="472" viewBox="0 0 500 472" fill="none" xmlns="http://www.w3.org/2000/svg">
<path d="M449.899 398.99H416.779V399.24H449.899V398.99Z" fill="#EBEBEB"/>
<path d="M331.219 401.71H322.529V401.96H331.219V401.71Z" fill="#EBEBEB"/>
<path d="M415.78 389.71H396.59V389.96H415.78V389.71Z" fill="#EBEBEB"/>
<path d="M95.6509 391.39H52.4609V391.64H95.6509V391.39Z" fill="#EBEBEB"/>
<path d="M110.891 391.39H104.561V391.64H110.891V391.39Z" fill="#EBEBEB"/>
<path d="M225.151 395.61H131.471V395.86H225.151V395.61Z" fill="#EBEBEB"/>
<path d="M238.4 338.3H45.2998C43.7855 338.3 42.3331 337.698 41.2623 336.628C40.1914 335.557 39.5898 334.104 39.5898 332.59V61.16C39.603 59.6543 40.2104 58.2147 41.2798 57.1547C42.3492 56.0947 43.7941 55.4999 45.2998 55.5H238.4C239.15 55.5 239.892 55.6477 240.585 55.9346C241.278 56.2216 241.907 56.6422 242.437 57.1724C242.968 57.7026 243.388 58.3321 243.675 59.0249C243.962 59.7176 244.11 60.4602 244.11 61.21V332.59C244.11 333.34 243.962 334.082 243.675 334.775C243.388 335.468 242.968 336.097 242.437 336.628C241.907 337.158 241.278 337.578 240.585 337.865C239.892 338.152 239.15 338.3 238.4 338.3ZM45.2998 55.7C43.8526 55.7026 42.4653 56.2787 41.442 57.3021C40.4186 58.3255 39.8425 59.7127 39.8398 61.16V332.59C39.8425 334.037 40.4186 335.424 41.442 336.448C42.4653 337.471 43.8526 338.047 45.2998 338.05H238.4C239.847 338.047 241.234 337.471 242.258 336.448C243.281 335.424 243.857 334.037 243.86 332.59V61.16C243.857 59.7127 243.281 58.3255 242.258 57.3021C241.234 56.2787 239.847 55.7026 238.4 55.7H45.2998Z" fill="#EBEBEB"/>
<path d="M454.701 338.3H261.601C260.086 338.3 258.634 337.698 257.563 336.628C256.492 335.557 255.891 334.104 255.891 332.59V61.16C255.904 59.6543 256.511 58.2147 257.581 57.1547C258.65 56.0947 260.095 55.4999 261.601 55.5H454.701C456.215 55.5 457.667 56.1016 458.738 57.1724C459.809 58.2433 460.411 59.6956 460.411 61.21V332.59C460.411 334.104 459.809 335.557 458.738 336.628C457.667 337.698 456.215 338.3 454.701 338.3ZM261.601 55.7C260.153 55.7026 258.766 56.2787 257.743 57.3021C256.719 58.3255 256.143 59.7127 256.141 61.16V332.59C256.143 334.037 256.719 335.424 257.743 336.448C258.766 337.471 260.153 338.047 261.601 338.05H454.701C456.148 338.047 457.535 337.471 458.559 336.448C459.582 335.424 460.158 334.037 460.161 332.59V61.16C460.158 59.7127 459.582 58.3255 458.559 57.3021C457.535 56.2787 456.148 55.7026 454.701 55.7H261.601Z" fill="#EBEBEB"/>
<path d="M500 382.9H0V383.15H500V382.9Z" fill="#EBEBEB"/>
<path d="M130.679 118.94L137.969 114.26L141.949 121.96L150.609 121.56L150.209 130.22L157.909 134.2L153.229 141.49L157.909 148.79L150.209 152.77L150.609 161.43L141.949 161.03L137.969 168.73L130.679 164.05L123.379 168.73L119.399 161.03L110.739 161.43L111.139 152.77L103.439 148.79L108.119 141.49L103.439 134.2L111.139 130.22L110.739 121.56L119.399 121.96L123.379 114.26L130.679 118.94Z" fill="#E6E6E6"/>
<path d="M127.909 152.63L119.239 143.96C118.763 143.483 118.496 142.838 118.496 142.165C118.496 141.491 118.763 140.846 119.239 140.37C119.715 139.894 120.361 139.627 121.034 139.627C121.707 139.627 122.353 139.894 122.829 140.37L127.909 145.45L138.519 134.84C138.995 134.364 139.641 134.097 140.314 134.097C140.987 134.097 141.633 134.364 142.109 134.84C142.585 135.316 142.852 135.961 142.852 136.635C142.852 137.308 142.585 137.953 142.109 138.43L127.909 152.63Z" fill="#FAFAFA"/>
<path d="M401.86 195.48L407.58 191.81L410.7 197.85L417.5 197.53L417.18 204.32L423.22 207.44L419.55 213.17L423.22 218.89L417.18 222.01L417.5 228.8L410.7 228.49L407.58 234.53L401.86 230.86L396.14 234.53L393.02 228.49L386.23 228.8L386.54 222.01L380.5 218.89L384.17 213.17L380.5 207.44L386.54 204.32L386.23 197.53L393.02 197.85L396.14 191.81L401.86 195.48Z" fill="#E6E6E6"/>
<path d="M399.689 221.9L392.889 215.1C392.52 214.726 392.312 214.221 392.312 213.695C392.312 213.169 392.52 212.665 392.889 212.29C393.264 211.918 393.771 211.709 394.299 211.709C394.828 211.709 395.334 211.918 395.709 212.29L399.709 216.29L408.029 207.97C408.404 207.598 408.911 207.389 409.439 207.389C409.968 207.389 410.474 207.598 410.849 207.97C411.222 208.345 411.431 208.852 411.431 209.38C411.431 209.909 411.222 210.416 410.849 210.79L399.689 221.9Z" fill="#FAFAFA"/>
<path d="M131.411 291.5L142.561 297.19C143.479 297.655 144.524 297.808 145.538 297.628C146.551 297.448 147.479 296.943 148.181 296.19L156.711 287.03C157.205 286.5 157.57 285.864 157.778 285.17C157.986 284.476 158.032 283.744 157.911 283.03L153.481 257.87C153.13 255.896 152.01 254.143 150.368 252.994C148.726 251.845 146.695 251.394 144.721 251.74L130.601 254.23C129.623 254.402 128.689 254.766 127.852 255.3C127.015 255.833 126.291 256.527 125.721 257.34C125.152 258.154 124.749 259.071 124.534 260.041C124.32 261.01 124.298 262.012 124.471 262.99L128.901 288.14C129.034 288.855 129.33 289.529 129.765 290.112C130.2 290.694 130.763 291.169 131.411 291.5ZM144.111 289.5C144.575 289.416 145.053 289.471 145.485 289.659C145.918 289.847 146.284 290.16 146.539 290.556C146.793 290.953 146.924 291.417 146.915 291.888C146.906 292.359 146.757 292.817 146.487 293.204C146.217 293.59 145.838 293.888 145.399 294.059C144.96 294.23 144.48 294.267 144.019 294.165C143.559 294.063 143.14 293.826 142.814 293.485C142.489 293.144 142.272 292.714 142.191 292.25C142.083 291.631 142.224 290.994 142.584 290.479C142.944 289.964 143.493 289.612 144.111 289.5Z" fill="#E6E6E6"/>
<path d="M131.954 283.703L153.531 279.898L153.12 277.564L131.543 281.369L131.954 283.703Z" fill="#FAFAFA"/>
<path d="M128.3 262.962L149.877 259.157L149.465 256.823L127.888 260.628L128.3 262.962Z" fill="#FAFAFA"/>
<path d="M169.52 128.64L177.2 136.88C177.831 137.556 178.665 138.009 179.576 138.17C180.487 138.33 181.425 138.19 182.25 137.77L192.25 132.65C192.838 132.352 193.349 131.922 193.741 131.392C194.133 130.863 194.397 130.249 194.51 129.6L198.51 106.98C198.821 105.206 198.415 103.381 197.382 101.905C196.349 100.43 194.773 99.4243 193 99.1096L180.31 96.8696C178.533 96.5586 176.705 96.9651 175.228 98C173.751 99.0348 172.744 100.614 172.43 102.39L168.43 125C168.315 125.649 168.354 126.317 168.543 126.949C168.732 127.581 169.067 128.16 169.52 128.64ZM180.85 130.9C181.267 130.971 181.654 131.165 181.961 131.457C182.268 131.749 182.482 132.125 182.575 132.538C182.668 132.951 182.637 133.383 182.485 133.778C182.332 134.173 182.066 134.514 181.72 134.758C181.374 135.002 180.963 135.138 180.54 135.148C180.116 135.158 179.699 135.043 179.341 134.816C178.984 134.589 178.701 134.261 178.53 133.874C178.359 133.486 178.307 133.057 178.38 132.64C178.477 132.082 178.792 131.585 179.255 131.259C179.718 130.933 180.292 130.804 180.85 130.9Z" fill="#F0F0F0"/>
<path d="M172.388 122.233L191.789 125.654L192.159 123.557L172.758 120.136L172.388 122.233Z" fill="#FAFAFA"/>
<path d="M176.235 104.786L195.541 108.135L195.903 106.047L176.597 102.698L176.235 104.786Z" fill="#FAFAFA"/>
<path d="M355.38 104.25C353.961 102.222 351.794 100.84 349.356 100.409C346.919 99.9779 344.41 100.532 342.38 101.95L338.38 104.72L335.6 100.72C334.177 98.6961 332.011 97.3183 329.575 96.8873C327.139 96.4563 324.631 97.0072 322.6 98.4196C320.577 99.8427 319.199 102.009 318.768 104.445C318.337 106.881 318.888 109.389 320.3 111.42L333.81 130.71L353.11 117.2C355.117 115.774 356.481 113.615 356.906 111.191C357.331 108.767 356.783 106.272 355.38 104.25Z" fill="#EBEBEB"/>
<path d="M383.121 106.05C382.777 105.556 382.339 105.134 381.832 104.81C381.325 104.485 380.758 104.264 380.165 104.159C379.573 104.054 378.965 104.067 378.377 104.198C377.789 104.328 377.233 104.574 376.741 104.92L374.801 106.28L373.441 104.34C372.743 103.346 371.68 102.669 370.484 102.457C369.288 102.245 368.057 102.516 367.061 103.21C366.067 103.911 365.392 104.977 365.182 106.174C364.973 107.371 365.245 108.603 365.941 109.6L372.551 119.04L382.001 112.43C382.494 112.086 382.915 111.647 383.238 111.139C383.562 110.632 383.782 110.066 383.886 109.473C383.99 108.88 383.976 108.272 383.845 107.685C383.713 107.098 383.467 106.542 383.121 106.05Z" fill="#EBEBEB"/>
<path d="M87.3605 197.86C80.9065 199.713 75.4524 204.053 72.1971 209.926C68.9419 215.799 68.1517 222.725 70.0005 229.18C72.5105 237.91 87.8205 252.54 98.2405 261.73C99.3092 262.675 100.599 263.335 101.99 263.649C103.381 263.964 104.829 263.923 106.2 263.531C107.571 263.138 108.822 262.406 109.835 261.403C110.849 260.4 111.594 259.157 112 257.79C116 244.48 121.19 223.95 118.69 215.22C117.774 212.022 116.237 209.037 114.166 206.434C112.095 203.83 109.532 201.661 106.622 200.049C103.713 198.437 100.514 197.413 97.2092 197.038C93.9041 196.662 90.5575 196.942 87.3605 197.86ZM97.5605 233.43C95.3402 234.068 92.9805 234.033 90.7799 233.33C88.5793 232.627 86.6367 231.288 85.1975 229.48C83.7584 227.673 82.8875 225.48 82.695 223.178C82.5025 220.876 82.9969 218.568 84.1159 216.547C85.2348 214.526 86.928 212.882 88.9812 211.823C91.0345 210.764 93.3556 210.338 95.651 210.599C97.9465 210.859 100.113 211.794 101.877 213.286C103.641 214.778 104.923 216.76 105.56 218.98C106.416 221.957 106.053 225.152 104.553 227.862C103.053 230.571 100.537 232.574 97.5605 233.43Z" fill="#E0E0E0"/>
<path d="M91.3193 196.73C84.8734 198.59 79.429 202.932 76.1816 208.802C72.9343 214.672 72.1494 221.592 73.9993 228.04C76.5093 236.77 91.8193 251.41 102.239 260.6C103.312 261.542 104.605 262.198 105.998 262.508C107.392 262.817 108.841 262.77 110.211 262.372C111.582 261.973 112.83 261.235 113.84 260.226C114.85 259.218 115.589 257.971 115.989 256.6C119.989 243.29 125.179 222.77 122.679 214.03C121.758 210.834 120.216 207.851 118.14 205.251C116.065 202.652 113.498 200.487 110.585 198.88C107.673 197.273 104.472 196.256 101.166 195.888C97.8605 195.519 94.5144 195.805 91.3193 196.73ZM101.519 232.3C99.2972 232.94 96.9352 232.907 94.732 232.205C92.5289 231.502 90.5836 230.162 89.1422 228.354C87.7008 226.545 86.8281 224.35 86.6345 222.046C86.4409 219.741 86.9351 217.431 88.0546 215.408C89.1741 213.385 90.8685 211.739 92.9236 210.678C94.9787 209.618 97.302 209.191 99.5998 209.451C101.898 209.712 104.066 210.648 105.832 212.141C107.598 213.634 108.881 215.618 109.519 217.84C109.944 219.315 110.074 220.859 109.902 222.384C109.73 223.909 109.259 225.385 108.516 226.728C107.773 228.071 106.773 229.255 105.572 230.211C104.372 231.167 102.994 231.877 101.519 232.3Z" fill="#F5F5F5"/>
<path d="M382.909 133.5C380.126 132.695 377.212 132.448 374.334 132.772C371.455 133.097 368.669 133.986 366.136 135.39C363.602 136.794 361.37 138.685 359.569 140.953C357.768 143.222 356.432 145.824 355.639 148.61C353.459 156.22 358.009 174.09 361.469 185.68C361.821 186.874 362.47 187.959 363.354 188.836C364.238 189.713 365.329 190.352 366.526 190.694C367.723 191.036 368.987 191.07 370.201 190.793C371.415 190.516 372.539 189.937 373.469 189.11C382.549 181.11 395.879 168.37 398.059 160.77C398.863 157.984 399.108 155.068 398.781 152.187C398.454 149.307 397.561 146.519 396.153 143.985C394.745 141.451 392.85 139.22 390.578 137.42C388.305 135.621 385.699 134.288 382.909 133.5ZM373.999 164.5C372.067 163.945 370.343 162.83 369.044 161.296C367.745 159.762 366.929 157.878 366.701 155.881C366.472 153.884 366.841 151.864 367.759 150.076C368.678 148.288 370.106 146.813 371.863 145.836C373.62 144.859 375.627 144.425 377.63 144.588C379.633 144.751 381.544 145.504 383.119 146.752C384.695 148 385.866 149.687 386.483 151.6C387.101 153.513 387.137 155.566 386.589 157.5C386.224 158.787 385.608 159.99 384.777 161.039C383.946 162.088 382.917 162.962 381.747 163.613C380.577 164.263 379.291 164.676 377.961 164.828C376.632 164.98 375.285 164.869 373.999 164.5Z" fill="#E0E0E0"/>
<path d="M386.36 134.5C383.577 133.695 380.663 133.448 377.785 133.772C374.906 134.097 372.12 134.986 369.587 136.39C367.053 137.794 364.821 139.685 363.02 141.953C361.219 144.222 359.883 146.824 359.09 149.61C356.91 157.21 361.46 175.09 364.92 186.68C365.272 187.874 365.921 188.959 366.805 189.836C367.689 190.713 368.78 191.352 369.977 191.694C371.174 192.036 372.438 192.07 373.652 191.793C374.866 191.516 375.99 190.937 376.92 190.11C385.99 182.11 399.32 169.37 401.5 161.77C402.304 158.985 402.55 156.069 402.224 153.189C401.897 150.309 401.005 147.522 399.598 144.988C398.191 142.454 396.297 140.223 394.026 138.423C391.754 136.623 389.149 135.29 386.36 134.5ZM377.48 165.5C375.547 164.947 373.821 163.833 372.521 162.3C371.22 160.766 370.403 158.882 370.174 156.884C369.944 154.887 370.311 152.866 371.229 151.078C372.147 149.289 373.575 147.812 375.332 146.835C377.089 145.857 379.096 145.422 381.1 145.585C383.104 145.748 385.015 146.501 386.591 147.749C388.167 148.997 389.338 150.685 389.955 152.598C390.573 154.512 390.609 156.565 390.06 158.5C389.32 161.096 387.579 163.292 385.22 164.605C382.861 165.918 380.077 166.239 377.48 165.5Z" fill="#F5F5F5"/>
<path d="M249.999 427.51C357.082 427.51 443.889 422.442 443.889 416.19C443.889 409.938 357.082 404.87 249.999 404.87C142.917 404.87 56.1094 409.938 56.1094 416.19C56.1094 422.442 142.917 427.51 249.999 427.51Z" fill="#F5F5F5"/>
<path d="M188.5 188.37H199.2C199.73 188.36 200.256 188.463 200.744 188.671C201.232 188.88 201.67 189.19 202.029 189.58C202.388 189.97 202.66 190.432 202.827 190.936C202.995 191.439 203.054 191.972 203 192.5L201 215.07C200.885 216.193 200.363 217.236 199.532 218C198.701 218.765 197.619 219.199 196.49 219.22H185.8C185.268 219.228 184.741 219.124 184.253 218.914C183.765 218.703 183.328 218.392 182.969 217.999C182.611 217.607 182.34 217.143 182.175 216.638C182.009 216.133 181.953 215.598 182.01 215.07L184 192.5C184.119 191.382 184.641 190.345 185.47 189.585C186.298 188.825 187.376 188.393 188.5 188.37Z" fill="#C32C7B"/>
<path opacity="0.2" d="M308.201 183.55H324.921C325.751 183.535 326.575 183.697 327.337 184.025C328.1 184.353 328.784 184.84 329.344 185.453C329.904 186.066 330.327 186.791 330.585 187.58C330.843 188.369 330.93 189.204 330.841 190.03L328.781 213.6C328.601 215.346 327.792 216.968 326.503 218.16C325.215 219.353 323.536 220.035 321.781 220.08H305.001C304.171 220.093 303.349 219.93 302.587 219.601C301.826 219.272 301.143 218.785 300.584 218.173C300.025 217.56 299.603 216.835 299.346 216.047C299.088 215.258 299.001 214.424 299.091 213.6L301.151 190.03C301.331 188.275 302.148 186.647 303.447 185.453C304.746 184.259 306.437 183.582 308.201 183.55Z" fill="black"/>
<path opacity="0.2" d="M304.771 222.71H321.501C322.33 222.696 323.153 222.86 323.914 223.188C324.676 223.517 325.359 224.004 325.917 224.617C326.476 225.23 326.899 225.954 327.156 226.743C327.414 227.531 327.501 228.365 327.411 229.19L325.351 252.76C325.173 254.515 324.356 256.145 323.057 257.339C321.758 258.533 320.066 259.21 318.301 259.24H301.581C300.751 259.255 299.927 259.092 299.165 258.764C298.402 258.436 297.718 257.949 297.158 257.336C296.598 256.723 296.175 255.998 295.917 255.209C295.659 254.42 295.572 253.585 295.661 252.76L297.731 229.19C297.909 227.436 298.724 225.808 300.021 224.614C301.319 223.42 303.008 222.742 304.771 222.71Z" fill="black"/>
<path d="M218.511 139.36H311.671C314.674 139.306 317.654 139.893 320.412 141.081C323.17 142.269 325.643 144.031 327.667 146.25C329.691 148.469 331.219 151.093 332.149 153.949C333.079 156.804 333.39 159.825 333.061 162.81L313.181 389.98C312.534 396.328 309.583 402.219 304.886 406.538C300.189 410.858 294.072 413.306 287.691 413.42H194.531C191.53 413.473 188.551 412.887 185.794 411.699C183.037 410.512 180.564 408.751 178.54 406.533C176.517 404.315 174.988 401.692 174.058 398.838C173.127 395.984 172.814 392.964 173.141 389.98L193.001 162.81C193.647 156.456 196.6 150.56 201.301 146.238C206.003 141.916 212.126 139.469 218.511 139.36Z" fill="#C32C7B"/>
<path opacity="0.2" d="M218.511 139.36H311.671C314.674 139.306 317.654 139.893 320.412 141.081C323.17 142.269 325.643 144.031 327.667 146.25C329.691 148.469 331.219 151.093 332.149 153.949C333.079 156.804 333.39 159.825 333.061 162.81L313.181 389.98C312.534 396.328 309.583 402.219 304.886 406.538C300.189 410.858 294.072 413.306 287.691 413.42H194.531C191.53 413.473 188.551 412.887 185.794 411.699C183.037 410.512 180.564 408.751 178.54 406.533C176.517 404.315 174.988 401.692 174.058 398.838C173.127 395.984 172.814 392.964 173.141 389.98L193.001 162.81C193.647 156.456 196.6 150.56 201.301 146.238C206.003 141.916 212.126 139.469 218.511 139.36Z" fill="black"/>
<path d="M215.501 139.36H308.671C311.673 139.308 314.652 139.896 317.409 141.084C320.166 142.273 322.639 144.035 324.662 146.253C326.686 148.472 328.214 151.095 329.145 153.95C330.075 156.805 330.388 159.825 330.061 162.81L310.181 389.98C309.531 396.327 306.58 402.217 301.883 406.536C297.186 410.855 291.07 413.304 284.691 413.42H191.531C188.529 413.475 185.549 412.889 182.791 411.702C180.033 410.515 177.56 408.754 175.536 406.536C173.512 404.318 171.984 401.694 171.053 398.839C170.123 395.985 169.812 392.964 170.141 389.98L190.001 162.81C191.141 149.86 202.561 139.36 215.501 139.36Z" fill="#C32C7B"/>
<path d="M327.262 162.81L307.392 389.97C306.816 395.56 304.213 400.746 300.076 404.549C295.938 408.352 290.551 410.508 284.932 410.61H191.772C189.128 410.659 186.504 410.143 184.075 409.098C181.646 408.053 179.468 406.503 177.685 404.55C175.903 402.597 174.557 400.286 173.737 397.772C172.917 395.258 172.643 392.599 172.932 389.97L192.812 162.81C193.385 157.22 195.985 152.033 200.121 148.228C204.257 144.424 209.643 142.265 215.262 142.16H308.422C311.066 142.113 313.69 142.63 316.119 143.676C318.548 144.722 320.726 146.274 322.508 148.228C324.291 150.181 325.637 152.492 326.456 155.007C327.276 157.521 327.55 160.181 327.262 162.81Z" fill="white"/>
<g opacity="0.1">
<path d="M191.77 410.61H227.09L284.15 142.16H239.15L182.57 408.34C185.403 409.844 188.563 410.624 191.77 410.61Z" fill="black"/>
<path d="M305.751 142.16H297.191L240.121 410.61H248.691L305.751 142.16Z" fill="black"/>
</g>
<path d="M234.53 141.5C234.443 142.338 234.534 143.186 234.796 143.987C235.058 144.788 235.486 145.525 236.052 146.149C236.618 146.774 237.31 147.272 238.081 147.612C238.853 147.951 239.687 148.125 240.53 148.12H282.03C283.829 148.081 285.552 147.387 286.876 146.168C288.2 144.95 289.033 143.29 289.22 141.5H234.53Z" fill="#C32C7B"/>
<path d="M306.73 149.5H316.15C316.332 149.499 316.513 149.537 316.68 149.61C316.846 149.683 316.996 149.791 317.119 149.926C317.241 150.06 317.334 150.219 317.391 150.393C317.448 150.566 317.468 150.749 317.45 150.93L317.09 155.03C317.051 155.417 316.872 155.775 316.586 156.039C316.301 156.302 315.929 156.452 315.54 156.46H306.12C305.937 156.463 305.756 156.426 305.589 156.353C305.421 156.281 305.271 156.173 305.148 156.038C305.025 155.903 304.932 155.743 304.876 155.569C304.819 155.395 304.8 155.212 304.82 155.03L305.18 150.93C305.219 150.543 305.398 150.185 305.684 149.921C305.97 149.658 306.342 149.508 306.73 149.5Z" fill="#C32C7B"/>
<path d="M206.151 149.5H218.761C218.967 149.498 219.171 149.539 219.36 149.621C219.549 149.703 219.718 149.824 219.857 149.976C219.996 150.128 220.101 150.307 220.165 150.503C220.23 150.698 220.252 150.905 220.231 151.11L219.901 154.85C219.857 155.286 219.655 155.691 219.332 155.988C219.01 156.284 218.589 156.453 218.151 156.46H205.541C205.336 156.463 205.132 156.422 204.943 156.34C204.755 156.258 204.586 156.137 204.448 155.984C204.31 155.832 204.206 155.652 204.143 155.457C204.079 155.261 204.058 155.054 204.081 154.85L204.401 151.11C204.445 150.674 204.648 150.269 204.97 149.973C205.293 149.676 205.713 149.508 206.151 149.5Z" fill="#C32C7B"/>
<path opacity="0.4" d="M206.151 149.5H218.761C218.967 149.498 219.171 149.539 219.36 149.621C219.549 149.703 219.718 149.824 219.857 149.976C219.996 150.128 220.101 150.307 220.165 150.503C220.23 150.698 220.252 150.905 220.231 151.11L219.901 154.85C219.857 155.286 219.655 155.691 219.332 155.988C219.01 156.284 218.589 156.453 218.151 156.46H205.541C205.336 156.463 205.132 156.422 204.943 156.34C204.755 156.258 204.586 156.137 204.448 155.984C204.31 155.832 204.206 155.652 204.143 155.457C204.079 155.261 204.058 155.054 204.081 154.85L204.401 151.11C204.445 150.674 204.648 150.269 204.97 149.973C205.293 149.676 205.713 149.508 206.151 149.5Z" fill="white"/>
<path d="M304.221 150.659H305.701C305.768 150.658 305.834 150.67 305.896 150.696C305.958 150.722 306.013 150.761 306.059 150.81C306.104 150.86 306.138 150.918 306.16 150.982C306.181 151.045 306.188 151.113 306.181 151.179L305.871 154.719C305.856 154.861 305.79 154.992 305.685 155.088C305.579 155.184 305.443 155.238 305.301 155.239H303.821C303.754 155.241 303.687 155.229 303.625 155.203C303.563 155.177 303.508 155.138 303.463 155.088C303.417 155.039 303.383 154.981 303.362 154.917C303.341 154.853 303.333 154.786 303.341 154.719L303.651 151.179C303.665 151.038 303.731 150.907 303.837 150.811C303.942 150.715 304.078 150.661 304.221 150.659Z" fill="#C32C7B"/>
<path d="M314.281 150.66H315.771C315.837 150.66 315.903 150.673 315.963 150.7C316.024 150.727 316.078 150.766 316.122 150.815C316.167 150.864 316.2 150.922 316.221 150.985C316.241 151.048 316.248 151.114 316.241 151.18L315.931 154.72C315.918 154.861 315.854 154.992 315.751 155.088C315.647 155.184 315.512 155.238 315.371 155.24H313.881C313.815 155.241 313.749 155.227 313.689 155.2C313.628 155.174 313.574 155.134 313.53 155.085C313.485 155.036 313.452 154.978 313.431 154.915C313.411 154.852 313.404 154.786 313.411 154.72L313.721 151.18C313.733 151.04 313.797 150.908 313.901 150.812C314.004 150.716 314.14 150.662 314.281 150.66Z" fill="white"/>
<path d="M311.091 150.66H312.581C312.648 150.66 312.713 150.673 312.774 150.7C312.834 150.727 312.888 150.766 312.933 150.815C312.977 150.864 313.011 150.922 313.031 150.985C313.052 151.048 313.058 151.114 313.051 151.18L312.741 154.72C312.729 154.861 312.665 154.992 312.561 155.088C312.458 155.184 312.323 155.238 312.181 155.24H310.691C310.625 155.241 310.56 155.227 310.499 155.2C310.439 155.174 310.384 155.134 310.34 155.085C310.296 155.036 310.262 154.978 310.242 154.915C310.221 154.852 310.214 154.786 310.221 154.72L310.531 151.18C310.544 151.04 310.608 150.908 310.711 150.812C310.815 150.716 310.95 150.662 311.091 150.66Z" fill="white"/>
<path d="M327.83 213.439L325.83 236.669C326.809 236.481 327.701 235.983 328.375 235.248C329.049 234.513 329.468 233.581 329.57 232.589L330.85 217.499C330.952 216.567 330.697 215.63 330.137 214.877C329.577 214.124 328.753 213.611 327.83 213.439Z" fill="#C32C7B"/>
<path opacity="0.2" d="M327.83 213.439L325.83 236.669C326.809 236.481 327.701 235.983 328.375 235.248C329.049 234.513 329.468 233.581 329.57 232.589L330.85 217.499C330.952 216.567 330.697 215.63 330.137 214.877C329.577 214.124 328.753 213.611 327.83 213.439Z" fill="black"/>
<path d="M330 188.37L328 211.6C328.977 211.414 329.868 210.917 330.54 210.184C331.212 209.45 331.629 208.52 331.73 207.53L333 192.5C333.116 191.56 332.871 190.61 332.314 189.844C331.757 189.077 330.93 188.55 330 188.37Z" fill="#C32C7B"/>
<path opacity="0.2" d="M330 188.37L328 211.6C328.977 211.414 329.868 210.917 330.54 210.184C331.212 209.45 331.629 208.52 331.73 207.53L333 192.5C333.116 191.56 332.871 190.61 332.314 189.844C331.757 189.077 330.93 188.55 330 188.37Z" fill="black"/>
<path d="M405.29 241.38H385.66C384.069 241.38 382.543 242.012 381.418 243.137C380.292 244.262 379.66 245.789 379.66 247.38V259C379.673 260.582 380.311 262.096 381.435 263.21C382.559 264.325 384.077 264.95 385.66 264.95H391.27V269.48C391.273 269.729 391.349 269.971 391.489 270.177C391.629 270.383 391.826 270.543 392.056 270.638C392.286 270.733 392.539 270.758 392.784 270.71C393.028 270.663 393.253 270.544 393.43 270.37L398.84 264.95H405.29C406.864 264.937 408.37 264.306 409.483 263.193C410.596 262.08 411.227 260.574 411.24 259V247.33C411.227 245.756 410.596 244.25 409.483 243.137C408.37 242.024 406.864 241.393 405.29 241.38Z" fill="#C32C7B"/>
<path d="M400.539 246.939H391.109C391.019 246.149 390.969 245.759 390.879 244.939H385.689C385.799 245.389 385.859 245.609 385.969 246.059H389.709C389.759 246.389 389.789 246.559 389.839 246.899C390.089 248.549 390.219 249.369 390.469 251.019C390.529 251.469 390.569 251.689 390.639 252.139C390.889 253.789 391.009 254.609 391.259 256.259C391.399 257.149 391.469 257.589 391.599 258.469H401.999C402.099 258.019 402.149 257.799 402.259 257.349H392.409C392.359 256.919 392.329 256.699 392.279 256.259H402.989L403.989 252.139C404.099 251.689 404.149 251.469 404.269 251.019C404.669 249.369 404.879 248.549 405.269 246.899L400.539 246.939ZM391.249 248.049H394.589C394.589 249.259 394.639 249.859 394.679 251.049H391.599L391.249 248.049ZM392.099 255.189C391.949 253.979 391.879 253.379 391.739 252.189H394.739C394.739 253.389 394.789 253.989 394.829 255.189H392.099ZM398.509 255.189H395.799C395.799 253.979 395.799 253.379 395.799 252.189H398.799C398.669 253.379 398.619 253.979 398.509 255.189ZM398.889 251.059H395.809C395.809 249.859 395.809 249.259 395.809 248.059H399.149C399.049 249.259 398.999 249.859 398.889 251.059ZM402.209 255.189H399.509C399.659 253.979 399.729 253.379 399.889 252.189H402.889L402.209 255.189ZM403.099 251.059H399.999C400.159 249.859 400.229 249.259 400.379 248.059H403.719C403.479 249.259 403.349 249.859 403.099 251.059Z" fill="white"/>
<path d="M392.24 259.55C391.977 259.55 391.72 259.628 391.501 259.774C391.283 259.92 391.112 260.128 391.011 260.371C390.911 260.614 390.884 260.881 390.936 261.139C390.987 261.397 391.114 261.634 391.3 261.82C391.486 262.006 391.723 262.133 391.981 262.184C392.239 262.236 392.506 262.209 392.749 262.109C392.992 262.008 393.2 261.837 393.346 261.619C393.492 261.4 393.57 261.143 393.57 260.88C393.57 260.527 393.43 260.189 393.181 259.939C392.931 259.69 392.593 259.55 392.24 259.55Z" fill="white"/>
<path d="M401.66 262.2C402.389 262.2 402.98 261.609 402.98 260.88C402.98 260.151 402.389 259.56 401.66 259.56C400.931 259.56 400.34 260.151 400.34 260.88C400.34 261.609 400.931 262.2 401.66 262.2Z" fill="white"/>
<path d="M273.509 158.12H242.349C239.779 158.165 237.315 159.151 235.422 160.89C233.53 162.63 232.34 165.002 232.079 167.56L230.469 186.01C230.337 187.211 230.462 188.427 230.836 189.577C231.211 190.726 231.826 191.783 232.64 192.676C233.455 193.569 234.451 194.278 235.561 194.756C236.671 195.235 237.87 195.471 239.079 195.45H247.999L247.369 202.63C247.338 203.023 247.432 203.417 247.636 203.755C247.841 204.093 248.146 204.358 248.509 204.513C248.872 204.669 249.274 204.707 249.66 204.622C250.046 204.537 250.395 204.333 250.659 204.04L259.999 195.5H270.239C272.809 195.452 275.272 194.466 277.164 192.727C279.056 190.987 280.246 188.616 280.509 186.06L282.119 167.61C282.259 166.404 282.14 165.183 281.769 164.027C281.398 162.872 280.784 161.809 279.968 160.91C279.153 160.011 278.155 159.297 277.041 158.816C275.927 158.335 274.722 158.097 273.509 158.12Z" fill="#C32C7B"/>
<path d="M264.188 166.94H249.238L249.138 163.84H240.908C241.018 164.55 241.078 164.9 241.188 165.61H247.128C247.128 166.14 247.178 166.41 247.208 166.94C247.378 169.56 247.468 170.87 247.638 173.49C247.638 174.19 247.708 174.55 247.748 175.26C247.918 177.87 248.008 179.18 248.168 181.8C248.268 183.2 248.308 183.9 248.398 185.3H264.818L265.388 183.53H249.758V181.8H266.758C267.638 179.18 268.078 177.87 268.948 175.26L269.538 173.49C270.418 170.87 270.858 169.56 271.728 166.94H264.188ZM249.288 168.71H254.588C254.478 170.62 254.428 171.57 254.318 173.49H249.438L249.288 168.71ZM249.648 180.03L249.498 175.26H254.218C254.108 177.17 254.048 178.12 253.938 180.03H249.648ZM259.818 180.03H255.528C255.698 178.12 255.788 177.17 255.958 175.26H260.678C260.338 177.17 260.168 178.12 259.818 180.03ZM260.998 173.5H256.118C256.298 171.58 256.378 170.63 256.548 168.72H261.858C261.508 170.62 261.338 171.57 260.998 173.5ZM265.698 180.04H261.408L262.408 175.27H267.118C266.568 177.17 266.278 178.12 265.698 180.03V180.04ZM267.698 173.5H262.798C263.208 171.58 263.408 170.63 263.798 168.72H269.098C268.538 170.62 268.248 171.57 267.678 173.5H267.698Z" fill="white"/>
<path d="M249.279 186.959C248.707 186.968 248.157 187.187 247.735 187.574C247.313 187.961 247.048 188.49 246.989 189.059C246.961 189.327 246.99 189.597 247.073 189.853C247.157 190.108 247.295 190.343 247.476 190.542C247.658 190.74 247.879 190.898 248.126 191.004C248.373 191.111 248.64 191.164 248.909 191.159C249.482 191.15 250.031 190.931 250.453 190.544C250.875 190.157 251.14 189.629 251.199 189.059C251.227 188.792 251.199 188.521 251.115 188.266C251.031 188.01 250.893 187.775 250.712 187.577C250.53 187.378 250.309 187.221 250.062 187.114C249.815 187.008 249.548 186.955 249.279 186.959Z" fill="white"/>
<path d="M264.209 186.959C263.637 186.969 263.089 187.188 262.669 187.575C262.248 187.962 261.985 188.49 261.929 189.059C261.9 189.327 261.929 189.597 262.013 189.853C262.097 190.108 262.234 190.343 262.416 190.542C262.597 190.74 262.819 190.898 263.066 191.004C263.313 191.111 263.58 191.164 263.849 191.159C264.42 191.15 264.968 190.931 265.388 190.543C265.809 190.156 266.072 189.628 266.129 189.059C266.157 188.792 266.128 188.521 266.044 188.266C265.96 188.01 265.823 187.775 265.641 187.577C265.46 187.378 265.238 187.221 264.991 187.114C264.744 187.008 264.477 186.955 264.209 186.959Z" fill="white"/>
<path d="M295.9 288.68H260.27V324.31H295.9V288.68Z" fill="#C32C7B"/>
<path d="M317.771 288.68H295.891V324.31H317.771V288.68Z" fill="#C32C7B"/>
<path d="M289.091 279.739H253.461L260.271 288.679H295.891L289.091 279.739Z" fill="#C32C7B"/>
<path opacity="0.3" d="M317.771 288.68H295.891V324.31H317.771V288.68Z" fill="white"/>
<path opacity="0.4" d="M289.091 279.739H253.461L260.271 288.679H295.891L289.091 279.739Z" fill="white"/>
<path d="M302.341 279.739H324.221L317.781 288.679H295.891L302.341 279.739Z" fill="#C32C7B"/>
<path opacity="0.6" d="M295.9 288.68H260.27V324.31H295.9V288.68Z" fill="white"/>
<path opacity="0.2" d="M302.341 279.739H324.221L317.781 288.679H295.891L302.341 279.739Z" fill="white"/>
<path d="M396.15 323.43H306.35V413.23H396.15V323.43Z" fill="#C32C7B"/>
<path opacity="0.4" d="M396.15 323.43H306.35V413.23H396.15V323.43Z" fill="white"/>
<path d="M306.33 323.43H251.17V413.23H306.33V323.43Z" fill="#C32C7B"/>
<path opacity="0.6" d="M306.33 323.43H251.17V413.23H306.33V323.43Z" fill="white"/>
<path opacity="0.5" d="M268.209 323.43V347.55L270.399 348.7L272.289 347.13L275.279 348.7L278.119 347.13L280.319 348.7L282.839 347.13L284.269 348.42V323.43H268.209Z" fill="white"/>
<path opacity="0.5" d="M284.271 413.23V389.11L282.081 387.95L280.191 389.53L277.201 387.95L274.361 389.53L272.161 387.95L269.641 389.53L268.211 388.24V413.23H284.271Z" fill="white"/>
<path d="M343 360.05C343.51 362.1 343.76 363.13 344.27 365.18C344.4 365.73 344.47 366.01 344.61 366.57C345.12 368.62 345.37 369.65 345.88 371.7H359.2C359.13 372.24 359.1 372.51 359.04 373.05H346.77C346.9 373.61 346.96 373.89 347.09 374.44H360L360.42 371.7C360.73 369.65 360.89 368.62 361.2 366.57C361.29 366.01 361.33 365.73 361.41 365.18C361.72 363.13 361.88 362.1 362.19 360.05C362.26 359.63 362.29 359.42 362.35 359H367C367.13 358.45 367.2 358.17 367.34 357.62H360.89C360.77 358.62 360.71 359.07 360.6 360.05H343ZM360 365.18H356.18C356.18 363.68 356.24 362.93 356.29 361.43H360.44C360.22 362.93 360.14 363.68 360 365.18ZM356 370.31C356 368.81 356.07 368.06 356.11 366.57H359.81L359.36 370.31H356ZM351 366.57H354.69C354.69 368.06 354.69 368.81 354.69 370.31H351.32C351.23 368.81 351.16 368.06 351 366.57ZM350.53 361.43H354.68C354.68 362.93 354.68 363.68 354.68 365.18H350.9C350.76 363.68 350.69 362.93 350.56 361.43H350.53ZM345.93 366.57H349.63C349.81 368.06 349.91 368.81 350.1 370.31H346.73L345.93 366.57ZM344.83 361.43H349C349.18 362.93 349.28 363.68 349.46 365.18H345.64L344.83 361.43Z" fill="white"/>
<path d="M359.16 379.039C360.071 379.039 360.81 378.301 360.81 377.389C360.81 376.478 360.071 375.739 359.16 375.739C358.248 375.739 357.51 376.478 357.51 377.389C357.51 378.301 358.248 379.039 359.16 379.039Z" fill="white"/>
<path d="M347.451 379.039C348.362 379.039 349.101 378.301 349.101 377.389C349.101 376.478 348.362 375.739 347.451 375.739C346.54 375.739 345.801 376.478 345.801 377.389C345.801 378.301 346.54 379.039 347.451 379.039Z" fill="white"/>
<g opacity="0.5">
<path d="M266.59 360.05C267.1 362.1 267.35 363.13 267.86 365.18C267.99 365.73 268.06 366.01 268.2 366.57C268.71 368.62 268.96 369.65 269.47 371.7H282.79C282.72 372.24 282.69 372.51 282.63 373.05H270.38C270.51 373.61 270.57 373.89 270.7 374.44H283.57L283.99 371.7C284.3 369.65 284.46 368.62 284.77 366.57C284.85 366.01 284.9 365.73 284.98 365.18C285.29 363.13 285.45 362.1 285.76 360.05L285.92 359H290.58C290.71 358.45 290.78 358.17 290.92 357.62H284.47C284.35 358.62 284.29 359.07 284.18 360.05H266.59ZM283.59 365.18H279.77L279.88 361.43H284C283.83 362.93 283.74 363.68 283.57 365.18H283.59ZM279.59 370.31C279.64 368.81 279.66 368.06 279.7 366.57H283.4L282.95 370.31H279.59ZM274.64 366.57H278.33C278.33 368.06 278.33 368.81 278.33 370.31H275C274.84 368.81 274.77 368.06 274.64 366.57ZM274.16 361.43H278.32C278.32 362.93 278.32 363.68 278.32 365.18H274.5L274.16 361.43ZM269.57 366.57H273.27L273.73 370.31H270.37L269.57 366.57ZM268.47 361.43H272.63C272.81 362.93 272.91 363.68 273.09 365.18H269.27L268.47 361.43Z" fill="white"/>
<path d="M282.769 379.04C283.68 379.04 284.419 378.302 284.419 377.39C284.419 376.479 283.68 375.74 282.769 375.74C281.858 375.74 281.119 376.479 281.119 377.39C281.119 378.302 281.858 379.04 282.769 379.04Z" fill="white"/>
<path d="M271.06 379.04C271.971 379.04 272.71 378.302 272.71 377.39C272.71 376.479 271.971 375.74 271.06 375.74C270.149 375.74 269.41 376.479 269.41 377.39C269.41 378.302 270.149 379.04 271.06 379.04Z" fill="white"/>
</g>
<path d="M363.361 251.97C363.361 251.97 366.481 274.36 369.281 278.22C372.081 282.08 384.661 292.76 384.661 292.76L392.611 291.6L397.941 296.6L394.081 299.27L389.831 297.37C387.434 297.636 385.018 297.693 382.611 297.54C378.551 297.29 362.691 286.54 359.771 280.93C356.851 275.32 353.551 254.55 353.551 254.55L363.361 251.97Z" fill="#CE7A63"/>
<path d="M366 258.44L365.2 258.58C364.65 253.32 362.45 237.34 356.42 241.44C350.63 245.39 352.26 256.6 353.1 260.79L352.1 260.96L352.98 263.72L366.31 261.17L366 258.44Z" fill="#C32C7B"/>
<path opacity="0.2" d="M360.999 247.87L359.529 244.71L354.919 249.35L352.269 253.35C352.343 255.853 352.63 258.346 353.129 260.8L352.129 260.97L353.009 263.73L360.529 262.29C361.367 257.53 361.525 252.675 360.999 247.87Z" fill="black"/>
<path d="M361.461 207.689C361.461 207.689 377.361 211.129 368.911 218.689L361.911 212.579L361.461 207.689Z" fill="#263238"/>
<path d="M383.531 375.58L373.411 400.37L366.391 397.64L372.051 373L383.531 375.58Z" fill="#CE7A63"/>
<path opacity="0.2" d="M372.551 371.25L368.561 388.62L377.211 390.55L384.031 373.82L372.551 371.25Z" fill="black"/>
<path d="M375 399.789C376.29 402.719 377.16 405.129 382.44 408.259C383.59 408.919 381.64 411.959 378.77 410.669C374.03 408.529 375.27 408.489 371.21 406.729C367.8 405.219 365.26 404.309 362.48 403.149C362.408 403.119 362.341 403.079 362.28 403.029C362.044 402.852 361.887 402.589 361.844 402.297C361.801 402.005 361.875 401.707 362.05 401.469L366.15 395.859C366.24 395.734 366.371 395.643 366.521 395.603C366.67 395.563 366.829 395.576 366.97 395.639L373.61 398.499C374.215 398.746 374.709 399.205 375 399.789Z" fill="#263238"/>
<path d="M406.18 317.319C404.89 333.319 381.91 386.209 381.91 386.209L368.27 382.409C368.27 382.409 378.69 331.599 385.49 323.189C385.49 323.189 383.27 323.189 379.7 323.259C367.27 323.369 338.46 323.349 330.15 321.139C324.22 319.559 311.83 316.389 315.15 296.549L330.51 296.019L348.4 295.399C348.4 295.399 408 295.499 406.18 317.319Z" fill="#263238"/>
<path opacity="0.2" d="M379.7 323.26C367.27 323.37 338.46 323.35 330.15 321.14C324.22 319.56 311.83 316.39 315.15 296.55L330.51 296.02C342.6 297.45 358.4 299.84 369.17 304.47C374.41 306.72 378.05 310.78 379.12 315.56C379.488 318.11 379.682 320.683 379.7 323.26Z" fill="black"/>
<path d="M359.811 374.7L354.751 399.97L347.141 399.62L348.041 374.35L359.811 374.7Z" fill="#CE7A63"/>
<path opacity="0.2" d="M359.81 374.7L348.04 374.35L347.52 389.46L356.79 389.79L359.81 374.7Z" fill="black"/>
<path d="M355.91 400.569C357.15 403.569 357.91 406.089 363.24 409.429C364.38 410.169 362.3 413.219 359.43 411.799C354.67 409.469 355.94 409.479 351.85 407.549C348.4 405.919 345.85 404.909 343.06 403.639L342.85 403.539C342.732 403.448 342.633 403.333 342.559 403.203C342.485 403.072 342.438 402.928 342.42 402.779C342.402 402.63 342.414 402.479 342.456 402.335C342.497 402.191 342.566 402.057 342.66 401.939L347.01 396.329C347.104 396.205 347.238 396.117 347.389 396.08C347.541 396.044 347.7 396.061 347.84 396.129L354.5 399.239C355.119 399.492 355.622 399.966 355.91 400.569Z" fill="#263238"/>
<path d="M306.169 296.5C306.169 296.5 301.819 312.13 309.009 318.3C319.059 326.93 355.369 324.3 355.369 324.3C349.099 344.37 346.299 384.24 346.299 384.24H359.909C359.909 384.24 378.449 329.7 375.709 315.6C372.969 301.5 324.329 296.51 324.329 296.51L306.169 296.5Z" fill="#263238"/>
<path d="M367.061 383.99L382.501 387.88L385.651 381.27L368.691 376.46L367.061 383.99Z" fill="#C32C7B"/>
<path d="M344.949 386.18L360.699 386.99L362.329 380.06L344.949 379.25V386.18Z" fill="#C32C7B"/>
<path d="M352.169 274.89C356.169 263.1 361.169 254.13 361.749 244.08C348.059 224.32 321.289 236 321.289 236C305.089 266.4 306.169 296.5 306.169 296.5C342.979 296.5 345.089 295.87 345.089 295.87C345.089 295.87 345.219 290.7 352.169 274.89Z" fill="#C32C7B"/>
<path opacity="0.2" d="M339.811 235.42C340.401 238.9 341.631 245.18 343.091 246.09C345.091 247.31 348.091 245.6 348.091 245.6C348.091 245.6 350.521 248.89 353.091 246.7C354.533 245.318 355.659 243.639 356.391 241.78C355.634 243.068 354.679 244.229 353.561 245.22C350.961 247.4 348.561 244.12 348.561 244.12C348.561 244.12 345.561 245.82 343.561 244.61C342.241 243.82 340.701 238.85 339.811 235.42Z" fill="black"/>
<path d="M343.109 230.62L346.759 231.87L343.899 234.38L343.109 230.62Z" fill="#C32C7B"/>
<path opacity="0.2" d="M343.109 230.62L346.759 231.87L343.899 234.38L343.109 230.62Z" fill="black"/>
<path d="M354.71 234.379L355.71 237.379C355.71 237.379 350.49 242.839 348.99 242.899C347.49 242.959 343.09 232.629 343.09 232.629C348.9 229.999 348.36 227.109 348.36 227.109L354.71 234.379Z" fill="#CE7A63"/>
<path opacity="0.2" d="M352.81 240.17C354.35 238.76 355.73 237.33 355.73 237.33L354.73 234.33L349.08 227.8C348.34 230.69 347.62 236.63 352.81 240.17Z" fill="black"/>
<path d="M357.69 239.5C356.75 241.7 355.36 243.679 353.61 245.31C351 247.49 348.61 244.22 348.61 244.22C348.61 244.22 345.61 245.91 343.61 244.7C341.61 243.49 339 232.39 339 232.39L343.11 230.62L348.77 242.62L356.4 236.31L357.69 239.5Z" fill="#C32C7B"/>
<path d="M348.16 216.97C348.151 215.194 348.61 213.448 349.491 211.906C350.371 210.364 351.641 209.081 353.174 208.185C354.707 207.289 356.449 206.813 358.225 206.803C360 206.793 361.747 207.251 363.29 208.13C370.55 212.04 370.75 223.46 368.59 230.13C368.068 231.882 367.075 233.457 365.721 234.685C364.366 235.913 362.701 236.745 360.906 237.093C359.111 237.44 357.256 237.289 355.541 236.655C353.826 236.022 352.318 234.931 351.18 233.5C347.62 229.12 348.08 224.63 348.18 216.92L348.16 216.97Z" fill="#CE7A63"/>
<path d="M361.679 221.75C362.099 221.75 362.359 222.36 362.249 222.97C362.139 223.58 361.769 223.97 361.359 223.97C360.949 223.97 360.689 223.36 360.789 222.75C360.889 222.14 361.259 221.72 361.679 221.75Z" fill="#263238"/>
<path d="M368.61 223.05C369.04 223.05 369.3 223.64 369.2 224.26C369.1 224.88 368.71 225.26 368.29 225.26C367.87 225.26 367.63 224.66 367.72 224.04C367.81 223.42 368.19 223 368.61 223.05Z" fill="#263238"/>
<path d="M359.819 220.29C360.177 220.013 360.597 219.826 361.042 219.744C361.487 219.663 361.946 219.689 362.379 219.82C362.468 219.849 362.565 219.842 362.649 219.801C362.733 219.76 362.797 219.688 362.829 219.6C362.856 219.508 362.849 219.41 362.809 219.323C362.768 219.236 362.697 219.168 362.609 219.13C362.051 218.963 361.462 218.933 360.89 219.045C360.319 219.156 359.783 219.405 359.329 219.77C359.276 219.805 359.235 219.854 359.211 219.912C359.186 219.97 359.179 220.035 359.191 220.096C359.203 220.158 359.233 220.216 359.277 220.261C359.321 220.306 359.377 220.337 359.439 220.35C359.5 220.382 359.571 220.394 359.639 220.383C359.708 220.373 359.771 220.34 359.819 220.29Z" fill="#263238"/>
<path d="M370.361 222.24C370.442 222.188 370.499 222.107 370.522 222.014C370.544 221.921 370.529 221.822 370.481 221.74C370.197 221.228 369.796 220.79 369.311 220.462C368.827 220.133 368.271 219.924 367.691 219.85C367.614 219.852 367.54 219.88 367.48 219.929C367.42 219.977 367.378 220.045 367.361 220.12C367.349 220.166 367.346 220.215 367.354 220.262C367.361 220.31 367.378 220.356 367.403 220.397C367.428 220.438 367.461 220.473 367.5 220.501C367.539 220.529 367.584 220.549 367.631 220.56C368.1 220.631 368.546 220.81 368.935 221.082C369.323 221.355 369.644 221.713 369.871 222.13C369.898 222.182 369.937 222.227 369.986 222.261C370.035 222.294 370.092 222.314 370.151 222.32C370.227 222.314 370.3 222.286 370.361 222.24Z" fill="#263238"/>
<path d="M364.5 229.869C364.971 230.084 365.482 230.195 366 230.195C366.518 230.195 367.029 230.084 367.5 229.869C366.582 228.004 365.91 226.027 365.5 223.989L364.5 229.869Z" fill="#BA4D3C"/>
<path d="M347.68 221.96C344.68 211.06 349.53 208.22 354.77 206.26C360.01 204.3 362.92 206.18 364.59 208.02C365.11 208.6 366.15 210.34 362.79 210.57C360.756 210.648 358.719 210.491 356.72 210.1C356.321 210.03 355.91 210.071 355.533 210.22C355.155 210.368 354.826 210.617 354.58 210.94C353.42 212.46 351.58 215.3 351.58 217.78C351.65 218.723 351.513 219.67 351.178 220.555C350.843 221.439 350.318 222.24 349.64 222.9L347.68 221.96Z" fill="#263238"/>
<path d="M343.9 276.74C344.161 276.742 344.416 276.821 344.632 276.968C344.848 277.114 345.016 277.322 345.114 277.564C345.212 277.806 345.236 278.071 345.183 278.327C345.13 278.583 345.003 278.817 344.817 279C344.631 279.183 344.394 279.307 344.138 279.356C343.882 279.405 343.616 279.377 343.376 279.275C343.136 279.174 342.931 279.003 342.787 278.785C342.644 278.566 342.568 278.311 342.57 278.05C342.57 277.875 342.605 277.702 342.673 277.541C342.741 277.38 342.84 277.235 342.965 277.113C343.089 276.99 343.237 276.895 343.4 276.831C343.562 276.767 343.736 276.736 343.91 276.74H343.9Z" fill="#C32C7B"/>
<path d="M341 290.699C341.173 290.699 341.345 290.733 341.505 290.8C341.665 290.866 341.811 290.963 341.933 291.086C342.056 291.208 342.153 291.354 342.219 291.514C342.286 291.674 342.32 291.846 342.32 292.019C342.32 292.193 342.286 292.364 342.219 292.524C342.153 292.685 342.056 292.83 341.933 292.953C341.811 293.075 341.665 293.172 341.505 293.239C341.345 293.305 341.173 293.339 341 293.339C340.649 293.337 340.313 293.195 340.066 292.946C339.818 292.697 339.68 292.36 339.68 292.009C339.68 291.836 339.714 291.665 339.78 291.506C339.847 291.346 339.944 291.201 340.067 291.079C340.19 290.958 340.335 290.861 340.495 290.796C340.655 290.731 340.827 290.698 341 290.699Z" fill="#C32C7B"/>
<path d="M347.761 219.5C349.881 219.88 350.901 222.87 350.921 224.83C350.941 226.79 349.421 228.52 347.551 227.27C346.131 226.29 345.132 224.812 344.751 223.13C344.341 221.02 345.651 219.08 347.761 219.5Z" fill="#CE7A63"/>
<path d="M357.44 229.76C359.738 230.408 361.968 231.276 364.1 232.35C363.442 233.054 362.562 233.51 361.608 233.641C360.654 233.772 359.683 233.57 358.86 233.07C358.541 232.957 358.249 232.779 358.002 232.548C357.755 232.317 357.558 232.037 357.425 231.726C357.292 231.415 357.224 231.08 357.227 230.741C357.229 230.403 357.302 230.069 357.44 229.76Z" fill="#263238"/>
<path d="M360.51 232.499C359.591 232.009 358.541 231.823 357.51 231.969C357.826 232.476 358.29 232.874 358.84 233.109C359.758 233.602 360.809 233.787 361.84 233.639C361.531 233.125 361.065 232.725 360.51 232.499Z" fill="#A02724"/>
<path d="M357.681 229.819C357.646 230.016 357.666 230.219 357.741 230.404C357.815 230.59 357.94 230.751 358.101 230.869C359.516 231.524 360.984 232.056 362.491 232.459C362.722 232.546 362.972 232.574 363.216 232.539C363.461 232.504 363.693 232.408 363.891 232.259C361.887 231.286 359.811 230.47 357.681 229.819Z" fill="white"/>
<path d="M365.338 303.179L383.438 303.277L383.453 300.367L365.354 300.269L365.338 303.179Z" fill="#263238"/>
<path d="M366.826 303.191L343.827 303.067C343.648 303.066 343.471 303.03 343.307 302.96C343.142 302.891 342.993 302.79 342.867 302.663C342.741 302.536 342.642 302.386 342.575 302.22C342.507 302.055 342.473 301.878 342.474 301.699L342.482 300.159L366.842 300.291L366.826 303.201L366.826 303.191Z" fill="#263238"/>
<path opacity="0.3" d="M366.826 303.191L343.827 303.067C343.648 303.066 343.471 303.03 343.307 302.96C343.142 302.891 342.993 302.79 342.867 302.663C342.741 302.536 342.642 302.386 342.575 302.22C342.507 302.055 342.473 301.878 342.474 301.699L342.482 300.159L366.842 300.291L366.826 303.201L366.826 303.191Z" fill="white"/>
<path d="M360.272 302.22L363.182 302.235L363.187 301.205L360.277 301.19L360.272 302.22Z" fill="#263238"/>
<path d="M355.733 302.214L358.643 302.229L358.648 301.2L355.738 301.184L355.733 302.214Z" fill="#263238"/>
<path d="M370.28 300.32L368.35 300.31L376.05 274.09L377.98 274.1L370.28 300.32Z" fill="#263238"/>
<path opacity="0.3" d="M370.28 300.32L368.35 300.31L376.05 274.09L377.98 274.1L370.28 300.32Z" fill="white"/>
<path d="M369.57 300.32L403.54 300.5L411.24 274.27L377.27 274.09L369.57 300.32Z" fill="#263238"/>
<path opacity="0.6" d="M369.57 300.32L403.54 300.5L411.24 274.27L377.27 274.09L369.57 300.32Z" fill="white"/>
<path d="M367.91 300.31L403.27 300.5C403.86 300.5 404.34 301.16 404.34 301.96C404.34 302.76 403.85 303.41 403.25 303.41L367.89 303.22C367.3 303.22 366.82 302.56 366.82 301.76C366.82 300.96 367.31 300.31 367.91 300.31Z" fill="#263238"/>
<path opacity="0.5" d="M367.91 300.31L403.27 300.5C403.86 300.5 404.34 301.16 404.34 301.96C404.34 302.76 403.85 303.41 403.25 303.41L367.89 303.22C367.3 303.22 366.82 302.56 366.82 301.76C366.82 300.96 367.31 300.31 367.91 300.31Z" fill="white"/>
<path d="M366.82 301.76C366.82 302.56 367.3 303.21 367.89 303.22C368.48 303.23 368.97 302.57 368.98 301.77C368.99 300.97 368.5 300.31 367.91 300.31C367.32 300.31 366.83 300.96 366.82 301.76Z" fill="#263238"/>
<path opacity="0.3" d="M366.82 301.76C366.82 302.56 367.3 303.21 367.89 303.22C368.48 303.23 368.97 302.57 368.98 301.77C368.99 300.97 368.5 300.31 367.91 300.31C367.32 300.31 366.83 300.96 366.82 301.76Z" fill="white"/>
<path opacity="0.2" d="M333.43 276.03C331.8 273.79 330.07 265.49 328.86 258.63L330.43 258.33L330.06 255.49L329.24 255.64C328.67 250.28 326.45 234.16 320.44 237.64C318.69 241.04 317.15 244.46 315.81 247.84C315.691 251.219 315.98 254.6 316.67 257.91L315.67 258.09L316.59 260.96L318.72 260.56C319.99 267.18 321.84 275.56 323.56 278.88C325.82 283.24 335.56 290.52 342.08 294.06C349.41 292.76 351.08 291.84 351.08 291.84C350.87 291.564 350.699 291.261 350.57 290.94L349.39 291.11C349.39 291.11 336.34 280.04 333.43 276.03Z" fill="black"/>
<path d="M331.64 248.88C331.64 248.88 333.78 272.25 336.5 276.39C339.22 280.53 351.75 292.23 351.75 292.23L360.05 291.41L365.33 296.9L361.2 299.5L356.88 297.31C354.38 297.475 351.87 297.418 349.38 297.14C345.19 296.68 329.26 284.8 326.5 278.8C323.74 272.8 321.33 251.13 321.33 251.13L331.64 248.88Z" fill="#CE7A63"/>
<path d="M333.499 253.919L332.669 254.069C332.099 248.609 329.809 232.009 323.559 236.269C317.559 240.369 319.229 252.009 320.109 256.359L319.109 256.539L320.029 259.409L333.869 256.759L333.499 253.919Z" fill="#C32C7B"/>
<path d="M131.218 334.06L128.828 333.93L129.388 323.09C129.617 319.497 131.195 316.123 133.806 313.644C136.417 311.165 139.868 309.763 143.468 309.72C145.214 309.703 146.944 310.046 148.552 310.728C150.159 311.409 151.608 312.415 152.809 313.682C154.011 314.948 154.938 316.449 155.533 318.091C156.128 319.732 156.378 321.478 156.268 323.22L155.698 334.06L153.308 333.93L153.878 323.09C153.973 321.671 153.774 320.247 153.292 318.909C152.811 317.57 152.057 316.346 151.08 315.313C150.102 314.28 148.921 313.46 147.611 312.905C146.301 312.351 144.891 312.073 143.468 312.09C140.479 312.127 137.614 313.293 135.448 315.353C133.282 317.414 131.975 320.217 131.788 323.2L131.218 334.06Z" fill="#263238"/>
<path d="M182.488 329.24H111.818L109.418 413.09L119.898 410.69L130.378 413.09H184.888L182.488 329.24Z" fill="#C32C7B"/>
<path opacity="0.6" d="M182.488 329.24H111.818L109.418 413.09L119.898 410.69L130.378 413.09H184.888L182.488 329.24Z" fill="white"/>
<path d="M130.378 413.09L119.898 410.69L109.418 413.09L111.818 329.24H127.988L130.378 413.09Z" fill="#C32C7B"/>
<path opacity="0.3" d="M130.378 413.09L119.898 410.69L109.418 413.09L111.818 329.24H127.988L130.378 413.09Z" fill="white"/>
<path d="M167.528 334.06L166.998 323.22C166.812 320.235 165.503 317.43 163.335 315.37C161.166 313.309 158.299 312.144 155.308 312.11C153.887 312.094 152.477 312.373 151.168 312.928C149.86 313.483 148.68 314.303 147.703 315.336C146.727 316.369 145.974 317.593 145.493 318.931C145.012 320.269 144.813 321.691 144.908 323.11L145.478 333.95L143.088 334.08L142.518 323.24C142.407 321.498 142.656 319.752 143.25 318.111C143.844 316.47 144.77 314.969 145.97 313.702C147.17 312.435 148.619 311.429 150.226 310.747C151.833 310.065 153.563 309.723 155.308 309.74C158.909 309.781 162.361 311.181 164.973 313.661C167.584 316.141 169.161 319.516 169.388 323.11L169.958 333.95L167.528 334.06Z" fill="#263238"/>
<g opacity="0.2">
<path d="M167.528 334.06L166.998 323.22C166.812 320.235 165.503 317.43 163.335 315.37C161.166 313.309 158.299 312.144 155.308 312.11C153.887 312.094 152.477 312.373 151.168 312.928C149.86 313.483 148.68 314.303 147.703 315.336C146.727 316.369 145.974 317.593 145.493 318.931C145.012 320.269 144.813 321.691 144.908 323.11L145.478 333.95L143.088 334.08L142.518 323.24C142.407 321.498 142.656 319.752 143.25 318.111C143.844 316.47 144.77 314.969 145.97 313.702C147.17 312.435 148.619 311.429 150.226 310.747C151.833 310.065 153.563 309.723 155.308 309.74C158.909 309.781 162.361 311.181 164.973 313.661C167.584 316.141 169.161 319.516 169.388 323.11L169.958 333.95L167.528 334.06Z" fill="white"/>
</g>
<path d="M172.938 359.86H140.078C139.338 359.86 138.738 360.46 138.738 361.2V366.51C138.738 367.25 139.338 367.85 140.078 367.85H172.938C173.678 367.85 174.278 367.25 174.278 366.51V361.2C174.278 360.46 173.678 359.86 172.938 359.86Z" fill="white"/>
<path d="M98.7389 360.11L97.1289 360.02L97.5089 352.76C97.6529 350.344 98.7067 348.073 100.458 346.403C102.21 344.733 104.529 343.789 106.949 343.76C108.115 343.749 109.271 343.977 110.345 344.431C111.419 344.884 112.388 345.554 113.193 346.398C113.997 347.242 114.62 348.242 115.021 349.336C115.423 350.431 115.596 351.596 115.529 352.76L115.149 360.03L113.549 359.94L113.929 352.68C113.99 351.728 113.853 350.774 113.527 349.878C113.202 348.981 112.695 348.162 112.037 347.471C111.38 346.779 110.587 346.232 109.708 345.862C108.829 345.492 107.883 345.307 106.929 345.32C104.926 345.344 103.006 346.124 101.554 347.504C100.102 348.883 99.2249 350.761 99.0989 352.76L98.7389 360.11Z" fill="#263238"/>
<path d="M133.109 356.88H85.7289L84.1289 413.09L91.1489 411.48L98.1789 413.09H134.719L133.109 356.88Z" fill="#C32C7B"/>
<path d="M98.1789 413.09L91.1489 411.48L84.1289 413.09L85.7289 356.88H96.5689L98.1789 413.09Z" fill="#C32C7B"/>
<path opacity="0.2" d="M98.1789 413.09L91.1489 411.48L84.1289 413.09L85.7289 356.88H96.5689L98.1789 413.09Z" fill="black"/>
<path d="M123.08 360.11L122.7 352.84C122.56 350.844 121.678 348.973 120.226 347.596C118.775 346.219 116.86 345.435 114.86 345.4C113.905 345.384 112.958 345.566 112.077 345.935C111.197 346.305 110.403 346.852 109.745 347.544C109.087 348.236 108.58 349.057 108.255 349.954C107.931 350.852 107.796 351.808 107.86 352.76L108.24 360.02L106.64 360.11L106.25 352.84C106.184 351.677 106.358 350.512 106.76 349.418C107.163 348.324 107.785 347.324 108.59 346.481C109.394 345.637 110.363 344.968 111.436 344.514C112.509 344.059 113.664 343.83 114.83 343.84C117.25 343.869 119.569 344.813 121.32 346.483C123.072 348.153 124.126 350.424 124.27 352.84L124.65 360.1L123.08 360.11Z" fill="#263238"/>
<g opacity="0.2">
<path d="M123.08 360.11L122.7 352.84C122.56 350.844 121.678 348.973 120.226 347.596C118.775 346.219 116.86 345.435 114.86 345.4C113.905 345.384 112.958 345.566 112.077 345.935C111.197 346.305 110.403 346.852 109.745 347.544C109.087 348.236 108.58 349.057 108.255 349.954C107.931 350.852 107.796 351.808 107.86 352.76L108.24 360.02L106.64 360.11L106.25 352.84C106.184 351.677 106.358 350.512 106.76 349.418C107.163 348.324 107.785 347.324 108.59 346.481C109.394 345.637 110.363 344.968 111.436 344.514C112.509 344.059 113.664 343.83 114.83 343.84C117.25 343.869 119.569 344.813 121.32 346.483C123.072 348.153 124.126 350.424 124.27 352.84L124.65 360.1L123.08 360.11Z" fill="white"/>
</g>
<path d="M126.259 377.41H105.119C104.379 377.41 103.779 378.01 103.779 378.75V381.42C103.779 382.16 104.379 382.76 105.119 382.76H126.259C126.999 382.76 127.599 382.16 127.599 381.42V378.75C127.599 378.01 126.999 377.41 126.259 377.41Z" fill="white"/>
<path d="M171.68 407.6L164.07 406.81L164.45 389.03L172.06 389.82L171.68 407.6Z" fill="#B55B52"/>
<path d="M236.06 382.1L229.25 385.57L219.01 370.89L225.83 367.42L236.06 382.1Z" fill="#B55B52"/>
<path d="M227.831 384.62L234.831 379.62C234.95 379.533 235.097 379.492 235.244 379.505C235.391 379.518 235.529 379.584 235.631 379.69L240.371 384.69C240.486 384.819 240.573 384.971 240.626 385.135C240.678 385.3 240.696 385.473 240.677 385.645C240.658 385.817 240.603 385.983 240.516 386.132C240.429 386.281 240.311 386.41 240.171 386.51C237.701 388.21 236.421 388.9 233.341 391.1C231.451 392.45 228.821 394.62 226.211 396.48C223.601 398.34 221.611 395.86 222.531 394.85C226.661 390.32 226.401 388.32 227.061 385.77C227.173 385.308 227.446 384.9 227.831 384.62Z" fill="#263238"/>
<path d="M163.421 405.85L171.971 406.74C172.118 406.752 172.255 406.818 172.357 406.925C172.458 407.032 172.517 407.172 172.521 407.32L172.791 414.19C172.792 414.363 172.756 414.534 172.687 414.692C172.617 414.851 172.515 414.993 172.386 415.109C172.258 415.225 172.106 415.313 171.942 415.366C171.777 415.42 171.603 415.438 171.431 415.42C168.431 415.05 167.041 414.73 163.281 414.34C160.961 414.09 154.281 413.64 151.101 413.34C147.921 413.04 148.101 409.83 149.431 409.68C155.521 409.02 159.921 407.68 162.101 406.21C162.485 405.938 162.952 405.811 163.421 405.85Z" fill="#263238"/>
<g opacity="0.2">
<path d="M164.45 389.029L164.25 398.199L171.87 398.989L172.06 389.829L164.45 389.029Z" fill="black"/>
<path d="M225.83 367.43L219.01 370.9L224.29 378.46L231.11 374.99L225.83 367.43Z" fill="black"/>
</g>
<path d="M168.092 235.43C168.092 235.43 160.202 294.16 160.002 317.5C159.762 341.78 162.842 396.28 162.842 396.28L173.132 397.35C173.132 397.35 177.312 343.75 178.972 319.96C180.792 294.01 190.872 236.16 190.872 236.16L168.092 235.43Z" fill="#263238"/>
<path d="M173.951 397.8L161.871 396.54L161.391 392.6L174.961 393.54L173.951 397.8Z" fill="#C32C7B"/>
<path opacity="0.6" d="M181 250.5C172.88 265.61 178.1 293.8 180.47 304.3C182.34 288.7 185.28 269.65 187.54 255.67C186.66 247.69 184.77 243.55 181 250.5Z" fill="black"/>
<path d="M176.291 235.69C176.291 235.69 181.401 297.16 186.091 316.99C191.661 340.54 221.841 377.72 221.841 377.72L231.141 372.99C231.141 372.99 210.691 331.67 206.261 319.21C196.791 292.64 206.841 253.8 199.151 236.41L176.291 235.69Z" fill="#263238"/>
<path d="M232.462 372.93L220.922 378.8L217.852 375.8L231.112 368.28L232.462 372.93Z" fill="#C32C7B"/>
<path d="M225.141 387.76H225.051C224.875 387.738 224.709 387.67 224.568 387.563C224.428 387.456 224.318 387.314 224.251 387.15C224.195 387.056 224.166 386.949 224.166 386.84C224.166 386.731 224.195 386.624 224.251 386.53C224.741 385.68 227.501 385.53 227.811 385.53C227.847 385.529 227.882 385.54 227.913 385.559C227.943 385.579 227.967 385.607 227.981 385.64C228.003 385.667 228.015 385.701 228.015 385.735C228.015 385.77 228.003 385.804 227.981 385.83C227.311 386.58 226.101 387.79 225.141 387.76ZM227.391 385.92C226.291 386 224.821 386.26 224.561 386.7C224.536 386.743 224.523 386.791 224.523 386.84C224.523 386.889 224.536 386.938 224.561 386.98C224.605 387.089 224.678 387.184 224.771 387.256C224.864 387.328 224.974 387.375 225.091 387.39C225.611 387.5 226.461 386.91 227.391 385.92Z" fill="#C32C7B"/>
<path d="M227.562 385.9C226.612 385.9 224.882 385.37 224.562 384.64C224.503 384.509 224.492 384.361 224.53 384.222C224.569 384.084 224.654 383.963 224.772 383.88C224.871 383.784 224.991 383.711 225.123 383.668C225.255 383.625 225.394 383.612 225.532 383.63C226.642 383.75 227.922 385.53 227.982 385.63C227.996 385.658 228.004 385.689 228.004 385.72C228.004 385.751 227.996 385.782 227.982 385.81C227.968 385.838 227.946 385.863 227.92 385.88C227.894 385.898 227.863 385.908 227.832 385.91C227.741 385.916 227.651 385.913 227.562 385.9ZM225.432 383.99C225.353 383.984 225.275 383.994 225.201 384.019C225.127 384.045 225.059 384.086 225.002 384.14C224.832 384.3 224.852 384.41 224.882 384.49C225.102 384.98 226.532 385.49 227.462 385.54C227.002 384.97 226.142 384.06 225.462 383.99H225.432Z" fill="#C32C7B"/>
<path d="M160.43 406.88C159.772 406.872 159.137 406.639 158.63 406.22C158.518 406.099 158.438 405.953 158.396 405.795C158.354 405.636 158.352 405.469 158.39 405.31C158.408 405.21 158.45 405.117 158.513 405.039C158.575 404.96 158.657 404.898 158.75 404.86C159.75 404.45 162.61 406.31 162.93 406.53C162.962 406.548 162.988 406.577 163.002 406.611C163.017 406.645 163.019 406.684 163.01 406.72C163.002 406.757 162.982 406.791 162.953 406.816C162.924 406.841 162.888 406.856 162.85 406.86C162.046 406.942 161.236 406.949 160.43 406.88ZM159.23 405.16C159.118 405.138 159.002 405.138 158.89 405.16C158.852 405.177 158.82 405.203 158.795 405.236C158.771 405.27 158.755 405.309 158.75 405.35C158.722 405.453 158.721 405.561 158.748 405.664C158.774 405.768 158.826 405.862 158.9 405.94C159.32 406.41 160.56 406.61 162.28 406.51C161.345 405.894 160.314 405.438 159.23 405.16Z" fill="#C32C7B"/>
<path d="M162.811 406.86C162.811 406.86 162.761 406.86 162.741 406.86C161.881 406.36 160.251 404.53 160.481 403.68C160.541 403.48 160.711 403.24 161.211 403.24C161.398 403.235 161.583 403.271 161.756 403.343C161.928 403.415 162.083 403.523 162.211 403.66C163.081 404.56 163.051 406.66 163.041 406.71C163.042 406.741 163.034 406.771 163.018 406.798C163.002 406.825 162.979 406.846 162.951 406.86C162.906 406.876 162.856 406.876 162.811 406.86ZM161.321 403.58H161.211C160.881 403.58 160.851 403.7 160.831 403.75C160.701 404.26 161.781 405.67 162.651 406.33C162.663 405.458 162.408 404.603 161.921 403.88C161.761 403.714 161.55 403.608 161.321 403.58Z" fill="#C32C7B"/>
<path d="M164.81 204.21C161.978 207.993 158.805 211.508 155.33 214.71C153.492 216.435 151.482 217.966 149.33 219.28C148.063 220.057 146.697 220.663 145.27 221.08C144.367 221.341 143.431 221.469 142.49 221.46C141.929 221.454 141.369 221.39 140.82 221.27C140.54 221.2 140.24 221.11 139.96 221.01C139.632 220.895 139.314 220.751 139.01 220.58C138.303 220.198 137.686 219.67 137.2 219.03C136.828 218.557 136.522 218.036 136.29 217.48C135.948 216.675 135.716 215.827 135.6 214.96C135.425 213.618 135.374 212.262 135.45 210.91C135.617 208.52 135.951 206.144 136.45 203.8C137.366 199.28 138.616 194.835 140.19 190.5L144.33 191.57C143.74 195.92 143.19 200.36 142.86 204.66C142.679 206.745 142.626 208.839 142.7 210.93C142.72 211.822 142.83 212.71 143.03 213.58C143.079 213.821 143.163 214.054 143.28 214.27C143.34 214.37 143.28 214.06 142.7 213.69C142.49 213.59 142.56 213.6 142.51 213.59C142.684 213.55 142.855 213.497 143.02 213.43C143.725 213.142 144.396 212.777 145.02 212.34C146.623 211.196 148.131 209.925 149.53 208.54C151.02 207.09 152.45 205.54 153.86 203.91C155.27 202.28 156.68 200.62 157.97 199.03L164.81 204.21Z" fill="#B55B52"/>
<path d="M163.141 193.2C160.011 192.34 150.721 204.2 150.721 204.2L159.601 214.11C159.601 214.11 170.011 204.71 169.601 200.5C169.211 196.1 167.721 194.5 163.141 193.2Z" fill="#C32C7B"/>
<path d="M144.44 190.5L144.09 184.27L138.09 189.21C138.09 189.21 139 194.04 142.03 195L143.9 192.37C144.283 191.824 144.473 191.166 144.44 190.5Z" fill="#B55B52"/>
<path d="M140.181 179.13L135.381 183.55L138.081 189.19L144.091 184.25L140.181 179.13Z" fill="#B55B52"/>
<path d="M137.74 191.18L136.35 190.68C135.975 190.539 135.661 190.27 135.464 189.921C135.266 189.572 135.198 189.164 135.27 188.77L137.38 177.55L141.17 178.93L140 189.77C139.975 190.026 139.892 190.273 139.756 190.492C139.62 190.711 139.436 190.895 139.218 191.031C138.999 191.168 138.752 191.252 138.496 191.278C138.24 191.303 137.982 191.27 137.74 191.18Z" fill="#263238"/>
<path d="M147.73 176.93C147.97 176.28 148.2 175.64 148.41 175C147.556 173.623 146.413 172.45 145.06 171.56C144.56 172.79 144.06 174.08 143.57 175.41C143.08 176.74 142.64 178.05 142.24 179.32C143.85 179.506 145.48 179.342 147.02 178.84C147.26 178.21 147.5 177.58 147.73 176.93Z" fill="#263238"/>
<path d="M145.222 176.02C145.813 174.462 146.238 172.847 146.492 171.2L134.062 166.67L130.682 175.96L143.122 180.5C143.975 179.083 144.679 177.582 145.222 176.02Z" fill="#C32C7B"/>
<path opacity="0.6" d="M145.222 176.02C145.813 174.462 146.238 172.847 146.492 171.2L134.062 166.67L130.682 175.96L143.122 180.5C143.975 179.083 144.679 177.582 145.222 176.02Z" fill="white"/>
<path d="M137.291 166.98C136.731 166.77 123.291 152.98 121.791 152.39C120.291 151.8 116.661 157.28 113.981 164.64C111.301 172 110.461 178.44 112.091 179.04C113.721 179.64 132.771 177.63 133.341 177.83C133.911 178.03 135.431 175.83 136.521 172.83C137.611 169.83 138.001 167.22 137.291 166.98Z" fill="#C32C7B"/>
<path opacity="0.4" d="M137.291 166.98C136.731 166.77 123.291 152.98 121.791 152.39C120.291 151.8 116.661 157.28 113.981 164.64C111.301 172 110.461 178.44 112.091 179.04C113.721 179.64 132.771 177.63 133.341 177.83C133.911 178.03 135.431 175.83 136.521 172.83C137.611 169.83 138.001 167.22 137.291 166.98Z" fill="white"/>
<path d="M119.901 166.79C117.221 174.15 113.721 179.63 112.091 179.04C110.461 178.45 111.301 172.04 113.981 164.64C116.661 157.24 120.161 151.8 121.791 152.39C123.421 152.98 122.581 159.44 119.901 166.79Z" fill="#C32C7B"/>
<path d="M116 165.35C115.82 165.84 115.65 166.35 115.49 166.8C116.413 167.957 117.542 168.933 118.82 169.68C119.2 168.76 119.58 167.79 119.95 166.79C120.32 165.79 120.64 164.79 120.95 163.85C119.492 163.602 118 163.625 116.55 163.92C116.3 164.39 116.12 164.87 116 165.35Z" fill="#263238"/>
<path opacity="0.7" d="M116 165.35C115.82 165.84 115.65 166.35 115.49 166.8C116.413 167.957 117.542 168.933 118.82 169.68C119.2 168.76 119.58 167.79 119.95 166.79C120.32 165.79 120.64 164.79 120.95 163.85C119.492 163.602 118 163.625 116.55 163.92C116.3 164.39 116.12 164.87 116 165.35Z" fill="white"/>
<path opacity="0.2" d="M160.52 200.17C160.98 206.82 159.43 210.78 158.33 212.69L159.6 214.1C159.6 214.1 165.47 208.8 168.23 204.38C165.13 199.78 160 193.18 160.52 200.17Z" fill="black"/>
<path d="M195.482 162.35C199.651 162.35 203.032 158.97 203.032 154.8C203.032 150.63 199.651 147.25 195.482 147.25C191.312 147.25 187.932 150.63 187.932 154.8C187.932 158.97 191.312 162.35 195.482 162.35Z" fill="#263238"/>
<path d="M194.67 158.24C194.672 159.18 194.395 160.099 193.874 160.882C193.354 161.664 192.612 162.274 191.745 162.636C190.877 162.997 189.921 163.092 188.999 162.91C188.077 162.728 187.23 162.276 186.565 161.612C185.899 160.948 185.446 160.102 185.262 159.18C185.078 158.259 185.171 157.303 185.531 156.435C185.89 155.566 186.499 154.824 187.28 154.301C188.061 153.779 188.98 153.5 189.92 153.5C191.178 153.5 192.385 153.999 193.275 154.888C194.166 155.776 194.667 156.982 194.67 158.24Z" fill="#C32C7B"/>
<path d="M174.84 152.35C174.84 152.35 164.84 151.53 164.84 168.73C164.84 180.51 170.56 185.96 177.57 182C177.57 182 193.03 180.73 194.81 166.58C196.59 152.43 185.65 147.16 174.84 152.35Z" fill="#263238"/>
<path d="M161.1 193.66C161.1 193.66 157.55 195.2 168.1 239.45L199.1 237.2C197.66 224.62 197.1 216.85 201.23 190.52C196.824 189.94 192.383 189.679 187.94 189.74C183.229 189.74 178.524 190.074 173.86 190.74C167.85 191.76 161.1 193.66 161.1 193.66Z" fill="#C32C7B"/>
<path d="M185.381 173.99C184.821 178.59 184.541 186.99 187.931 189.74C187.931 189.74 187.031 194.42 178.611 195.04C169.361 195.71 173.851 190.76 173.851 190.76C178.851 189.19 178.411 185.45 177.281 182L185.381 173.99Z" fill="#B55B52"/>
<path opacity="0.2" d="M182.081 177.26L177.281 182C177.558 182.8 177.765 183.624 177.901 184.46C179.811 184.04 182.301 181.73 182.361 179.7C182.418 178.876 182.323 178.049 182.081 177.26Z" fill="black"/>
<path d="M190.561 166.35C188.831 173.74 188.251 176.91 183.821 180.1C177.161 184.9 168.461 181.15 167.951 173.39C167.491 166.39 170.401 155.49 178.231 153.76C179.953 153.373 181.746 153.432 183.439 153.933C185.132 154.433 186.669 155.358 187.904 156.619C189.14 157.88 190.032 159.436 190.497 161.139C190.962 162.842 190.984 164.636 190.561 166.35Z" fill="#B55B52"/>
<path d="M177.81 166.3C177.71 166.91 177.3 167.3 176.91 167.3C176.52 167.3 176.27 166.68 176.37 166.07C176.47 165.46 176.89 165.07 177.28 165.07C177.67 165.07 177.92 165.69 177.81 166.3Z" fill="#263238"/>
<path d="M170.941 165.13C170.831 165.73 170.431 166.13 170.031 166.13C169.631 166.13 169.391 165.52 169.501 164.91C169.611 164.3 170.011 163.91 170.411 163.91C170.811 163.91 171.001 164.5 170.941 165.13Z" fill="#263238"/>
<path d="M170.581 163.97L169.191 163.29C169.191 163.29 169.741 164.56 170.581 163.97Z" fill="#263238"/>
<path d="M173.361 166.58C172.584 167.878 171.631 169.062 170.531 170.1C170.805 170.373 171.134 170.583 171.497 170.716C171.859 170.849 172.246 170.901 172.631 170.87L173.361 166.58Z" fill="#A02724"/>
<path d="M191.421 173.55C190.674 174.816 189.461 175.739 188.041 176.12C186.161 176.6 185.261 174.9 185.821 173.12C186.321 171.54 187.911 169.39 189.821 169.68C190.23 169.757 190.613 169.934 190.935 170.197C191.258 170.459 191.51 170.797 191.669 171.182C191.828 171.566 191.888 171.984 191.845 172.397C191.802 172.811 191.656 173.207 191.421 173.55Z" fill="#B55B52"/>
<path d="M180.811 165.37C180.734 165.369 180.659 165.343 180.598 165.296C180.537 165.249 180.492 165.184 180.471 165.11C179.981 163.51 177.931 162.83 177.911 162.82C177.865 162.805 177.824 162.781 177.788 162.75C177.751 162.718 177.722 162.68 177.701 162.638C177.679 162.595 177.666 162.548 177.663 162.501C177.66 162.453 177.666 162.405 177.681 162.36C177.696 162.315 177.72 162.273 177.751 162.237C177.782 162.201 177.82 162.171 177.863 162.15C177.906 162.128 177.952 162.116 178 162.112C178.048 162.109 178.095 162.115 178.141 162.13C178.808 162.355 179.419 162.717 179.936 163.195C180.453 163.672 180.864 164.253 181.141 164.9C181.155 164.945 181.159 164.993 181.155 165.04C181.15 165.087 181.137 165.133 181.114 165.175C181.092 165.217 181.062 165.254 181.025 165.284C180.988 165.314 180.946 165.336 180.901 165.35C180.872 165.362 180.842 165.369 180.811 165.37Z" fill="#263238"/>
<path d="M169.41 161.6C169.333 161.594 169.26 161.563 169.201 161.513C169.142 161.463 169.1 161.396 169.081 161.321C169.063 161.246 169.068 161.167 169.096 161.095C169.125 161.023 169.175 160.962 169.24 160.92C169.732 160.621 170.289 160.446 170.863 160.407C171.438 160.369 172.013 160.469 172.54 160.7C172.583 160.722 172.621 160.752 172.652 160.788C172.683 160.824 172.707 160.866 172.722 160.912C172.737 160.957 172.742 161.005 172.739 161.053C172.735 161.101 172.722 161.147 172.7 161.19C172.679 161.233 172.649 161.271 172.612 161.302C172.576 161.333 172.534 161.357 172.488 161.371C172.443 161.386 172.395 161.392 172.347 161.388C172.299 161.385 172.253 161.372 172.21 161.35C171.791 161.171 171.335 161.095 170.881 161.13C170.426 161.165 169.987 161.309 169.6 161.55C169.542 161.582 169.477 161.599 169.41 161.6Z" fill="#263238"/>
<path d="M177.451 165.14L176.061 164.47C176.061 164.47 176.621 165.74 177.451 165.14Z" fill="#263238"/>
<path d="M173.23 172.76C175.774 172.231 178.363 171.95 180.96 171.92C180.37 173.67 179.19 175.13 176.26 175.24C175.896 175.29 175.526 175.265 175.172 175.165C174.818 175.066 174.489 174.894 174.204 174.661C173.92 174.428 173.687 174.139 173.519 173.812C173.351 173.485 173.253 173.127 173.23 172.76Z" fill="#263238"/>
<path d="M177.55 173.83C176.424 173.821 175.324 174.171 174.41 174.83C174.967 175.162 175.614 175.313 176.26 175.26C177.386 175.268 178.486 174.918 179.4 174.26C178.846 173.92 178.197 173.769 177.55 173.83Z" fill="#A02724"/>
<path d="M173.49 172.7C173.558 172.908 173.682 173.093 173.847 173.236C174.013 173.378 174.215 173.473 174.43 173.51C176.113 173.42 177.785 173.193 179.43 172.83C179.697 172.797 179.952 172.697 180.171 172.54C180.389 172.383 180.564 172.173 180.68 171.93C178.267 171.999 175.863 172.257 173.49 172.7Z" fill="white"/>
<path d="M169.24 160.92C171.516 159.956 173.497 158.407 174.98 156.43C174.98 156.43 174.98 161.75 177.15 161.34C179.32 160.93 176.06 156.42 176.06 156.42C176.06 156.42 181.06 158.64 182.77 162.98C184.48 167.32 186.43 172.06 190.28 170.88C194.13 169.7 193.28 157.4 187.61 154.33L179.61 152.89L177.25 153.24C176.025 153.414 174.85 153.843 173.8 154.5C172.218 155.47 170.975 156.905 170.24 158.61L169.24 160.92Z" fill="#263238"/>
<path d="M187.91 161.56C187.54 160.78 185.77 160.85 183.91 161.71C182.05 162.57 182.02 163.38 182.39 164.16C182.76 164.94 183.39 165.39 185.25 164.53C187.11 163.67 188.28 162.34 187.91 161.56ZM183.62 163.56C183.36 163 183.41 162.43 184.71 161.81C186.01 161.19 187.28 161.15 187.54 161.71C187.8 162.27 186.97 163.22 185.67 163.83C184.37 164.44 183.89 164.15 183.62 163.59V163.56Z" fill="#C32C7B"/>
<path opacity="0.2" d="M197.801 200.78L195.451 198.78L193.711 199.57C193.107 205.726 194.674 211.898 198.141 217.02C198.291 213.69 198.601 209.94 199.141 205.46C198.401 202.76 197.801 200.78 197.801 200.78Z" fill="black"/>
<path d="M229.48 225.15L228.21 225.28L227.61 219.55C227.429 217.644 227.976 215.74 229.141 214.221C230.306 212.701 232.003 211.679 233.89 211.36C234.803 211.206 235.737 211.241 236.635 211.464C237.534 211.687 238.376 212.093 239.111 212.656C239.845 213.219 240.456 213.927 240.905 214.736C241.354 215.545 241.631 216.438 241.72 217.36L242.33 223.09L241.06 223.23L240.46 217.49C240.387 216.739 240.161 216.011 239.796 215.351C239.432 214.69 238.936 214.112 238.34 213.65C237.743 213.19 237.057 212.859 236.326 212.676C235.594 212.494 234.833 212.464 234.09 212.59C232.523 212.855 231.115 213.704 230.149 214.966C229.182 216.227 228.729 217.808 228.88 219.39L229.48 225.15Z" fill="#263238"/>
<path d="M205.911 199.5C206.091 200.36 206.331 201.42 206.561 202.39C206.791 203.36 207.061 204.39 207.341 205.39C207.901 207.39 208.491 209.32 209.201 211.21C210.479 214.891 212.296 218.362 214.591 221.51L214.801 221.78L214.901 221.92L214.781 221.8C214.621 221.66 214.434 221.555 214.231 221.49C213.931 221.41 213.941 221.49 214.141 221.49C214.85 221.453 215.549 221.304 216.211 221.05C218.062 220.374 219.855 219.548 221.571 218.58C225.201 216.58 228.871 214.3 232.421 211.99L235.191 215.25C232.077 218.487 228.692 221.451 225.071 224.11C223.152 225.527 221.103 226.759 218.951 227.79C217.626 228.426 216.209 228.851 214.751 229.05C213.635 229.187 212.502 229.064 211.441 228.69C210.734 228.427 210.083 228.034 209.521 227.53C209.381 227.4 209.231 227.26 209.111 227.13L208.951 226.96L208.631 226.61C206.985 224.79 205.543 222.794 204.331 220.66C203.15 218.621 202.117 216.498 201.241 214.31C200.381 212.147 199.634 209.94 199.001 207.7C198.691 206.6 198.401 205.49 198.141 204.37C197.881 203.25 197.641 202.16 197.441 200.88L205.911 199.5Z" fill="#B55B52"/>
<path d="M201.22 190.5C204.39 191.22 209.94 202.68 209.94 202.68L197.48 211.13C197.48 211.13 192.48 202.52 193.48 198.41C194.5 194.15 197.6 189.7 201.22 190.5Z" fill="#C32C7B"/>
<path d="M231.901 211.94L239.141 207.94L237.621 215.57C237.621 215.57 232.941 217.06 230.621 214.84L231.901 211.94Z" fill="#B55B52"/>
<path d="M245.491 208.97L243.871 215.3L237.621 215.58L239.141 207.95L245.491 208.97Z" fill="#B55B52"/>
<path d="M248.531 222.13L247.331 216.49C246.987 214.94 246.069 213.577 244.761 212.675C243.453 211.774 241.853 211.401 240.281 211.63C239.534 211.74 238.818 212.003 238.177 212.402C237.537 212.801 236.985 213.329 236.558 213.951C236.131 214.574 235.837 215.278 235.695 216.02C235.552 216.761 235.565 217.524 235.731 218.26L236.931 223.9L235.691 224.17L234.491 218.53C234.287 217.625 234.272 216.688 234.447 215.777C234.622 214.866 234.983 214.001 235.508 213.236C236.033 212.471 236.71 211.822 237.497 211.331C238.284 210.839 239.163 210.516 240.081 210.38C241.975 210.102 243.904 210.551 245.48 211.636C247.057 212.721 248.165 214.362 248.581 216.23L249.781 221.87L248.531 222.13Z" fill="#263238"/>
<g opacity="0.3">
<path d="M248.531 222.13L247.331 216.49C246.987 214.94 246.069 213.577 244.761 212.675C243.453 211.774 241.853 211.401 240.281 211.63C239.534 211.74 238.818 212.003 238.177 212.402C237.537 212.801 236.985 213.329 236.558 213.951C236.131 214.574 235.837 215.278 235.695 216.02C235.552 216.761 235.565 217.524 235.731 218.26L236.931 223.9L235.691 224.17L234.491 218.53C234.287 217.625 234.272 216.688 234.447 215.777C234.622 214.866 234.983 214.001 235.508 213.236C236.033 212.471 236.71 211.822 237.497 211.331C238.284 210.839 239.163 210.516 240.081 210.38C241.975 210.102 243.904 210.551 245.48 211.636C247.057 212.721 248.165 214.362 248.581 216.23L249.781 221.87L248.531 222.13Z" fill="white"/>
</g>
<path d="M255.99 218.36L218.9 224.23L224.61 268.43L229.91 266.3L235.61 266.69L264.21 262.16L255.99 218.36Z" fill="#C32C7B"/>
<path opacity="0.6" d="M255.99 218.36L218.9 224.23L224.61 268.43L229.91 266.3L235.61 266.69L264.21 262.16L255.99 218.36Z" fill="white"/>
<path d="M235.61 266.69L229.91 266.3L224.61 268.43L218.9 224.23L227.38 222.89L235.61 266.69Z" fill="#C32C7B"/>
<path opacity="0.3" d="M235.61 266.69L229.91 266.3L224.61 268.43L218.9 224.23L227.38 222.89L235.61 266.69Z" fill="white"/>
<path d="M252.346 237.399L237.007 239.828C236.183 239.959 235.621 240.732 235.752 241.556L235.774 241.694C235.904 242.518 236.678 243.08 237.501 242.949L252.84 240.52C253.664 240.389 254.226 239.616 254.095 238.792L254.073 238.654C253.943 237.83 253.17 237.268 252.346 237.399Z" fill="white"/>
</svg>
