<svg width="70" height="70" viewBox="0 0 70 70" fill="none" xmlns="http://www.w3.org/2000/svg">
<path d="M15.8369 55.6247H21.5068C22.3141 55.6247 22.9687 54.97 22.9687 54.1628V41.3476C22.9687 40.5403 22.314 39.8857 21.5068 39.8857H15.8369C15.0295 39.8857 14.375 40.5404 14.375 41.3476V54.1628C14.375 54.97 15.0296 55.6247 15.8369 55.6247Z" fill="#3A3A3A"/>
<path d="M28.7275 55.6247H34.3974C35.2048 55.6247 35.8593 54.97 35.8593 54.1628V32.7539C35.8593 31.9465 35.2047 31.292 34.3974 31.292H28.7275C27.9201 31.292 27.2656 31.9466 27.2656 32.7539V54.1628C27.2656 54.97 27.9203 55.6247 28.7275 55.6247Z" fill="#3A3A3A"/>
<path d="M41.6182 55.6247H47.288C48.0954 55.6247 48.7499 54.97 48.7499 54.1628V22.4414C48.7499 21.634 48.0953 20.9795 47.288 20.9795H41.6182C40.8108 20.9795 40.1562 21.6341 40.1562 22.4414V54.1628C40.1562 54.97 40.8109 55.6247 41.6182 55.6247Z" fill="#3A3A3A"/>
<path d="M54.5088 55.6247H60.1786C60.986 55.6247 61.6405 54.97 61.6405 54.1628V12.1289C61.6405 11.3215 60.9859 10.667 60.1786 10.667H54.5088C53.7014 10.667 53.0469 11.3216 53.0469 12.1289V54.1628C53.0469 54.97 53.7015 55.6247 54.5088 55.6247Z" fill="#3A3A3A"/>
<path d="M61.0382 59.2773H12.3994C11.5921 59.2773 10.9375 58.6227 10.9375 57.8154V8.9619C10.9375 8.15463 10.2829 7.5 9.4756 7.5H8.96201C8.15463 7.5 7.5 8.15463 7.5 8.9619V61.038C7.5 61.8454 8.15463 62.5 8.96191 62.5H61.0381C61.8455 62.5 62.5 61.8454 62.5 61.0381V60.7394C62.5001 59.932 61.8455 59.2773 61.0382 59.2773Z" fill="#C32C7B"/>
</svg>
