<svg width="70" height="70" viewBox="0 0 70 70" fill="none" xmlns="http://www.w3.org/2000/svg">
<path d="M68.841 11.9609H56.1403C55.5002 11.9609 54.9815 12.4798 54.9815 13.1198C54.9815 13.7597 55.5002 14.2786 56.1403 14.2786H61.8376C62.3304 17.2664 64.6944 19.6303 67.6822 20.1232V33.6532C64.6944 34.146 62.3304 36.51 61.8376 39.4978H19.513C19.0203 36.51 16.6563 34.1461 13.6684 33.6532V20.1232C16.6563 19.6304 19.0201 17.2664 19.513 14.2786H52.1567C52.7968 14.2786 53.3156 13.7597 53.3156 13.1198C53.3156 12.4798 52.7968 11.9609 52.1567 11.9609H12.5095C11.8695 11.9609 11.3506 12.4798 11.3506 13.1198V40.6565C11.3506 41.2965 11.8695 41.8153 12.5095 41.8153H44.4986V45.2146H2.31765V32.4966C2.31765 31.2503 3.33169 30.2362 4.57802 30.2362H8.64635C9.28633 30.2362 9.80518 29.7174 9.80518 29.0774C9.80518 28.4374 9.28633 27.9186 8.64635 27.9186H4.57788C2.05379 27.9189 0 29.9724 0 32.4967V53.461C0 55.9852 2.05379 58.0389 4.57788 58.0389H42.2384C44.7627 58.0389 46.8162 55.9852 46.8162 53.461V41.8155H68.841C69.4811 41.8155 69.9999 41.2966 69.9999 40.6566V13.1198C69.9999 12.4798 69.4811 11.9609 68.841 11.9609ZM13.6683 14.2786H17.1486C16.722 15.9859 15.3756 17.3323 13.6683 17.7589V14.2786ZM13.6683 39.4977V36.0174C15.3756 36.4439 16.722 37.7903 17.1486 39.4977H13.6683ZM44.4986 49.6954H11.4507C10.8107 49.6954 10.2919 50.2142 10.2919 50.8542C10.2919 51.4942 10.8107 52.013 11.4507 52.013H44.4987V53.4609C44.4987 54.7073 43.4848 55.7212 42.2386 55.7212H4.57788C3.33156 55.7212 2.31751 54.7072 2.31751 53.4609V52.013H7.1244C7.76438 52.013 8.28323 51.4942 8.28323 50.8542C8.28323 50.2142 7.76438 49.6954 7.1244 49.6954H2.31765V47.5322H44.4986V49.6954ZM67.6822 39.4977H64.2019C64.6285 37.7903 65.9749 36.4439 67.6822 36.0174V39.4977ZM67.6822 17.7589C65.9749 17.3323 64.6285 15.9859 64.2019 14.2786H67.6822V17.7589Z" fill="#3A3A3A"/>
<path d="M40.6761 16.2939C35.9137 16.2939 32.0391 21.0466 32.0391 26.888C32.0391 32.7296 35.9137 37.482 40.6761 37.482C45.4386 37.482 49.3132 32.7294 49.3132 26.888C49.3132 21.0464 45.4386 16.2939 40.6761 16.2939ZM40.6763 35.1644C37.1917 35.1644 34.3568 31.4515 34.3568 26.888C34.3568 22.3245 37.1918 18.6116 40.6763 18.6116C44.1608 18.6116 46.9957 22.3245 46.9957 26.888C46.9957 31.4515 44.1608 35.1644 40.6763 35.1644Z" fill="#C32C7B"/>
<path d="M64.3688 24.2617H52.9069C52.2668 24.2617 51.748 24.7806 51.748 25.4205C51.748 26.0605 52.2668 26.5794 52.9069 26.5794H64.3688C65.0089 26.5794 65.5276 26.0605 65.5276 25.4205C65.5276 24.7806 65.0089 24.2617 64.3688 24.2617Z" fill="#3A3A3A"/>
<path d="M27.8846 24.2617H16.4225C15.7825 24.2617 15.2637 24.7806 15.2637 25.4205C15.2637 26.0605 15.7825 26.5794 16.4225 26.5794H27.8846C28.5245 26.5794 29.0434 26.0605 29.0434 25.4205C29.0434 24.7806 28.5245 24.2617 27.8846 24.2617Z" fill="#3A3A3A"/>
<path d="M64.3688 28.2109H58.0787C57.4386 28.2109 56.9199 28.7298 56.9199 29.3698C56.9199 30.0097 57.4386 30.5286 58.0787 30.5286H64.3688C65.0089 30.5286 65.5276 30.0097 65.5276 29.3698C65.5276 28.7298 65.0089 28.2109 64.3688 28.2109Z" fill="#3A3A3A"/>
<path d="M22.7125 28.2109H16.4225C15.7825 28.2109 15.2637 28.7298 15.2637 29.3698C15.2637 30.0097 15.7825 30.5286 16.4225 30.5286H22.7125C23.3525 30.5286 23.8713 30.0097 23.8713 29.3698C23.8713 28.7298 23.3525 28.2109 22.7125 28.2109Z" fill="#3A3A3A"/>
<path d="M44.0298 25.7296H38.4778V23.9779H44.0298C44.6699 23.9779 45.1886 23.4591 45.1886 22.8191C45.1886 22.1791 44.6699 21.6603 44.0298 21.6603H41.8333V20.4938C41.8333 19.8538 41.3146 19.335 40.6745 19.335C40.0343 19.335 39.5156 19.8538 39.5156 20.4938V21.6603H37.319C36.6789 21.6603 36.1602 22.1791 36.1602 22.8191V26.8884C36.1602 27.5284 36.6789 28.0472 37.319 28.0472H42.871V29.7988H37.319C36.6789 29.7988 36.1602 30.3177 36.1602 30.9577C36.1602 31.5977 36.6789 32.1165 37.319 32.1165H39.5156V33.283C39.5156 33.923 40.0343 34.4418 40.6745 34.4418C41.3146 34.4418 41.8333 33.923 41.8333 33.283V32.1165H44.0298C44.6699 32.1165 45.1886 31.5977 45.1886 30.9577V26.8884C45.1886 26.2484 44.6699 25.7296 44.0298 25.7296Z" fill="#C32C7B"/>
</svg>
