<svg width="70" height="70" viewBox="0 0 70 70" fill="none" xmlns="http://www.w3.org/2000/svg">
<g clip-path="url(#clip0_4839_19238)">
<path d="M6.38243 37.7825C4.30828 37.7825 2.29724 37.1144 0.988107 36.4429L0 40.4639C1.21228 41.1343 3.63902 41.772 6.09623 41.772C12.0009 41.772 14.777 38.7086 14.777 35.1023C14.777 32.0705 12.989 30.0921 9.19223 28.6872C6.41508 27.6327 5.2028 27.0276 5.2028 25.6554C5.2028 24.5378 6.22355 23.5801 8.33035 23.5801C10.4372 23.5801 11.9694 24.1874 12.8302 24.602L13.9162 20.6768C12.6386 20.1022 10.8518 19.5918 8.42612 19.5918C3.35173 19.5918 0.287291 22.3994 0.287291 26.07C0.287291 29.1975 2.61718 31.1759 6.19199 32.4209C8.77653 33.3469 9.79837 34.1131 9.79837 35.4516C9.79837 36.8576 8.61656 37.7825 6.38243 37.7825Z" fill="#3A3A3A"/>
<path d="M31.788 37.4639H22.9484V32.3579H30.862V28.4001H22.9484V23.9318H31.3419V19.9424H18.0645V41.4533H31.788V37.4639Z" fill="#3A3A3A"/>
<path d="M48.2365 43.0856C51.2563 43.0856 54.0236 41.9984 56.1783 40.1985L60.4627 44.1967C60.4561 44.6428 60.6183 45.0846 60.9687 45.4122L67.2554 51.2821C67.5699 51.5759 67.9681 51.7206 68.3675 51.7206C68.8039 51.7206 69.2403 51.5465 69.5613 51.2005C70.1761 50.5432 70.1402 49.5072 69.4829 48.8934L63.1963 43.0246C62.8459 42.6971 62.391 42.5676 61.9492 42.6035L57.7214 38.6587C59.5398 36.5007 60.6422 33.7171 60.6422 30.6798C60.6422 23.8403 55.0792 18.2773 48.2397 18.2773C41.4002 18.2773 35.834 23.8425 35.834 30.6809C35.8329 37.5226 41.397 43.0856 48.2365 43.0856ZM48.2365 21.5431C53.276 21.5431 57.3754 25.6424 57.3754 30.6809C57.3754 35.7194 53.2739 39.8198 48.2365 39.8198C43.1991 39.8198 39.0976 35.7194 39.0976 30.6809C39.0976 25.6424 43.1969 21.5431 48.2365 21.5431Z" fill="#C32C7B"/>
</g>
<defs>
<clipPath id="clip0_4839_19238">
<rect width="70" height="70" fill="white"/>
</clipPath>
</defs>
</svg>
