<svg width="1439" height="478" viewBox="0 0 1439 478" fill="none" xmlns="http://www.w3.org/2000/svg">
<path d="M1440 476.19H743.406C727.575 476.19 712.7 470.017 701.515 458.822C690.33 447.626 684.163 432.736 684.163 416.891C684.163 384.195 710.741 357.591 743.406 357.591H920.035C952.699 357.591 979.278 330.988 979.278 298.292C979.278 282.446 973.111 267.557 961.926 256.361C950.741 245.165 935.865 238.992 920.035 238.992H506.32C490.489 238.992 475.613 232.819 464.428 221.624C453.244 210.428 447.076 195.538 447.076 179.693C447.076 146.997 473.655 120.393 506.32 120.393H682.948M0.5 1.81055H682.932C698.763 1.81055 713.638 7.98353 724.823 19.1791C736.008 30.3748 742.176 45.2644 742.176 61.11C742.176 93.8058 715.597 120.41 682.932 120.41" stroke="url(#paint0_linear_2384_11802)" stroke-width="2" stroke-miterlimit="10"/>
<defs>
<linearGradient id="paint0_linear_2384_11802" x1="720.25" y1="1.81055" x2="720.25" y2="476.19" gradientUnits="userSpaceOnUse">
<stop stop-color="#E76CAD"/>
<stop offset="1" stop-color="#C32C7B"/>
</linearGradient>
</defs>
</svg>
